<?xml version="1.0" encoding="UTF-8" standalone="no"?>
<!DOCTYPE svg PUBLIC "-//W3C//DTD SVG 1.1//EN"
 "http://www.w3.org/Graphics/SVG/1.1/DTD/svg11.dtd">
<!-- Generated by graphviz version 14.1.2 (20260124.0452)
 -->
<!-- Title: rdf_graph Pages: 1 -->
<svg width="5788pt" height="1878pt"
 viewBox="0.00 0.00 5788.00 1878.00" xmlns="http://www.w3.org/2000/svg" xmlns:xlink="http://www.w3.org/1999/xlink">
<g id="graph0" class="graph" transform="scale(1 1) rotate(0) translate(14.4 1863.98)">
<title>rdf_graph</title>
<polygon fill="white" stroke="none" points="-14.4,14.4 -14.4,-1863.98 5773.15,-1863.98 5773.15,14.4 -14.4,14.4"/>
<!-- n2494595837941030742 -->
<g id="node1" class="node">
<title>n2494595837941030742</title>
<path fill="#f7fafc" stroke="#334155" d="M374.5,-665.3C374.5,-665.3 12,-665.3 12,-665.3 6,-665.3 0,-659.3 0,-653.3 0,-653.3 0,-641.3 0,-641.3 0,-635.3 6,-629.3 12,-629.3 12,-629.3 374.5,-629.3 374.5,-629.3 380.5,-629.3 386.5,-635.3 386.5,-641.3 386.5,-641.3 386.5,-653.3 386.5,-653.3 386.5,-659.3 380.5,-665.3 374.5,-665.3"/>
<text xml:space="preserve" text-anchor="middle" x="193.25" y="-641.88" font-family="Helvetica,sans-Serif" font-size="14.00">jdd:draft&#45;generation&#45;ccdd1bbf&#45;4fe7&#45;521a&#45;87b1&#45;64e782a57132</text>
</g>
<!-- n8793560584400511256 -->
<g id="node2" class="node">
<title>n8793560584400511256</title>
<path fill="#f7fafc" stroke="#334155" d="M3645.25,-1152.3C3645.25,-1152.3 3386.25,-1152.3 3386.25,-1152.3 3380.25,-1152.3 3374.25,-1146.3 3374.25,-1140.3 3374.25,-1140.3 3374.25,-1128.3 3374.25,-1128.3 3374.25,-1122.3 3380.25,-1116.3 3386.25,-1116.3 3386.25,-1116.3 3645.25,-1116.3 3645.25,-1116.3 3651.25,-1116.3 3657.25,-1122.3 3657.25,-1128.3 3657.25,-1128.3 3657.25,-1140.3 3657.25,-1140.3 3657.25,-1146.3 3651.25,-1152.3 3645.25,-1152.3"/>
<text xml:space="preserve" text-anchor="middle" x="3515.75" y="-1128.88" font-family="Helvetica,sans-Serif" font-size="14.00">tres:261f3545&#45;cf32&#45;508f&#45;9fc6&#45;043a3bc53ad5</text>
</g>
<!-- n2494595837941030742&#45;&gt;n8793560584400511256 -->
<g id="edge1" class="edge">
<title>n2494595837941030742&#45;&gt;n8793560584400511256</title>
<path fill="none" stroke="#475569" d="M211.02,-665.72C246.47,-703.59 333.11,-790.7 422.5,-839.3 523.29,-894.11 849.62,-965.99 1000.25,-988.3 1460.3,-1056.44 2891.83,-1112.14 3362.82,-1129.03"/>
<polygon fill="#475569" stroke="#475569" points="3362.48,-1132.52 3372.6,-1129.38 3362.73,-1125.53 3362.48,-1132.52"/>
<text xml:space="preserve" text-anchor="middle" x="1738.38" y="-1058.45" font-family="Helvetica,sans-Serif" font-size="14.00">used</text>
</g>
<!-- n404045410628445966 -->
<g id="node3" class="node">
<title>n404045410628445966</title>
<path fill="#f7fafc" stroke="#334155" d="M1639,-1361.3C1639,-1361.3 1132.5,-1361.3 1132.5,-1361.3 1126.5,-1361.3 1120.5,-1355.3 1120.5,-1349.3 1120.5,-1349.3 1120.5,-1337.3 1120.5,-1337.3 1120.5,-1331.3 1126.5,-1325.3 1132.5,-1325.3 1132.5,-1325.3 1639,-1325.3 1639,-1325.3 1645,-1325.3 1651,-1331.3 1651,-1337.3 1651,-1337.3 1651,-1349.3 1651,-1349.3 1651,-1355.3 1645,-1361.3 1639,-1361.3"/>
<text xml:space="preserve" text-anchor="middle" x="1385.75" y="-1337.88" font-family="Helvetica,sans-Serif" font-size="14.00">Generated decision NEGAR_SEGUIMENTO for process 5021277&#45;41.2025.4.02.5101</text>
</g>
<!-- n2494595837941030742&#45;&gt;n404045410628445966 -->
<g id="edge10" class="edge">
<title>n2494595837941030742&#45;&gt;n404045410628445966</title>
<path fill="none" stroke="#475569" d="M194.09,-665.69C194.43,-753.26 208.62,-1130.27 422.5,-1290.3 692.51,-1492.32 1133.82,-1409.09 1309.32,-1364.54"/>
<polygon fill="#475569" stroke="#475569" points="1309.97,-1367.99 1318.78,-1362.11 1308.22,-1361.21 1309.97,-1367.99"/>
<text xml:space="preserve" text-anchor="middle" x="770.25" y="-1422.36" font-family="Helvetica,sans-Serif" font-size="14.00">generated</text>
</g>
<!-- n3901057556932773611 -->
<g id="node5" class="node">
<title>n3901057556932773611</title>
<path fill="#f7fafc" stroke="#334155" d="M2370.12,-684.3C2370.12,-684.3 2056.38,-684.3 2056.38,-684.3 2050.38,-684.3 2044.38,-678.3 2044.38,-672.3 2044.38,-672.3 2044.38,-660.3 2044.38,-660.3 2044.38,-654.3 2050.38,-648.3 2056.38,-648.3 2056.38,-648.3 2370.12,-648.3 2370.12,-648.3 2376.12,-648.3 2382.12,-654.3 2382.12,-660.3 2382.12,-660.3 2382.12,-672.3 2382.12,-672.3 2382.12,-678.3 2376.12,-684.3 2370.12,-684.3"/>
<text xml:space="preserve" text-anchor="middle" x="2213.25" y="-660.88" font-family="Helvetica,sans-Serif" font-size="14.00">jdd:analysis&#45;35e89cc7&#45;d761&#45;5f72&#45;81c0&#45;7d5c3e75f0cb</text>
</g>
<!-- n2494595837941030742&#45;&gt;n3901057556932773611 -->
<g id="edge5" class="edge">
<title>n2494595837941030742&#45;&gt;n3901057556932773611</title>
<path fill="none" stroke="#475569" d="M386.76,-646.04C686.62,-644.5 1283.45,-643.12 1789.75,-652.3 1869.4,-653.75 1957.47,-656.48 2032.5,-659.16"/>
<polygon fill="#475569" stroke="#475569" points="2032.32,-662.65 2042.44,-659.51 2032.57,-655.66 2032.32,-662.65"/>
<text xml:space="preserve" text-anchor="middle" x="1042.38" y="-647.81" font-family="Helvetica,sans-Serif" font-size="14.00">used</text>
</g>
<!-- n4402814763753098769 -->
<g id="node10" class="node">
<title>n4402814763753098769</title>
<path fill="#f7fafc" stroke="#334155" d="M4271,-1560.3C4271,-1560.3 4181.5,-1560.3 4181.5,-1560.3 4175.5,-1560.3 4169.5,-1554.3 4169.5,-1548.3 4169.5,-1548.3 4169.5,-1536.3 4169.5,-1536.3 4169.5,-1530.3 4175.5,-1524.3 4181.5,-1524.3 4181.5,-1524.3 4271,-1524.3 4271,-1524.3 4277,-1524.3 4283,-1530.3 4283,-1536.3 4283,-1536.3 4283,-1548.3 4283,-1548.3 4283,-1554.3 4277,-1560.3 4271,-1560.3"/>
<text xml:space="preserve" text-anchor="middle" x="4226.25" y="-1536.88" font-family="Helvetica,sans-Serif" font-size="14.00">Theme 1 Thesis</text>
</g>
<!-- n2494595837941030742&#45;&gt;n4402814763753098769 -->
<g id="edge49" class="edge">
<title>n2494595837941030742&#45;&gt;n4402814763753098769</title>
<path fill="none" stroke="#475569" d="M195.42,-665.6C205.29,-803.65 286.8,-1676.3 769.25,-1676.3 769.25,-1676.3 769.25,-1676.3 1739.38,-1676.3 2610.55,-1676.3 2828.24,-1653.22 3698.5,-1613.3 3758.21,-1610.56 3773.33,-1611.82 3832.75,-1605.3 3947.67,-1592.69 4080.25,-1569.61 4158.17,-1555.16"/>
<polygon fill="#475569" stroke="#475569" points="4158.59,-1558.64 4167.78,-1553.37 4157.31,-1551.76 4158.59,-1558.64"/>
<text xml:space="preserve" text-anchor="middle" x="2213.25" y="-1678.64" font-family="Helvetica,sans-Serif" font-size="14.00">used</text>
</g>
<!-- n28703421914888084 -->
<g id="node12" class="node">
<title>n28703421914888084</title>
<path fill="#f7fafc" stroke="#334155" d="M952.25,-868.3C952.25,-868.3 588.25,-868.3 588.25,-868.3 582.25,-868.3 576.25,-862.3 576.25,-856.3 576.25,-856.3 576.25,-844.3 576.25,-844.3 576.25,-838.3 582.25,-832.3 588.25,-832.3 588.25,-832.3 952.25,-832.3 952.25,-832.3 958.25,-832.3 964.25,-838.3 964.25,-844.3 964.25,-844.3 964.25,-856.3 964.25,-856.3 964.25,-862.3 958.25,-868.3 952.25,-868.3"/>
<text xml:space="preserve" text-anchor="middle" x="770.25" y="-844.88" font-family="Helvetica,sans-Serif" font-size="14.00">Admissibility decision for process 5021277&#45;41.2025.4.02.5101</text>
</g>
<!-- n2494595837941030742&#45;&gt;n28703421914888084 -->
<g id="edge12" class="edge">
<title>n2494595837941030742&#45;&gt;n28703421914888084</title>
<path fill="none" stroke="#475569" d="M253.99,-665.71C323.24,-687.32 440.62,-724.76 540.25,-760.55 600.09,-782.05 667.79,-808.9 713.96,-827.61"/>
<polygon fill="#475569" stroke="#475569" points="712.36,-830.74 722.95,-831.26 715,-824.25 712.36,-830.74"/>
<text xml:space="preserve" text-anchor="middle" x="481.38" y="-763" font-family="Helvetica,sans-Serif" font-size="14.00">generated</text>
</g>
<!-- n2474687712127890622 -->
<g id="node14" class="node">
<title>n2474687712127890622</title>
<path fill="#f7fafc" stroke="#334155" d="M4792,-602.3C4792,-602.3 4762,-602.3 4762,-602.3 4756,-602.3 4750,-596.3 4750,-590.3 4750,-590.3 4750,-578.3 4750,-578.3 4750,-572.3 4756,-566.3 4762,-566.3 4762,-566.3 4792,-566.3 4792,-566.3 4798,-566.3 4804,-572.3 4804,-578.3 4804,-578.3 4804,-590.3 4804,-590.3 4804,-596.3 4798,-602.3 4792,-602.3"/>
<text xml:space="preserve" text-anchor="middle" x="4777" y="-578.88" font-family="Helvetica,sans-Serif" font-size="14.00">tnu:1</text>
</g>
<!-- n2494595837941030742&#45;&gt;n2474687712127890622 -->
<g id="edge71" class="edge">
<title>n2494595837941030742&#45;&gt;n2474687712127890622</title>
<path fill="none" stroke="#475569" d="M206.09,-628.91C236.58,-582.92 322.42,-461.73 422.5,-393.3 482.79,-352.08 505.42,-353.12 576.25,-335.3 1153.73,-190.06 2641.66,-19.3 3237.12,-19.3 3237.12,-19.3 3237.12,-19.3 4227.25,-19.3 4442.16,-19.3 4572.79,6.44 4684.25,-177.3 4760.26,-302.62 4773.43,-484.11 4775.62,-554.68"/>
<polygon fill="#475569" stroke="#475569" points="4772.12,-554.73 4775.86,-564.64 4779.11,-554.56 4772.12,-554.73"/>
<text xml:space="preserve" text-anchor="middle" x="2688.88" y="-51.28" font-family="Helvetica,sans-Serif" font-size="14.00">used</text>
</g>
<!-- n1052513836601814631 -->
<g id="node19" class="node">
<title>n1052513836601814631</title>
<path fill="#f7fafc" stroke="#334155" d="M3131.25,-427.3C3131.25,-427.3 2789,-427.3 2789,-427.3 2783,-427.3 2777,-421.3 2777,-415.3 2777,-415.3 2777,-403.3 2777,-403.3 2777,-397.3 2783,-391.3 2789,-391.3 2789,-391.3 3131.25,-391.3 3131.25,-391.3 3137.25,-391.3 3143.25,-397.3 3143.25,-403.3 3143.25,-403.3 3143.25,-415.3 3143.25,-415.3 3143.25,-421.3 3137.25,-427.3 3131.25,-427.3"/>
<text xml:space="preserve" text-anchor="middle" x="2960.12" y="-403.88" font-family="Helvetica,sans-Serif" font-size="14.00">jdd:classification&#45;a199ba82&#45;d6cd&#45;5cfb&#45;9de4&#45;48fc54192b8c</text>
</g>
<!-- n2494595837941030742&#45;&gt;n1052513836601814631 -->
<g id="edge69" class="edge">
<title>n2494595837941030742&#45;&gt;n1052513836601814631</title>
<path fill="none" stroke="#475569" d="M212.7,-628.8C280.38,-563.02 523.83,-344.3 769.25,-344.3 769.25,-344.3 769.25,-344.3 2214.25,-344.3 2448.79,-344.3 2507.76,-351.62 2741,-376.3 2772.77,-379.66 2807,-384.34 2838.7,-389.11"/>
<polygon fill="#475569" stroke="#475569" points="2837.89,-392.53 2848.31,-390.58 2838.95,-385.61 2837.89,-392.53"/>
<text xml:space="preserve" text-anchor="middle" x="1385.75" y="-346.75" font-family="Helvetica,sans-Serif" font-size="14.00">wasInformedBy</text>
</g>
<!-- n3777206597782045167 -->
<g id="node20" class="node">
<title>n3777206597782045167</title>
<path fill="#f7fafc" stroke="#334155" d="M4258.62,-302.3C4258.62,-302.3 4193.88,-302.3 4193.88,-302.3 4187.88,-302.3 4181.88,-296.3 4181.88,-290.3 4181.88,-290.3 4181.88,-278.3 4181.88,-278.3 4181.88,-272.3 4187.88,-266.3 4193.88,-266.3 4193.88,-266.3 4258.62,-266.3 4258.62,-266.3 4264.62,-266.3 4270.62,-272.3 4270.62,-278.3 4270.62,-278.3 4270.62,-290.3 4270.62,-290.3 4270.62,-296.3 4264.62,-302.3 4258.62,-302.3"/>
<text xml:space="preserve" text-anchor="middle" x="4226.25" y="-278.88" font-family="Helvetica,sans-Serif" font-size="14.00">prov:Activity</text>
</g>
<!-- n2494595837941030742&#45;&gt;n3777206597782045167 -->
<g id="edge47" class="edge">
<title>n2494595837941030742&#45;&gt;n3777206597782045167</title>
<path fill="none" stroke="#475569" d="M197.95,-628.94C212.53,-561.71 272.77,-327.61 422.5,-224.3 550.46,-136.02 613.79,-178.3 769.25,-178.3 769.25,-178.3 769.25,-178.3 1739.38,-178.3 2714.62,-178.3 3903.13,-260.74 4170.24,-280.22"/>
<polygon fill="#475569" stroke="#475569" points="4169.8,-283.69 4180.03,-280.93 4170.31,-276.71 4169.8,-283.69"/>
<text xml:space="preserve" text-anchor="middle" x="2213.25" y="-196.92" font-family="Helvetica,sans-Serif" font-size="14.00">type</text>
</g>
<!-- n6065844580812240659 -->
<g id="node24" class="node">
<title>n6065844580812240659</title>
<path fill="#f7fafc" stroke="#334155" d="M1072.5,-77.3C1072.5,-77.3 1012.25,-77.3 1012.25,-77.3 1006.25,-77.3 1000.25,-71.3 1000.25,-65.3 1000.25,-65.3 1000.25,-53.3 1000.25,-53.3 1000.25,-47.3 1006.25,-41.3 1012.25,-41.3 1012.25,-41.3 1072.5,-41.3 1072.5,-41.3 1078.5,-41.3 1084.5,-47.3 1084.5,-53.3 1084.5,-53.3 1084.5,-65.3 1084.5,-65.3 1084.5,-71.3 1078.5,-77.3 1072.5,-77.3"/>
<text xml:space="preserve" text-anchor="middle" x="1042.38" y="-53.88" font-family="Helvetica,sans-Serif" font-size="14.00">jdd:pipeline</text>
</g>
<!-- n2494595837941030742&#45;&gt;n6065844580812240659 -->
<g id="edge24" class="edge">
<title>n2494595837941030742&#45;&gt;n6065844580812240659</title>
<path fill="none" stroke="#475569" d="M196.11,-628.86C204.84,-552.99 248.93,-262.84 422.5,-134.55 433.9,-126.13 841.4,-81.06 988.82,-65"/>
<polygon fill="#475569" stroke="#475569" points="989.15,-68.48 998.71,-63.92 988.39,-61.52 989.15,-68.48"/>
<text xml:space="preserve" text-anchor="middle" x="481.38" y="-137" font-family="Helvetica,sans-Serif" font-size="14.00">wasAssociatedWith</text>
</g>
<!-- n5350958992080957376 -->
<g id="node37" class="node">
<title>n5350958992080957376</title>
<path fill="#f7fafc" stroke="#334155" d="M813.88,-49.3C813.88,-49.3 726.62,-49.3 726.62,-49.3 720.62,-49.3 714.62,-43.3 714.62,-37.3 714.62,-37.3 714.62,-25.3 714.62,-25.3 714.62,-19.3 720.62,-13.3 726.62,-13.3 726.62,-13.3 813.88,-13.3 813.88,-13.3 819.88,-13.3 825.88,-19.3 825.88,-25.3 825.88,-25.3 825.88,-37.3 825.88,-37.3 825.88,-43.3 819.88,-49.3 813.88,-49.3"/>
<text xml:space="preserve" text-anchor="middle" x="770.25" y="-25.88" font-family="Helvetica,sans-Serif" font-size="14.00">draft&#45;generation</text>
</g>
<!-- n2494595837941030742&#45;&gt;n5350958992080957376 -->
<g id="edge52" class="edge">
<title>n2494595837941030742&#45;&gt;n5350958992080957376</title>
<path fill="none" stroke="#475569" d="M194.48,-629.07C196.61,-544.74 217.87,-190.36 422.5,-43.55 504.55,15.31 627.84,2.34 703.17,-13.64"/>
<polygon fill="#475569" stroke="#475569" points="702.38,-17.05 712.9,-15.78 703.89,-10.21 702.38,-17.05"/>
<text xml:space="preserve" text-anchor="middle" x="481.38" y="-46" font-family="Helvetica,sans-Serif" font-size="14.00">type</text>
</g>
<!-- n8793560584400511256&#45;&gt;n4402814763753098769 -->
<g id="edge55" class="edge">
<title>n8793560584400511256&#45;&gt;n4402814763753098769</title>
<path fill="none" stroke="#475569" d="M3641.92,-1152.76C3663.18,-1160.93 3683.27,-1172.62 3698.5,-1189.3 3752.04,-1247.95 3692.35,-1297.01 3734.5,-1364.3 3774.42,-1428.03 3800.42,-1435.89 3868.75,-1467.3 3963.39,-1510.81 4083.8,-1529.38 4157.66,-1537.09"/>
<polygon fill="#475569" stroke="#475569" points="4157.3,-1540.57 4167.6,-1538.08 4158,-1533.6 4157.3,-1540.57"/>
<text xml:space="preserve" text-anchor="middle" x="3783.62" y="-1453.1" font-family="Helvetica,sans-Serif" font-size="14.00">adoptsThesis</text>
</g>
<!-- n647775799432983616 -->
<g id="node18" class="node">
<title>n647775799432983616</title>
<path fill="#f7fafc" stroke="#334155" d="M4307,-1370.3C4307,-1370.3 4145.5,-1370.3 4145.5,-1370.3 4139.5,-1370.3 4133.5,-1364.3 4133.5,-1358.3 4133.5,-1358.3 4133.5,-1346.3 4133.5,-1346.3 4133.5,-1340.3 4139.5,-1334.3 4145.5,-1334.3 4145.5,-1334.3 4307,-1334.3 4307,-1334.3 4313,-1334.3 4319,-1340.3 4319,-1346.3 4319,-1346.3 4319,-1358.3 4319,-1358.3 4319,-1364.3 4313,-1370.3 4307,-1370.3"/>
<text xml:space="preserve" text-anchor="middle" x="4226.25" y="-1346.88" font-family="Helvetica,sans-Serif" font-size="14.00">5021277&#45;41.2025.4.02.5101</text>
</g>
<!-- n8793560584400511256&#45;&gt;n647775799432983616 -->
<g id="edge16" class="edge">
<title>n8793560584400511256&#45;&gt;n647775799432983616</title>
<path fill="none" stroke="#475569" d="M3637.38,-1152.75C3659.94,-1160.88 3681.68,-1172.56 3698.5,-1189.3 3737.06,-1227.68 3692.29,-1271.97 3734.5,-1306.3 3791.89,-1352.99 3995.63,-1357.59 4121.84,-1355.66"/>
<polygon fill="#475569" stroke="#475569" points="4121.6,-1359.17 4131.54,-1355.5 4121.48,-1352.17 4121.6,-1359.17"/>
<text xml:space="preserve" text-anchor="middle" x="3783.62" y="-1342.21" font-family="Helvetica,sans-Serif" font-size="14.00">identifier</text>
</g>
<!-- n1814093808349499784 -->
<g id="node27" class="node">
<title>n1814093808349499784</title>
<path fill="#f7fafc" stroke="#334155" d="M5403.62,-1297.3C5403.62,-1297.3 5347.88,-1297.3 5347.88,-1297.3 5341.88,-1297.3 5335.88,-1291.3 5335.88,-1285.3 5335.88,-1285.3 5335.88,-1273.3 5335.88,-1273.3 5335.88,-1267.3 5341.88,-1261.3 5347.88,-1261.3 5347.88,-1261.3 5403.62,-1261.3 5403.62,-1261.3 5409.62,-1261.3 5415.62,-1267.3 5415.62,-1273.3 5415.62,-1273.3 5415.62,-1285.3 5415.62,-1285.3 5415.62,-1291.3 5409.62,-1297.3 5403.62,-1297.3"/>
<text xml:space="preserve" text-anchor="middle" x="5375.75" y="-1273.88" font-family="Helvetica,sans-Serif" font-size="14.00">prov:Entity</text>
</g>
<!-- n8793560584400511256&#45;&gt;n1814093808349499784 -->
<g id="edge65" class="edge">
<title>n8793560584400511256&#45;&gt;n1814093808349499784</title>
<path fill="none" stroke="#475569" d="M3562.48,-1152.75C3628.71,-1178.46 3755.81,-1223.94 3868.75,-1242.3 4433.25,-1334.06 5132.2,-1296.06 5324.03,-1283.02"/>
<polygon fill="#475569" stroke="#475569" points="5324.17,-1286.52 5333.9,-1282.34 5323.68,-1279.54 5324.17,-1286.52"/>
<text xml:space="preserve" text-anchor="middle" x="4652" y="-1304.05" font-family="Helvetica,sans-Serif" font-size="14.00">type</text>
</g>
<!-- n1568018667027162318 -->
<g id="node28" class="node">
<title>n1568018667027162318</title>
<path fill="#f7fafc" stroke="#334155" d="M4342.62,-1080.3C4342.62,-1080.3 4109.88,-1080.3 4109.88,-1080.3 4103.88,-1080.3 4097.88,-1074.3 4097.88,-1068.3 4097.88,-1068.3 4097.88,-1056.3 4097.88,-1056.3 4097.88,-1050.3 4103.88,-1044.3 4109.88,-1044.3 4109.88,-1044.3 4342.62,-1044.3 4342.62,-1044.3 4348.62,-1044.3 4354.62,-1050.3 4354.62,-1056.3 4354.62,-1056.3 4354.62,-1068.3 4354.62,-1068.3 4354.62,-1074.3 4348.62,-1080.3 4342.62,-1080.3"/>
<text xml:space="preserve" text-anchor="middle" x="4226.25" y="-1056.88" font-family="Helvetica,sans-Serif" font-size="14.00">261f3545&#45;cf32&#45;508f&#45;9fc6&#45;043a3bc53ad5</text>
</g>
<!-- n8793560584400511256&#45;&gt;n1568018667027162318 -->
<g id="edge30" class="edge">
<title>n8793560584400511256&#45;&gt;n1568018667027162318</title>
<path fill="none" stroke="#475569" d="M3657.56,-1117.94C3683.16,-1115.07 3709.62,-1112.16 3734.5,-1109.55 3853.15,-1097.1 3988.07,-1084.2 4086.38,-1075.03"/>
<polygon fill="#475569" stroke="#475569" points="4086.44,-1078.54 4096.07,-1074.13 4085.79,-1071.57 4086.44,-1078.54"/>
<text xml:space="preserve" text-anchor="middle" x="3783.62" y="-1112" font-family="Helvetica,sans-Serif" font-size="14.00">decisionNumber</text>
</g>
<!-- n5433097714339264870 -->
<g id="node32" class="node">
<title>n5433097714339264870</title>
<path fill="#f7fafc" stroke="#334155" d="M4571.75,-1008.3C4571.75,-1008.3 3880.75,-1008.3 3880.75,-1008.3 3874.75,-1008.3 3868.75,-1002.3 3868.75,-996.3 3868.75,-996.3 3868.75,-984.3 3868.75,-984.3 3868.75,-978.3 3874.75,-972.3 3880.75,-972.3 3880.75,-972.3 4571.75,-972.3 4571.75,-972.3 4577.75,-972.3 4583.75,-978.3 4583.75,-984.3 4583.75,-984.3 4583.75,-996.3 4583.75,-996.3 4583.75,-1002.3 4577.75,-1008.3 4571.75,-1008.3"/>
<text xml:space="preserve" text-anchor="middle" x="4226.25" y="-984.88" font-family="Helvetica,sans-Serif" font-size="14.00">tipo_julgamento=Julgamento Principal; competencia=JEF Recurso Cível; relator=ALESSANDRA BELFORT BUENO</text>
</g>
<!-- n8793560584400511256&#45;&gt;n5433097714339264870 -->
<g id="edge35" class="edge">
<title>n8793560584400511256&#45;&gt;n5433097714339264870</title>
<path fill="none" stroke="#475569" d="M3565.8,-1115.88C3633.09,-1091.38 3758.31,-1048.59 3868.75,-1026.3 3900.52,-1019.89 3934.14,-1014.59 3967.52,-1010.23"/>
<polygon fill="#475569" stroke="#475569" points="3967.85,-1013.72 3977.32,-1008.98 3966.96,-1006.77 3967.85,-1013.72"/>
<text xml:space="preserve" text-anchor="middle" x="3783.62" y="-1060.69" font-family="Helvetica,sans-Serif" font-size="14.00">description</text>
</g>
<!-- n4270711325054811078 -->
<g id="node39" class="node">
<title>n4270711325054811078</title>
<path fill="#f7fafc" stroke="#334155" d="M4314.88,-1224.3C4314.88,-1224.3 4137.62,-1224.3 4137.62,-1224.3 4131.62,-1224.3 4125.62,-1218.3 4125.62,-1212.3 4125.62,-1212.3 4125.62,-1200.3 4125.62,-1200.3 4125.62,-1194.3 4131.62,-1188.3 4137.62,-1188.3 4137.62,-1188.3 4314.88,-1188.3 4314.88,-1188.3 4320.88,-1188.3 4326.88,-1194.3 4326.88,-1200.3 4326.88,-1200.3 4326.88,-1212.3 4326.88,-1212.3 4326.88,-1218.3 4320.88,-1224.3 4314.88,-1224.3"/>
<text xml:space="preserve" text-anchor="middle" x="4226.25" y="-1200.88" font-family="Helvetica,sans-Serif" font-size="14.00">ors:AppellateDecisionOnSFCA</text>
</g>
<!-- n8793560584400511256&#45;&gt;n4270711325054811078 -->
<g id="edge57" class="edge">
<title>n8793560584400511256&#45;&gt;n4270711325054811078</title>
<path fill="none" stroke="#475569" d="M3657.56,-1150.86C3683.15,-1153.76 3709.62,-1156.68 3734.5,-1159.3 3864.82,-1173.02 4014.78,-1187.14 4114.29,-1196.28"/>
<polygon fill="#475569" stroke="#475569" points="4113.78,-1199.74 4124.06,-1197.17 4114.42,-1192.77 4113.78,-1199.74"/>
<text xml:space="preserve" text-anchor="middle" x="3783.62" y="-1171.38" font-family="Helvetica,sans-Serif" font-size="14.00">type</text>
</g>
<!-- n2215090890316051064 -->
<g id="node42" class="node">
<title>n2215090890316051064</title>
<path fill="#f7fafc" stroke="#334155" d="M4427,-1152.3C4427,-1152.3 4025.5,-1152.3 4025.5,-1152.3 4019.5,-1152.3 4013.5,-1146.3 4013.5,-1140.3 4013.5,-1140.3 4013.5,-1128.3 4013.5,-1128.3 4013.5,-1122.3 4019.5,-1116.3 4025.5,-1116.3 4025.5,-1116.3 4427,-1116.3 4427,-1116.3 4433,-1116.3 4439,-1122.3 4439,-1128.3 4439,-1128.3 4439,-1140.3 4439,-1140.3 4439,-1146.3 4433,-1152.3 4427,-1152.3"/>
<text xml:space="preserve" text-anchor="middle" x="4226.25" y="-1128.88" font-family="Helvetica,sans-Serif" font-size="14.00">Indenização por dano moral, Responsabilidade civil, DIREITO CIVIL</text>
</g>
<!-- n8793560584400511256&#45;&gt;n2215090890316051064 -->
<g id="edge72" class="edge">
<title>n8793560584400511256&#45;&gt;n2215090890316051064</title>
<path fill="none" stroke="#475569" d="M3657.57,-1134.3C3755.89,-1134.3 3889.19,-1134.3 4001.9,-1134.3"/>
<polygon fill="#475569" stroke="#475569" points="4001.58,-1137.8 4011.58,-1134.3 4001.58,-1130.8 4001.58,-1137.8"/>
<text xml:space="preserve" text-anchor="middle" x="3783.62" y="-1136.75" font-family="Helvetica,sans-Serif" font-size="14.00">subject</text>
</g>
<!-- n404045410628445966&#45;&gt;n2494595837941030742 -->
<g id="edge21" class="edge">
<title>n404045410628445966&#45;&gt;n2494595837941030742</title>
<path fill="none" stroke="#475569" d="M1120.14,-1334.7C910.56,-1315.18 621.01,-1258.44 422.5,-1099.3 279.62,-984.76 218.14,-757.35 200.19,-676.59"/>
<polygon fill="#475569" stroke="#475569" points="203.61,-675.87 198.08,-666.83 196.77,-677.34 203.61,-675.87"/>
<text xml:space="preserve" text-anchor="middle" x="770.25" y="-1314.7" font-family="Helvetica,sans-Serif" font-size="14.00">wasGeneratedBy</text>
</g>
<!-- n404045410628445966&#45;&gt;n8793560584400511256 -->
<g id="edge70" class="edge">
<title>n404045410628445966&#45;&gt;n8793560584400511256</title>
<path fill="none" stroke="#475569" d="M1432.53,-1361.79C1511.28,-1392.5 1678.18,-1452.75 1825.75,-1474.3 2166.58,-1524.07 2287.88,-1618.37 2600.75,-1474.3 2710.2,-1423.9 2672.73,-1328.68 2777,-1268.3 2934.45,-1177.13 3000.21,-1224.69 3179.25,-1192.3 3250.45,-1179.42 3330.26,-1165.6 3394.17,-1154.68"/>
<polygon fill="#475569" stroke="#475569" points="3394.75,-1158.13 3404.01,-1153 3393.57,-1151.23 3394.75,-1158.13"/>
<text xml:space="preserve" text-anchor="middle" x="2688.88" y="-1454.86" font-family="Helvetica,sans-Serif" font-size="14.00">wasDerivedFrom</text>
</g>
<!-- n8902493787703909317 -->
<g id="node4" class="node">
<title>n8902493787703909317</title>
<path fill="#f7fafc" stroke="#334155" d="M2466.5,-1312.3C2466.5,-1312.3 1960,-1312.3 1960,-1312.3 1954,-1312.3 1948,-1306.3 1948,-1300.3 1948,-1300.3 1948,-1288.3 1948,-1288.3 1948,-1282.3 1954,-1276.3 1960,-1276.3 1960,-1276.3 2466.5,-1276.3 2466.5,-1276.3 2472.5,-1276.3 2478.5,-1282.3 2478.5,-1288.3 2478.5,-1288.3 2478.5,-1300.3 2478.5,-1300.3 2478.5,-1306.3 2472.5,-1312.3 2466.5,-1312.3"/>
<text xml:space="preserve" text-anchor="middle" x="2213.25" y="-1288.88" font-family="Helvetica,sans-Serif" font-size="14.00">Generated decision NEGAR_SEGUIMENTO for process 5021277&#45;41.2025.4.02.5101</text>
</g>
<!-- n404045410628445966&#45;&gt;n8902493787703909317 -->
<g id="edge2" class="edge">
<title>n404045410628445966&#45;&gt;n8902493787703909317</title>
<path fill="none" stroke="#475569" d="M1651.35,-1327.6C1742.34,-1322.19 1844.42,-1316.14 1936.29,-1310.68"/>
<polygon fill="#475569" stroke="#475569" points="1936.45,-1314.18 1946.22,-1310.09 1936.03,-1307.19 1936.45,-1314.18"/>
<text xml:space="preserve" text-anchor="middle" x="1738.38" y="-1327.08" font-family="Helvetica,sans-Serif" font-size="14.00">label</text>
</g>
<!-- n404045410628445966&#45;&gt;n3901057556932773611 -->
<g id="edge40" class="edge">
<title>n404045410628445966&#45;&gt;n3901057556932773611</title>
<path fill="none" stroke="#475569" d="M1420.88,-1324.8C1471.97,-1296.75 1570.9,-1240.99 1651,-1187.3 1885.17,-1030.32 2116.49,-775.93 2189.01,-693.22"/>
<polygon fill="#475569" stroke="#475569" points="2191.55,-695.63 2195.49,-685.79 2186.28,-691.02 2191.55,-695.63"/>
<text xml:space="preserve" text-anchor="middle" x="1738.38" y="-1154.21" font-family="Helvetica,sans-Serif" font-size="14.00">wasDerivedFrom</text>
</g>
<!-- n404045410628445966&#45;&gt;n4402814763753098769 -->
<g id="edge17" class="edge">
<title>n404045410628445966&#45;&gt;n4402814763753098769</title>
<path fill="none" stroke="#475569" d="M1423.84,-1361.79C1480.2,-1389.67 1591,-1443.62 1687,-1485.3 1747.85,-1511.72 1761.42,-1524.11 1825.75,-1540.3 1993.45,-1582.53 2039.31,-1585.3 2212.25,-1585.3 2212.25,-1585.3 2212.25,-1585.3 3516.75,-1585.3 3752.76,-1585.3 4032.18,-1561.23 4157.97,-1549.11"/>
<polygon fill="#475569" stroke="#475569" points="4158.17,-1552.61 4167.79,-1548.16 4157.5,-1545.64 4158.17,-1552.61"/>
<text xml:space="preserve" text-anchor="middle" x="2960.12" y="-1587.75" font-family="Helvetica,sans-Serif" font-size="14.00">adoptsThesis</text>
</g>
<!-- n5493962923767701991 -->
<g id="node16" class="node">
<title>n5493962923767701991</title>
<path fill="#f7fafc" stroke="#334155" d="M2333.75,-1240.3C2333.75,-1240.3 2092.75,-1240.3 2092.75,-1240.3 2086.75,-1240.3 2080.75,-1234.3 2080.75,-1228.3 2080.75,-1228.3 2080.75,-1216.3 2080.75,-1216.3 2080.75,-1210.3 2086.75,-1204.3 2092.75,-1204.3 2092.75,-1204.3 2333.75,-1204.3 2333.75,-1204.3 2339.75,-1204.3 2345.75,-1210.3 2345.75,-1216.3 2345.75,-1216.3 2345.75,-1228.3 2345.75,-1228.3 2345.75,-1234.3 2339.75,-1240.3 2333.75,-1240.3"/>
<text xml:space="preserve" text-anchor="middle" x="2213.25" y="-1216.88" font-family="Helvetica,sans-Serif" font-size="14.00">ccdd1bbf&#45;4fe7&#45;521a&#45;87b1&#45;64e782a57132</text>
</g>
<!-- n404045410628445966&#45;&gt;n5493962923767701991 -->
<g id="edge13" class="edge">
<title>n404045410628445966&#45;&gt;n5493962923767701991</title>
<path fill="none" stroke="#475569" d="M1469.28,-1324.8C1557.2,-1305.69 1700.68,-1276.19 1825.75,-1258.3 1906.02,-1246.82 1996.22,-1238.18 2069.28,-1232.24"/>
<polygon fill="#475569" stroke="#475569" points="2069.19,-1235.76 2078.88,-1231.47 2068.63,-1228.79 2069.19,-1235.76"/>
<text xml:space="preserve" text-anchor="middle" x="1738.38" y="-1282.58" font-family="Helvetica,sans-Serif" font-size="14.00">identifier</text>
</g>
<!-- n404045410628445966&#45;&gt;n5493962923767701991 -->
<g id="edge66" class="edge">
<title>n404045410628445966&#45;&gt;n5493962923767701991</title>
<path fill="none" stroke="#475569" d="M1427.97,-1324.83C1484.88,-1300.34 1591.37,-1258.17 1687,-1240.55 1814.7,-1217.02 1962.75,-1214.01 2069.05,-1215.98"/>
<polygon fill="#475569" stroke="#475569" points="2068.92,-1219.48 2078.99,-1216.18 2069.06,-1212.48 2068.92,-1219.48"/>
<text xml:space="preserve" text-anchor="middle" x="1738.38" y="-1243" font-family="Helvetica,sans-Serif" font-size="14.00">decisionNumber</text>
</g>
<!-- n5169809624137442751 -->
<g id="node17" class="node">
<title>n5169809624137442751</title>
<path fill="#f7fafc" stroke="#334155" d="M2283.88,-1456.3C2283.88,-1456.3 2142.62,-1456.3 2142.62,-1456.3 2136.62,-1456.3 2130.62,-1450.3 2130.62,-1444.3 2130.62,-1444.3 2130.62,-1432.3 2130.62,-1432.3 2130.62,-1426.3 2136.62,-1420.3 2142.62,-1420.3 2142.62,-1420.3 2283.88,-1420.3 2283.88,-1420.3 2289.88,-1420.3 2295.88,-1426.3 2295.88,-1432.3 2295.88,-1432.3 2295.88,-1444.3 2295.88,-1444.3 2295.88,-1450.3 2289.88,-1456.3 2283.88,-1456.3"/>
<text xml:space="preserve" text-anchor="middle" x="2213.25" y="-1432.88" font-family="Helvetica,sans-Serif" font-size="14.00">NEGAR_SEGUIMENTO</text>
</g>
<!-- n404045410628445966&#45;&gt;n5169809624137442751 -->
<g id="edge14" class="edge">
<title>n404045410628445966&#45;&gt;n5169809624137442751</title>
<path fill="none" stroke="#475569" d="M1513.85,-1361.78C1601.41,-1374.16 1720.5,-1390.33 1825.75,-1402.3 1925.79,-1413.68 2040.7,-1424.04 2119.05,-1430.69"/>
<polygon fill="#475569" stroke="#475569" points="2118.57,-1434.16 2128.83,-1431.52 2119.16,-1427.19 2118.57,-1434.16"/>
<text xml:space="preserve" text-anchor="middle" x="1738.38" y="-1399.16" font-family="Helvetica,sans-Serif" font-size="14.00">type</text>
</g>
<!-- n404045410628445966&#45;&gt;n1814093808349499784 -->
<g id="edge61" class="edge">
<title>n404045410628445966&#45;&gt;n1814093808349499784</title>
<path fill="none" stroke="#475569" d="M1400.96,-1361.39C1450.97,-1423.39 1626.54,-1627.55 1825.75,-1701.3 2641.63,-2003.36 2912.63,-1750.3 3782.62,-1750.3 3782.62,-1750.3 3782.62,-1750.3 4778,-1750.3 5065.74,-1750.3 5296.18,-1408.71 5358.24,-1307.34"/>
<polygon fill="#475569" stroke="#475569" points="5361.06,-1309.43 5363.25,-1299.06 5355.07,-1305.8 5361.06,-1309.43"/>
<text xml:space="preserve" text-anchor="middle" x="3515.75" y="-1775.29" font-family="Helvetica,sans-Serif" font-size="14.00">type</text>
</g>
<!-- n3716614947349531030 -->
<g id="node40" class="node">
<title>n3716614947349531030</title>
<path fill="#f7fafc" stroke="#334155" d="M2588.75,-1384.3C2588.75,-1384.3 1837.75,-1384.3 1837.75,-1384.3 1831.75,-1384.3 1825.75,-1378.3 1825.75,-1372.3 1825.75,-1372.3 1825.75,-1360.3 1825.75,-1360.3 1825.75,-1354.3 1831.75,-1348.3 1837.75,-1348.3 1837.75,-1348.3 2588.75,-1348.3 2588.75,-1348.3 2594.75,-1348.3 2600.75,-1354.3 2600.75,-1360.3 2600.75,-1360.3 2600.75,-1372.3 2600.75,-1372.3 2600.75,-1378.3 2594.75,-1384.3 2588.75,-1384.3"/>
<text xml:space="preserve" text-anchor="middle" x="2213.25" y="-1360.88" font-family="Helvetica,sans-Serif" font-size="14.00">outputs/runs/run&#45;20260616T020214445248Z/documents/261f3545&#45;cf32&#45;508f&#45;9fc6&#45;043a3bc53ad5&#45;NEGAR_SEGUIMENTO.tex</text>
</g>
<!-- n404045410628445966&#45;&gt;n3716614947349531030 -->
<g id="edge64" class="edge">
<title>n404045410628445966&#45;&gt;n3716614947349531030</title>
<path fill="none" stroke="#475569" d="M1651.17,-1352.23C1663.28,-1352.6 1675.27,-1352.96 1687,-1353.3 1728.12,-1354.5 1771.05,-1355.67 1813.88,-1356.8"/>
<polygon fill="#475569" stroke="#475569" points="1813.75,-1360.3 1823.84,-1357.06 1813.94,-1353.3 1813.75,-1360.3"/>
<text xml:space="preserve" text-anchor="middle" x="1738.38" y="-1358.55" font-family="Helvetica,sans-Serif" font-size="14.00">atLocation</text>
</g>
<!-- n3901057556932773611&#45;&gt;n8793560584400511256 -->
<g id="edge26" class="edge">
<title>n3901057556932773611&#45;&gt;n8793560584400511256</title>
<path fill="none" stroke="#475569" d="M2250.59,-684.68C2322.87,-720.8 2490.37,-802.31 2636.75,-857.3 2923.78,-965.13 3005.67,-961.72 3297,-1057.3 3350.39,-1074.82 3410.57,-1096.23 3454.11,-1112.02"/>
<polygon fill="#475569" stroke="#475569" points="3452.79,-1115.27 3463.39,-1115.39 3455.19,-1108.69 3452.79,-1115.27"/>
<text xml:space="preserve" text-anchor="middle" x="2960.12" y="-1010.47" font-family="Helvetica,sans-Serif" font-size="14.00">wasDerivedFrom</text>
</g>
<!-- n6443330610924973469 -->
<g id="node6" class="node">
<title>n6443330610924973469</title>
<path fill="#f7fafc" stroke="#334155" d="M2979.75,-648.3C2979.75,-648.3 2940.5,-648.3 2940.5,-648.3 2934.5,-648.3 2928.5,-642.3 2928.5,-636.3 2928.5,-636.3 2928.5,-624.3 2928.5,-624.3 2928.5,-618.3 2934.5,-612.3 2940.5,-612.3 2940.5,-612.3 2979.75,-612.3 2979.75,-612.3 2985.75,-612.3 2991.75,-618.3 2991.75,-624.3 2991.75,-624.3 2991.75,-636.3 2991.75,-636.3 2991.75,-642.3 2985.75,-648.3 2979.75,-648.3"/>
<text xml:space="preserve" text-anchor="middle" x="2960.12" y="-624.88" font-family="Helvetica,sans-Serif" font-size="14.00">VALIDA</text>
</g>
<!-- n3901057556932773611&#45;&gt;n6443330610924973469 -->
<g id="edge3" class="edge">
<title>n3901057556932773611&#45;&gt;n6443330610924973469</title>
<path fill="none" stroke="#475569" d="M2382.34,-658.18C2556.11,-649.78 2815.83,-637.23 2916.83,-632.35"/>
<polygon fill="#475569" stroke="#475569" points="2916.73,-635.86 2926.55,-631.88 2916.39,-628.86 2916.73,-635.86"/>
<text xml:space="preserve" text-anchor="middle" x="2688.88" y="-647.53" font-family="Helvetica,sans-Serif" font-size="14.00">type</text>
</g>
<!-- n6838547954661872111 -->
<g id="node7" class="node">
<title>n6838547954661872111</title>
<path fill="#f7fafc" stroke="#334155" d="M3103.5,-576.3C3103.5,-576.3 2816.75,-576.3 2816.75,-576.3 2810.75,-576.3 2804.75,-570.3 2804.75,-564.3 2804.75,-564.3 2804.75,-552.3 2804.75,-552.3 2804.75,-546.3 2810.75,-540.3 2816.75,-540.3 2816.75,-540.3 3103.5,-540.3 3103.5,-540.3 3109.5,-540.3 3115.5,-546.3 3115.5,-552.3 3115.5,-552.3 3115.5,-564.3 3115.5,-564.3 3115.5,-570.3 3109.5,-576.3 3103.5,-576.3"/>
<text xml:space="preserve" text-anchor="middle" x="2960.12" y="-552.88" font-family="Helvetica,sans-Serif" font-size="14.00">Tema 1 selecionado por semelhança de assunto.</text>
</g>
<!-- n3901057556932773611&#45;&gt;n6838547954661872111 -->
<g id="edge4" class="edge">
<title>n3901057556932773611&#45;&gt;n6838547954661872111</title>
<path fill="none" stroke="#475569" d="M2341.45,-647.86C2474.76,-628.53 2683.51,-598.26 2820.83,-578.35"/>
<polygon fill="#475569" stroke="#475569" points="2820.93,-581.88 2830.33,-576.98 2819.93,-574.95 2820.93,-581.88"/>
<text xml:space="preserve" text-anchor="middle" x="2688.88" y="-605.08" font-family="Helvetica,sans-Serif" font-size="14.00">description</text>
</g>
<!-- n3901057556932773611&#45;&gt;n2474687712127890622 -->
<g id="edge23" class="edge">
<title>n3901057556932773611&#45;&gt;n2474687712127890622</title>
<path fill="none" stroke="#475569" d="M2267.7,-647.82C2366.69,-614.68 2585.89,-546.37 2777,-522.3 2938.5,-501.97 2982.38,-497.47 3143.25,-522.3 3230.66,-535.79 3245.81,-567.43 3333,-582.3 3881.02,-675.8 4028.23,-620.94 4583.75,-599.3 4637.56,-597.21 4699.65,-591.82 4738.37,-588.11"/>
<polygon fill="#475569" stroke="#475569" points="4738.48,-591.61 4748.1,-587.16 4737.81,-584.65 4738.48,-591.61"/>
<text xml:space="preserve" text-anchor="middle" x="3515.75" y="-630.68" font-family="Helvetica,sans-Serif" font-size="14.00">wasDerivedFrom</text>
</g>
<!-- n3901057556932773611&#45;&gt;n1052513836601814631 -->
<g id="edge58" class="edge">
<title>n3901057556932773611&#45;&gt;n1052513836601814631</title>
<path fill="none" stroke="#475569" d="M2243.14,-648.04C2309.71,-606.87 2480.22,-506.61 2636.75,-457.55 2677.61,-444.75 2722.48,-435.29 2765.41,-428.33"/>
<polygon fill="#475569" stroke="#475569" points="2765.75,-431.82 2775.08,-426.81 2764.66,-424.91 2765.75,-431.82"/>
<text xml:space="preserve" text-anchor="middle" x="2688.88" y="-460" font-family="Helvetica,sans-Serif" font-size="14.00">wasGeneratedBy</text>
</g>
<!-- n6090224169194692193 -->
<g id="node25" class="node">
<title>n6090224169194692193</title>
<path fill="#f7fafc" stroke="#334155" d="M3007.12,-794.3C3007.12,-794.3 2913.12,-794.3 2913.12,-794.3 2907.12,-794.3 2901.12,-788.3 2901.12,-782.3 2901.12,-782.3 2901.12,-770.3 2901.12,-770.3 2901.12,-764.3 2907.12,-758.3 2913.12,-758.3 2913.12,-758.3 3007.12,-758.3 3007.12,-758.3 3013.12,-758.3 3019.12,-764.3 3019.12,-770.3 3019.12,-770.3 3019.12,-782.3 3019.12,-782.3 3019.12,-788.3 3013.12,-794.3 3007.12,-794.3"/>
<text xml:space="preserve" text-anchor="middle" x="2960.12" y="-770.88" font-family="Helvetica,sans-Serif" font-size="14.00">CONSONANCIA</text>
</g>
<!-- n3901057556932773611&#45;&gt;n6090224169194692193 -->
<g id="edge25" class="edge">
<title>n3901057556932773611&#45;&gt;n6090224169194692193</title>
<path fill="none" stroke="#475569" d="M2331.2,-684.74C2415.98,-698 2533.4,-716.14 2636.75,-731.3 2723.78,-744.07 2824.16,-757.95 2889.48,-766.87"/>
<polygon fill="#475569" stroke="#475569" points="2888.97,-770.33 2899.35,-768.21 2889.92,-763.39 2888.97,-770.33"/>
<text xml:space="preserve" text-anchor="middle" x="2688.88" y="-747.76" font-family="Helvetica,sans-Serif" font-size="14.00">value</text>
</g>
<!-- n3901057556932773611&#45;&gt;n1814093808349499784 -->
<g id="edge50" class="edge">
<title>n3901057556932773611&#45;&gt;n1814093808349499784</title>
<path fill="none" stroke="#475569" d="M2268.54,-684.73C2367.98,-717.5 2586.66,-785.03 2777,-812.3 3219.64,-875.73 3335.47,-843.3 3782.62,-843.3 3782.62,-843.3 3782.62,-843.3 4778,-843.3 4863.65,-843.3 4899.02,-852.04 4956.75,-915.3 4994.28,-956.43 4959.19,-990.87 4992.75,-1035.3 5081.15,-1152.34 5243.32,-1228.29 5324.98,-1260.95"/>
<polygon fill="#475569" stroke="#475569" points="5323.48,-1264.12 5334.07,-1264.53 5326.05,-1257.61 5323.48,-1264.12"/>
<text xml:space="preserve" text-anchor="middle" x="3783.62" y="-845.87" font-family="Helvetica,sans-Serif" font-size="14.00">type</text>
</g>
<!-- n8045631374618994937 -->
<g id="node29" class="node">
<title>n8045631374618994937</title>
<path fill="#f7fafc" stroke="#334155" d="M5390.75,-691.3C5390.75,-691.3 5360.75,-691.3 5360.75,-691.3 5354.75,-691.3 5348.75,-685.3 5348.75,-679.3 5348.75,-679.3 5348.75,-667.3 5348.75,-667.3 5348.75,-661.3 5354.75,-655.3 5360.75,-655.3 5360.75,-655.3 5390.75,-655.3 5390.75,-655.3 5396.75,-655.3 5402.75,-661.3 5402.75,-667.3 5402.75,-667.3 5402.75,-679.3 5402.75,-679.3 5402.75,-685.3 5396.75,-691.3 5390.75,-691.3"/>
<text xml:space="preserve" text-anchor="middle" x="5375.75" y="-667.88" font-family="Helvetica,sans-Serif" font-size="14.00">1</text>
</g>
<!-- n3901057556932773611&#45;&gt;n8045631374618994937 -->
<g id="edge31" class="edge">
<title>n3901057556932773611&#45;&gt;n8045631374618994937</title>
<path fill="none" stroke="#475569" d="M2382.4,-668.11C2802.09,-672.52 3929.53,-683.72 4869.75,-687.3 4908.42,-687.45 4918.09,-687.95 4956.75,-687.3 5097.04,-684.95 5263.71,-678.17 5337,-674.99"/>
<polygon fill="#475569" stroke="#475569" points="5337,-678.49 5346.84,-674.56 5336.69,-671.5 5337,-678.49"/>
<text xml:space="preserve" text-anchor="middle" x="3783.62" y="-683.62" font-family="Helvetica,sans-Serif" font-size="14.00">identifier</text>
</g>
<!-- n6318297126724603026 -->
<g id="node8" class="node">
<title>n6318297126724603026</title>
<path fill="#f7fafc" stroke="#334155" d="M3572.88,-492.3C3572.88,-492.3 3458.62,-492.3 3458.62,-492.3 3452.62,-492.3 3446.62,-486.3 3446.62,-480.3 3446.62,-480.3 3446.62,-468.3 3446.62,-468.3 3446.62,-462.3 3452.62,-456.3 3458.62,-456.3 3458.62,-456.3 3572.88,-456.3 3572.88,-456.3 3578.88,-456.3 3584.88,-462.3 3584.88,-468.3 3584.88,-468.3 3584.88,-480.3 3584.88,-480.3 3584.88,-486.3 3578.88,-492.3 3572.88,-492.3"/>
<text xml:space="preserve" text-anchor="middle" x="3515.75" y="-468.88" font-family="Helvetica,sans-Serif" font-size="14.00">Local analysis agent</text>
</g>
<!-- n7499073476392126329 -->
<g id="node9" class="node">
<title>n7499073476392126329</title>
<path fill="#f7fafc" stroke="#334155" d="M4281.5,-211.3C4281.5,-211.3 4171,-211.3 4171,-211.3 4165,-211.3 4159,-205.3 4159,-199.3 4159,-199.3 4159,-187.3 4159,-187.3 4159,-181.3 4165,-175.3 4171,-175.3 4171,-175.3 4281.5,-175.3 4281.5,-175.3 4287.5,-175.3 4293.5,-181.3 4293.5,-187.3 4293.5,-187.3 4293.5,-199.3 4293.5,-199.3 4293.5,-205.3 4287.5,-211.3 4281.5,-211.3"/>
<text xml:space="preserve" text-anchor="middle" x="4226.25" y="-187.88" font-family="Helvetica,sans-Serif" font-size="14.00">prov:SoftwareAgent</text>
</g>
<!-- n6318297126724603026&#45;&gt;n7499073476392126329 -->
<g id="edge6" class="edge">
<title>n6318297126724603026&#45;&gt;n7499073476392126329</title>
<path fill="none" stroke="#475569" d="M3585,-465.99C3620.48,-459.6 3663.6,-448.47 3698.5,-429.3 3770.76,-389.62 3779.45,-364.2 3832.75,-301.3 3851.16,-279.58 3844.68,-263.51 3868.75,-248.3 3953.09,-195 4070.53,-186.74 4147.21,-188.1"/>
<polygon fill="#475569" stroke="#475569" points="4147.09,-191.6 4157.17,-188.35 4147.26,-184.6 4147.09,-191.6"/>
<text xml:space="preserve" text-anchor="middle" x="3783.62" y="-409.24" font-family="Helvetica,sans-Serif" font-size="14.00">type</text>
</g>
<!-- n841694564965619834 -->
<g id="node22" class="node">
<title>n841694564965619834</title>
<path fill="#f7fafc" stroke="#334155" d="M4283.38,-581.3C4283.38,-581.3 4169.12,-581.3 4169.12,-581.3 4163.12,-581.3 4157.12,-575.3 4157.12,-569.3 4157.12,-569.3 4157.12,-557.3 4157.12,-557.3 4157.12,-551.3 4163.12,-545.3 4169.12,-545.3 4169.12,-545.3 4283.38,-545.3 4283.38,-545.3 4289.38,-545.3 4295.38,-551.3 4295.38,-557.3 4295.38,-557.3 4295.38,-569.3 4295.38,-569.3 4295.38,-575.3 4289.38,-581.3 4283.38,-581.3"/>
<text xml:space="preserve" text-anchor="middle" x="4226.25" y="-557.88" font-family="Helvetica,sans-Serif" font-size="14.00">Local analysis agent</text>
</g>
<!-- n6318297126724603026&#45;&gt;n841694564965619834 -->
<g id="edge20" class="edge">
<title>n6318297126724603026&#45;&gt;n841694564965619834</title>
<path fill="none" stroke="#475569" d="M3585.08,-485.6C3655.9,-497.07 3769.88,-514.87 3868.75,-527.3 3963.66,-539.23 4073.18,-549.82 4145.51,-556.37"/>
<polygon fill="#475569" stroke="#475569" points="4145.01,-559.84 4155.29,-557.25 4145.64,-552.87 4145.01,-559.84"/>
<text xml:space="preserve" text-anchor="middle" x="3783.62" y="-524.78" font-family="Helvetica,sans-Serif" font-size="14.00">label</text>
</g>
<!-- n2869842861534132582 -->
<g id="node35" class="node">
<title>n2869842861534132582</title>
<path fill="#f7fafc" stroke="#334155" d="M4278.12,-509.3C4278.12,-509.3 4174.38,-509.3 4174.38,-509.3 4168.38,-509.3 4162.38,-503.3 4162.38,-497.3 4162.38,-497.3 4162.38,-485.3 4162.38,-485.3 4162.38,-479.3 4168.38,-473.3 4174.38,-473.3 4174.38,-473.3 4278.12,-473.3 4278.12,-473.3 4284.12,-473.3 4290.12,-479.3 4290.12,-485.3 4290.12,-485.3 4290.12,-497.3 4290.12,-497.3 4290.12,-503.3 4284.12,-509.3 4278.12,-509.3"/>
<text xml:space="preserve" text-anchor="middle" x="4226.25" y="-485.88" font-family="Helvetica,sans-Serif" font-size="14.00">local&#45;text&#45;similarity</text>
</g>
<!-- n6318297126724603026&#45;&gt;n2869842861534132582 -->
<g id="edge44" class="edge">
<title>n6318297126724603026&#45;&gt;n2869842861534132582</title>
<path fill="none" stroke="#475569" d="M3585.33,-475.95C3718.84,-479.15 4012.64,-486.2 4150.74,-489.51"/>
<polygon fill="#475569" stroke="#475569" points="4150.42,-493.01 4160.5,-489.75 4150.59,-486.01 4150.42,-493.01"/>
<text xml:space="preserve" text-anchor="middle" x="3783.62" y="-484.23" font-family="Helvetica,sans-Serif" font-size="14.00">title</text>
</g>
<!-- n6849759977977944012 -->
<g id="node38" class="node">
<title>n6849759977977944012</title>
<path fill="#f7fafc" stroke="#334155" d="M4241.25,-437.3C4241.25,-437.3 4211.25,-437.3 4211.25,-437.3 4205.25,-437.3 4199.25,-431.3 4199.25,-425.3 4199.25,-425.3 4199.25,-413.3 4199.25,-413.3 4199.25,-407.3 4205.25,-401.3 4211.25,-401.3 4211.25,-401.3 4241.25,-401.3 4241.25,-401.3 4247.25,-401.3 4253.25,-407.3 4253.25,-413.3 4253.25,-413.3 4253.25,-425.3 4253.25,-425.3 4253.25,-431.3 4247.25,-437.3 4241.25,-437.3"/>
<text xml:space="preserve" text-anchor="middle" x="4226.25" y="-413.88" font-family="Helvetica,sans-Serif" font-size="14.00">local</text>
</g>
<!-- n6318297126724603026&#45;&gt;n6849759977977944012 -->
<g id="edge56" class="edge">
<title>n6318297126724603026&#45;&gt;n6849759977977944012</title>
<path fill="none" stroke="#475569" d="M3585.37,-467.75C3628.23,-463.73 3684.56,-458.61 3734.5,-454.55 3903.49,-440.82 4105.45,-427.19 4187.66,-421.76"/>
<polygon fill="#475569" stroke="#475569" points="4187.65,-425.27 4197.39,-421.12 4187.18,-418.28 4187.65,-425.27"/>
<text xml:space="preserve" text-anchor="middle" x="3783.62" y="-457" font-family="Helvetica,sans-Serif" font-size="14.00">type</text>
</g>
<!-- n4177221290989702999 -->
<g id="node11" class="node">
<title>n4177221290989702999</title>
<path fill="#f7fafc" stroke="#334155" d="M4821.75,-1535.3C4821.75,-1535.3 4732.25,-1535.3 4732.25,-1535.3 4726.25,-1535.3 4720.25,-1529.3 4720.25,-1523.3 4720.25,-1523.3 4720.25,-1511.3 4720.25,-1511.3 4720.25,-1505.3 4726.25,-1499.3 4732.25,-1499.3 4732.25,-1499.3 4821.75,-1499.3 4821.75,-1499.3 4827.75,-1499.3 4833.75,-1505.3 4833.75,-1511.3 4833.75,-1511.3 4833.75,-1523.3 4833.75,-1523.3 4833.75,-1529.3 4827.75,-1535.3 4821.75,-1535.3"/>
<text xml:space="preserve" text-anchor="middle" x="4777" y="-1511.88" font-family="Helvetica,sans-Serif" font-size="14.00">Theme 1 Thesis</text>
</g>
<!-- n4402814763753098769&#45;&gt;n4177221290989702999 -->
<g id="edge7" class="edge">
<title>n4402814763753098769&#45;&gt;n4177221290989702999</title>
<path fill="none" stroke="#475569" d="M4283.4,-1539.74C4385.1,-1535.11 4599.38,-1525.35 4708.73,-1520.37"/>
<polygon fill="#475569" stroke="#475569" points="4708.59,-1523.88 4718.42,-1519.93 4708.27,-1516.88 4708.59,-1523.88"/>
<text xml:space="preserve" text-anchor="middle" x="4652" y="-1526.46" font-family="Helvetica,sans-Serif" font-size="14.00">label</text>
</g>
<!-- n2004975703568148260 -->
<g id="node13" class="node">
<title>n2004975703568148260</title>
<path fill="#f7fafc" stroke="#334155" d="M4804.12,-1607.3C4804.12,-1607.3 4749.88,-1607.3 4749.88,-1607.3 4743.88,-1607.3 4737.88,-1601.3 4737.88,-1595.3 4737.88,-1595.3 4737.88,-1583.3 4737.88,-1583.3 4737.88,-1577.3 4743.88,-1571.3 4749.88,-1571.3 4749.88,-1571.3 4804.12,-1571.3 4804.12,-1571.3 4810.12,-1571.3 4816.12,-1577.3 4816.12,-1583.3 4816.12,-1583.3 4816.12,-1595.3 4816.12,-1595.3 4816.12,-1601.3 4810.12,-1607.3 4804.12,-1607.3"/>
<text xml:space="preserve" text-anchor="middle" x="4777" y="-1583.88" font-family="Helvetica,sans-Serif" font-size="14.00">ors:Thesis</text>
</g>
<!-- n4402814763753098769&#45;&gt;n2004975703568148260 -->
<g id="edge9" class="edge">
<title>n4402814763753098769&#45;&gt;n2004975703568148260</title>
<path fill="none" stroke="#475569" d="M4283.4,-1547.11C4390.84,-1556.31 4623.93,-1576.28 4726.2,-1585.04"/>
<polygon fill="#475569" stroke="#475569" points="4725.66,-1588.5 4735.92,-1585.87 4726.26,-1581.53 4725.66,-1588.5"/>
<text xml:space="preserve" text-anchor="middle" x="4652" y="-1583.87" font-family="Helvetica,sans-Serif" font-size="14.00">type</text>
</g>
<!-- n4402814763753098769&#45;&gt;n2474687712127890622 -->
<g id="edge39" class="edge">
<title>n4402814763753098769&#45;&gt;n2474687712127890622</title>
<path fill="none" stroke="#475569" d="M4283.25,-1548.41C4362.45,-1553.64 4506.18,-1549.98 4583.75,-1467.3 4621.97,-1426.57 4609.06,-1273.37 4619.75,-1218.55 4665.72,-982.87 4742.54,-703.15 4767.73,-613.48"/>
<polygon fill="#475569" stroke="#475569" points="4771.05,-614.61 4770.39,-604.03 4764.31,-612.71 4771.05,-614.61"/>
<text xml:space="preserve" text-anchor="middle" x="4652" y="-1221" font-family="Helvetica,sans-Serif" font-size="14.00">hasTheme</text>
</g>
<!-- n4402814763753098769&#45;&gt;n1814093808349499784 -->
<g id="edge36" class="edge">
<title>n4402814763753098769&#45;&gt;n1814093808349499784</title>
<path fill="none" stroke="#475569" d="M4271.57,-1560.75C4373.04,-1600.32 4629.23,-1685.11 4833.75,-1625.3 5055.34,-1560.5 5272.44,-1374.13 5347.31,-1305.28"/>
<polygon fill="#475569" stroke="#475569" points="5349.66,-1307.87 5354.62,-1298.51 5344.9,-1302.74 5349.66,-1307.87"/>
<text xml:space="preserve" text-anchor="middle" x="4777" y="-1646.66" font-family="Helvetica,sans-Serif" font-size="14.00">type</text>
</g>
<!-- n2407316011605190505 -->
<g id="node36" class="node">
<title>n2407316011605190505</title>
<path fill="#f7fafc" stroke="#334155" d="M5746.75,-1017.3C5746.75,-1017.3 5004.75,-1017.3 5004.75,-1017.3 4998.75,-1017.3 4992.75,-1011.3 4992.75,-1005.3 4992.75,-1005.3 4992.75,-993.3 4992.75,-993.3 4992.75,-987.3 4998.75,-981.3 5004.75,-981.3 5004.75,-981.3 5746.75,-981.3 5746.75,-981.3 5752.75,-981.3 5758.75,-987.3 5758.75,-993.3 5758.75,-993.3 5758.75,-1005.3 5758.75,-1005.3 5758.75,-1011.3 5752.75,-1017.3 5746.75,-1017.3"/>
<text xml:space="preserve" text-anchor="middle" x="5375.75" y="-993.88" font-family="Helvetica,sans-Serif" font-size="14.00">O valor da aposentadoria por invalidez e do auxílio&#45;doença, bem como das pensões destes derivados ou calculadas com b...</text>
</g>
<!-- n4402814763753098769&#45;&gt;n2407316011605190505 -->
<g id="edge62" class="edge">
<title>n4402814763753098769&#45;&gt;n2407316011605190505</title>
<path fill="none" stroke="#475569" d="M4283.19,-1536.21C4354.77,-1527.15 4481.7,-1506.78 4583.75,-1467.3 4745.45,-1404.75 5202.61,-1111.16 5337.09,-1023.85"/>
<polygon fill="#475569" stroke="#475569" points="5338.83,-1026.9 5345.3,-1018.52 5335.01,-1021.03 5338.83,-1026.9"/>
<text xml:space="preserve" text-anchor="middle" x="4777" y="-1398.5" font-family="Helvetica,sans-Serif" font-size="14.00">themeThesis</text>
</g>
<!-- n28703421914888084&#45;&gt;n2494595837941030742 -->
<g id="edge60" class="edge">
<title>n28703421914888084&#45;&gt;n2494595837941030742</title>
<path fill="none" stroke="#475569" d="M620.26,-831.86C557.84,-821.29 485.32,-805.21 422.5,-781.3 348.84,-753.27 271.42,-702.64 228.34,-672.29"/>
<polygon fill="#475569" stroke="#475569" points="230.59,-669.59 220.41,-666.64 226.53,-675.29 230.59,-669.59"/>
<text xml:space="preserve" text-anchor="middle" x="481.38" y="-817.01" font-family="Helvetica,sans-Serif" font-size="14.00">wasGeneratedBy</text>
</g>
<!-- n28703421914888084&#45;&gt;n404045410628445966 -->
<g id="edge8" class="edge">
<title>n28703421914888084&#45;&gt;n404045410628445966</title>
<path fill="none" stroke="#475569" d="M779.18,-868.45C803.97,-923.25 885.26,-1088.98 1000.25,-1182.3 1003.67,-1185.08 1224.54,-1276.86 1329.94,-1320.58"/>
<polygon fill="#475569" stroke="#475569" points="1328.4,-1323.73 1338.97,-1324.33 1331.08,-1317.26 1328.4,-1323.73"/>
<text xml:space="preserve" text-anchor="middle" x="1042.38" y="-1217.14" font-family="Helvetica,sans-Serif" font-size="14.00">ruledIn</text>
</g>
<!-- n28703421914888084&#45;&gt;n3901057556932773611 -->
<g id="edge46" class="edge">
<title>n28703421914888084&#45;&gt;n3901057556932773611</title>
<path fill="none" stroke="#475569" d="M811.31,-831.85C875.15,-803.42 1004.6,-749.78 1120.5,-726.55 1436.99,-663.11 1814.72,-657.37 2032.7,-660.66"/>
<polygon fill="#475569" stroke="#475569" points="2032.35,-664.16 2042.41,-660.82 2032.47,-657.16 2032.35,-664.16"/>
<text xml:space="preserve" text-anchor="middle" x="1385.75" y="-729" font-family="Helvetica,sans-Serif" font-size="14.00">wasDerivedFrom</text>
</g>
<!-- n28703421914888084&#45;&gt;n5493962923767701991 -->
<g id="edge15" class="edge">
<title>n28703421914888084&#45;&gt;n5493962923767701991</title>
<path fill="none" stroke="#475569" d="M788.83,-868.73C824.76,-905.17 910.82,-986.28 1000.25,-1025.3 1362.38,-1183.31 1835.43,-1215.79 2068.98,-1221.68"/>
<polygon fill="#475569" stroke="#475569" points="2068.67,-1225.17 2078.75,-1221.91 2068.83,-1218.17 2068.67,-1225.17"/>
<text xml:space="preserve" text-anchor="middle" x="1385.75" y="-1191.38" font-family="Helvetica,sans-Serif" font-size="14.00">identifier</text>
</g>
<!-- n5819821475148716579 -->
<g id="node23" class="node">
<title>n5819821475148716579</title>
<path fill="#f7fafc" stroke="#334155" d="M3084,-1322.3C3084,-1322.3 2836.25,-1322.3 2836.25,-1322.3 2830.25,-1322.3 2824.25,-1316.3 2824.25,-1310.3 2824.25,-1310.3 2824.25,-1298.3 2824.25,-1298.3 2824.25,-1292.3 2830.25,-1286.3 2836.25,-1286.3 2836.25,-1286.3 3084,-1286.3 3084,-1286.3 3090,-1286.3 3096,-1292.3 3096,-1298.3 3096,-1298.3 3096,-1310.3 3096,-1310.3 3096,-1316.3 3090,-1322.3 3084,-1322.3"/>
<text xml:space="preserve" text-anchor="middle" x="2960.12" y="-1298.88" font-family="Helvetica,sans-Serif" font-size="14.00">rs:261f3545&#45;cf32&#45;508f&#45;9fc6&#45;043a3bc53ad5</text>
</g>
<!-- n28703421914888084&#45;&gt;n5819821475148716579 -->
<g id="edge42" class="edge">
<title>n28703421914888084&#45;&gt;n5819821475148716579</title>
<path fill="none" stroke="#475569" d="M803.34,-868.78C846.51,-892.6 926.41,-933.13 1000.25,-951.3 1341.74,-1035.36 1441.7,-954.12 1789.75,-1004.55 2155.32,-1057.52 2244.68,-1088.03 2600.75,-1186.3 2706.31,-1215.43 2826.82,-1256.84 2897.75,-1282.06"/>
<polygon fill="#475569" stroke="#475569" points="2896.25,-1285.24 2906.84,-1285.31 2898.6,-1278.65 2896.25,-1285.24"/>
<text xml:space="preserve" text-anchor="middle" x="1738.38" y="-1007" font-family="Helvetica,sans-Serif" font-size="14.00">wasDerivedFrom</text>
</g>
<!-- n7150221625081542567 -->
<g id="node26" class="node">
<title>n7150221625081542567</title>
<path fill="#f7fafc" stroke="#334155" d="M1567.75,-868.3C1567.75,-868.3 1203.75,-868.3 1203.75,-868.3 1197.75,-868.3 1191.75,-862.3 1191.75,-856.3 1191.75,-856.3 1191.75,-844.3 1191.75,-844.3 1191.75,-838.3 1197.75,-832.3 1203.75,-832.3 1203.75,-832.3 1567.75,-832.3 1567.75,-832.3 1573.75,-832.3 1579.75,-838.3 1579.75,-844.3 1579.75,-844.3 1579.75,-856.3 1579.75,-856.3 1579.75,-862.3 1573.75,-868.3 1567.75,-868.3"/>
<text xml:space="preserve" text-anchor="middle" x="1385.75" y="-844.88" font-family="Helvetica,sans-Serif" font-size="14.00">Admissibility decision for process 5021277&#45;41.2025.4.02.5101</text>
</g>
<!-- n28703421914888084&#45;&gt;n7150221625081542567 -->
<g id="edge27" class="edge">
<title>n28703421914888084&#45;&gt;n7150221625081542567</title>
<path fill="none" stroke="#475569" d="M964.52,-850.3C1033.2,-850.3 1110.72,-850.3 1180.3,-850.3"/>
<polygon fill="#475569" stroke="#475569" points="1179.88,-853.8 1189.88,-850.3 1179.88,-846.8 1179.88,-853.8"/>
<text xml:space="preserve" text-anchor="middle" x="1042.38" y="-852.75" font-family="Helvetica,sans-Serif" font-size="14.00">label</text>
</g>
<!-- n28703421914888084&#45;&gt;n1814093808349499784 -->
<g id="edge28" class="edge">
<title>n28703421914888084&#45;&gt;n1814093808349499784</title>
<path fill="none" stroke="#475569" d="M866.73,-868.77C987.04,-890.4 1200.39,-923.3 1384.75,-923.3 1384.75,-923.3 1384.75,-923.3 2689.88,-923.3 2907.44,-923.3 2961.7,-914.16 3179.25,-911.55 3803.72,-904.06 3973.16,-823.18 4583.75,-954.3 4884.58,-1018.9 5216.74,-1191.9 5332.34,-1255.46"/>
<polygon fill="#475569" stroke="#475569" points="5330.44,-1258.41 5340.89,-1260.17 5333.82,-1252.28 5330.44,-1258.41"/>
<text xml:space="preserve" text-anchor="middle" x="3238.12" y="-914" font-family="Helvetica,sans-Serif" font-size="14.00">type</text>
</g>
<!-- n6987174495278277380 -->
<g id="node41" class="node">
<title>n6987174495278277380</title>
<path fill="#f7fafc" stroke="#334155" d="M1456.38,-796.3C1456.38,-796.3 1315.12,-796.3 1315.12,-796.3 1309.12,-796.3 1303.12,-790.3 1303.12,-784.3 1303.12,-784.3 1303.12,-772.3 1303.12,-772.3 1303.12,-766.3 1309.12,-760.3 1315.12,-760.3 1315.12,-760.3 1456.38,-760.3 1456.38,-760.3 1462.38,-760.3 1468.38,-766.3 1468.38,-772.3 1468.38,-772.3 1468.38,-784.3 1468.38,-784.3 1468.38,-790.3 1462.38,-796.3 1456.38,-796.3"/>
<text xml:space="preserve" text-anchor="middle" x="1385.75" y="-772.88" font-family="Helvetica,sans-Serif" font-size="14.00">ors:AdmissibilityDecision</text>
</g>
<!-- n28703421914888084&#45;&gt;n6987174495278277380 -->
<g id="edge67" class="edge">
<title>n28703421914888084&#45;&gt;n6987174495278277380</title>
<path fill="none" stroke="#475569" d="M928.84,-831.81C1043.76,-818.32 1195.59,-800.5 1291.73,-789.22"/>
<polygon fill="#475569" stroke="#475569" points="1291.86,-792.73 1301.38,-788.09 1291.04,-785.78 1291.86,-792.73"/>
<text xml:space="preserve" text-anchor="middle" x="1042.38" y="-825.32" font-family="Helvetica,sans-Serif" font-size="14.00">type</text>
</g>
<!-- n3332036697099823475 -->
<g id="node15" class="node">
<title>n3332036697099823475</title>
<path fill="#f7fafc" stroke="#334155" d="M5459.5,-582.3C5459.5,-582.3 5292,-582.3 5292,-582.3 5286,-582.3 5280,-576.3 5280,-570.3 5280,-570.3 5280,-558.3 5280,-558.3 5280,-552.3 5286,-546.3 5292,-546.3 5292,-546.3 5459.5,-546.3 5459.5,-546.3 5465.5,-546.3 5471.5,-552.3 5471.5,-558.3 5471.5,-558.3 5471.5,-570.3 5471.5,-570.3 5471.5,-576.3 5465.5,-582.3 5459.5,-582.3"/>
<text xml:space="preserve" text-anchor="middle" x="5375.75" y="-558.88" font-family="Helvetica,sans-Serif" font-size="14.00">DIREITO PREVIDENCIÁRIO</text>
</g>
<!-- n2474687712127890622&#45;&gt;n3332036697099823475 -->
<g id="edge11" class="edge">
<title>n2474687712127890622&#45;&gt;n3332036697099823475</title>
<path fill="none" stroke="#475569" d="M4804.28,-572.58C4822.3,-565.2 4846.98,-556.38 4869.75,-552.55 5005.83,-529.67 5165.42,-539.36 5268.2,-550.22"/>
<polygon fill="#475569" stroke="#475569" points="5267.69,-553.69 5278.01,-551.28 5268.44,-546.73 5267.69,-553.69"/>
<text xml:space="preserve" text-anchor="middle" x="4913.25" y="-555" font-family="Helvetica,sans-Serif" font-size="14.00">type</text>
</g>
<!-- n2474687712127890622&#45;&gt;n1814093808349499784 -->
<g id="edge63" class="edge">
<title>n2474687712127890622&#45;&gt;n1814093808349499784</title>
<path fill="none" stroke="#475569" d="M4786.68,-602.4C4801.21,-631.57 4832.56,-689.9 4869.75,-731.3 4902.59,-767.86 4931.97,-757.11 4956.75,-799.55 5010.2,-891.08 4934.93,-946.47 4992.75,-1035.3 5073.27,-1159.02 5240.88,-1232.44 5324.73,-1262.84"/>
<polygon fill="#475569" stroke="#475569" points="5323.48,-1266.11 5334.07,-1266.17 5325.83,-1259.52 5323.48,-1266.11"/>
<text xml:space="preserve" text-anchor="middle" x="4913.25" y="-802" font-family="Helvetica,sans-Serif" font-size="14.00">type</text>
</g>
<!-- n2474687712127890622&#45;&gt;n8045631374618994937 -->
<g id="edge48" class="edge">
<title>n2474687712127890622&#45;&gt;n8045631374618994937</title>
<path fill="none" stroke="#475569" d="M4804.36,-587.93C4839.24,-592.76 4902.64,-601.6 4956.75,-609.55 5097.1,-630.17 5263.74,-655.98 5337.01,-667.4"/>
<polygon fill="#475569" stroke="#475569" points="5336.44,-670.86 5346.86,-668.94 5337.52,-663.94 5336.44,-670.86"/>
<text xml:space="preserve" text-anchor="middle" x="4913.25" y="-612" font-family="Helvetica,sans-Serif" font-size="14.00">themeNumber</text>
</g>
<!-- n7874387278046459848 -->
<g id="node31" class="node">
<title>n7874387278046459848</title>
<path fill="#f7fafc" stroke="#334155" d="M5744.88,-510.3C5744.88,-510.3 5006.62,-510.3 5006.62,-510.3 5000.62,-510.3 4994.62,-504.3 4994.62,-498.3 4994.62,-498.3 4994.62,-486.3 4994.62,-486.3 4994.62,-480.3 5000.62,-474.3 5006.62,-474.3 5006.62,-474.3 5744.88,-474.3 5744.88,-474.3 5750.88,-474.3 5756.88,-480.3 5756.88,-486.3 5756.88,-486.3 5756.88,-498.3 5756.88,-498.3 5756.88,-504.3 5750.88,-510.3 5744.88,-510.3"/>
<text xml:space="preserve" text-anchor="middle" x="5375.75" y="-486.88" font-family="Helvetica,sans-Serif" font-size="14.00">Saber qual a forma de cálculo da aposentadoria por invalidez, do auxílio&#45;doença e pensões derivadas, em momento antec...</text>
</g>
<!-- n2474687712127890622&#45;&gt;n7874387278046459848 -->
<g id="edge33" class="edge">
<title>n2474687712127890622&#45;&gt;n7874387278046459848</title>
<path fill="none" stroke="#475569" d="M4796.13,-566.08C4813.4,-550.04 4840.96,-527.72 4869.75,-517.55 4905.88,-504.79 4944.37,-495.65 4983.36,-489.27"/>
<polygon fill="#475569" stroke="#475569" points="4983.54,-492.78 4992.87,-487.77 4982.45,-485.86 4983.54,-492.78"/>
<text xml:space="preserve" text-anchor="middle" x="4913.25" y="-520" font-family="Helvetica,sans-Serif" font-size="14.00">description</text>
</g>
<!-- n974303052913707324 -->
<g id="node34" class="node">
<title>n974303052913707324</title>
<path fill="#f7fafc" stroke="#334155" d="M5404.38,-438.3C5404.38,-438.3 5347.12,-438.3 5347.12,-438.3 5341.12,-438.3 5335.12,-432.3 5335.12,-426.3 5335.12,-426.3 5335.12,-414.3 5335.12,-414.3 5335.12,-408.3 5341.12,-402.3 5347.12,-402.3 5347.12,-402.3 5404.38,-402.3 5404.38,-402.3 5410.38,-402.3 5416.38,-408.3 5416.38,-414.3 5416.38,-414.3 5416.38,-426.3 5416.38,-426.3 5416.38,-432.3 5410.38,-438.3 5404.38,-438.3"/>
<text xml:space="preserve" text-anchor="middle" x="5375.75" y="-414.88" font-family="Helvetica,sans-Serif" font-size="14.00">ors:Theme</text>
</g>
<!-- n2474687712127890622&#45;&gt;n974303052913707324 -->
<g id="edge41" class="edge">
<title>n2474687712127890622&#45;&gt;n974303052913707324</title>
<path fill="none" stroke="#475569" d="M4786.88,-566.01C4800.64,-539.88 4829.75,-492.59 4869.75,-470.55 5017.71,-389.01 5227.35,-401.43 5323.25,-412.8"/>
<polygon fill="#475569" stroke="#475569" points="5322.79,-416.27 5333.14,-414.02 5323.65,-409.32 5322.79,-416.27"/>
<text xml:space="preserve" text-anchor="middle" x="4913.25" y="-473" font-family="Helvetica,sans-Serif" font-size="14.00">type</text>
</g>
<!-- n2474687712127890622&#45;&gt;n2407316011605190505 -->
<g id="edge51" class="edge">
<title>n2474687712127890622&#45;&gt;n2407316011605190505</title>
<path fill="none" stroke="#475569" d="M4804.41,-602.67C4900.2,-669.29 5229.48,-898.28 5339,-974.44"/>
<polygon fill="#475569" stroke="#475569" points="5336.86,-977.21 5347.06,-980.05 5340.85,-971.46 5336.86,-977.21"/>
<text xml:space="preserve" text-anchor="middle" x="4913.25" y="-709.38" font-family="Helvetica,sans-Serif" font-size="14.00">themeThesis</text>
</g>
<!-- n1052513836601814631&#45;&gt;n8793560584400511256 -->
<g id="edge45" class="edge">
<title>n1052513836601814631&#45;&gt;n8793560584400511256</title>
<path fill="none" stroke="#475569" d="M3016.05,-427.8C3058.42,-445.16 3114.5,-475.55 3143.25,-522.3 3191.39,-600.59 3121.49,-862.82 3179.25,-934.3 3213.67,-976.89 3248.22,-945.67 3297,-970.55 3371.82,-1008.72 3447.61,-1072.72 3487.03,-1108.36"/>
<polygon fill="#475569" stroke="#475569" points="3484.46,-1110.76 3494.21,-1114.91 3489.18,-1105.59 3484.46,-1110.76"/>
<text xml:space="preserve" text-anchor="middle" x="3238.12" y="-973" font-family="Helvetica,sans-Serif" font-size="14.00">used</text>
</g>
<!-- n1052513836601814631&#45;&gt;n3901057556932773611 -->
<g id="edge54" class="edge">
<title>n1052513836601814631&#45;&gt;n3901057556932773611</title>
<path fill="none" stroke="#475569" d="M2856.2,-390.81C2791.88,-383.06 2708.03,-380 2636.75,-400.55 2470.15,-448.59 2305.88,-583.88 2242.07,-640.68"/>
<polygon fill="#475569" stroke="#475569" points="2239.97,-637.87 2234.87,-647.15 2244.64,-643.07 2239.97,-637.87"/>
<text xml:space="preserve" text-anchor="middle" x="2688.88" y="-403" font-family="Helvetica,sans-Serif" font-size="14.00">generated</text>
</g>
<!-- n1052513836601814631&#45;&gt;n6318297126724603026 -->
<g id="edge68" class="edge">
<title>n1052513836601814631&#45;&gt;n6318297126724603026</title>
<path fill="none" stroke="#475569" d="M3118.66,-427.8C3222,-439.93 3352.76,-455.28 3435.11,-464.95"/>
<polygon fill="#475569" stroke="#475569" points="3434.56,-468.41 3444.9,-466.1 3435.37,-461.46 3434.56,-468.41"/>
<text xml:space="preserve" text-anchor="middle" x="3238.12" y="-450.07" font-family="Helvetica,sans-Serif" font-size="14.00">wasAssociatedWith</text>
</g>
<!-- n1052513836601814631&#45;&gt;n4402814763753098769 -->
<g id="edge53" class="edge">
<title>n1052513836601814631&#45;&gt;n4402814763753098769</title>
<path fill="none" stroke="#475569" d="M3016.92,-427.7C3059.5,-444.94 3115.42,-475.21 3143.25,-522.3 3182.26,-588.3 3125.78,-1156.37 3179.25,-1211.3 3259.98,-1294.25 3613.41,-1174.08 3698.5,-1252.55 3772.22,-1320.54 3662.72,-1405.27 3734.5,-1475.3 3847.92,-1585.97 4052.35,-1572.03 4157.99,-1555.53"/>
<polygon fill="#475569" stroke="#475569" points="4158.33,-1559.02 4167.64,-1553.96 4157.21,-1552.11 4158.33,-1559.02"/>
<text xml:space="preserve" text-anchor="middle" x="3515.75" y="-1255" font-family="Helvetica,sans-Serif" font-size="14.00">used</text>
</g>
<!-- n1052513836601814631&#45;&gt;n2474687712127890622 -->
<g id="edge38" class="edge">
<title>n1052513836601814631&#45;&gt;n2474687712127890622</title>
<path fill="none" stroke="#475569" d="M3007.81,-390.88C3077.72,-363.74 3214.11,-312.54 3333,-278.3 3601.34,-201.02 4349.24,-5.7 4583.75,-157.3 4725.97,-249.24 4764.03,-474.28 4773.28,-554.94"/>
<polygon fill="#475569" stroke="#475569" points="4769.77,-555.1 4774.32,-564.67 4776.74,-554.36 4769.77,-555.1"/>
<text xml:space="preserve" text-anchor="middle" x="3783.62" y="-177.35" font-family="Helvetica,sans-Serif" font-size="14.00">used</text>
</g>
<!-- n1052513836601814631&#45;&gt;n3777206597782045167 -->
<g id="edge18" class="edge">
<title>n1052513836601814631&#45;&gt;n3777206597782045167</title>
<path fill="none" stroke="#475569" d="M3143.7,-405.41C3320.48,-400.04 3595.79,-387.45 3832.75,-358.3 3954.18,-343.36 4094.68,-313.86 4170.27,-296.97"/>
<polygon fill="#475569" stroke="#475569" points="4170.92,-300.41 4179.91,-294.81 4169.39,-293.58 4170.92,-300.41"/>
<text xml:space="preserve" text-anchor="middle" x="3515.75" y="-400.38" font-family="Helvetica,sans-Serif" font-size="14.00">type</text>
</g>
<!-- n1845565241421360726 -->
<g id="node21" class="node">
<title>n1845565241421360726</title>
<path fill="#f7fafc" stroke="#334155" d="M3686.5,-332.3C3686.5,-332.3 3345,-332.3 3345,-332.3 3339,-332.3 3333,-326.3 3333,-320.3 3333,-320.3 3333,-308.3 3333,-308.3 3333,-302.3 3339,-296.3 3345,-296.3 3345,-296.3 3686.5,-296.3 3686.5,-296.3 3692.5,-296.3 3698.5,-302.3 3698.5,-308.3 3698.5,-308.3 3698.5,-320.3 3698.5,-320.3 3698.5,-326.3 3692.5,-332.3 3686.5,-332.3"/>
<text xml:space="preserve" text-anchor="middle" x="3515.75" y="-308.88" font-family="Helvetica,sans-Serif" font-size="14.00">jdd:pipeline&#45;run&#45;10e37f50&#45;4d82&#45;574b&#45;8c12&#45;1e5a8362185c</text>
</g>
<!-- n1052513836601814631&#45;&gt;n1845565241421360726 -->
<g id="edge19" class="edge">
<title>n1052513836601814631&#45;&gt;n1845565241421360726</title>
<path fill="none" stroke="#475569" d="M3036.52,-390.83C3078.39,-380.99 3131.52,-369.16 3179.25,-360.55 3234.6,-350.57 3295.43,-341.59 3349.92,-334.26"/>
<polygon fill="#475569" stroke="#475569" points="3350.14,-337.76 3359.59,-332.96 3349.21,-330.82 3350.14,-337.76"/>
<text xml:space="preserve" text-anchor="middle" x="3238.12" y="-363" font-family="Helvetica,sans-Serif" font-size="14.00">wasInformedBy</text>
</g>
<!-- n8047799443714288884 -->
<g id="node30" class="node">
<title>n8047799443714288884</title>
<path fill="#f7fafc" stroke="#334155" d="M3550,-564.3C3550,-564.3 3481.5,-564.3 3481.5,-564.3 3475.5,-564.3 3469.5,-558.3 3469.5,-552.3 3469.5,-552.3 3469.5,-540.3 3469.5,-540.3 3469.5,-534.3 3475.5,-528.3 3481.5,-528.3 3481.5,-528.3 3550,-528.3 3550,-528.3 3556,-528.3 3562,-534.3 3562,-540.3 3562,-540.3 3562,-552.3 3562,-552.3 3562,-558.3 3556,-564.3 3550,-564.3"/>
<text xml:space="preserve" text-anchor="middle" x="3515.75" y="-540.88" font-family="Helvetica,sans-Serif" font-size="14.00">classification</text>
</g>
<!-- n1052513836601814631&#45;&gt;n8047799443714288884 -->
<g id="edge32" class="edge">
<title>n1052513836601814631&#45;&gt;n8047799443714288884</title>
<path fill="none" stroke="#475569" d="M3040.71,-427.76C3072.85,-435.86 3110.11,-446.09 3143.25,-457.3 3159.67,-462.86 3162.79,-466.87 3179.25,-472.3 3246.1,-494.35 3264.29,-495.01 3333,-510.3 3374.65,-519.57 3421.93,-528.9 3457.83,-535.74"/>
<polygon fill="#475569" stroke="#475569" points="3457.1,-539.16 3467.58,-537.58 3458.4,-532.28 3457.1,-539.16"/>
<text xml:space="preserve" text-anchor="middle" x="3238.12" y="-504.4" font-family="Helvetica,sans-Serif" font-size="14.00">type</text>
</g>
<!-- n1845565241421360726&#45;&gt;n3777206597782045167 -->
<g id="edge43" class="edge">
<title>n1845565241421360726&#45;&gt;n3777206597782045167</title>
<path fill="none" stroke="#475569" d="M3614.75,-295.83C3652.08,-289.66 3695.12,-283.59 3734.5,-280.55 3892.18,-268.4 4079.2,-275.84 4170.11,-280.85"/>
<polygon fill="#475569" stroke="#475569" points="4169.81,-284.34 4179.99,-281.41 4170.21,-277.35 4169.81,-284.34"/>
<text xml:space="preserve" text-anchor="middle" x="3783.62" y="-283" font-family="Helvetica,sans-Serif" font-size="14.00">type</text>
</g>
<!-- n5819821475148716579&#45;&gt;n8793560584400511256 -->
<g id="edge22" class="edge">
<title>n5819821475148716579&#45;&gt;n8793560584400511256</title>
<path fill="none" stroke="#475569" d="M3020.34,-1285.87C3093.69,-1263.06 3222.5,-1223.11 3333,-1189.3 3368.97,-1178.3 3408.98,-1166.18 3442.29,-1156.12"/>
<polygon fill="#475569" stroke="#475569" points="3443.3,-1159.47 3451.86,-1153.23 3441.27,-1152.77 3443.3,-1159.47"/>
<text xml:space="preserve" text-anchor="middle" x="3238.12" y="-1238.91" font-family="Helvetica,sans-Serif" font-size="14.00">isFiledAgainst</text>
</g>
<!-- n5819821475148716579&#45;&gt;n647775799432983616 -->
<g id="edge29" class="edge">
<title>n5819821475148716579&#45;&gt;n647775799432983616</title>
<path fill="none" stroke="#475569" d="M3096.3,-1320.7C3123.73,-1323.78 3152.4,-1326.8 3179.25,-1329.3 3468.86,-1356.25 3541.92,-1368.75 3832.75,-1364.3 3930.86,-1362.8 4042.71,-1359.2 4121.84,-1356.33"/>
<polygon fill="#475569" stroke="#475569" points="4121.9,-1359.83 4131.76,-1355.96 4121.64,-1352.83 4121.9,-1359.83"/>
<text xml:space="preserve" text-anchor="middle" x="3515.75" y="-1367.53" font-family="Helvetica,sans-Serif" font-size="14.00">identifier</text>
</g>
<!-- n5819821475148716579&#45;&gt;n1814093808349499784 -->
<g id="edge34" class="edge">
<title>n5819821475148716579&#45;&gt;n1814093808349499784</title>
<path fill="none" stroke="#475569" d="M3018.94,-1322.79C3091.4,-1344.77 3219.84,-1379.8 3333,-1390.3 3886.51,-1441.68 4029.27,-1427.81 4583.75,-1388.3 4865.33,-1368.24 5199.46,-1311.12 5324.36,-1288.6"/>
<polygon fill="#475569" stroke="#475569" points="5324.73,-1292.09 5333.95,-1286.86 5323.48,-1285.2 5324.73,-1292.09"/>
<text xml:space="preserve" text-anchor="middle" x="4226.25" y="-1426.09" font-family="Helvetica,sans-Serif" font-size="14.00">type</text>
</g>
<!-- n1455034240384442500 -->
<g id="node33" class="node">
<title>n1455034240384442500</title>
<path fill="#f7fafc" stroke="#334155" d="M3545.5,-1322.3C3545.5,-1322.3 3486,-1322.3 3486,-1322.3 3480,-1322.3 3474,-1316.3 3474,-1310.3 3474,-1310.3 3474,-1298.3 3474,-1298.3 3474,-1292.3 3480,-1286.3 3486,-1286.3 3486,-1286.3 3545.5,-1286.3 3545.5,-1286.3 3551.5,-1286.3 3557.5,-1292.3 3557.5,-1298.3 3557.5,-1298.3 3557.5,-1310.3 3557.5,-1310.3 3557.5,-1316.3 3551.5,-1322.3 3545.5,-1322.3"/>
<text xml:space="preserve" text-anchor="middle" x="3515.75" y="-1298.88" font-family="Helvetica,sans-Serif" font-size="14.00">ors:Petition</text>
</g>
<!-- n5819821475148716579&#45;&gt;n1455034240384442500 -->
<g id="edge37" class="edge">
<title>n5819821475148716579&#45;&gt;n1455034240384442500</title>
<path fill="none" stroke="#475569" d="M3096.2,-1304.3C3214.09,-1304.3 3378.94,-1304.3 3462.2,-1304.3"/>
<polygon fill="#475569" stroke="#475569" points="3462.12,-1307.8 3472.12,-1304.3 3462.12,-1300.8 3462.12,-1307.8"/>
<text xml:space="preserve" text-anchor="middle" x="3238.12" y="-1306.75" font-family="Helvetica,sans-Serif" font-size="14.00">type</text>
</g>
<!-- n6065844580812240659&#45;&gt;n7499073476392126329 -->
<g id="edge59" class="edge">
<title>n6065844580812240659&#45;&gt;n7499073476392126329</title>
<path fill="none" stroke="#475569" d="M1084.78,-55.79C1274.65,-40.22 2081.02,20.17 2741,-18.55 3281.69,-50.27 3927.48,-146.45 4147.47,-180.88"/>
<polygon fill="#475569" stroke="#475569" points="4146.64,-184.29 4157.06,-182.38 4147.72,-177.38 4146.64,-184.29"/>
<text xml:space="preserve" text-anchor="middle" x="2688.88" y="-21" font-family="Helvetica,sans-Serif" font-size="14.00">type</text>
</g>
</g>
</svg>
