<?xml version="1.0" encoding="UTF-8" standalone="no"?>
<!DOCTYPE svg PUBLIC "-//W3C//DTD SVG 1.1//EN"
 "http://www.w3.org/Graphics/SVG/1.1/DTD/svg11.dtd">
<!-- Generated by graphviz version 14.1.2 (20260124.0452)
 -->
<!-- Title: rdf_graph Pages: 1 -->
<svg width="6626pt" height="2238pt"
 viewBox="0.00 0.00 6626.00 2238.00" xmlns="http://www.w3.org/2000/svg" xmlns:xlink="http://www.w3.org/1999/xlink">
<g id="graph0" class="graph" transform="scale(1 1) rotate(0) translate(14.4 2223.52)">
<title>rdf_graph</title>
<polygon fill="white" stroke="none" points="-14.4,14.4 -14.4,-2223.52 6611.9,-2223.52 6611.9,14.4 -14.4,14.4"/>
<!-- n2474687712127890622 -->
<g id="node1" class="node">
<title>n2474687712127890622</title>
<path fill="#f7fafc" stroke="#334155" d="M4283.5,-1749.37C4283.5,-1749.37 4187.25,-1749.37 4187.25,-1749.37 4181.25,-1749.37 4175.25,-1743.37 4175.25,-1737.37 4175.25,-1737.37 4175.25,-1725.37 4175.25,-1725.37 4175.25,-1719.37 4181.25,-1713.37 4187.25,-1713.37 4187.25,-1713.37 4283.5,-1713.37 4283.5,-1713.37 4289.5,-1713.37 4295.5,-1719.37 4295.5,-1725.37 4295.5,-1725.37 4295.5,-1737.37 4295.5,-1737.37 4295.5,-1743.37 4289.5,-1749.37 4283.5,-1749.37"/>
<text xml:space="preserve" text-anchor="middle" x="4235.38" y="-1725.95" font-family="Helvetica,sans-Serif" font-size="14.00">Tema 1 &#45; Julgado</text>
</g>
<!-- n4678304874532065194 -->
<g id="node2" class="node">
<title>n4678304874532065194</title>
<path fill="#f7fafc" stroke="#334155" d="M4917.5,-1863.37C4917.5,-1863.37 4789,-1863.37 4789,-1863.37 4783,-1863.37 4777,-1857.37 4777,-1851.37 4777,-1851.37 4777,-1839.37 4777,-1839.37 4777,-1833.37 4783,-1827.37 4789,-1827.37 4789,-1827.37 4917.5,-1827.37 4917.5,-1827.37 4923.5,-1827.37 4929.5,-1833.37 4929.5,-1839.37 4929.5,-1839.37 4929.5,-1851.37 4929.5,-1851.37 4929.5,-1857.37 4923.5,-1863.37 4917.5,-1863.37"/>
<text xml:space="preserve" text-anchor="middle" x="4853.25" y="-1839.95" font-family="Helvetica,sans-Serif" font-size="14.00">Collected TNU themes</text>
</g>
<!-- n2474687712127890622&#45;&gt;n4678304874532065194 -->
<g id="edge1" class="edge">
<title>n2474687712127890622&#45;&gt;n4678304874532065194</title>
<path fill="none" stroke="#475569" d="M4293.21,-1749.75C4332.82,-1762.65 4386.84,-1780.41 4434.25,-1796.62 4450.31,-1802.11 4453.67,-1805.72 4470.25,-1809.37 4570.07,-1831.4 4687.48,-1839.95 4765.52,-1843.27"/>
<polygon fill="#475569" stroke="#475569" points="4765.1,-1846.76 4775.23,-1843.67 4765.38,-1839.77 4765.1,-1846.76"/>
<text xml:space="preserve" text-anchor="middle" x="4382.88" y="-1799.07" font-family="Helvetica,sans-Serif" font-size="14.00">wasDerivedFrom</text>
</g>
<!-- n8045631374618994937 -->
<g id="node10" class="node">
<title>n8045631374618994937</title>
<path fill="#f7fafc" stroke="#334155" d="M4868.25,-2032.37C4868.25,-2032.37 4838.25,-2032.37 4838.25,-2032.37 4832.25,-2032.37 4826.25,-2026.37 4826.25,-2020.37 4826.25,-2020.37 4826.25,-2008.37 4826.25,-2008.37 4826.25,-2002.37 4832.25,-1996.37 4838.25,-1996.37 4838.25,-1996.37 4868.25,-1996.37 4868.25,-1996.37 4874.25,-1996.37 4880.25,-2002.37 4880.25,-2008.37 4880.25,-2008.37 4880.25,-2020.37 4880.25,-2020.37 4880.25,-2026.37 4874.25,-2032.37 4868.25,-2032.37"/>
<text xml:space="preserve" text-anchor="middle" x="4853.25" y="-2008.95" font-family="Helvetica,sans-Serif" font-size="14.00">1</text>
</g>
<!-- n2474687712127890622&#45;&gt;n8045631374618994937 -->
<g id="edge6" class="edge">
<title>n2474687712127890622&#45;&gt;n8045631374618994937</title>
<path fill="none" stroke="#475569" d="M4238.86,-1749.74C4245.51,-1791.1 4267.76,-1891.67 4331.5,-1939.37 4480.55,-2050.92 4722.35,-2032.39 4814.74,-2020.2"/>
<polygon fill="#475569" stroke="#475569" points="4815.08,-2023.69 4824.5,-2018.85 4814.12,-2016.75 4815.08,-2023.69"/>
<text xml:space="preserve" text-anchor="middle" x="4382.88" y="-1994.42" font-family="Helvetica,sans-Serif" font-size="14.00">identifier</text>
</g>
<!-- n2474687712127890622&#45;&gt;n8045631374618994937 -->
<g id="edge65" class="edge">
<title>n2474687712127890622&#45;&gt;n8045631374618994937</title>
<path fill="none" stroke="#475569" d="M4243.64,-1749.43C4256.65,-1779.44 4286.81,-1839.4 4331.5,-1871.37 4371.91,-1900.28 4702.51,-1979.38 4814.97,-2005.71"/>
<polygon fill="#475569" stroke="#475569" points="4814.05,-2009.1 4824.59,-2007.96 4815.65,-2002.28 4814.05,-2009.1"/>
<text xml:space="preserve" text-anchor="middle" x="4382.88" y="-1909.1" font-family="Helvetica,sans-Serif" font-size="14.00">themeNumber</text>
</g>
<!-- n3332036697099823475 -->
<g id="node20" class="node">
<title>n3332036697099823475</title>
<path fill="#f7fafc" stroke="#334155" d="M4937,-1719.37C4937,-1719.37 4769.5,-1719.37 4769.5,-1719.37 4763.5,-1719.37 4757.5,-1713.37 4757.5,-1707.37 4757.5,-1707.37 4757.5,-1695.37 4757.5,-1695.37 4757.5,-1689.37 4763.5,-1683.37 4769.5,-1683.37 4769.5,-1683.37 4937,-1683.37 4937,-1683.37 4943,-1683.37 4949,-1689.37 4949,-1695.37 4949,-1695.37 4949,-1707.37 4949,-1707.37 4949,-1713.37 4943,-1719.37 4937,-1719.37"/>
<text xml:space="preserve" text-anchor="middle" x="4853.25" y="-1695.95" font-family="Helvetica,sans-Serif" font-size="14.00">DIREITO PREVIDENCIÁRIO</text>
</g>
<!-- n2474687712127890622&#45;&gt;n3332036697099823475 -->
<g id="edge15" class="edge">
<title>n2474687712127890622&#45;&gt;n3332036697099823475</title>
<path fill="none" stroke="#475569" d="M4263.72,-1712.93C4282.03,-1701.74 4307.15,-1688.5 4331.5,-1682.62 4407.21,-1664.35 4616.64,-1679.14 4745.67,-1690.78"/>
<polygon fill="#475569" stroke="#475569" points="4745.35,-1694.27 4755.62,-1691.69 4745.98,-1687.3 4745.35,-1694.27"/>
<text xml:space="preserve" text-anchor="middle" x="4382.88" y="-1685.07" font-family="Helvetica,sans-Serif" font-size="14.00">type</text>
</g>
<!-- n1814093808349499784 -->
<g id="node34" class="node">
<title>n1814093808349499784</title>
<path fill="#f7fafc" stroke="#334155" d="M5581.12,-918.37C5581.12,-918.37 5525.38,-918.37 5525.38,-918.37 5519.38,-918.37 5513.38,-912.37 5513.38,-906.37 5513.38,-906.37 5513.38,-894.37 5513.38,-894.37 5513.38,-888.37 5519.38,-882.37 5525.38,-882.37 5525.38,-882.37 5581.12,-882.37 5581.12,-882.37 5587.12,-882.37 5593.12,-888.37 5593.12,-894.37 5593.12,-894.37 5593.12,-906.37 5593.12,-906.37 5593.12,-912.37 5587.12,-918.37 5581.12,-918.37"/>
<text xml:space="preserve" text-anchor="middle" x="5553.25" y="-894.95" font-family="Helvetica,sans-Serif" font-size="14.00">prov:Entity</text>
</g>
<!-- n2474687712127890622&#45;&gt;n1814093808349499784 -->
<g id="edge82" class="edge">
<title>n2474687712127890622&#45;&gt;n1814093808349499784</title>
<path fill="none" stroke="#475569" d="M4241.12,-1712.88C4251.36,-1676.6 4278.99,-1595.74 4331.5,-1551.37 4381.1,-1509.46 4407.24,-1521.32 4470.25,-1505.62 4668.52,-1456.25 5218.15,-1479.49 5376.5,-1350.37 5511.9,-1239.97 5543.32,-1011.29 5550.32,-929.91"/>
<polygon fill="#475569" stroke="#475569" points="5553.8,-930.34 5551.1,-920.09 5546.82,-929.78 5553.8,-930.34"/>
<text xml:space="preserve" text-anchor="middle" x="4853.25" y="-1508.07" font-family="Helvetica,sans-Serif" font-size="14.00">type</text>
</g>
<!-- n7874387278046459848 -->
<g id="node38" class="node">
<title>n7874387278046459848</title>
<path fill="#f7fafc" stroke="#334155" d="M5222.38,-1647.37C5222.38,-1647.37 4484.12,-1647.37 4484.12,-1647.37 4478.12,-1647.37 4472.12,-1641.37 4472.12,-1635.37 4472.12,-1635.37 4472.12,-1623.37 4472.12,-1623.37 4472.12,-1617.37 4478.12,-1611.37 4484.12,-1611.37 4484.12,-1611.37 5222.38,-1611.37 5222.38,-1611.37 5228.38,-1611.37 5234.38,-1617.37 5234.38,-1623.37 5234.38,-1623.37 5234.38,-1635.37 5234.38,-1635.37 5234.38,-1641.37 5228.38,-1647.37 5222.38,-1647.37"/>
<text xml:space="preserve" text-anchor="middle" x="4853.25" y="-1623.95" font-family="Helvetica,sans-Serif" font-size="14.00">Saber qual a forma de cálculo da aposentadoria por invalidez, do auxílio&#45;doença e pensões derivadas, em momento antec...</text>
</g>
<!-- n2474687712127890622&#45;&gt;n7874387278046459848 -->
<g id="edge43" class="edge">
<title>n2474687712127890622&#45;&gt;n7874387278046459848</title>
<path fill="none" stroke="#475569" d="M4250.91,-1713.07C4267.85,-1693.29 4297.86,-1662.84 4331.5,-1649.62 4451.36,-1602.53 4598.92,-1601.54 4706.33,-1609.95"/>
<polygon fill="#475569" stroke="#475569" points="4705.81,-1613.42 4716.07,-1610.75 4706.39,-1606.44 4705.81,-1613.42"/>
<text xml:space="preserve" text-anchor="middle" x="4382.88" y="-1652.07" font-family="Helvetica,sans-Serif" font-size="14.00">description</text>
</g>
<!-- n1387005377355918511 -->
<g id="node41" class="node">
<title>n1387005377355918511</title>
<path fill="#f7fafc" stroke="#334155" d="M4901.38,-1575.37C4901.38,-1575.37 4805.12,-1575.37 4805.12,-1575.37 4799.12,-1575.37 4793.12,-1569.37 4793.12,-1563.37 4793.12,-1563.37 4793.12,-1551.37 4793.12,-1551.37 4793.12,-1545.37 4799.12,-1539.37 4805.12,-1539.37 4805.12,-1539.37 4901.38,-1539.37 4901.38,-1539.37 4907.38,-1539.37 4913.38,-1545.37 4913.38,-1551.37 4913.38,-1551.37 4913.38,-1563.37 4913.38,-1563.37 4913.38,-1569.37 4907.38,-1575.37 4901.38,-1575.37"/>
<text xml:space="preserve" text-anchor="middle" x="4853.25" y="-1551.95" font-family="Helvetica,sans-Serif" font-size="14.00">Tema 1 &#45; Julgado</text>
</g>
<!-- n2474687712127890622&#45;&gt;n1387005377355918511 -->
<g id="edge49" class="edge">
<title>n2474687712127890622&#45;&gt;n1387005377355918511</title>
<path fill="none" stroke="#475569" d="M4243.27,-1713.18C4255.74,-1683.13 4285.12,-1623.86 4331.5,-1597.62 4474.66,-1516.63 4676.39,-1530.21 4781.82,-1545"/>
<polygon fill="#475569" stroke="#475569" points="4781.05,-1548.42 4791.45,-1546.4 4782.06,-1541.5 4781.05,-1548.42"/>
<text xml:space="preserve" text-anchor="middle" x="4382.88" y="-1600.07" font-family="Helvetica,sans-Serif" font-size="14.00">label</text>
</g>
<!-- n974303052913707324 -->
<g id="node44" class="node">
<title>n974303052913707324</title>
<path fill="#f7fafc" stroke="#334155" d="M4881.88,-1791.37C4881.88,-1791.37 4824.62,-1791.37 4824.62,-1791.37 4818.62,-1791.37 4812.62,-1785.37 4812.62,-1779.37 4812.62,-1779.37 4812.62,-1767.37 4812.62,-1767.37 4812.62,-1761.37 4818.62,-1755.37 4824.62,-1755.37 4824.62,-1755.37 4881.88,-1755.37 4881.88,-1755.37 4887.88,-1755.37 4893.88,-1761.37 4893.88,-1767.37 4893.88,-1767.37 4893.88,-1779.37 4893.88,-1779.37 4893.88,-1785.37 4887.88,-1791.37 4881.88,-1791.37"/>
<text xml:space="preserve" text-anchor="middle" x="4853.25" y="-1767.95" font-family="Helvetica,sans-Serif" font-size="14.00">ors:Theme</text>
</g>
<!-- n2474687712127890622&#45;&gt;n974303052913707324 -->
<g id="edge57" class="edge">
<title>n2474687712127890622&#45;&gt;n974303052913707324</title>
<path fill="none" stroke="#475569" d="M4295.72,-1733.24C4335.04,-1734.63 4387.75,-1736.78 4434.25,-1739.62 4566.72,-1747.73 4722.47,-1761.4 4801.18,-1768.61"/>
<polygon fill="#475569" stroke="#475569" points="4800.44,-1772.05 4810.72,-1769.48 4801.08,-1765.08 4800.44,-1772.05"/>
<text xml:space="preserve" text-anchor="middle" x="4382.88" y="-1742.07" font-family="Helvetica,sans-Serif" font-size="14.00">type</text>
</g>
<!-- n2407316011605190505 -->
<g id="node47" class="node">
<title>n2407316011605190505</title>
<path fill="#f7fafc" stroke="#334155" d="M5224.25,-1267.37C5224.25,-1267.37 4482.25,-1267.37 4482.25,-1267.37 4476.25,-1267.37 4470.25,-1261.37 4470.25,-1255.37 4470.25,-1255.37 4470.25,-1243.37 4470.25,-1243.37 4470.25,-1237.37 4476.25,-1231.37 4482.25,-1231.37 4482.25,-1231.37 5224.25,-1231.37 5224.25,-1231.37 5230.25,-1231.37 5236.25,-1237.37 5236.25,-1243.37 5236.25,-1243.37 5236.25,-1255.37 5236.25,-1255.37 5236.25,-1261.37 5230.25,-1267.37 5224.25,-1267.37"/>
<text xml:space="preserve" text-anchor="middle" x="4853.25" y="-1243.95" font-family="Helvetica,sans-Serif" font-size="14.00">O valor da aposentadoria por invalidez e do auxílio&#45;doença, bem como das pensões destes derivados ou calculadas com b...</text>
</g>
<!-- n2474687712127890622&#45;&gt;n2407316011605190505 -->
<g id="edge68" class="edge">
<title>n2474687712127890622&#45;&gt;n2407316011605190505</title>
<path fill="none" stroke="#475569" d="M4238,-1713.17C4243.11,-1666.45 4262.83,-1540.9 4331.5,-1468.62 4440.16,-1354.26 4617.79,-1297.06 4734.87,-1270.34"/>
<polygon fill="#475569" stroke="#475569" points="4735.53,-1273.77 4744.53,-1268.17 4734,-1266.94 4735.53,-1273.77"/>
<text xml:space="preserve" text-anchor="middle" x="4382.88" y="-1471.07" font-family="Helvetica,sans-Serif" font-size="14.00">themeThesis</text>
</g>
<!-- n4678304874532065194&#45;&gt;n2474687712127890622 -->
<g id="edge34" class="edge">
<title>n4678304874532065194&#45;&gt;n2474687712127890622</title>
<path fill="none" stroke="#475569" d="M4776.79,-1856.56C4672.3,-1868.73 4479.66,-1879.04 4331.5,-1817.37 4301.56,-1804.91 4274.89,-1778.78 4257.46,-1758.57"/>
<polygon fill="#475569" stroke="#475569" points="4260.19,-1756.38 4251.1,-1750.94 4254.81,-1760.86 4260.19,-1756.38"/>
<text xml:space="preserve" text-anchor="middle" x="4382.88" y="-1848.98" font-family="Helvetica,sans-Serif" font-size="14.00">hadMember</text>
</g>
<!-- n1845565241421360726 -->
<g id="node3" class="node">
<title>n1845565241421360726</title>
<path fill="#f7fafc" stroke="#334155" d="M5682,-1501.37C5682,-1501.37 5424.5,-1501.37 5424.5,-1501.37 5418.5,-1501.37 5412.5,-1495.37 5412.5,-1489.37 5412.5,-1489.37 5412.5,-1477.37 5412.5,-1477.37 5412.5,-1471.37 5418.5,-1465.37 5424.5,-1465.37 5424.5,-1465.37 5682,-1465.37 5682,-1465.37 5688,-1465.37 5694,-1471.37 5694,-1477.37 5694,-1477.37 5694,-1489.37 5694,-1489.37 5694,-1495.37 5688,-1501.37 5682,-1501.37"/>
<text xml:space="preserve" text-anchor="middle" x="5553.25" y="-1477.95" font-family="Helvetica,sans-Serif" font-size="14.00">Pipeline run run&#45;20260616T020214445248Z</text>
</g>
<!-- n4678304874532065194&#45;&gt;n1845565241421360726 -->
<g id="edge2" class="edge">
<title>n4678304874532065194&#45;&gt;n1845565241421360726</title>
<path fill="none" stroke="#475569" d="M4929.74,-1853.15C5009.87,-1858.11 5138.21,-1856.43 5236.25,-1809.37 5379.93,-1740.42 5493.76,-1577.04 5535.28,-1511.39"/>
<polygon fill="#475569" stroke="#475569" points="5538.18,-1513.35 5540.51,-1503.01 5532.24,-1509.64 5538.18,-1513.35"/>
<text xml:space="preserve" text-anchor="middle" x="5324.38" y="-1788.16" font-family="Helvetica,sans-Serif" font-size="14.00">wasGeneratedBy</text>
</g>
<!-- n8617132899617094421 -->
<g id="node23" class="node">
<title>n8617132899617094421</title>
<path fill="#f7fafc" stroke="#334155" d="M5617.5,-1827.37C5617.5,-1827.37 5489,-1827.37 5489,-1827.37 5483,-1827.37 5477,-1821.37 5477,-1815.37 5477,-1815.37 5477,-1803.37 5477,-1803.37 5477,-1797.37 5483,-1791.37 5489,-1791.37 5489,-1791.37 5617.5,-1791.37 5617.5,-1791.37 5623.5,-1791.37 5629.5,-1797.37 5629.5,-1803.37 5629.5,-1803.37 5629.5,-1815.37 5629.5,-1815.37 5629.5,-1821.37 5623.5,-1827.37 5617.5,-1827.37"/>
<text xml:space="preserve" text-anchor="middle" x="5553.25" y="-1803.95" font-family="Helvetica,sans-Serif" font-size="14.00">Collected TNU themes</text>
</g>
<!-- n4678304874532065194&#45;&gt;n8617132899617094421 -->
<g id="edge19" class="edge">
<title>n4678304874532065194&#45;&gt;n8617132899617094421</title>
<path fill="none" stroke="#475569" d="M4929.74,-1840.47C5013.43,-1835.14 5152.45,-1826.58 5272.25,-1820.62 5337.03,-1817.4 5410.27,-1814.49 5465.6,-1812.43"/>
<polygon fill="#475569" stroke="#475569" points="5465.39,-1815.94 5475.26,-1812.07 5465.13,-1808.95 5465.39,-1815.94"/>
<text xml:space="preserve" text-anchor="middle" x="5324.38" y="-1823.07" font-family="Helvetica,sans-Serif" font-size="14.00">label</text>
</g>
<!-- n5143372973703957302 -->
<g id="node24" class="node">
<title>n5143372973703957302</title>
<path fill="#f7fafc" stroke="#334155" d="M5593.88,-1899.37C5593.88,-1899.37 5512.62,-1899.37 5512.62,-1899.37 5506.62,-1899.37 5500.62,-1893.37 5500.62,-1887.37 5500.62,-1887.37 5500.62,-1875.37 5500.62,-1875.37 5500.62,-1869.37 5506.62,-1863.37 5512.62,-1863.37 5512.62,-1863.37 5593.88,-1863.37 5593.88,-1863.37 5599.88,-1863.37 5605.88,-1869.37 5605.88,-1875.37 5605.88,-1875.37 5605.88,-1887.37 5605.88,-1887.37 5605.88,-1893.37 5599.88,-1899.37 5593.88,-1899.37"/>
<text xml:space="preserve" text-anchor="middle" x="5553.25" y="-1875.95" font-family="Helvetica,sans-Serif" font-size="14.00">prov:Collection</text>
</g>
<!-- n4678304874532065194&#45;&gt;n5143372973703957302 -->
<g id="edge22" class="edge">
<title>n4678304874532065194&#45;&gt;n5143372973703957302</title>
<path fill="none" stroke="#475569" d="M4929.94,-1849.28C5068.52,-1856.42 5360.54,-1871.49 5489.16,-1878.12"/>
<polygon fill="#475569" stroke="#475569" points="5488.67,-1881.6 5498.84,-1878.62 5489.03,-1874.61 5488.67,-1881.6"/>
<text xml:space="preserve" text-anchor="middle" x="5324.38" y="-1874.17" font-family="Helvetica,sans-Serif" font-size="14.00">type</text>
</g>
<!-- n4678304874532065194&#45;&gt;n1814093808349499784 -->
<g id="edge64" class="edge">
<title>n4678304874532065194&#45;&gt;n1814093808349499784</title>
<path fill="none" stroke="#475569" d="M4929.98,-1861.14C5014.54,-1874.06 5150.72,-1880.24 5236.25,-1809.37 5280.69,-1772.56 5254.33,-1739.48 5272.25,-1684.62 5314.15,-1556.31 5330.91,-1526.42 5376.5,-1399.37 5440.53,-1220.93 5515.56,-1005.85 5542.23,-929.21"/>
<polygon fill="#475569" stroke="#475569" points="5545.47,-930.55 5545.45,-919.96 5538.85,-928.25 5545.47,-930.55"/>
<text xml:space="preserve" text-anchor="middle" x="5324.38" y="-1687.07" font-family="Helvetica,sans-Serif" font-size="14.00">type</text>
</g>
<!-- n6065844580812240659 -->
<g id="node12" class="node">
<title>n6065844580812240659</title>
<path fill="#f7fafc" stroke="#334155" d="M6151.38,-1067.37C6151.38,-1067.37 6091.12,-1067.37 6091.12,-1067.37 6085.12,-1067.37 6079.12,-1061.37 6079.12,-1055.37 6079.12,-1055.37 6079.12,-1043.37 6079.12,-1043.37 6079.12,-1037.37 6085.12,-1031.37 6091.12,-1031.37 6091.12,-1031.37 6151.38,-1031.37 6151.38,-1031.37 6157.38,-1031.37 6163.38,-1037.37 6163.38,-1043.37 6163.38,-1043.37 6163.38,-1055.37 6163.38,-1055.37 6163.38,-1061.37 6157.38,-1067.37 6151.38,-1067.37"/>
<text xml:space="preserve" text-anchor="middle" x="6121.25" y="-1043.95" font-family="Helvetica,sans-Serif" font-size="14.00">jdd:pipeline</text>
</g>
<!-- n1845565241421360726&#45;&gt;n6065844580812240659 -->
<g id="edge29" class="edge">
<title>n1845565241421360726&#45;&gt;n6065844580812240659</title>
<path fill="none" stroke="#475569" d="M5567.85,-1465.04C5595.62,-1428.37 5661.99,-1344.51 5730,-1286.62 5841.09,-1192.07 5994.08,-1110.88 6071.36,-1072.68"/>
<polygon fill="#475569" stroke="#475569" points="6072.51,-1076.02 6079.94,-1068.47 6069.42,-1069.74 6072.51,-1076.02"/>
<text xml:space="preserve" text-anchor="middle" x="5788.88" y="-1289.07" font-family="Helvetica,sans-Serif" font-size="14.00">wasAssociatedWith</text>
</g>
<!-- n6318297126724603026 -->
<g id="node16" class="node">
<title>n6318297126724603026</title>
<path fill="#f7fafc" stroke="#334155" d="M6178.38,-1242.37C6178.38,-1242.37 6064.12,-1242.37 6064.12,-1242.37 6058.12,-1242.37 6052.12,-1236.37 6052.12,-1230.37 6052.12,-1230.37 6052.12,-1218.37 6052.12,-1218.37 6052.12,-1212.37 6058.12,-1206.37 6064.12,-1206.37 6064.12,-1206.37 6178.38,-1206.37 6178.38,-1206.37 6184.38,-1206.37 6190.38,-1212.37 6190.38,-1218.37 6190.38,-1218.37 6190.38,-1230.37 6190.38,-1230.37 6190.38,-1236.37 6184.38,-1242.37 6178.38,-1242.37"/>
<text xml:space="preserve" text-anchor="middle" x="6121.25" y="-1218.95" font-family="Helvetica,sans-Serif" font-size="14.00">Local analysis agent</text>
</g>
<!-- n1845565241421360726&#45;&gt;n6318297126724603026 -->
<g id="edge20" class="edge">
<title>n1845565241421360726&#45;&gt;n6318297126724603026</title>
<path fill="none" stroke="#475569" d="M5576.92,-1464.94C5609.29,-1439.31 5671.35,-1392.67 5730,-1362.62 5832.85,-1309.93 5960.44,-1268.89 6041.13,-1245.65"/>
<polygon fill="#475569" stroke="#475569" points="6041.6,-1249.16 6050.25,-1243.05 6039.68,-1242.43 6041.6,-1249.16"/>
<text xml:space="preserve" text-anchor="middle" x="5788.88" y="-1365.07" font-family="Helvetica,sans-Serif" font-size="14.00">wasAssociatedWith</text>
</g>
<!-- n550246606260184997 -->
<g id="node26" class="node">
<title>n550246606260184997</title>
<path fill="#f7fafc" stroke="#334155" d="M6152.5,-1361.37C6152.5,-1361.37 6090,-1361.37 6090,-1361.37 6084,-1361.37 6078,-1355.37 6078,-1349.37 6078,-1349.37 6078,-1337.37 6078,-1337.37 6078,-1331.37 6084,-1325.37 6090,-1325.37 6090,-1325.37 6152.5,-1325.37 6152.5,-1325.37 6158.5,-1325.37 6164.5,-1331.37 6164.5,-1337.37 6164.5,-1337.37 6164.5,-1349.37 6164.5,-1349.37 6164.5,-1355.37 6158.5,-1361.37 6152.5,-1361.37"/>
<text xml:space="preserve" text-anchor="middle" x="6121.25" y="-1337.95" font-family="Helvetica,sans-Serif" font-size="14.00">pipeline&#45;run</text>
</g>
<!-- n1845565241421360726&#45;&gt;n550246606260184997 -->
<g id="edge24" class="edge">
<title>n1845565241421360726&#45;&gt;n550246606260184997</title>
<path fill="none" stroke="#475569" d="M5603.94,-1464.87C5638.97,-1452.09 5687.09,-1435.04 5730,-1421.62 5797.64,-1400.48 5814.43,-1394.12 5883.75,-1379.37 5945.86,-1366.16 6018.14,-1355.89 6066.29,-1349.76"/>
<polygon fill="#475569" stroke="#475569" points="6066.7,-1353.23 6076.18,-1348.52 6065.82,-1346.29 6066.7,-1353.23"/>
<text xml:space="preserve" text-anchor="middle" x="5788.88" y="-1424.07" font-family="Helvetica,sans-Serif" font-size="14.00">type</text>
</g>
<!-- n3777206597782045167 -->
<g id="node28" class="node">
<title>n3777206597782045167</title>
<path fill="#f7fafc" stroke="#334155" d="M6153.62,-2120.37C6153.62,-2120.37 6088.88,-2120.37 6088.88,-2120.37 6082.88,-2120.37 6076.88,-2114.37 6076.88,-2108.37 6076.88,-2108.37 6076.88,-2096.37 6076.88,-2096.37 6076.88,-2090.37 6082.88,-2084.37 6088.88,-2084.37 6088.88,-2084.37 6153.62,-2084.37 6153.62,-2084.37 6159.62,-2084.37 6165.62,-2090.37 6165.62,-2096.37 6165.62,-2096.37 6165.62,-2108.37 6165.62,-2108.37 6165.62,-2114.37 6159.62,-2120.37 6153.62,-2120.37"/>
<text xml:space="preserve" text-anchor="middle" x="6121.25" y="-2096.95" font-family="Helvetica,sans-Serif" font-size="14.00">prov:Activity</text>
</g>
<!-- n1845565241421360726&#45;&gt;n3777206597782045167 -->
<g id="edge58" class="edge">
<title>n1845565241421360726&#45;&gt;n3777206597782045167</title>
<path fill="none" stroke="#475569" d="M5570.88,-1501.56C5651.26,-1589.46 5999.47,-1970.29 6095.59,-2075.41"/>
<polygon fill="#475569" stroke="#475569" points="6092.99,-2077.75 6102.32,-2082.76 6098.15,-2073.02 6092.99,-2077.75"/>
<text xml:space="preserve" text-anchor="middle" x="5788.88" y="-1795.32" font-family="Helvetica,sans-Serif" font-size="14.00">type</text>
</g>
<!-- n376630362151345786 -->
<g id="node35" class="node">
<title>n376630362151345786</title>
<path fill="#f7fafc" stroke="#334155" d="M6250,-1649.37C6250,-1649.37 5992.5,-1649.37 5992.5,-1649.37 5986.5,-1649.37 5980.5,-1643.37 5980.5,-1637.37 5980.5,-1637.37 5980.5,-1625.37 5980.5,-1625.37 5980.5,-1619.37 5986.5,-1613.37 5992.5,-1613.37 5992.5,-1613.37 6250,-1613.37 6250,-1613.37 6256,-1613.37 6262,-1619.37 6262,-1625.37 6262,-1625.37 6262,-1637.37 6262,-1637.37 6262,-1643.37 6256,-1649.37 6250,-1649.37"/>
<text xml:space="preserve" text-anchor="middle" x="6121.25" y="-1625.95" font-family="Helvetica,sans-Serif" font-size="14.00">Pipeline run run&#45;20260616T020214445248Z</text>
</g>
<!-- n1845565241421360726&#45;&gt;n376630362151345786 -->
<g id="edge40" class="edge">
<title>n1845565241421360726&#45;&gt;n376630362151345786</title>
<path fill="none" stroke="#475569" d="M5600.56,-1501.76C5635.82,-1515.51 5685.68,-1534.44 5730,-1549.37 5797.59,-1572.15 5814.16,-1579.75 5883.75,-1595.37 5911.12,-1601.52 5940.5,-1606.93 5968.94,-1611.56"/>
<polygon fill="#475569" stroke="#475569" points="5968.29,-1615 5978.71,-1613.12 5969.39,-1608.09 5968.29,-1615"/>
<text xml:space="preserve" text-anchor="middle" x="5788.88" y="-1589.22" font-family="Helvetica,sans-Serif" font-size="14.00">label</text>
</g>
<!-- n6115666249394790312 -->
<g id="node42" class="node">
<title>n6115666249394790312</title>
<path fill="#f7fafc" stroke="#334155" d="M6346.75,-1577.37C6346.75,-1577.37 5895.75,-1577.37 5895.75,-1577.37 5889.75,-1577.37 5883.75,-1571.37 5883.75,-1565.37 5883.75,-1565.37 5883.75,-1553.37 5883.75,-1553.37 5883.75,-1547.37 5889.75,-1541.37 5895.75,-1541.37 5895.75,-1541.37 6346.75,-1541.37 6346.75,-1541.37 6352.75,-1541.37 6358.75,-1547.37 6358.75,-1553.37 6358.75,-1553.37 6358.75,-1565.37 6358.75,-1565.37 6358.75,-1571.37 6352.75,-1577.37 6346.75,-1577.37"/>
<text xml:space="preserve" text-anchor="middle" x="6121.25" y="-1553.95" font-family="Helvetica,sans-Serif" font-size="14.00">mode=sample; analysis=local; browser_automation=true; compile_pdf=false</text>
</g>
<!-- n1845565241421360726&#45;&gt;n6115666249394790312 -->
<g id="edge52" class="edge">
<title>n1845565241421360726&#45;&gt;n6115666249394790312</title>
<path fill="none" stroke="#475569" d="M5671.41,-1501.83C5690.96,-1504.78 5711.04,-1507.73 5730,-1510.37 5803.5,-1520.63 5884.93,-1531.01 5954.31,-1539.56"/>
<polygon fill="#475569" stroke="#475569" points="5953.49,-1542.99 5963.84,-1540.73 5954.34,-1536.04 5953.49,-1542.99"/>
<text xml:space="preserve" text-anchor="middle" x="5788.88" y="-1527.2" font-family="Helvetica,sans-Serif" font-size="14.00">value</text>
</g>
<!-- n6827243593452895637 -->
<g id="node43" class="node">
<title>n6827243593452895637</title>
<path fill="#f7fafc" stroke="#334155" d="M6227.5,-1505.37C6227.5,-1505.37 6015,-1505.37 6015,-1505.37 6009,-1505.37 6003,-1499.37 6003,-1493.37 6003,-1493.37 6003,-1481.37 6003,-1481.37 6003,-1475.37 6009,-1469.37 6015,-1469.37 6015,-1469.37 6227.5,-1469.37 6227.5,-1469.37 6233.5,-1469.37 6239.5,-1475.37 6239.5,-1481.37 6239.5,-1481.37 6239.5,-1493.37 6239.5,-1493.37 6239.5,-1499.37 6233.5,-1505.37 6227.5,-1505.37"/>
<text xml:space="preserve" text-anchor="middle" x="6121.25" y="-1481.95" font-family="Helvetica,sans-Serif" font-size="14.00">2026&#45;06&#45;16T02:02:17.853727+00:00</text>
</g>
<!-- n1845565241421360726&#45;&gt;n6827243593452895637 -->
<g id="edge54" class="edge">
<title>n1845565241421360726&#45;&gt;n6827243593452895637</title>
<path fill="none" stroke="#475569" d="M5694.16,-1484.36C5785.11,-1485 5902.81,-1485.84 5991.46,-1486.46"/>
<polygon fill="#475569" stroke="#475569" points="5991.4,-1489.96 6001.43,-1486.53 5991.45,-1482.96 5991.4,-1489.96"/>
<text xml:space="preserve" text-anchor="middle" x="5788.88" y="-1487.82" font-family="Helvetica,sans-Serif" font-size="14.00">created</text>
</g>
<!-- n1610141216439882432 -->
<g id="node51" class="node">
<title>n1610141216439882432</title>
<path fill="#f7fafc" stroke="#334155" d="M6243.62,-1433.37C6243.62,-1433.37 5998.88,-1433.37 5998.88,-1433.37 5992.88,-1433.37 5986.88,-1427.37 5986.88,-1421.37 5986.88,-1421.37 5986.88,-1409.37 5986.88,-1409.37 5986.88,-1403.37 5992.88,-1397.37 5998.88,-1397.37 5998.88,-1397.37 6243.62,-1397.37 6243.62,-1397.37 6249.62,-1397.37 6255.62,-1403.37 6255.62,-1409.37 6255.62,-1409.37 6255.62,-1421.37 6255.62,-1421.37 6255.62,-1427.37 6249.62,-1433.37 6243.62,-1433.37"/>
<text xml:space="preserve" text-anchor="middle" x="6121.25" y="-1409.95" font-family="Helvetica,sans-Serif" font-size="14.00">10e37f50&#45;4d82&#45;574b&#45;8c12&#45;1e5a8362185c</text>
</g>
<!-- n1845565241421360726&#45;&gt;n1610141216439882432 -->
<g id="edge77" class="edge">
<title>n1845565241421360726&#45;&gt;n1610141216439882432</title>
<path fill="none" stroke="#475569" d="M5688.55,-1464.92C5702.54,-1463.09 5716.56,-1461.29 5730,-1459.62 5811.1,-1449.55 5901.79,-1439.21 5975.32,-1431.06"/>
<polygon fill="#475569" stroke="#475569" points="5975.45,-1434.57 5985.01,-1429.99 5974.68,-1427.61 5975.45,-1434.57"/>
<text xml:space="preserve" text-anchor="middle" x="5788.88" y="-1462.07" font-family="Helvetica,sans-Serif" font-size="14.00">identifier</text>
</g>
<!-- n2494595837941030742 -->
<g id="node4" class="node">
<title>n2494595837941030742</title>
<path fill="#f7fafc" stroke="#334155" d="M1260.5,-1146.37C1260.5,-1146.37 928,-1146.37 928,-1146.37 922,-1146.37 916,-1140.37 916,-1134.37 916,-1134.37 916,-1122.37 916,-1122.37 916,-1116.37 922,-1110.37 928,-1110.37 928,-1110.37 1260.5,-1110.37 1260.5,-1110.37 1266.5,-1110.37 1272.5,-1116.37 1272.5,-1122.37 1272.5,-1122.37 1272.5,-1134.37 1272.5,-1134.37 1272.5,-1140.37 1266.5,-1146.37 1260.5,-1146.37"/>
<text xml:space="preserve" text-anchor="middle" x="1094.25" y="-1122.95" font-family="Helvetica,sans-Serif" font-size="14.00">Draft generation for process 5021277&#45;41.2025.4.02.5101</text>
</g>
<!-- n2494595837941030742&#45;&gt;n2474687712127890622 -->
<g id="edge91" class="edge">
<title>n2494595837941030742&#45;&gt;n2474687712127890622</title>
<path fill="none" stroke="#475569" d="M1213.85,-1146.79C1302.12,-1167.04 1417.95,-1208.76 1481.75,-1293.37 1559.14,-1396.02 1455.7,-1467.78 1517.75,-1580.37 1740.47,-1984.52 1953.8,-2102.37 2415.25,-2102.37 2415.25,-2102.37 2415.25,-2102.37 3184.12,-2102.37 3625.38,-2102.37 3761.56,-2059.53 4139.25,-1831.37 4170.12,-1812.73 4197.57,-1781.44 4214.95,-1758.83"/>
<polygon fill="#475569" stroke="#475569" points="4217.67,-1761.04 4220.86,-1750.94 4212.06,-1756.84 4217.67,-1761.04"/>
<text xml:space="preserve" text-anchor="middle" x="2697.62" y="-2104.82" font-family="Helvetica,sans-Serif" font-size="14.00">used</text>
</g>
<!-- n8793560584400511256 -->
<g id="node5" class="node">
<title>n8793560584400511256</title>
<path fill="#f7fafc" stroke="#334155" d="M3069.88,-1177.37C3069.88,-1177.37 2810.88,-1177.37 2810.88,-1177.37 2804.88,-1177.37 2798.88,-1171.37 2798.88,-1165.37 2798.88,-1165.37 2798.88,-1153.37 2798.88,-1153.37 2798.88,-1147.37 2804.88,-1141.37 2810.88,-1141.37 2810.88,-1141.37 3069.88,-1141.37 3069.88,-1141.37 3075.88,-1141.37 3081.88,-1147.37 3081.88,-1153.37 3081.88,-1153.37 3081.88,-1165.37 3081.88,-1165.37 3081.88,-1171.37 3075.88,-1177.37 3069.88,-1177.37"/>
<text xml:space="preserve" text-anchor="middle" x="2940.38" y="-1153.95" font-family="Helvetica,sans-Serif" font-size="14.00">tres:261f3545&#45;cf32&#45;508f&#45;9fc6&#45;043a3bc53ad5</text>
</g>
<!-- n2494595837941030742&#45;&gt;n8793560584400511256 -->
<g id="edge3" class="edge">
<title>n2494595837941030742&#45;&gt;n8793560584400511256</title>
<path fill="none" stroke="#475569" d="M1272.91,-1124.21C1488.86,-1119.89 1864.34,-1114.77 2186.25,-1122.62 2394.68,-1127.71 2635.26,-1140.69 2787.32,-1149.77"/>
<polygon fill="#475569" stroke="#475569" points="2786.86,-1153.25 2797.05,-1150.36 2787.28,-1146.27 2786.86,-1153.25"/>
<text xml:space="preserve" text-anchor="middle" x="2134.12" y="-1125.07" font-family="Helvetica,sans-Serif" font-size="14.00">used</text>
</g>
<!-- n404045410628445966 -->
<g id="node6" class="node">
<title>n404045410628445966</title>
<path fill="#f7fafc" stroke="#334155" d="M518.5,-543.37C518.5,-543.37 12,-543.37 12,-543.37 6,-543.37 0,-537.37 0,-531.37 0,-531.37 0,-519.37 0,-519.37 0,-513.37 6,-507.37 12,-507.37 12,-507.37 518.5,-507.37 518.5,-507.37 524.5,-507.37 530.5,-513.37 530.5,-519.37 530.5,-519.37 530.5,-531.37 530.5,-531.37 530.5,-537.37 524.5,-543.37 518.5,-543.37"/>
<text xml:space="preserve" text-anchor="middle" x="265.25" y="-519.95" font-family="Helvetica,sans-Serif" font-size="14.00">Generated decision NEGAR_SEGUIMENTO for process 5021277&#45;41.2025.4.02.5101</text>
</g>
<!-- n2494595837941030742&#45;&gt;n404045410628445966 -->
<g id="edge14" class="edge">
<title>n2494595837941030742&#45;&gt;n404045410628445966</title>
<path fill="none" stroke="#475569" d="M961.32,-1109.88C816.03,-1088.6 598.59,-1053.74 566.5,-1031.37 389.23,-907.83 299.92,-642.98 274.24,-554.69"/>
<polygon fill="#475569" stroke="#475569" points="277.62,-553.78 271.51,-545.13 270.88,-555.7 277.62,-553.78"/>
<text xml:space="preserve" text-anchor="middle" x="618.62" y="-1062.05" font-family="Helvetica,sans-Serif" font-size="14.00">generated</text>
</g>
<!-- n3901057556932773611 -->
<g id="node8" class="node">
<title>n3901057556932773611</title>
<path fill="#f7fafc" stroke="#334155" d="M2573.12,-1562.37C2573.12,-1562.37 2259.38,-1562.37 2259.38,-1562.37 2253.38,-1562.37 2247.38,-1556.37 2247.38,-1550.37 2247.38,-1550.37 2247.38,-1538.37 2247.38,-1538.37 2247.38,-1532.37 2253.38,-1526.37 2259.38,-1526.37 2259.38,-1526.37 2573.12,-1526.37 2573.12,-1526.37 2579.12,-1526.37 2585.12,-1532.37 2585.12,-1538.37 2585.12,-1538.37 2585.12,-1550.37 2585.12,-1550.37 2585.12,-1556.37 2579.12,-1562.37 2573.12,-1562.37"/>
<text xml:space="preserve" text-anchor="middle" x="2416.25" y="-1538.95" font-family="Helvetica,sans-Serif" font-size="14.00">jdd:analysis&#45;35e89cc7&#45;d761&#45;5f72&#45;81c0&#45;7d5c3e75f0cb</text>
</g>
<!-- n2494595837941030742&#45;&gt;n3901057556932773611 -->
<g id="edge8" class="edge">
<title>n2494595837941030742&#45;&gt;n3901057556932773611</title>
<path fill="none" stroke="#475569" d="M1153.67,-1146.79C1368.44,-1214.47 2113.79,-1449.37 2345.78,-1522.48"/>
<polygon fill="#475569" stroke="#475569" points="2344.72,-1525.82 2355.31,-1525.48 2346.83,-1519.14 2344.72,-1525.82"/>
<text xml:space="preserve" text-anchor="middle" x="1852" y="-1426.45" font-family="Helvetica,sans-Serif" font-size="14.00">used</text>
</g>
<!-- n2494595837941030742&#45;&gt;n6065844580812240659 -->
<g id="edge32" class="edge">
<title>n2494595837941030742&#45;&gt;n6065844580812240659</title>
<path fill="none" stroke="#475569" d="M1112.78,-1110.05C1179.05,-1041.48 1422.5,-795.96 1658,-639.37 2231.38,-258.11 2493.56,-361.37 3182.12,-361.37 3182.12,-361.37 3182.12,-361.37 5554.25,-361.37 5901.07,-361.37 6074.57,-889.22 6112.29,-1020.22"/>
<polygon fill="#475569" stroke="#475569" points="6108.83,-1020.85 6114.92,-1029.51 6115.56,-1018.94 6108.83,-1020.85"/>
<text xml:space="preserve" text-anchor="middle" x="3628" y="-363.82" font-family="Helvetica,sans-Serif" font-size="14.00">wasAssociatedWith</text>
</g>
<!-- n4402814763753098769 -->
<g id="node14" class="node">
<title>n4402814763753098769</title>
<path fill="#f7fafc" stroke="#334155" d="M3672.75,-954.37C3672.75,-954.37 3583.25,-954.37 3583.25,-954.37 3577.25,-954.37 3571.25,-948.37 3571.25,-942.37 3571.25,-942.37 3571.25,-930.37 3571.25,-930.37 3571.25,-924.37 3577.25,-918.37 3583.25,-918.37 3583.25,-918.37 3672.75,-918.37 3672.75,-918.37 3678.75,-918.37 3684.75,-924.37 3684.75,-930.37 3684.75,-930.37 3684.75,-942.37 3684.75,-942.37 3684.75,-948.37 3678.75,-954.37 3672.75,-954.37"/>
<text xml:space="preserve" text-anchor="middle" x="3628" y="-930.95" font-family="Helvetica,sans-Serif" font-size="14.00">Theme 1 Thesis</text>
</g>
<!-- n2494595837941030742&#45;&gt;n4402814763753098769 -->
<g id="edge66" class="edge">
<title>n2494595837941030742&#45;&gt;n4402814763753098769</title>
<path fill="none" stroke="#475569" d="M1142.85,-1110C1238.61,-1074.08 1462.16,-995.52 1658,-966.37 2396.51,-856.45 3307.97,-912.24 3559.82,-931.01"/>
<polygon fill="#475569" stroke="#475569" points="3559.22,-934.47 3569.46,-931.73 3559.75,-927.49 3559.22,-934.47"/>
<text xml:space="preserve" text-anchor="middle" x="2416.25" y="-914.5" font-family="Helvetica,sans-Serif" font-size="14.00">used</text>
</g>
<!-- n28703421914888084 -->
<g id="node18" class="node">
<title>n28703421914888084</title>
<path fill="#f7fafc" stroke="#334155" d="M2034,-693.37C2034,-693.37 1670,-693.37 1670,-693.37 1664,-693.37 1658,-687.37 1658,-681.37 1658,-681.37 1658,-669.37 1658,-669.37 1658,-663.37 1664,-657.37 1670,-657.37 1670,-657.37 2034,-657.37 2034,-657.37 2040,-657.37 2046,-663.37 2046,-669.37 2046,-669.37 2046,-681.37 2046,-681.37 2046,-687.37 2040,-693.37 2034,-693.37"/>
<text xml:space="preserve" text-anchor="middle" x="1852" y="-669.95" font-family="Helvetica,sans-Serif" font-size="14.00">Admissibility decision for process 5021277&#45;41.2025.4.02.5101</text>
</g>
<!-- n2494595837941030742&#45;&gt;n28703421914888084 -->
<g id="edge16" class="edge">
<title>n2494595837941030742&#45;&gt;n28703421914888084</title>
<path fill="none" stroke="#475569" d="M1116.51,-1110.15C1176.48,-1059.34 1353.35,-913.71 1517.75,-819.62 1607.73,-768.13 1719.63,-723.27 1788.15,-697.76"/>
<polygon fill="#475569" stroke="#475569" points="1789.18,-701.12 1797.35,-694.37 1786.75,-694.55 1789.18,-701.12"/>
<text xml:space="preserve" text-anchor="middle" x="1569.88" y="-822.07" font-family="Helvetica,sans-Serif" font-size="14.00">generated</text>
</g>
<!-- n1052513836601814631 -->
<g id="node27" class="node">
<title>n1052513836601814631</title>
<path fill="#f7fafc" stroke="#334155" d="M2009.62,-1563.37C2009.62,-1563.37 1694.38,-1563.37 1694.38,-1563.37 1688.38,-1563.37 1682.38,-1557.37 1682.38,-1551.37 1682.38,-1551.37 1682.38,-1539.37 1682.38,-1539.37 1682.38,-1533.37 1688.38,-1527.37 1694.38,-1527.37 1694.38,-1527.37 2009.62,-1527.37 2009.62,-1527.37 2015.62,-1527.37 2021.62,-1533.37 2021.62,-1539.37 2021.62,-1539.37 2021.62,-1551.37 2021.62,-1551.37 2021.62,-1557.37 2015.62,-1563.37 2009.62,-1563.37"/>
<text xml:space="preserve" text-anchor="middle" x="1852" y="-1539.95" font-family="Helvetica,sans-Serif" font-size="14.00">Classification for process 5021277&#45;41.2025.4.02.5101</text>
</g>
<!-- n2494595837941030742&#45;&gt;n1052513836601814631 -->
<g id="edge89" class="edge">
<title>n2494595837941030742&#45;&gt;n1052513836601814631</title>
<path fill="none" stroke="#475569" d="M1128.7,-1146.83C1250.63,-1214.11 1671.22,-1446.18 1807.8,-1521.54"/>
<polygon fill="#475569" stroke="#475569" points="1805.74,-1524.4 1816.18,-1526.16 1809.12,-1518.27 1805.74,-1524.4"/>
<text xml:space="preserve" text-anchor="middle" x="1569.88" y="-1412.94" font-family="Helvetica,sans-Serif" font-size="14.00">wasInformedBy</text>
</g>
<!-- n2494595837941030742&#45;&gt;n3777206597782045167 -->
<g id="edge62" class="edge">
<title>n2494595837941030742&#45;&gt;n3777206597782045167</title>
<path fill="none" stroke="#475569" d="M1102.11,-1146.86C1155.88,-1288.28 1523.83,-2193.37 2133.12,-2193.37 2133.12,-2193.37 2133.12,-2193.37 5554.25,-2193.37 5744,-2193.37 5965.04,-2142.9 6065.53,-2117.13"/>
<polygon fill="#475569" stroke="#475569" points="6066.33,-2120.54 6075.14,-2114.65 6064.58,-2113.77 6066.33,-2120.54"/>
<text xml:space="preserve" text-anchor="middle" x="3628" y="-2195.82" font-family="Helvetica,sans-Serif" font-size="14.00">type</text>
</g>
<!-- n2807099420321037665 -->
<g id="node46" class="node">
<title>n2807099420321037665</title>
<path fill="#f7fafc" stroke="#334155" d="M2018.25,-1635.37C2018.25,-1635.37 1685.75,-1635.37 1685.75,-1635.37 1679.75,-1635.37 1673.75,-1629.37 1673.75,-1623.37 1673.75,-1623.37 1673.75,-1611.37 1673.75,-1611.37 1673.75,-1605.37 1679.75,-1599.37 1685.75,-1599.37 1685.75,-1599.37 2018.25,-1599.37 2018.25,-1599.37 2024.25,-1599.37 2030.25,-1605.37 2030.25,-1611.37 2030.25,-1611.37 2030.25,-1623.37 2030.25,-1623.37 2030.25,-1629.37 2024.25,-1635.37 2018.25,-1635.37"/>
<text xml:space="preserve" text-anchor="middle" x="1852" y="-1611.95" font-family="Helvetica,sans-Serif" font-size="14.00">Draft generation for process 5021277&#45;41.2025.4.02.5101</text>
</g>
<!-- n2494595837941030742&#45;&gt;n2807099420321037665 -->
<g id="edge63" class="edge">
<title>n2494595837941030742&#45;&gt;n2807099420321037665</title>
<path fill="none" stroke="#475569" d="M1111.48,-1146.83C1174.03,-1216.68 1408.46,-1466.6 1658,-1581.37 1670.34,-1587.05 1683.51,-1591.83 1696.96,-1595.86"/>
<polygon fill="#475569" stroke="#475569" points="1695.77,-1599.16 1706.34,-1598.51 1697.68,-1592.42 1695.77,-1599.16"/>
<text xml:space="preserve" text-anchor="middle" x="1569.88" y="-1557.79" font-family="Helvetica,sans-Serif" font-size="14.00">label</text>
</g>
<!-- n5350958992080957376 -->
<g id="node48" class="node">
<title>n5350958992080957376</title>
<path fill="#f7fafc" stroke="#334155" d="M1895.62,-1219.37C1895.62,-1219.37 1808.38,-1219.37 1808.38,-1219.37 1802.38,-1219.37 1796.38,-1213.37 1796.38,-1207.37 1796.38,-1207.37 1796.38,-1195.37 1796.38,-1195.37 1796.38,-1189.37 1802.38,-1183.37 1808.38,-1183.37 1808.38,-1183.37 1895.62,-1183.37 1895.62,-1183.37 1901.62,-1183.37 1907.62,-1189.37 1907.62,-1195.37 1907.62,-1195.37 1907.62,-1207.37 1907.62,-1207.37 1907.62,-1213.37 1901.62,-1219.37 1895.62,-1219.37"/>
<text xml:space="preserve" text-anchor="middle" x="1852" y="-1195.95" font-family="Helvetica,sans-Serif" font-size="14.00">draft&#45;generation</text>
</g>
<!-- n2494595837941030742&#45;&gt;n5350958992080957376 -->
<g id="edge69" class="edge">
<title>n2494595837941030742&#45;&gt;n5350958992080957376</title>
<path fill="none" stroke="#475569" d="M1272.92,-1145.53C1436.81,-1161.37 1671.34,-1184.02 1784.67,-1194.97"/>
<polygon fill="#475569" stroke="#475569" points="1784.11,-1198.43 1794.41,-1195.91 1784.79,-1191.46 1784.11,-1198.43"/>
<text xml:space="preserve" text-anchor="middle" x="1569.88" y="-1180.21" font-family="Helvetica,sans-Serif" font-size="14.00">type</text>
</g>
<!-- n8793560584400511256&#45;&gt;n1845565241421360726 -->
<g id="edge73" class="edge">
<title>n8793560584400511256&#45;&gt;n1845565241421360726</title>
<path fill="none" stroke="#475569" d="M2965.5,-1177.8C3000.59,-1203.95 3068.43,-1252.13 3131.75,-1283.37 3190.4,-1312.31 3206.3,-1319.9 3270.5,-1332.37 3485.12,-1374.06 5036.77,-1329.89 5236.25,-1419.37 5257.18,-1428.76 5251.57,-1446.44 5272.25,-1456.37 5311.64,-1475.28 5357.69,-1484.27 5400.94,-1487.97"/>
<polygon fill="#475569" stroke="#475569" points="5400.42,-1491.44 5410.65,-1488.7 5400.95,-1484.46 5400.42,-1491.44"/>
<text xml:space="preserve" text-anchor="middle" x="4235.38" y="-1360.79" font-family="Helvetica,sans-Serif" font-size="14.00">wasUsedBy</text>
</g>
<!-- n8793560584400511256&#45;&gt;n4402814763753098769 -->
<g id="edge72" class="edge">
<title>n8793560584400511256&#45;&gt;n4402814763753098769</title>
<path fill="none" stroke="#475569" d="M2966.1,-1140.9C3001.37,-1115.22 3068.82,-1068.52 3131.75,-1038.62 3175.23,-1017.97 3192.83,-1028.47 3234.5,-1004.37 3253.03,-993.66 3250.9,-980.98 3270.5,-972.37 3364.44,-931.14 3485.31,-928.09 3559.41,-931.14"/>
<polygon fill="#475569" stroke="#475569" points="3559.23,-934.64 3569.38,-931.61 3559.56,-927.65 3559.23,-934.64"/>
<text xml:space="preserve" text-anchor="middle" x="3183.12" y="-1041.07" font-family="Helvetica,sans-Serif" font-size="14.00">adoptsThesis</text>
</g>
<!-- n647775799432983616 -->
<g id="node25" class="node">
<title>n647775799432983616</title>
<path fill="#f7fafc" stroke="#334155" d="M3708.75,-791.37C3708.75,-791.37 3547.25,-791.37 3547.25,-791.37 3541.25,-791.37 3535.25,-785.37 3535.25,-779.37 3535.25,-779.37 3535.25,-767.37 3535.25,-767.37 3535.25,-761.37 3541.25,-755.37 3547.25,-755.37 3547.25,-755.37 3708.75,-755.37 3708.75,-755.37 3714.75,-755.37 3720.75,-761.37 3720.75,-767.37 3720.75,-767.37 3720.75,-779.37 3720.75,-779.37 3720.75,-785.37 3714.75,-791.37 3708.75,-791.37"/>
<text xml:space="preserve" text-anchor="middle" x="3628" y="-767.95" font-family="Helvetica,sans-Serif" font-size="14.00">5021277&#45;41.2025.4.02.5101</text>
</g>
<!-- n8793560584400511256&#45;&gt;n647775799432983616 -->
<g id="edge23" class="edge">
<title>n8793560584400511256&#45;&gt;n647775799432983616</title>
<path fill="none" stroke="#475569" d="M2950.38,-1140.99C2974.04,-1094.4 3042.31,-970.22 3131.75,-897.62 3244.25,-806.3 3415.01,-780.94 3523.75,-774.54"/>
<polygon fill="#475569" stroke="#475569" points="3523.75,-778.05 3533.55,-774.01 3523.38,-771.06 3523.75,-778.05"/>
<text xml:space="preserve" text-anchor="middle" x="3183.12" y="-900.07" font-family="Helvetica,sans-Serif" font-size="14.00">identifier</text>
</g>
<!-- n6879516263458748543 -->
<g id="node32" class="node">
<title>n6879516263458748543</title>
<path fill="#f7fafc" stroke="#334155" d="M3747.38,-1314.37C3747.38,-1314.37 3508.62,-1314.37 3508.62,-1314.37 3502.62,-1314.37 3496.62,-1308.37 3496.62,-1302.37 3496.62,-1302.37 3496.62,-1290.37 3496.62,-1290.37 3496.62,-1284.37 3502.62,-1278.37 3508.62,-1278.37 3508.62,-1278.37 3747.38,-1278.37 3747.38,-1278.37 3753.38,-1278.37 3759.38,-1284.37 3759.38,-1290.37 3759.38,-1290.37 3759.38,-1302.37 3759.38,-1302.37 3759.38,-1308.37 3753.38,-1314.37 3747.38,-1314.37"/>
<text xml:space="preserve" text-anchor="middle" x="3628" y="-1290.95" font-family="Helvetica,sans-Serif" font-size="14.00">MANDADO DE SEGURANÇA TR CÍVEL</text>
</g>
<!-- n8793560584400511256&#45;&gt;n6879516263458748543 -->
<g id="edge36" class="edge">
<title>n8793560584400511256&#45;&gt;n6879516263458748543</title>
<path fill="none" stroke="#475569" d="M2979.9,-1177.79C3017.76,-1195.21 3077.58,-1220.92 3131.75,-1236.37 3247.94,-1269.51 3384.56,-1284.35 3484.84,-1290.99"/>
<polygon fill="#475569" stroke="#475569" points="3484.56,-1294.48 3494.76,-1291.63 3485,-1287.5 3484.56,-1294.48"/>
<text xml:space="preserve" text-anchor="middle" x="3183.12" y="-1260.91" font-family="Helvetica,sans-Serif" font-size="14.00">type</text>
</g>
<!-- n8793560584400511256&#45;&gt;n1814093808349499784 -->
<g id="edge84" class="edge">
<title>n8793560584400511256&#45;&gt;n1814093808349499784</title>
<path fill="none" stroke="#475569" d="M2961.32,-1140.89C2995.31,-1109.69 3067.09,-1045.11 3131.75,-995.37 3161.37,-972.59 3235.06,-912.24 3270.5,-900.37 3611.76,-786.13 3719.5,-863.37 4079.38,-863.37 4079.38,-863.37 4079.38,-863.37 4854.25,-863.37 5097.11,-863.37 5386.82,-885.99 5501.72,-895.86"/>
<polygon fill="#475569" stroke="#475569" points="5501.16,-899.32 5511.42,-896.7 5501.76,-892.35 5501.16,-899.32"/>
<text xml:space="preserve" text-anchor="middle" x="4235.38" y="-865.82" font-family="Helvetica,sans-Serif" font-size="14.00">type</text>
</g>
<!-- n1568018667027162318 -->
<g id="node36" class="node">
<title>n1568018667027162318</title>
<path fill="#f7fafc" stroke="#334155" d="M3744.38,-1242.37C3744.38,-1242.37 3511.62,-1242.37 3511.62,-1242.37 3505.62,-1242.37 3499.62,-1236.37 3499.62,-1230.37 3499.62,-1230.37 3499.62,-1218.37 3499.62,-1218.37 3499.62,-1212.37 3505.62,-1206.37 3511.62,-1206.37 3511.62,-1206.37 3744.38,-1206.37 3744.38,-1206.37 3750.38,-1206.37 3756.38,-1212.37 3756.38,-1218.37 3756.38,-1218.37 3756.38,-1230.37 3756.38,-1230.37 3756.38,-1236.37 3750.38,-1242.37 3744.38,-1242.37"/>
<text xml:space="preserve" text-anchor="middle" x="3628" y="-1218.95" font-family="Helvetica,sans-Serif" font-size="14.00">261f3545&#45;cf32&#45;508f&#45;9fc6&#45;043a3bc53ad5</text>
</g>
<!-- n8793560584400511256&#45;&gt;n1568018667027162318 -->
<g id="edge41" class="edge">
<title>n8793560584400511256&#45;&gt;n1568018667027162318</title>
<path fill="none" stroke="#475569" d="M3011.38,-1177.82C3047.14,-1186.47 3091.49,-1196.04 3131.75,-1201.37 3251.29,-1217.22 3388.32,-1222.61 3487.89,-1224.24"/>
<polygon fill="#475569" stroke="#475569" points="3487.67,-1227.74 3497.72,-1224.39 3487.78,-1220.74 3487.67,-1227.74"/>
<text xml:space="preserve" text-anchor="middle" x="3183.12" y="-1214.04" font-family="Helvetica,sans-Serif" font-size="14.00">decisionNumber</text>
</g>
<!-- n5433097714339264870 -->
<g id="node39" class="node">
<title>n5433097714339264870</title>
<path fill="#f7fafc" stroke="#334155" d="M3973.5,-1170.37C3973.5,-1170.37 3282.5,-1170.37 3282.5,-1170.37 3276.5,-1170.37 3270.5,-1164.37 3270.5,-1158.37 3270.5,-1158.37 3270.5,-1146.37 3270.5,-1146.37 3270.5,-1140.37 3276.5,-1134.37 3282.5,-1134.37 3282.5,-1134.37 3973.5,-1134.37 3973.5,-1134.37 3979.5,-1134.37 3985.5,-1140.37 3985.5,-1146.37 3985.5,-1146.37 3985.5,-1158.37 3985.5,-1158.37 3985.5,-1164.37 3979.5,-1170.37 3973.5,-1170.37"/>
<text xml:space="preserve" text-anchor="middle" x="3628" y="-1146.95" font-family="Helvetica,sans-Serif" font-size="14.00">tipo_julgamento=Julgamento Principal; competencia=JEF Recurso Cível; relator=ALESSANDRA BELFORT BUENO</text>
</g>
<!-- n8793560584400511256&#45;&gt;n5433097714339264870 -->
<g id="edge46" class="edge">
<title>n8793560584400511256&#45;&gt;n5433097714339264870</title>
<path fill="none" stroke="#475569" d="M3082.16,-1172.54C3098.86,-1173.71 3115.68,-1174.7 3131.75,-1175.37 3218.29,-1179 3313.31,-1176.23 3396.78,-1171.52"/>
<polygon fill="#475569" stroke="#475569" points="3396.92,-1175.02 3406.7,-1170.94 3396.52,-1168.03 3396.92,-1175.02"/>
<text xml:space="preserve" text-anchor="middle" x="3183.12" y="-1179.48" font-family="Helvetica,sans-Serif" font-size="14.00">description</text>
</g>
<!-- n4270711325054811078 -->
<g id="node50" class="node">
<title>n4270711325054811078</title>
<path fill="#f7fafc" stroke="#334155" d="M3716.62,-1098.37C3716.62,-1098.37 3539.38,-1098.37 3539.38,-1098.37 3533.38,-1098.37 3527.38,-1092.37 3527.38,-1086.37 3527.38,-1086.37 3527.38,-1074.37 3527.38,-1074.37 3527.38,-1068.37 3533.38,-1062.37 3539.38,-1062.37 3539.38,-1062.37 3716.62,-1062.37 3716.62,-1062.37 3722.62,-1062.37 3728.62,-1068.37 3728.62,-1074.37 3728.62,-1074.37 3728.62,-1086.37 3728.62,-1086.37 3728.62,-1092.37 3722.62,-1098.37 3716.62,-1098.37"/>
<text xml:space="preserve" text-anchor="middle" x="3628" y="-1074.95" font-family="Helvetica,sans-Serif" font-size="14.00">ors:AppellateDecisionOnSFCA</text>
</g>
<!-- n8793560584400511256&#45;&gt;n4270711325054811078 -->
<g id="edge75" class="edge">
<title>n8793560584400511256&#45;&gt;n4270711325054811078</title>
<path fill="none" stroke="#475569" d="M3075.78,-1140.91C3135.38,-1132.96 3206.39,-1123.8 3270.5,-1116.37 3352.62,-1106.86 3445.55,-1097.53 3515.93,-1090.75"/>
<polygon fill="#475569" stroke="#475569" points="3515.91,-1094.26 3525.52,-1089.82 3515.24,-1087.3 3515.91,-1094.26"/>
<text xml:space="preserve" text-anchor="middle" x="3183.12" y="-1135.59" font-family="Helvetica,sans-Serif" font-size="14.00">type</text>
</g>
<!-- n2215090890316051064 -->
<g id="node55" class="node">
<title>n2215090890316051064</title>
<path fill="#f7fafc" stroke="#334155" d="M3828.75,-1026.37C3828.75,-1026.37 3427.25,-1026.37 3427.25,-1026.37 3421.25,-1026.37 3415.25,-1020.37 3415.25,-1014.37 3415.25,-1014.37 3415.25,-1002.37 3415.25,-1002.37 3415.25,-996.37 3421.25,-990.37 3427.25,-990.37 3427.25,-990.37 3828.75,-990.37 3828.75,-990.37 3834.75,-990.37 3840.75,-996.37 3840.75,-1002.37 3840.75,-1002.37 3840.75,-1014.37 3840.75,-1014.37 3840.75,-1020.37 3834.75,-1026.37 3828.75,-1026.37"/>
<text xml:space="preserve" text-anchor="middle" x="3628" y="-1002.95" font-family="Helvetica,sans-Serif" font-size="14.00">Indenização por dano moral, Responsabilidade civil, DIREITO CIVIL</text>
</g>
<!-- n8793560584400511256&#45;&gt;n2215090890316051064 -->
<g id="edge92" class="edge">
<title>n8793560584400511256&#45;&gt;n2215090890316051064</title>
<path fill="none" stroke="#475569" d="M2997.18,-1140.91C3079.01,-1113.8 3223.14,-1065.94 3234.5,-1061.37 3250.92,-1054.78 3253.45,-1049.11 3270.5,-1044.37 3312.91,-1032.59 3359.11,-1024.58 3403.76,-1019.14"/>
<polygon fill="#475569" stroke="#475569" points="3404.05,-1022.63 3413.57,-1017.99 3403.24,-1015.68 3404.05,-1022.63"/>
<text xml:space="preserve" text-anchor="middle" x="3183.12" y="-1098.33" font-family="Helvetica,sans-Serif" font-size="14.00">subject</text>
</g>
<!-- n404045410628445966&#45;&gt;n2494595837941030742 -->
<g id="edge28" class="edge">
<title>n404045410628445966&#45;&gt;n2494595837941030742</title>
<path fill="none" stroke="#475569" d="M269.64,-543.85C285.54,-624.73 360.87,-949.47 566.5,-1084.37 689.77,-1165.24 865.76,-1161.94 979.76,-1148.26"/>
<polygon fill="#475569" stroke="#475569" points="979.95,-1151.77 989.44,-1147.05 979.08,-1144.82 979.95,-1151.77"/>
<text xml:space="preserve" text-anchor="middle" x="618.62" y="-1133.49" font-family="Helvetica,sans-Serif" font-size="14.00">wasGeneratedBy</text>
</g>
<!-- n404045410628445966&#45;&gt;n8793560584400511256 -->
<g id="edge90" class="edge">
<title>n404045410628445966&#45;&gt;n8793560584400511256</title>
<path fill="none" stroke="#475569" d="M278.14,-543.84C314.44,-598.73 429.71,-762.43 566.5,-848.37 774,-978.75 848.19,-1011.37 1093.25,-1011.37 1093.25,-1011.37 1093.25,-1011.37 2135.12,-1011.37 2410.89,-1011.37 2731.19,-1096.58 2869.68,-1137.69"/>
<polygon fill="#475569" stroke="#475569" points="2868.5,-1140.99 2879.08,-1140.5 2870.5,-1134.28 2868.5,-1140.99"/>
<text xml:space="preserve" text-anchor="middle" x="1852" y="-1013.82" font-family="Helvetica,sans-Serif" font-size="14.00">wasDerivedFrom</text>
</g>
<!-- n8902493787703909317 -->
<g id="node7" class="node">
<title>n8902493787703909317</title>
<path fill="#f7fafc" stroke="#334155" d="M1347.5,-182.37C1347.5,-182.37 841,-182.37 841,-182.37 835,-182.37 829,-176.37 829,-170.37 829,-170.37 829,-158.37 829,-158.37 829,-152.37 835,-146.37 841,-146.37 841,-146.37 1347.5,-146.37 1347.5,-146.37 1353.5,-146.37 1359.5,-152.37 1359.5,-158.37 1359.5,-158.37 1359.5,-170.37 1359.5,-170.37 1359.5,-176.37 1353.5,-182.37 1347.5,-182.37"/>
<text xml:space="preserve" text-anchor="middle" x="1094.25" y="-158.95" font-family="Helvetica,sans-Serif" font-size="14.00">Generated decision NEGAR_SEGUIMENTO for process 5021277&#45;41.2025.4.02.5101</text>
</g>
<!-- n404045410628445966&#45;&gt;n8902493787703909317 -->
<g id="edge4" class="edge">
<title>n404045410628445966&#45;&gt;n8902493787703909317</title>
<path fill="none" stroke="#475569" d="M275.95,-506.89C307.97,-448.09 416.83,-265.07 566.5,-193.62 690.36,-134.5 849.71,-134.57 960.55,-144.8"/>
<polygon fill="#475569" stroke="#475569" points="960,-148.26 970.29,-145.74 960.68,-141.29 960,-148.26"/>
<text xml:space="preserve" text-anchor="middle" x="618.62" y="-196.07" font-family="Helvetica,sans-Serif" font-size="14.00">label</text>
</g>
<!-- n404045410628445966&#45;&gt;n3901057556932773611 -->
<g id="edge56" class="edge">
<title>n404045410628445966&#45;&gt;n3901057556932773611</title>
<path fill="none" stroke="#475569" d="M270.31,-543.63C289.34,-625.31 376.79,-961.71 566.5,-1155.37 1093.93,-1693.79 1348.61,-1742.58 2082,-1916.37 2127.08,-1927.06 2149.71,-1944.86 2186.25,-1916.37 2237.94,-1876.08 2192.37,-1831.7 2222.25,-1773.37 2265.17,-1689.6 2343.9,-1609.8 2386.33,-1570.24"/>
<polygon fill="#475569" stroke="#475569" points="2388.47,-1573.03 2393.45,-1563.67 2383.72,-1567.88 2388.47,-1573.03"/>
<text xml:space="preserve" text-anchor="middle" x="1569.88" y="-1804.04" font-family="Helvetica,sans-Serif" font-size="14.00">wasDerivedFrom</text>
</g>
<!-- n404045410628445966&#45;&gt;n4402814763753098769 -->
<g id="edge25" class="edge">
<title>n404045410628445966&#45;&gt;n4402814763753098769</title>
<path fill="none" stroke="#475569" d="M294.95,-543.83C398.25,-608.41 762.46,-820.37 1093.25,-820.37 1093.25,-820.37 1093.25,-820.37 2417.25,-820.37 2780.51,-820.37 2874.67,-781.61 3234.5,-831.37 3353.21,-847.79 3487.23,-888.66 3563.95,-914.3"/>
<polygon fill="#475569" stroke="#475569" points="3562.82,-917.61 3573.41,-917.48 3565.05,-910.98 3562.82,-917.61"/>
<text xml:space="preserve" text-anchor="middle" x="2134.12" y="-822.82" font-family="Helvetica,sans-Serif" font-size="14.00">adoptsThesis</text>
</g>
<!-- n5493962923767701991 -->
<g id="node21" class="node">
<title>n5493962923767701991</title>
<path fill="#f7fafc" stroke="#334155" d="M2536.75,-303.37C2536.75,-303.37 2295.75,-303.37 2295.75,-303.37 2289.75,-303.37 2283.75,-297.37 2283.75,-291.37 2283.75,-291.37 2283.75,-279.37 2283.75,-279.37 2283.75,-273.37 2289.75,-267.37 2295.75,-267.37 2295.75,-267.37 2536.75,-267.37 2536.75,-267.37 2542.75,-267.37 2548.75,-273.37 2548.75,-279.37 2548.75,-279.37 2548.75,-291.37 2548.75,-291.37 2548.75,-297.37 2542.75,-303.37 2536.75,-303.37"/>
<text xml:space="preserve" text-anchor="middle" x="2416.25" y="-279.95" font-family="Helvetica,sans-Serif" font-size="14.00">ccdd1bbf&#45;4fe7&#45;521a&#45;87b1&#45;64e782a57132</text>
</g>
<!-- n404045410628445966&#45;&gt;n5493962923767701991 -->
<g id="edge17" class="edge">
<title>n404045410628445966&#45;&gt;n5493962923767701991</title>
<path fill="none" stroke="#475569" d="M314.32,-506.88C372.94,-485.14 475.47,-449.71 566.5,-431.37 1192.97,-305.2 1959.35,-286.91 2272.09,-285.07"/>
<polygon fill="#475569" stroke="#475569" points="2271.98,-288.57 2281.96,-285.01 2271.95,-281.57 2271.98,-288.57"/>
<text xml:space="preserve" text-anchor="middle" x="1569.88" y="-314.54" font-family="Helvetica,sans-Serif" font-size="14.00">identifier</text>
</g>
<!-- n404045410628445966&#45;&gt;n5493962923767701991 -->
<g id="edge85" class="edge">
<title>n404045410628445966&#45;&gt;n5493962923767701991</title>
<path fill="none" stroke="#475569" d="M292.98,-506.96C359.31,-462.45 538.32,-349.6 706.75,-307.37 1272.43,-165.55 1976.87,-228.58 2273.34,-265.47"/>
<polygon fill="#475569" stroke="#475569" points="2272.71,-268.92 2283.07,-266.69 2273.58,-261.97 2272.71,-268.92"/>
<text xml:space="preserve" text-anchor="middle" x="1569.88" y="-222.06" font-family="Helvetica,sans-Serif" font-size="14.00">decisionNumber</text>
</g>
<!-- n5169809624137442751 -->
<g id="node22" class="node">
<title>n5169809624137442751</title>
<path fill="#f7fafc" stroke="#334155" d="M1164.88,-110.37C1164.88,-110.37 1023.62,-110.37 1023.62,-110.37 1017.62,-110.37 1011.62,-104.37 1011.62,-98.37 1011.62,-98.37 1011.62,-86.37 1011.62,-86.37 1011.62,-80.37 1017.62,-74.37 1023.62,-74.37 1023.62,-74.37 1164.88,-74.37 1164.88,-74.37 1170.88,-74.37 1176.88,-80.37 1176.88,-86.37 1176.88,-86.37 1176.88,-98.37 1176.88,-98.37 1176.88,-104.37 1170.88,-110.37 1164.88,-110.37"/>
<text xml:space="preserve" text-anchor="middle" x="1094.25" y="-86.95" font-family="Helvetica,sans-Serif" font-size="14.00">NEGAR_SEGUIMENTO</text>
</g>
<!-- n404045410628445966&#45;&gt;n5169809624137442751 -->
<g id="edge18" class="edge">
<title>n404045410628445966&#45;&gt;n5169809624137442751</title>
<path fill="none" stroke="#475569" d="M273.7,-507.16C301.15,-442.65 403.68,-224.19 566.5,-135.62 703.07,-61.34 889.6,-66.44 1000.13,-78.38"/>
<polygon fill="#475569" stroke="#475569" points="999.42,-81.82 1009.75,-79.47 1000.2,-74.87 999.42,-81.82"/>
<text xml:space="preserve" text-anchor="middle" x="618.62" y="-138.07" font-family="Helvetica,sans-Serif" font-size="14.00">type</text>
</g>
<!-- n404045410628445966&#45;&gt;n1814093808349499784 -->
<g id="edge76" class="edge">
<title>n404045410628445966&#45;&gt;n1814093808349499784</title>
<path fill="none" stroke="#475569" d="M530.86,-514.83C1150.85,-491.06 2745.9,-435.37 4079.38,-435.37 4079.38,-435.37 4079.38,-435.37 4854.25,-435.37 5026.32,-435.37 5087.48,-411.9 5236.25,-498.37 5394.99,-590.64 5503.5,-796.22 5539.32,-871.79"/>
<polygon fill="#475569" stroke="#475569" points="5536.03,-873.02 5543.44,-880.6 5542.38,-870.05 5536.03,-873.02"/>
<text xml:space="preserve" text-anchor="middle" x="2940.38" y="-451.23" font-family="Helvetica,sans-Serif" font-size="14.00">type</text>
</g>
<!-- n3716614947349531030 -->
<g id="node52" class="node">
<title>n3716614947349531030</title>
<path fill="#f7fafc" stroke="#334155" d="M1469.75,-38.37C1469.75,-38.37 718.75,-38.37 718.75,-38.37 712.75,-38.37 706.75,-32.37 706.75,-26.37 706.75,-26.37 706.75,-14.37 706.75,-14.37 706.75,-8.37 712.75,-2.37 718.75,-2.37 718.75,-2.37 1469.75,-2.37 1469.75,-2.37 1475.75,-2.37 1481.75,-8.37 1481.75,-14.37 1481.75,-14.37 1481.75,-26.37 1481.75,-26.37 1481.75,-32.37 1475.75,-38.37 1469.75,-38.37"/>
<text xml:space="preserve" text-anchor="middle" x="1094.25" y="-14.95" font-family="Helvetica,sans-Serif" font-size="14.00">outputs/runs/run&#45;20260616T020214445248Z/documents/261f3545&#45;cf32&#45;508f&#45;9fc6&#45;043a3bc53ad5&#45;NEGAR_SEGUIMENTO.tex</text>
</g>
<!-- n404045410628445966&#45;&gt;n3716614947349531030 -->
<g id="edge83" class="edge">
<title>n404045410628445966&#45;&gt;n3716614947349531030</title>
<path fill="none" stroke="#475569" d="M272.1,-507.07C295.62,-436.71 390.63,-182.25 566.5,-73.62 674.05,-7.2 818.06,3.23 928.33,-1.35"/>
<polygon fill="#475569" stroke="#475569" points="927.9,-4.84 938.05,-1.8 928.23,2.16 927.9,-4.84"/>
<text xml:space="preserve" text-anchor="middle" x="618.62" y="-76.07" font-family="Helvetica,sans-Serif" font-size="14.00">atLocation</text>
</g>
<!-- n3901057556932773611&#45;&gt;n2474687712127890622 -->
<g id="edge31" class="edge">
<title>n3901057556932773611&#45;&gt;n2474687712127890622</title>
<path fill="none" stroke="#475569" d="M2454.17,-1562.86C2519.11,-1594.29 2658.89,-1657.1 2785,-1681.37 3306.35,-1781.74 3952.22,-1750.68 4163.73,-1736.62"/>
<polygon fill="#475569" stroke="#475569" points="4163.71,-1740.13 4173.45,-1735.96 4163.24,-1733.14 4163.71,-1740.13"/>
<text xml:space="preserve" text-anchor="middle" x="3183.12" y="-1739.4" font-family="Helvetica,sans-Serif" font-size="14.00">wasDerivedFrom</text>
</g>
<!-- n3901057556932773611&#45;&gt;n8793560584400511256 -->
<g id="edge35" class="edge">
<title>n3901057556932773611&#45;&gt;n8793560584400511256</title>
<path fill="none" stroke="#475569" d="M2442.08,-1526.06C2527.2,-1463.3 2807.32,-1256.74 2905.23,-1184.55"/>
<polygon fill="#475569" stroke="#475569" points="2907.2,-1187.45 2913.17,-1178.69 2903.05,-1181.81 2907.2,-1187.45"/>
<text xml:space="preserve" text-anchor="middle" x="2697.62" y="-1377.37" font-family="Helvetica,sans-Serif" font-size="14.00">wasDerivedFrom</text>
</g>
<!-- n6443330610924973469 -->
<g id="node9" class="node">
<title>n6443330610924973469</title>
<path fill="#f7fafc" stroke="#334155" d="M2960,-1591.37C2960,-1591.37 2920.75,-1591.37 2920.75,-1591.37 2914.75,-1591.37 2908.75,-1585.37 2908.75,-1579.37 2908.75,-1579.37 2908.75,-1567.37 2908.75,-1567.37 2908.75,-1561.37 2914.75,-1555.37 2920.75,-1555.37 2920.75,-1555.37 2960,-1555.37 2960,-1555.37 2966,-1555.37 2972,-1561.37 2972,-1567.37 2972,-1567.37 2972,-1579.37 2972,-1579.37 2972,-1585.37 2966,-1591.37 2960,-1591.37"/>
<text xml:space="preserve" text-anchor="middle" x="2940.38" y="-1567.95" font-family="Helvetica,sans-Serif" font-size="14.00">VALIDA</text>
</g>
<!-- n3901057556932773611&#45;&gt;n6443330610924973469 -->
<g id="edge5" class="edge">
<title>n3901057556932773611&#45;&gt;n6443330610924973469</title>
<path fill="none" stroke="#475569" d="M2585.33,-1553.71C2695.01,-1559.8 2829.87,-1567.29 2897.1,-1571.03"/>
<polygon fill="#475569" stroke="#475569" points="2896.76,-1574.51 2906.94,-1571.57 2897.15,-1567.52 2896.76,-1574.51"/>
<text xml:space="preserve" text-anchor="middle" x="2697.62" y="-1564.77" font-family="Helvetica,sans-Serif" font-size="14.00">type</text>
</g>
<!-- n3901057556932773611&#45;&gt;n8045631374618994937 -->
<g id="edge44" class="edge">
<title>n3901057556932773611&#45;&gt;n8045631374618994937</title>
<path fill="none" stroke="#475569" d="M2516.92,-1562.83C2549.61,-1572.83 2584.19,-1588.11 2610.25,-1611.37 2637.83,-1635.99 2618.41,-1662.04 2646.25,-1686.37 2695.05,-1729.04 2722.15,-1715.46 2785,-1731.37 2954.38,-1774.25 4157.5,-2000.47 4331.5,-2016.37 4511.68,-2032.84 4728.39,-2022.34 4814.4,-2016.97"/>
<polygon fill="#475569" stroke="#475569" points="4814.63,-2020.46 4824.38,-2016.33 4814.18,-2013.48 4814.63,-2020.46"/>
<text xml:space="preserve" text-anchor="middle" x="3628" y="-1963.91" font-family="Helvetica,sans-Serif" font-size="14.00">identifier</text>
</g>
<!-- n6838547954661872111 -->
<g id="node11" class="node">
<title>n6838547954661872111</title>
<path fill="#f7fafc" stroke="#334155" d="M3083.75,-1519.37C3083.75,-1519.37 2797,-1519.37 2797,-1519.37 2791,-1519.37 2785,-1513.37 2785,-1507.37 2785,-1507.37 2785,-1495.37 2785,-1495.37 2785,-1489.37 2791,-1483.37 2797,-1483.37 2797,-1483.37 3083.75,-1483.37 3083.75,-1483.37 3089.75,-1483.37 3095.75,-1489.37 3095.75,-1495.37 3095.75,-1495.37 3095.75,-1507.37 3095.75,-1507.37 3095.75,-1513.37 3089.75,-1519.37 3083.75,-1519.37"/>
<text xml:space="preserve" text-anchor="middle" x="2940.38" y="-1495.95" font-family="Helvetica,sans-Serif" font-size="14.00">Tema 1 selecionado por semelhança de assunto.</text>
</g>
<!-- n3901057556932773611&#45;&gt;n6838547954661872111 -->
<g id="edge7" class="edge">
<title>n3901057556932773611&#45;&gt;n6838547954661872111</title>
<path fill="none" stroke="#475569" d="M2585.33,-1530.53C2645.67,-1525.56 2713.63,-1519.96 2773.76,-1515.01"/>
<polygon fill="#475569" stroke="#475569" points="2773.7,-1518.53 2783.38,-1514.22 2773.13,-1511.55 2773.7,-1518.53"/>
<text xml:space="preserve" text-anchor="middle" x="2697.62" y="-1527.9" font-family="Helvetica,sans-Serif" font-size="14.00">description</text>
</g>
<!-- n3901057556932773611&#45;&gt;n1052513836601814631 -->
<g id="edge79" class="edge">
<title>n3901057556932773611&#45;&gt;n1052513836601814631</title>
<path fill="none" stroke="#475569" d="M2275.48,-1525.88C2215.88,-1520.1 2145.57,-1516.06 2082,-1519.62 2057.47,-1521 2031.53,-1523.2 2006.27,-1525.74"/>
<polygon fill="#475569" stroke="#475569" points="2006.2,-1522.23 1996.61,-1526.74 2006.92,-1529.19 2006.2,-1522.23"/>
<text xml:space="preserve" text-anchor="middle" x="2134.12" y="-1522.07" font-family="Helvetica,sans-Serif" font-size="14.00">wasGeneratedBy</text>
</g>
<!-- n6090224169194692193 -->
<g id="node31" class="node">
<title>n6090224169194692193</title>
<path fill="#f7fafc" stroke="#334155" d="M2987.38,-1663.37C2987.38,-1663.37 2893.38,-1663.37 2893.38,-1663.37 2887.38,-1663.37 2881.38,-1657.37 2881.38,-1651.37 2881.38,-1651.37 2881.38,-1639.37 2881.38,-1639.37 2881.38,-1633.37 2887.38,-1627.37 2893.38,-1627.37 2893.38,-1627.37 2987.38,-1627.37 2987.38,-1627.37 2993.38,-1627.37 2999.38,-1633.37 2999.38,-1639.37 2999.38,-1639.37 2999.38,-1651.37 2999.38,-1651.37 2999.38,-1657.37 2993.38,-1663.37 2987.38,-1663.37"/>
<text xml:space="preserve" text-anchor="middle" x="2940.38" y="-1639.95" font-family="Helvetica,sans-Serif" font-size="14.00">CONSONANCIA</text>
</g>
<!-- n3901057556932773611&#45;&gt;n6090224169194692193 -->
<g id="edge33" class="edge">
<title>n3901057556932773611&#45;&gt;n6090224169194692193</title>
<path fill="none" stroke="#475569" d="M2512.71,-1562.84C2615.96,-1582.81 2778.07,-1614.17 2869.88,-1631.93"/>
<polygon fill="#475569" stroke="#475569" points="2869.02,-1635.33 2879.5,-1633.79 2870.35,-1628.46 2869.02,-1635.33"/>
<text xml:space="preserve" text-anchor="middle" x="2697.62" y="-1609.34" font-family="Helvetica,sans-Serif" font-size="14.00">value</text>
</g>
<!-- n3901057556932773611&#45;&gt;n1814093808349499784 -->
<g id="edge67" class="edge">
<title>n3901057556932773611&#45;&gt;n1814093808349499784</title>
<path fill="none" stroke="#475569" d="M2482.67,-1525.93C2555.69,-1506.37 2677.69,-1476.77 2785,-1465.37 2922.34,-1450.79 2957.66,-1463 3095.75,-1465.37 3173.45,-1466.71 3192.8,-1470.04 3270.5,-1471.37 3787.77,-1480.25 3969.08,-1672.77 4434.25,-1446.37 4456.05,-1435.76 4449,-1417.06 4470.25,-1405.37 4772.2,-1239.31 4937.11,-1456.43 5236.25,-1285.37 5390.79,-1197 5501.14,-1001.77 5538.42,-928.71"/>
<polygon fill="#475569" stroke="#475569" points="5541.34,-930.7 5542.71,-920.2 5535.09,-927.55 5541.34,-930.7"/>
<text xml:space="preserve" text-anchor="middle" x="4080.38" y="-1558.37" font-family="Helvetica,sans-Serif" font-size="14.00">type</text>
</g>
<!-- n1453653456767765252 -->
<g id="node13" class="node">
<title>n1453653456767765252</title>
<path fill="#f7fafc" stroke="#334155" d="M6564.12,-1039.37C6564.12,-1039.37 6492.62,-1039.37 6492.62,-1039.37 6486.62,-1039.37 6480.62,-1033.37 6480.62,-1027.37 6480.62,-1027.37 6480.62,-1015.37 6480.62,-1015.37 6480.62,-1009.37 6486.62,-1003.37 6492.62,-1003.37 6492.62,-1003.37 6564.12,-1003.37 6564.12,-1003.37 6570.12,-1003.37 6576.12,-1009.37 6576.12,-1015.37 6576.12,-1015.37 6576.12,-1027.37 6576.12,-1027.37 6576.12,-1033.37 6570.12,-1039.37 6564.12,-1039.37"/>
<text xml:space="preserve" text-anchor="middle" x="6528.38" y="-1015.95" font-family="Helvetica,sans-Serif" font-size="14.00">TCC Pipeline</text>
</g>
<!-- n6065844580812240659&#45;&gt;n1453653456767765252 -->
<g id="edge9" class="edge">
<title>n6065844580812240659&#45;&gt;n1453653456767765252</title>
<path fill="none" stroke="#475569" d="M6163.67,-1043.03C6216.96,-1035.22 6312.49,-1022.4 6394.75,-1017.62 6407.4,-1016.89 6410.59,-1017.4 6423.25,-1017.62 6438.09,-1017.89 6454.12,-1018.37 6469.05,-1018.9"/>
<polygon fill="#475569" stroke="#475569" points="6468.58,-1022.39 6478.7,-1019.26 6468.84,-1015.39 6468.58,-1022.39"/>
<text xml:space="preserve" text-anchor="middle" x="6409" y="-1020.07" font-family="Helvetica,sans-Serif" font-size="14.00">title</text>
</g>
<!-- n7499073476392126329 -->
<g id="node17" class="node">
<title>n7499073476392126329</title>
<path fill="#f7fafc" stroke="#334155" d="M6583.62,-1124.37C6583.62,-1124.37 6473.12,-1124.37 6473.12,-1124.37 6467.12,-1124.37 6461.12,-1118.37 6461.12,-1112.37 6461.12,-1112.37 6461.12,-1100.37 6461.12,-1100.37 6461.12,-1094.37 6467.12,-1088.37 6473.12,-1088.37 6473.12,-1088.37 6583.62,-1088.37 6583.62,-1088.37 6589.62,-1088.37 6595.62,-1094.37 6595.62,-1100.37 6595.62,-1100.37 6595.62,-1112.37 6595.62,-1112.37 6595.62,-1118.37 6589.62,-1124.37 6583.62,-1124.37"/>
<text xml:space="preserve" text-anchor="middle" x="6528.38" y="-1100.95" font-family="Helvetica,sans-Serif" font-size="14.00">prov:SoftwareAgent</text>
</g>
<!-- n6065844580812240659&#45;&gt;n7499073476392126329 -->
<g id="edge78" class="edge">
<title>n6065844580812240659&#45;&gt;n7499073476392126329</title>
<path fill="none" stroke="#475569" d="M6163.52,-1050.07C6221.87,-1051.68 6331.58,-1057.01 6423.25,-1074.62 6436.52,-1077.17 6450.49,-1080.77 6463.75,-1084.64"/>
<polygon fill="#475569" stroke="#475569" points="6462.65,-1087.96 6473.23,-1087.5 6464.67,-1081.26 6462.65,-1087.96"/>
<text xml:space="preserve" text-anchor="middle" x="6409" y="-1077.07" font-family="Helvetica,sans-Serif" font-size="14.00">type</text>
</g>
<!-- n4402814763753098769&#45;&gt;n2474687712127890622 -->
<g id="edge51" class="edge">
<title>n4402814763753098769&#45;&gt;n2474687712127890622</title>
<path fill="none" stroke="#475569" d="M3684.94,-923.13C3763.41,-908.22 3905.49,-895.15 3985.5,-972.37 4027.94,-1013.34 3997.6,-1181.44 4021.5,-1235.37 4054.48,-1309.78 4101.68,-1303.43 4139.25,-1375.62 4197.61,-1487.77 4222.57,-1638.94 4230.91,-1701.92"/>
<polygon fill="#475569" stroke="#475569" points="4227.39,-1701.99 4232.12,-1711.47 4234.33,-1701.1 4227.39,-1701.99"/>
<text xml:space="preserve" text-anchor="middle" x="4080.38" y="-1378.07" font-family="Helvetica,sans-Serif" font-size="14.00">hasTheme</text>
</g>
<!-- n4177221290989702999 -->
<g id="node15" class="node">
<title>n4177221290989702999</title>
<path fill="#f7fafc" stroke="#334155" d="M4280.12,-1100.37C4280.12,-1100.37 4190.62,-1100.37 4190.62,-1100.37 4184.62,-1100.37 4178.62,-1094.37 4178.62,-1088.37 4178.62,-1088.37 4178.62,-1076.37 4178.62,-1076.37 4178.62,-1070.37 4184.62,-1064.37 4190.62,-1064.37 4190.62,-1064.37 4280.12,-1064.37 4280.12,-1064.37 4286.12,-1064.37 4292.12,-1070.37 4292.12,-1076.37 4292.12,-1076.37 4292.12,-1088.37 4292.12,-1088.37 4292.12,-1094.37 4286.12,-1100.37 4280.12,-1100.37"/>
<text xml:space="preserve" text-anchor="middle" x="4235.38" y="-1076.95" font-family="Helvetica,sans-Serif" font-size="14.00">Theme 1 Thesis</text>
</g>
<!-- n4402814763753098769&#45;&gt;n4177221290989702999 -->
<g id="edge10" class="edge">
<title>n4402814763753098769&#45;&gt;n4177221290989702999</title>
<path fill="none" stroke="#475569" d="M3685.17,-929.09C3758.95,-922.29 3890.29,-919.9 3985.5,-972.37 4008.24,-984.9 4000.06,-1003.73 4021.5,-1018.37 4065.03,-1048.11 4122.72,-1064.34 4167.06,-1073"/>
<polygon fill="#475569" stroke="#475569" points="4166.36,-1076.43 4176.83,-1074.82 4167.64,-1069.55 4166.36,-1076.43"/>
<text xml:space="preserve" text-anchor="middle" x="4080.38" y="-1068.83" font-family="Helvetica,sans-Serif" font-size="14.00">label</text>
</g>
<!-- n2004975703568148260 -->
<g id="node19" class="node">
<title>n2004975703568148260</title>
<path fill="#f7fafc" stroke="#334155" d="M4262.5,-1028.37C4262.5,-1028.37 4208.25,-1028.37 4208.25,-1028.37 4202.25,-1028.37 4196.25,-1022.37 4196.25,-1016.37 4196.25,-1016.37 4196.25,-1004.37 4196.25,-1004.37 4196.25,-998.37 4202.25,-992.37 4208.25,-992.37 4208.25,-992.37 4262.5,-992.37 4262.5,-992.37 4268.5,-992.37 4274.5,-998.37 4274.5,-1004.37 4274.5,-1004.37 4274.5,-1016.37 4274.5,-1016.37 4274.5,-1022.37 4268.5,-1028.37 4262.5,-1028.37"/>
<text xml:space="preserve" text-anchor="middle" x="4235.38" y="-1004.95" font-family="Helvetica,sans-Serif" font-size="14.00">ors:Thesis</text>
</g>
<!-- n4402814763753098769&#45;&gt;n2004975703568148260 -->
<g id="edge13" class="edge">
<title>n4402814763753098769&#45;&gt;n2004975703568148260</title>
<path fill="none" stroke="#475569" d="M3684.98,-941.14C3755.27,-947.33 3879.51,-958.94 3985.5,-972.37 4054.89,-981.17 4134.78,-993.82 4184.93,-1002.07"/>
<polygon fill="#475569" stroke="#475569" points="4184.16,-1005.48 4194.59,-1003.66 4185.3,-998.58 4184.16,-1005.48"/>
<text xml:space="preserve" text-anchor="middle" x="4080.38" y="-996.24" font-family="Helvetica,sans-Serif" font-size="14.00">type</text>
</g>
<!-- n4402814763753098769&#45;&gt;n1814093808349499784 -->
<g id="edge47" class="edge">
<title>n4402814763753098769&#45;&gt;n1814093808349499784</title>
<path fill="none" stroke="#475569" d="M3685,-935.33C3967.48,-930.04 5233.09,-906.35 5501.94,-901.32"/>
<polygon fill="#475569" stroke="#475569" points="5501.82,-904.82 5511.75,-901.13 5501.69,-897.82 5501.82,-904.82"/>
<text xml:space="preserve" text-anchor="middle" x="4382.88" y="-925.35" font-family="Helvetica,sans-Serif" font-size="14.00">type</text>
</g>
<!-- n4402814763753098769&#45;&gt;n2407316011605190505 -->
<g id="edge81" class="edge">
<title>n4402814763753098769&#45;&gt;n2407316011605190505</title>
<path fill="none" stroke="#475569" d="M3684.96,-924.65C3761.84,-912.02 3900.26,-902.19 3985.5,-972.37 4028.16,-1007.5 3980.42,-1054.42 4021.5,-1091.37 4139.37,-1197.39 4305.62,-1242.08 4458.46,-1258.32"/>
<polygon fill="#475569" stroke="#475569" points="4458.1,-1261.8 4468.4,-1259.33 4458.81,-1254.83 4458.1,-1261.8"/>
<text xml:space="preserve" text-anchor="middle" x="4235.38" y="-1229.67" font-family="Helvetica,sans-Serif" font-size="14.00">themeThesis</text>
</g>
<!-- n6318297126724603026&#45;&gt;n7499073476392126329 -->
<g id="edge11" class="edge">
<title>n6318297126724603026&#45;&gt;n7499073476392126329</title>
<path fill="none" stroke="#475569" d="M6185.55,-1205.94C6257.99,-1184.84 6376.47,-1150.33 6453.18,-1127.98"/>
<polygon fill="#475569" stroke="#475569" points="6454.11,-1131.36 6462.73,-1125.2 6452.15,-1124.64 6454.11,-1131.36"/>
<text xml:space="preserve" text-anchor="middle" x="6409" y="-1146.99" font-family="Helvetica,sans-Serif" font-size="14.00">type</text>
</g>
<!-- n841694564965619834 -->
<g id="node29" class="node">
<title>n841694564965619834</title>
<path fill="#f7fafc" stroke="#334155" d="M6585.5,-1346.37C6585.5,-1346.37 6471.25,-1346.37 6471.25,-1346.37 6465.25,-1346.37 6459.25,-1340.37 6459.25,-1334.37 6459.25,-1334.37 6459.25,-1322.37 6459.25,-1322.37 6459.25,-1316.37 6465.25,-1310.37 6471.25,-1310.37 6471.25,-1310.37 6585.5,-1310.37 6585.5,-1310.37 6591.5,-1310.37 6597.5,-1316.37 6597.5,-1322.37 6597.5,-1322.37 6597.5,-1334.37 6597.5,-1334.37 6597.5,-1340.37 6591.5,-1346.37 6585.5,-1346.37"/>
<text xml:space="preserve" text-anchor="middle" x="6528.38" y="-1322.95" font-family="Helvetica,sans-Serif" font-size="14.00">Local analysis agent</text>
</g>
<!-- n6318297126724603026&#45;&gt;n841694564965619834 -->
<g id="edge27" class="edge">
<title>n6318297126724603026&#45;&gt;n841694564965619834</title>
<path fill="none" stroke="#475569" d="M6190.52,-1241.9C6261.66,-1260.16 6373.03,-1288.75 6448.04,-1308.01"/>
<polygon fill="#475569" stroke="#475569" points="6446.81,-1311.3 6457.36,-1310.4 6448.55,-1304.52 6446.81,-1311.3"/>
<text xml:space="preserve" text-anchor="middle" x="6409" y="-1302.93" font-family="Helvetica,sans-Serif" font-size="14.00">label</text>
</g>
<!-- n2869842861534132582 -->
<g id="node45" class="node">
<title>n2869842861534132582</title>
<path fill="#f7fafc" stroke="#334155" d="M6580.25,-1274.37C6580.25,-1274.37 6476.5,-1274.37 6476.5,-1274.37 6470.5,-1274.37 6464.5,-1268.37 6464.5,-1262.37 6464.5,-1262.37 6464.5,-1250.37 6464.5,-1250.37 6464.5,-1244.37 6470.5,-1238.37 6476.5,-1238.37 6476.5,-1238.37 6580.25,-1238.37 6580.25,-1238.37 6586.25,-1238.37 6592.25,-1244.37 6592.25,-1250.37 6592.25,-1250.37 6592.25,-1262.37 6592.25,-1262.37 6592.25,-1268.37 6586.25,-1274.37 6580.25,-1274.37"/>
<text xml:space="preserve" text-anchor="middle" x="6528.38" y="-1250.95" font-family="Helvetica,sans-Serif" font-size="14.00">local&#45;text&#45;similarity</text>
</g>
<!-- n6318297126724603026&#45;&gt;n2869842861534132582 -->
<g id="edge59" class="edge">
<title>n6318297126724603026&#45;&gt;n2869842861534132582</title>
<path fill="none" stroke="#475569" d="M6190.52,-1229.77C6263.23,-1235.51 6377.96,-1244.57 6452.95,-1250.49"/>
<polygon fill="#475569" stroke="#475569" points="6452.42,-1253.96 6462.66,-1251.26 6452.97,-1246.99 6452.42,-1253.96"/>
<text xml:space="preserve" text-anchor="middle" x="6409" y="-1250.24" font-family="Helvetica,sans-Serif" font-size="14.00">title</text>
</g>
<!-- n6849759977977944012 -->
<g id="node49" class="node">
<title>n6849759977977944012</title>
<path fill="#f7fafc" stroke="#334155" d="M6543.38,-1202.37C6543.38,-1202.37 6513.38,-1202.37 6513.38,-1202.37 6507.38,-1202.37 6501.38,-1196.37 6501.38,-1190.37 6501.38,-1190.37 6501.38,-1178.37 6501.38,-1178.37 6501.38,-1172.37 6507.38,-1166.37 6513.38,-1166.37 6513.38,-1166.37 6543.38,-1166.37 6543.38,-1166.37 6549.38,-1166.37 6555.38,-1172.37 6555.38,-1178.37 6555.38,-1178.37 6555.38,-1190.37 6555.38,-1190.37 6555.38,-1196.37 6549.38,-1202.37 6543.38,-1202.37"/>
<text xml:space="preserve" text-anchor="middle" x="6528.38" y="-1178.95" font-family="Helvetica,sans-Serif" font-size="14.00">local</text>
</g>
<!-- n6318297126724603026&#45;&gt;n6849759977977944012 -->
<g id="edge74" class="edge">
<title>n6318297126724603026&#45;&gt;n6849759977977944012</title>
<path fill="none" stroke="#475569" d="M6190.52,-1217.63C6276.46,-1209.15 6421.1,-1194.87 6489.44,-1188.12"/>
<polygon fill="#475569" stroke="#475569" points="6489.78,-1191.6 6499.39,-1187.14 6489.09,-1184.64 6489.78,-1191.6"/>
<text xml:space="preserve" text-anchor="middle" x="6409" y="-1199.76" font-family="Helvetica,sans-Serif" font-size="14.00">type</text>
</g>
<!-- n28703421914888084&#45;&gt;n2494595837941030742 -->
<g id="edge80" class="edge">
<title>n28703421914888084&#45;&gt;n2494595837941030742</title>
<path fill="none" stroke="#475569" d="M1829.96,-693.79C1791.19,-726.97 1704.82,-797.31 1622,-840.37 1578.48,-863 1562.22,-855.91 1517.75,-876.62 1367.69,-946.54 1202.59,-1054.95 1131.3,-1103.45"/>
<polygon fill="#475569" stroke="#475569" points="1129.41,-1100.5 1123.13,-1109.03 1133.36,-1106.28 1129.41,-1100.5"/>
<text xml:space="preserve" text-anchor="middle" x="1569.88" y="-879.07" font-family="Helvetica,sans-Serif" font-size="14.00">wasGeneratedBy</text>
</g>
<!-- n28703421914888084&#45;&gt;n404045410628445966 -->
<g id="edge12" class="edge">
<title>n28703421914888084&#45;&gt;n404045410628445966</title>
<path fill="none" stroke="#475569" d="M1657.79,-657.09C1357.4,-628.65 780.94,-574.09 472.67,-544.91"/>
<polygon fill="#475569" stroke="#475569" points="473.16,-541.44 462.87,-543.98 472.5,-548.41 473.16,-541.44"/>
<text xml:space="preserve" text-anchor="middle" x="1094.25" y="-641.14" font-family="Helvetica,sans-Serif" font-size="14.00">ruledIn</text>
</g>
<!-- n28703421914888084&#45;&gt;n3901057556932773611 -->
<g id="edge61" class="edge">
<title>n28703421914888084&#45;&gt;n3901057556932773611</title>
<path fill="none" stroke="#475569" d="M1868.89,-693.65C1906.1,-737.45 1999.21,-853.21 2046,-966.37 2077.01,-1041.37 2046.54,-1072.38 2082,-1145.37 2113.21,-1209.6 2140.32,-1212.95 2186.25,-1267.62 2262.75,-1358.69 2352.36,-1467.66 2393.09,-1517.32"/>
<polygon fill="#475569" stroke="#475569" points="2390.33,-1519.48 2399.38,-1524.99 2395.74,-1515.04 2390.33,-1519.48"/>
<text xml:space="preserve" text-anchor="middle" x="2134.12" y="-1270.07" font-family="Helvetica,sans-Serif" font-size="14.00">wasDerivedFrom</text>
</g>
<!-- n28703421914888084&#45;&gt;n5493962923767701991 -->
<g id="edge21" class="edge">
<title>n28703421914888084&#45;&gt;n5493962923767701991</title>
<path fill="none" stroke="#475569" d="M1872.62,-656.92C1911.12,-621.16 1999.99,-540.81 2082,-482.62 2180.37,-412.83 2304.53,-343.99 2370.02,-309.04"/>
<polygon fill="#475569" stroke="#475569" points="2371.49,-312.22 2378.68,-304.44 2368.21,-306.04 2371.49,-312.22"/>
<text xml:space="preserve" text-anchor="middle" x="2134.12" y="-485.07" font-family="Helvetica,sans-Serif" font-size="14.00">identifier</text>
</g>
<!-- n5819821475148716579 -->
<g id="node30" class="node">
<title>n5819821475148716579</title>
<path fill="#f7fafc" stroke="#334155" d="M2540.12,-621.37C2540.12,-621.37 2292.38,-621.37 2292.38,-621.37 2286.38,-621.37 2280.38,-615.37 2280.38,-609.37 2280.38,-609.37 2280.38,-597.37 2280.38,-597.37 2280.38,-591.37 2286.38,-585.37 2292.38,-585.37 2292.38,-585.37 2540.12,-585.37 2540.12,-585.37 2546.12,-585.37 2552.12,-591.37 2552.12,-597.37 2552.12,-597.37 2552.12,-609.37 2552.12,-609.37 2552.12,-615.37 2546.12,-621.37 2540.12,-621.37"/>
<text xml:space="preserve" text-anchor="middle" x="2416.25" y="-597.95" font-family="Helvetica,sans-Serif" font-size="14.00">rs:261f3545&#45;cf32&#45;508f&#45;9fc6&#45;043a3bc53ad5</text>
</g>
<!-- n28703421914888084&#45;&gt;n5819821475148716579 -->
<g id="edge55" class="edge">
<title>n28703421914888084&#45;&gt;n5819821475148716579</title>
<path fill="none" stroke="#475569" d="M1997.43,-656.88C2080.64,-646.22 2184.97,-632.86 2268.56,-622.16"/>
<polygon fill="#475569" stroke="#475569" points="2268.98,-625.63 2278.45,-620.89 2268.09,-618.69 2268.98,-625.63"/>
<text xml:space="preserve" text-anchor="middle" x="2134.12" y="-648.27" font-family="Helvetica,sans-Serif" font-size="14.00">wasDerivedFrom</text>
</g>
<!-- n7150221625081542567 -->
<g id="node33" class="node">
<title>n7150221625081542567</title>
<path fill="#f7fafc" stroke="#334155" d="M2598.25,-693.37C2598.25,-693.37 2234.25,-693.37 2234.25,-693.37 2228.25,-693.37 2222.25,-687.37 2222.25,-681.37 2222.25,-681.37 2222.25,-669.37 2222.25,-669.37 2222.25,-663.37 2228.25,-657.37 2234.25,-657.37 2234.25,-657.37 2598.25,-657.37 2598.25,-657.37 2604.25,-657.37 2610.25,-663.37 2610.25,-669.37 2610.25,-669.37 2610.25,-681.37 2610.25,-681.37 2610.25,-687.37 2604.25,-693.37 2598.25,-693.37"/>
<text xml:space="preserve" text-anchor="middle" x="2416.25" y="-669.95" font-family="Helvetica,sans-Serif" font-size="14.00">Admissibility decision for process 5021277&#45;41.2025.4.02.5101</text>
</g>
<!-- n28703421914888084&#45;&gt;n7150221625081542567 -->
<g id="edge37" class="edge">
<title>n28703421914888084&#45;&gt;n7150221625081542567</title>
<path fill="none" stroke="#475569" d="M2046.49,-675.37C2099.43,-675.37 2156.97,-675.37 2210.51,-675.37"/>
<polygon fill="#475569" stroke="#475569" points="2210.36,-678.87 2220.36,-675.37 2210.36,-671.87 2210.36,-678.87"/>
<text xml:space="preserve" text-anchor="middle" x="2134.12" y="-677.82" font-family="Helvetica,sans-Serif" font-size="14.00">label</text>
</g>
<!-- n28703421914888084&#45;&gt;n1814093808349499784 -->
<g id="edge38" class="edge">
<title>n28703421914888084&#45;&gt;n1814093808349499784</title>
<path fill="none" stroke="#475569" d="M1901.05,-656.89C1970.64,-631.16 2104.1,-585.63 2222.25,-567.37 3038.16,-441.3 3253.78,-526.37 4079.38,-526.37 4079.38,-526.37 4079.38,-526.37 4854.25,-526.37 5149.29,-526.37 5440.18,-789.2 5526.54,-874.2"/>
<polygon fill="#475569" stroke="#475569" points="5523.85,-876.45 5533.41,-881.02 5528.78,-871.49 5523.85,-876.45"/>
<text xml:space="preserve" text-anchor="middle" x="3628" y="-528.43" font-family="Helvetica,sans-Serif" font-size="14.00">type</text>
</g>
<!-- n6987174495278277380 -->
<g id="node53" class="node">
<title>n6987174495278277380</title>
<path fill="#f7fafc" stroke="#334155" d="M2486.88,-765.37C2486.88,-765.37 2345.62,-765.37 2345.62,-765.37 2339.62,-765.37 2333.62,-759.37 2333.62,-753.37 2333.62,-753.37 2333.62,-741.37 2333.62,-741.37 2333.62,-735.37 2339.62,-729.37 2345.62,-729.37 2345.62,-729.37 2486.88,-729.37 2486.88,-729.37 2492.88,-729.37 2498.88,-735.37 2498.88,-741.37 2498.88,-741.37 2498.88,-753.37 2498.88,-753.37 2498.88,-759.37 2492.88,-765.37 2486.88,-765.37"/>
<text xml:space="preserve" text-anchor="middle" x="2416.25" y="-741.95" font-family="Helvetica,sans-Serif" font-size="14.00">ors:AdmissibilityDecision</text>
</g>
<!-- n28703421914888084&#45;&gt;n6987174495278277380 -->
<g id="edge86" class="edge">
<title>n28703421914888084&#45;&gt;n6987174495278277380</title>
<path fill="none" stroke="#475569" d="M1997.43,-693.87C2099.67,-706.96 2233.79,-724.14 2322.15,-735.45"/>
<polygon fill="#475569" stroke="#475569" points="2321.63,-738.91 2332,-736.71 2322.52,-731.97 2321.63,-738.91"/>
<text xml:space="preserve" text-anchor="middle" x="2134.12" y="-720.27" font-family="Helvetica,sans-Serif" font-size="14.00">type</text>
</g>
<!-- n1052513836601814631&#45;&gt;n2474687712127890622 -->
<g id="edge50" class="edge">
<title>n1052513836601814631&#45;&gt;n2474687712127890622</title>
<path fill="none" stroke="#475569" d="M1967.14,-1563.86C1993.21,-1568.85 2020.69,-1574.74 2046,-1581.37 2302.25,-1648.5 2395.05,-1618.9 2610.25,-1773.37 2631.63,-1788.72 2622.79,-1808.46 2646.25,-1820.37 2703.9,-1849.64 3965.47,-1838.35 3985.5,-1834.37 4061.56,-1819.26 4143.51,-1780.5 4191.81,-1755.08"/>
<polygon fill="#475569" stroke="#475569" points="4193.36,-1758.22 4200.54,-1750.43 4190.07,-1752.04 4193.36,-1758.22"/>
<text xml:space="preserve" text-anchor="middle" x="2940.38" y="-1841.19" font-family="Helvetica,sans-Serif" font-size="14.00">used</text>
</g>
<!-- n1052513836601814631&#45;&gt;n4678304874532065194 -->
<g id="edge53" class="edge">
<title>n1052513836601814631&#45;&gt;n4678304874532065194</title>
<path fill="none" stroke="#475569" d="M2022,-1562.2C2030.82,-1567.42 2038.94,-1573.74 2046,-1581.37 2147.71,-1691.28 1976.46,-1810.14 2082,-1916.37 2187.07,-2022.12 2266.18,-1954.37 2415.25,-1954.37 2415.25,-1954.37 2415.25,-1954.37 4236.38,-1954.37 4434.99,-1954.37 4664.19,-1898.73 4778.88,-1866.96"/>
<polygon fill="#475569" stroke="#475569" points="4779.8,-1870.33 4788.49,-1864.27 4777.92,-1863.59 4779.8,-1870.33"/>
<text xml:space="preserve" text-anchor="middle" x="3183.12" y="-1956.82" font-family="Helvetica,sans-Serif" font-size="14.00">used</text>
</g>
<!-- n1052513836601814631&#45;&gt;n8793560584400511256 -->
<g id="edge60" class="edge">
<title>n1052513836601814631&#45;&gt;n8793560584400511256</title>
<path fill="none" stroke="#475569" d="M1866.1,-1527.07C1897.79,-1484.28 1983.32,-1377.46 2082,-1326.37 2146.35,-1293.06 2592.61,-1216.39 2814.58,-1179.68"/>
<polygon fill="#475569" stroke="#475569" points="2814.83,-1183.19 2824.13,-1178.1 2813.69,-1176.28 2814.83,-1183.19"/>
<text xml:space="preserve" text-anchor="middle" x="2416.25" y="-1289.75" font-family="Helvetica,sans-Serif" font-size="14.00">used</text>
</g>
<!-- n1052513836601814631&#45;&gt;n3901057556932773611 -->
<g id="edge71" class="edge">
<title>n1052513836601814631&#45;&gt;n3901057556932773611</title>
<path fill="none" stroke="#475569" d="M2022.07,-1545.07C2089.47,-1544.95 2167.14,-1544.81 2235.56,-1544.69"/>
<polygon fill="#475569" stroke="#475569" points="2235.39,-1548.19 2245.38,-1544.68 2235.37,-1541.19 2235.39,-1548.19"/>
<text xml:space="preserve" text-anchor="middle" x="2134.12" y="-1547.41" font-family="Helvetica,sans-Serif" font-size="14.00">generated</text>
</g>
<!-- n1052513836601814631&#45;&gt;n4402814763753098769 -->
<g id="edge70" class="edge">
<title>n1052513836601814631&#45;&gt;n4402814763753098769</title>
<path fill="none" stroke="#475569" d="M1922.6,-1526.95C1964.43,-1512.34 2015.32,-1487.7 2046,-1448.37 2091.1,-1390.56 2038.75,-1346.58 2082,-1287.37 2124.59,-1229.07 2155.03,-1231.75 2222.25,-1205.37 2712,-1013.22 3353.28,-954.87 3559.82,-940.47"/>
<polygon fill="#475569" stroke="#475569" points="3559.82,-943.98 3569.55,-939.8 3559.34,-936.99 3559.82,-943.98"/>
<text xml:space="preserve" text-anchor="middle" x="2697.62" y="-1076.35" font-family="Helvetica,sans-Serif" font-size="14.00">used</text>
</g>
<!-- n1052513836601814631&#45;&gt;n6318297126724603026 -->
<g id="edge87" class="edge">
<title>n1052513836601814631&#45;&gt;n6318297126724603026</title>
<path fill="none" stroke="#475569" d="M1917.56,-1526.89C2051.82,-1489.54 2371.49,-1406.15 2646.25,-1377.37 2691.67,-1372.62 2703.33,-1377.03 2749,-1377.37 3314.6,-1381.6 3455.9,-1392.15 4021.5,-1396.37 4073.83,-1396.76 4092.44,-1419.78 4139.25,-1396.37 4163.1,-1384.45 4154.49,-1365.1 4175.25,-1348.37 4287.53,-1257.91 4329.54,-1244.86 4470.25,-1213.37 5016.66,-1091.1 5170.09,-1202.48 5730,-1199.37 5782.33,-1199.08 5795.47,-1196.98 5847.75,-1199.37 5912.77,-1202.35 5986.24,-1209.3 6040.5,-1215.12"/>
<polygon fill="#475569" stroke="#475569" points="6039.95,-1218.58 6050.27,-1216.18 6040.71,-1211.62 6039.95,-1218.58"/>
<text xml:space="preserve" text-anchor="middle" x="4080.38" y="-1409.31" font-family="Helvetica,sans-Serif" font-size="14.00">wasAssociatedWith</text>
</g>
<!-- n1052513836601814631&#45;&gt;n3777206597782045167 -->
<g id="edge26" class="edge">
<title>n1052513836601814631&#45;&gt;n3777206597782045167</title>
<path fill="none" stroke="#475569" d="M2021.7,-1561.82C2030.66,-1567.12 2038.88,-1573.56 2046,-1581.37 2104.92,-1646.03 2021.71,-1909.99 2082,-1973.37 2098.96,-1991.2 2909.94,-2102.37 4234.38,-2102.37 4234.38,-2102.37 4234.38,-2102.37 5554.25,-2102.37 5741.64,-2102.37 5963.92,-2102.37 6065.13,-2102.37"/>
<polygon fill="#475569" stroke="#475569" points="6065.06,-2105.87 6075.06,-2102.37 6065.06,-2098.87 6065.06,-2105.87"/>
<text xml:space="preserve" text-anchor="middle" x="4080.38" y="-2104.54" font-family="Helvetica,sans-Serif" font-size="14.00">type</text>
</g>
<!-- n8047799443714288884 -->
<g id="node37" class="node">
<title>n8047799443714288884</title>
<path fill="#f7fafc" stroke="#334155" d="M2450.5,-1899.37C2450.5,-1899.37 2382,-1899.37 2382,-1899.37 2376,-1899.37 2370,-1893.37 2370,-1887.37 2370,-1887.37 2370,-1875.37 2370,-1875.37 2370,-1869.37 2376,-1863.37 2382,-1863.37 2382,-1863.37 2450.5,-1863.37 2450.5,-1863.37 2456.5,-1863.37 2462.5,-1869.37 2462.5,-1875.37 2462.5,-1875.37 2462.5,-1887.37 2462.5,-1887.37 2462.5,-1893.37 2456.5,-1899.37 2450.5,-1899.37"/>
<text xml:space="preserve" text-anchor="middle" x="2416.25" y="-1875.95" font-family="Helvetica,sans-Serif" font-size="14.00">classification</text>
</g>
<!-- n1052513836601814631&#45;&gt;n8047799443714288884 -->
<g id="edge42" class="edge">
<title>n1052513836601814631&#45;&gt;n8047799443714288884</title>
<path fill="none" stroke="#475569" d="M2021.72,-1562.46C2030.61,-1567.62 2038.82,-1573.85 2046,-1581.37 2126.25,-1665.43 1999.18,-1758.84 2082,-1840.37 2154.9,-1912.14 2284.46,-1904.78 2358.73,-1893.05"/>
<polygon fill="#475569" stroke="#475569" points="2358.94,-1896.57 2368.23,-1891.47 2357.79,-1889.66 2358.94,-1896.57"/>
<text xml:space="preserve" text-anchor="middle" x="2134.12" y="-1894.41" font-family="Helvetica,sans-Serif" font-size="14.00">type</text>
</g>
<!-- n7217906755459780303 -->
<g id="node54" class="node">
<title>n7217906755459780303</title>
<path fill="#f7fafc" stroke="#334155" d="M2573.88,-1827.37C2573.88,-1827.37 2258.62,-1827.37 2258.62,-1827.37 2252.62,-1827.37 2246.62,-1821.37 2246.62,-1815.37 2246.62,-1815.37 2246.62,-1803.37 2246.62,-1803.37 2246.62,-1797.37 2252.62,-1791.37 2258.62,-1791.37 2258.62,-1791.37 2573.88,-1791.37 2573.88,-1791.37 2579.88,-1791.37 2585.88,-1797.37 2585.88,-1803.37 2585.88,-1803.37 2585.88,-1815.37 2585.88,-1815.37 2585.88,-1821.37 2579.88,-1827.37 2573.88,-1827.37"/>
<text xml:space="preserve" text-anchor="middle" x="2416.25" y="-1803.95" font-family="Helvetica,sans-Serif" font-size="14.00">Classification for process 5021277&#45;41.2025.4.02.5101</text>
</g>
<!-- n1052513836601814631&#45;&gt;n7217906755459780303 -->
<g id="edge88" class="edge">
<title>n1052513836601814631&#45;&gt;n7217906755459780303</title>
<path fill="none" stroke="#475569" d="M2022.12,-1563.43C2030.79,-1568.38 2038.86,-1574.3 2046,-1581.37 2104.9,-1639.7 2021.65,-1707.54 2082,-1764.37 2122.76,-1802.75 2179.74,-1818.7 2235.07,-1823.62"/>
<polygon fill="#475569" stroke="#475569" points="2234.73,-1827.11 2244.97,-1824.37 2235.26,-1820.13 2234.73,-1827.11"/>
<text xml:space="preserve" text-anchor="middle" x="2134.12" y="-1818.13" font-family="Helvetica,sans-Serif" font-size="14.00">label</text>
</g>
<!-- n5819821475148716579&#45;&gt;n8793560584400511256 -->
<g id="edge30" class="edge">
<title>n5819821475148716579&#45;&gt;n8793560584400511256</title>
<path fill="none" stroke="#475569" d="M2552.4,-608.13C2573.82,-614.3 2594.18,-624.13 2610.25,-639.37 2659.68,-686.26 2616.44,-727.11 2646.25,-788.37 2655.78,-807.96 2851.13,-1050.25 2917.52,-1132.36"/>
<polygon fill="#475569" stroke="#475569" points="2914.64,-1134.37 2923.65,-1139.95 2920.08,-1129.97 2914.64,-1134.37"/>
<text xml:space="preserve" text-anchor="middle" x="2697.62" y="-921.18" font-family="Helvetica,sans-Serif" font-size="14.00">isFiledAgainst</text>
</g>
<!-- n5819821475148716579&#45;&gt;n647775799432983616 -->
<g id="edge39" class="edge">
<title>n5819821475148716579&#45;&gt;n647775799432983616</title>
<path fill="none" stroke="#475569" d="M2552.4,-619.44C2572.33,-624.4 2592.21,-630.89 2610.25,-639.37 2629.1,-648.24 2627.75,-659.8 2646.25,-669.37 2797.2,-747.52 3303.95,-767.01 3523.79,-771.82"/>
<polygon fill="#475569" stroke="#475569" points="3523.41,-775.31 3533.48,-772.02 3523.56,-768.31 3523.41,-775.31"/>
<text xml:space="preserve" text-anchor="middle" x="2940.38" y="-753.2" font-family="Helvetica,sans-Serif" font-size="14.00">identifier</text>
</g>
<!-- n5819821475148716579&#45;&gt;n1814093808349499784 -->
<g id="edge45" class="edge">
<title>n5819821475148716579&#45;&gt;n1814093808349499784</title>
<path fill="none" stroke="#475569" d="M2552.53,-607.64C2689.55,-612.42 2907.54,-621.24 3095.75,-634.37 4048.95,-700.86 4291.21,-694.24 5236.25,-835.37 5330.9,-849.51 5439.98,-873.73 5502.05,-888.28"/>
<polygon fill="#475569" stroke="#475569" points="5501.08,-891.64 5511.61,-890.53 5502.68,-884.83 5501.08,-891.64"/>
<text xml:space="preserve" text-anchor="middle" x="4080.38" y="-706.59" font-family="Helvetica,sans-Serif" font-size="14.00">type</text>
</g>
<!-- n1455034240384442500 -->
<g id="node40" class="node">
<title>n1455034240384442500</title>
<path fill="#f7fafc" stroke="#334155" d="M2970.12,-688.37C2970.12,-688.37 2910.62,-688.37 2910.62,-688.37 2904.62,-688.37 2898.62,-682.37 2898.62,-676.37 2898.62,-676.37 2898.62,-664.37 2898.62,-664.37 2898.62,-658.37 2904.62,-652.37 2910.62,-652.37 2910.62,-652.37 2970.12,-652.37 2970.12,-652.37 2976.12,-652.37 2982.12,-658.37 2982.12,-664.37 2982.12,-664.37 2982.12,-676.37 2982.12,-676.37 2982.12,-682.37 2976.12,-688.37 2970.12,-688.37"/>
<text xml:space="preserve" text-anchor="middle" x="2940.38" y="-664.95" font-family="Helvetica,sans-Serif" font-size="14.00">ors:Petition</text>
</g>
<!-- n5819821475148716579&#45;&gt;n1455034240384442500 -->
<g id="edge48" class="edge">
<title>n5819821475148716579&#45;&gt;n1455034240384442500</title>
<path fill="none" stroke="#475569" d="M2552.39,-620.71C2661.6,-634.73 2809.48,-653.7 2887,-663.65"/>
<polygon fill="#475569" stroke="#475569" points="2886.5,-667.12 2896.87,-664.92 2887.39,-660.17 2886.5,-667.12"/>
<text xml:space="preserve" text-anchor="middle" x="2697.62" y="-647.29" font-family="Helvetica,sans-Serif" font-size="14.00">type</text>
</g>
</g>
</svg>
