<?xml version="1.0" encoding="UTF-8" standalone="no"?>
<!DOCTYPE svg PUBLIC "-//W3C//DTD SVG 1.1//EN"
 "http://www.w3.org/Graphics/SVG/1.1/DTD/svg11.dtd">
<!-- Generated by graphviz version 14.1.2 (20260124.0452)
 -->
<!-- Title: rdf_graph Pages: 1 -->
<svg width="1488pt" height="506pt"
 viewBox="0.00 0.00 1488.00 506.00" xmlns="http://www.w3.org/2000/svg" xmlns:xlink="http://www.w3.org/1999/xlink">
<g id="graph0" class="graph" transform="scale(1 1) rotate(0) translate(25.2 481.2)">
<title>rdf_graph</title>
<polygon fill="white" stroke="none" points="-25.2,25.2 -25.2,-481.2 1462.95,-481.2 1462.95,25.2 -25.2,25.2"/>
<g id="clust1" class="cluster">
<title>cluster_workflow</title>
<path fill="white" stroke="#93c5fd" stroke-width="1.2" stroke-dasharray="5,2" d="M20,-114C20,-114 880.38,-114 880.38,-114 886.38,-114 892.38,-120 892.38,-126 892.38,-126 892.38,-351 892.38,-351 892.38,-357 886.38,-363 880.38,-363 880.38,-363 20,-363 20,-363 14,-363 8,-357 8,-351 8,-351 8,-126 8,-126 8,-120 14,-114 20,-114"/>
<text xml:space="preserve" text-anchor="middle" x="450.19" y="-345.7" font-family="Times New Roman,serif" font-size="14.00">Workflow / Agents</text>
</g>
<g id="clust2" class="cluster">
<title>cluster_decision</title>
<path fill="white" stroke="#a5b4fc" stroke-width="1.2" stroke-dasharray="5,2" d="M726.5,-29C726.5,-29 907.75,-29 907.75,-29 913.75,-29 919.75,-35 919.75,-41 919.75,-41 919.75,-94 919.75,-94 919.75,-100 913.75,-106 907.75,-106 907.75,-106 726.5,-106 726.5,-106 720.5,-106 714.5,-100 714.5,-94 714.5,-94 714.5,-41 714.5,-41 714.5,-35 720.5,-29 726.5,-29"/>
<text xml:space="preserve" text-anchor="middle" x="817.12" y="-88.7" font-family="Times New Roman,serif" font-size="14.00">Decision</text>
</g>
<g id="clust3" class="cluster">
<title>cluster_petition</title>
<path fill="white" stroke="#fca5a5" stroke-width="1.2" stroke-dasharray="5,2" d="M191,-8C191,-8 362.5,-8 362.5,-8 368.5,-8 374.5,-14 374.5,-20 374.5,-20 374.5,-73 374.5,-73 374.5,-79 368.5,-85 362.5,-85 362.5,-85 191,-85 191,-85 185,-85 179,-79 179,-73 179,-73 179,-20 179,-20 179,-14 185,-8 191,-8"/>
<text xml:space="preserve" text-anchor="middle" x="276.75" y="-67.7" font-family="Times New Roman,serif" font-size="14.00">Petition</text>
</g>
<g id="clust4" class="cluster">
<title>cluster_theme</title>
<path fill="white" stroke="#86efac" stroke-width="1.2" stroke-dasharray="5,2" d="M1072.25,-120C1072.25,-120 1417.75,-120 1417.75,-120 1423.75,-120 1429.75,-126 1429.75,-132 1429.75,-132 1429.75,-215 1429.75,-215 1429.75,-221 1423.75,-227 1417.75,-227 1417.75,-227 1072.25,-227 1072.25,-227 1066.25,-227 1060.25,-221 1060.25,-215 1060.25,-215 1060.25,-132 1060.25,-132 1060.25,-126 1066.25,-120 1072.25,-120"/>
<text xml:space="preserve" text-anchor="middle" x="1245" y="-209.7" font-family="Times New Roman,serif" font-size="14.00">Theme / Thesis</text>
</g>
<g id="clust5" class="cluster">
<title>cluster_document</title>
<path fill="white" stroke="#f9a8d4" stroke-width="1.2" stroke-dasharray="5,2" d="M117.12,-371C117.12,-371 436.38,-371 436.38,-371 442.38,-371 448.38,-377 448.38,-383 448.38,-383 448.38,-436 448.38,-436 448.38,-442 442.38,-448 436.38,-448 436.38,-448 117.12,-448 117.12,-448 111.12,-448 105.12,-442 105.12,-436 105.12,-436 105.12,-383 105.12,-383 105.12,-377 111.12,-371 117.12,-371"/>
<text xml:space="preserve" text-anchor="middle" x="276.75" y="-430.7" font-family="Times New Roman,serif" font-size="14.00">Document Outcome</text>
</g>
<!-- n5164460944816977944 -->
<g id="node1" class="node">
<title>n5164460944816977944</title>
<g id="a_node1"><a xlink:title="Classification for process 5021277&#45;41.2025.4.02.5101 and theme 1 (CONSONANCIA; VALIDA)">
<polygon fill="#dbeafe" stroke="#1d4ed8" points="537.5,-194 16,-194 16,-190 12,-190 12,-186 16,-186 16,-166 12,-166 12,-162 16,-162 16,-158 537.5,-158 537.5,-194"/>
<polyline fill="none" stroke="#1d4ed8" points="16,-190 20,-190 20,-186 16,-186"/>
<polyline fill="none" stroke="#1d4ed8" points="16,-166 20,-166 20,-162 16,-162"/>
<text xml:space="preserve" text-anchor="middle" x="276.75" y="-171.72" font-family="Helvetica,sans-Serif" font-size="12.00">Classification for process 5021277&#45;41.2025.4.02.5101 and theme 1 (CONSONANCIA; VALIDA)</text>
</a>
</g>
</g>
<!-- n2312200763340586388 -->
<g id="node2" class="node">
<title>n2312200763340586388</title>
<g id="a_node2"><a xlink:title="jdd:local&#45;text&#45;similarity">
<path fill="#dbeafe" stroke="#1d4ed8" d="M872.38,-194C872.38,-194 761.88,-194 761.88,-194 755.88,-194 749.88,-188 749.88,-182 749.88,-182 749.88,-170 749.88,-170 749.88,-164 755.88,-158 761.88,-158 761.88,-158 872.38,-158 872.38,-158 878.38,-158 884.38,-164 884.38,-170 884.38,-170 884.38,-182 884.38,-182 884.38,-188 878.38,-194 872.38,-194"/>
<text xml:space="preserve" text-anchor="middle" x="817.12" y="-171.72" font-family="Helvetica,sans-Serif" font-size="12.00">jdd:local&#45;text&#45;similarity</text>
</a>
</g>
</g>
<!-- n5164460944816977944&#45;&gt;n2312200763340586388 -->
<g id="edge3" class="edge">
<title>n5164460944816977944&#45;&gt;n2312200763340586388</title>
<path fill="none" stroke="#334155" stroke-width="1.6" d="M537.84,-182C537.84,-182 737.1,-182 737.1,-182"/>
<polygon fill="#334155" stroke="#334155" stroke-width="1.6" points="737.1,-185.5 747.1,-182 737.1,-178.5 737.1,-185.5"/>
<text xml:space="preserve" text-anchor="middle" x="630" y="-178.5" font-family="Helvetica,sans-Serif" font-size="10.00">wasAssociatedWith</text>
</g>
<!-- n7960505680842585836 -->
<g id="node5" class="node">
<title>n7960505680842585836</title>
<g id="a_node5"><a xlink:title="tres:5021277&#45;41.2025.4.02.5101&#10;&#10;subject: Indenização por dano moral, Responsabilidade civil, DIREITO CIVIL">
<path fill="#e0e7ff" stroke="#4338ca" d="M899.75,-73C899.75,-73 734.5,-73 734.5,-73 728.5,-73 722.5,-67 722.5,-61 722.5,-61 722.5,-49 722.5,-49 722.5,-43 728.5,-37 734.5,-37 734.5,-37 899.75,-37 899.75,-37 905.75,-37 911.75,-43 911.75,-49 911.75,-49 911.75,-61 911.75,-61 911.75,-67 905.75,-73 899.75,-73"/>
<text xml:space="preserve" text-anchor="middle" x="817.12" y="-50.73" font-family="Helvetica,sans-Serif" font-size="12.00">tres:5021277&#45;41.2025.4.02.5101</text>
</a>
</g>
</g>
<!-- n5164460944816977944&#45;&gt;n7960505680842585836 -->
<g id="edge2" class="edge">
<title>n5164460944816977944&#45;&gt;n7960505680842585836</title>
<path fill="none" stroke="#334155" stroke-width="1.6" d="M537.76,-170C641.1,-170 735.75,-170 735.75,-170 735.75,-170 735.75,-85.9 735.75,-85.9"/>
<polygon fill="#334155" stroke="#334155" stroke-width="1.6" points="739.25,-85.9 735.75,-75.9 732.25,-85.9 739.25,-85.9"/>
<text xml:space="preserve" text-anchor="middle" x="630" y="-107.5" font-family="Helvetica,sans-Serif" font-size="10.00">used</text>
</g>
<!-- n1629341228939895688 -->
<g id="node7" class="node">
<title>n1629341228939895688</title>
<g id="a_node7"><a xlink:title="Tema 1 &#45; Julgado">
<path fill="#dcfce7" stroke="#15803d" d="M1409.75,-194C1409.75,-194 1326.25,-194 1326.25,-194 1320.25,-194 1314.25,-188 1314.25,-182 1314.25,-182 1314.25,-170 1314.25,-170 1314.25,-164 1320.25,-158 1326.25,-158 1326.25,-158 1409.75,-158 1409.75,-158 1415.75,-158 1421.75,-164 1421.75,-170 1421.75,-170 1421.75,-182 1421.75,-182 1421.75,-188 1415.75,-194 1409.75,-194"/>
<text xml:space="preserve" text-anchor="middle" x="1368" y="-171.72" font-family="Helvetica,sans-Serif" font-size="12.00">Tema 1 &#45; Julgado</text>
</a>
</g>
</g>
<!-- n5164460944816977944&#45;&gt;n1629341228939895688 -->
<g id="edge1" class="edge">
<title>n5164460944816977944&#45;&gt;n1629341228939895688</title>
<path fill="none" stroke="#334155" stroke-width="1.6" d="M488.75,-194.3C488.75,-206.76 488.75,-221 488.75,-221 488.75,-221 1367.75,-221 1367.75,-221 1367.75,-221 1367.75,-206.72 1367.75,-206.72"/>
<polygon fill="#334155" stroke="#334155" stroke-width="1.6" points="1371.25,-206.72 1367.75,-196.72 1364.25,-206.72 1371.25,-206.72"/>
<text xml:space="preserve" text-anchor="middle" x="990" y="-368.5" font-family="Helvetica,sans-Serif" font-size="10.00">used</text>
</g>
<!-- n4704491999548087461 -->
<g id="node3" class="node">
<title>n4704491999548087461</title>
<g id="a_node3"><a xlink:title="jdd:pipeline">
<path fill="#dbeafe" stroke="#1d4ed8" d="M844.25,-284C844.25,-284 790,-284 790,-284 784,-284 778,-278 778,-272 778,-272 778,-260 778,-260 778,-254 784,-248 790,-248 790,-248 844.25,-248 844.25,-248 850.25,-248 856.25,-254 856.25,-260 856.25,-260 856.25,-272 856.25,-272 856.25,-278 850.25,-284 844.25,-284"/>
<text xml:space="preserve" text-anchor="middle" x="817.12" y="-261.73" font-family="Helvetica,sans-Serif" font-size="12.00">jdd:pipeline</text>
</a>
</g>
</g>
<!-- n953833579363760545 -->
<g id="node4" class="node">
<title>n953833579363760545</title>
<g id="a_node4"><a xlink:title="Pipeline run run&#45;20260616T154651992508Z">
<path fill="#dbeafe" stroke="#1d4ed8" d="M392,-304C392,-304 161.5,-304 161.5,-304 155.5,-304 149.5,-298 149.5,-292 149.5,-292 149.5,-280 149.5,-280 149.5,-274 155.5,-268 161.5,-268 161.5,-268 392,-268 392,-268 398,-268 404,-274 404,-280 404,-280 404,-292 404,-292 404,-298 398,-304 392,-304"/>
<text xml:space="preserve" text-anchor="middle" x="276.75" y="-281.73" font-family="Helvetica,sans-Serif" font-size="12.00">Pipeline run run&#45;20260616T154651992508Z</text>
</a>
</g>
</g>
<!-- n953833579363760545&#45;&gt;n2312200763340586388 -->
<g id="edge4" class="edge">
<title>n953833579363760545&#45;&gt;n2312200763340586388</title>
<path fill="none" stroke="#334155" stroke-width="1.6" d="M404.39,-273.33C548.68,-273.33 763.75,-273.33 763.75,-273.33 763.75,-273.33 763.75,-206.73 763.75,-206.73"/>
<polygon fill="#334155" stroke="#334155" stroke-width="1.6" points="767.25,-206.73 763.75,-196.73 760.25,-206.73 767.25,-206.73"/>
<text xml:space="preserve" text-anchor="middle" x="630" y="-249.5" font-family="Helvetica,sans-Serif" font-size="10.00">wasAssociatedWith</text>
</g>
<!-- n953833579363760545&#45;&gt;n4704491999548087461 -->
<g id="edge5" class="edge">
<title>n953833579363760545&#45;&gt;n4704491999548087461</title>
<path fill="none" stroke="#334155" stroke-width="1.6" d="M404.47,-278.67C404.47,-278.67 765.12,-278.67 765.12,-278.67"/>
<polygon fill="#334155" stroke="#334155" stroke-width="1.6" points="765.12,-282.17 775.12,-278.67 765.12,-275.17 765.12,-282.17"/>
<text xml:space="preserve" text-anchor="middle" x="630" y="-320.5" font-family="Helvetica,sans-Serif" font-size="10.00">wasAssociatedWith</text>
</g>
<!-- n2524649465634999106 -->
<g id="node8" class="node">
<title>n2524649465634999106</title>
<g id="a_node8"><a xlink:title="Theme 1 Thesis&#10;&#10;description: O valor da aposentadoria por invalidez e do auxílio&#45;doença, bem como das pensões destes derivados ou calculadas com base no art. 75, da Lei n. 8.213/91, será obtido, na forma do art. 29, II, do mesmo diploma, por meio...">
<path fill="#ecfccb" stroke="#4d7c0f" d="M1158.5,-179C1158.5,-179 1080.25,-179 1080.25,-179 1074.25,-179 1068.25,-173 1068.25,-167 1068.25,-167 1068.25,-155 1068.25,-155 1068.25,-149 1074.25,-143 1080.25,-143 1080.25,-143 1158.5,-143 1158.5,-143 1164.5,-143 1170.5,-149 1170.5,-155 1170.5,-155 1170.5,-167 1170.5,-167 1170.5,-173 1164.5,-179 1158.5,-179"/>
<text xml:space="preserve" text-anchor="middle" x="1119.38" y="-156.72" font-family="Helvetica,sans-Serif" font-size="12.00">Theme 1 Thesis</text>
</a>
</g>
</g>
<!-- n7960505680842585836&#45;&gt;n2524649465634999106 -->
<g id="edge8" class="edge">
<title>n7960505680842585836&#45;&gt;n2524649465634999106</title>
<path fill="none" stroke="#334155" stroke-width="1.6" d="M897.75,-73.41C897.75,-101.16 897.75,-150.5 897.75,-150.5 897.75,-150.5 1055.55,-150.5 1055.55,-150.5"/>
<polygon fill="#334155" stroke="#334155" stroke-width="1.6" points="1055.55,-154 1065.55,-150.5 1055.55,-147 1055.55,-154"/>
<text xml:space="preserve" text-anchor="middle" x="990" y="-110.5" font-family="Helvetica,sans-Serif" font-size="10.00">adoptsThesis</text>
</g>
<!-- n762171164639616040 -->
<g id="node6" class="node">
<title>n762171164639616040</title>
<g id="a_node6"><a xlink:title="rs:5021277&#45;41.2025.4.02.5101">
<path fill="#fee2e2" stroke="#b91c1c" d="M354.5,-52C354.5,-52 199,-52 199,-52 193,-52 187,-46 187,-40 187,-40 187,-28 187,-28 187,-22 193,-16 199,-16 199,-16 354.5,-16 354.5,-16 360.5,-16 366.5,-22 366.5,-28 366.5,-28 366.5,-40 366.5,-40 366.5,-46 360.5,-52 354.5,-52"/>
<text xml:space="preserve" text-anchor="middle" x="276.75" y="-29.73" font-family="Helvetica,sans-Serif" font-size="12.00">rs:5021277&#45;41.2025.4.02.5101</text>
</a>
</g>
</g>
<!-- n762171164639616040&#45;&gt;n7960505680842585836 -->
<g id="edge6" class="edge">
<title>n762171164639616040&#45;&gt;n7960505680842585836</title>
<path fill="none" stroke="#334155" stroke-width="1.6" d="M366.89,-44.5C366.89,-44.5 709.76,-44.5 709.76,-44.5"/>
<polygon fill="#334155" stroke="#334155" stroke-width="1.6" points="709.76,-48 719.76,-44.5 709.76,-41 709.76,-48"/>
<text xml:space="preserve" text-anchor="middle" x="630" y="-36.5" font-family="Helvetica,sans-Serif" font-size="10.00">isFiledAgainst</text>
</g>
<!-- n2524649465634999106&#45;&gt;n1629341228939895688 -->
<g id="edge7" class="edge">
<title>n2524649465634999106&#45;&gt;n1629341228939895688</title>
<path fill="none" stroke="#334155" stroke-width="1.6" d="M1170.89,-168.5C1170.89,-168.5 1301.55,-168.5 1301.55,-168.5"/>
<polygon fill="#334155" stroke="#334155" stroke-width="1.6" points="1301.55,-172 1311.55,-168.5 1301.55,-165 1301.55,-172"/>
<text xml:space="preserve" text-anchor="middle" x="1242.38" y="-184.5" font-family="Helvetica,sans-Serif" font-size="10.00">hasTheme</text>
</g>
<!-- n1781904818367433936 -->
<g id="node9" class="node">
<title>n1781904818367433936</title>
<g id="a_node9"><a xlink:title="jdd:admissibility&#45;ccdd1bbf&#45;4fe7&#45;521a&#45;87b1&#45;64e782a57132">
<path fill="#fce7f3" stroke="#be185d" d="M428.38,-415C428.38,-415 125.12,-415 125.12,-415 119.12,-415 113.12,-409 113.12,-403 113.12,-403 113.12,-391 113.12,-391 113.12,-385 119.12,-379 125.12,-379 125.12,-379 428.38,-379 428.38,-379 434.38,-379 440.38,-385 440.38,-391 440.38,-391 440.38,-403 440.38,-403 440.38,-409 434.38,-415 428.38,-415"/>
<text xml:space="preserve" text-anchor="middle" x="276.75" y="-392.73" font-family="Helvetica,sans-Serif" font-size="12.00">jdd:admissibility&#45;ccdd1bbf&#45;4fe7&#45;521a&#45;87b1&#45;64e782a57132</text>
</a>
</g>
</g>
</g>
</svg>
