<?xml version="1.0" encoding="UTF-8" standalone="no"?>
<!DOCTYPE svg PUBLIC "-//W3C//DTD SVG 1.1//EN"
 "http://www.w3.org/Graphics/SVG/1.1/DTD/svg11.dtd">
<!-- Generated by graphviz version 14.1.2 (20260124.0452)
 -->
<!-- Title: rdf_graph Pages: 1 -->
<svg width="1294pt" height="564pt"
 viewBox="0.00 0.00 1294.00 564.00" xmlns="http://www.w3.org/2000/svg" xmlns:xlink="http://www.w3.org/1999/xlink">
<g id="graph0" class="graph" transform="scale(1 1) rotate(0) translate(25.2 539.2)">
<title>rdf_graph</title>
<polygon fill="white" stroke="none" points="-25.2,25.2 -25.2,-539.2 1268.7,-539.2 1268.7,25.2 -25.2,25.2"/>
<g id="clust1" class="cluster">
<title>cluster_workflow</title>
<path fill="white" stroke="#93c5fd" stroke-width="1.2" stroke-dasharray="5,2" d="M20.38,-159C20.38,-159 679.38,-159 679.38,-159 685.38,-159 691.38,-165 691.38,-171 691.38,-171 691.38,-404 691.38,-404 691.38,-410 685.38,-416 679.38,-416 679.38,-416 20.38,-416 20.38,-416 14.38,-416 8.38,-410 8.38,-404 8.38,-404 8.38,-171 8.38,-171 8.38,-165 14.38,-159 20.38,-159"/>
<text xml:space="preserve" text-anchor="middle" x="349.88" y="-398.7" font-family="Times New Roman,serif" font-size="14.00">Workflow / Agents</text>
</g>
<g id="clust2" class="cluster">
<title>cluster_decision</title>
<path fill="white" stroke="#a5b4fc" stroke-width="1.2" stroke-dasharray="5,2" d="M532.25,-74C532.25,-74 713.5,-74 713.5,-74 719.5,-74 725.5,-80 725.5,-86 725.5,-86 725.5,-139 725.5,-139 725.5,-145 719.5,-151 713.5,-151 713.5,-151 532.25,-151 532.25,-151 526.25,-151 520.25,-145 520.25,-139 520.25,-139 520.25,-86 520.25,-86 520.25,-80 526.25,-74 532.25,-74"/>
<text xml:space="preserve" text-anchor="middle" x="622.88" y="-133.7" font-family="Times New Roman,serif" font-size="14.00">Decision</text>
</g>
<g id="clust3" class="cluster">
<title>cluster_theme</title>
<path fill="white" stroke="#86efac" stroke-width="1.2" stroke-dasharray="5,2" d="M878,-44C878,-44 1223.5,-44 1223.5,-44 1229.5,-44 1235.5,-50 1235.5,-56 1235.5,-56 1235.5,-139 1235.5,-139 1235.5,-145 1229.5,-151 1223.5,-151 1223.5,-151 878,-151 878,-151 872,-151 866,-145 866,-139 866,-139 866,-56 866,-56 866,-50 872,-44 878,-44"/>
<text xml:space="preserve" text-anchor="middle" x="1050.75" y="-133.7" font-family="Times New Roman,serif" font-size="14.00">Theme / Thesis</text>
</g>
<g id="clust4" class="cluster">
<title>cluster_document</title>
<path fill="white" stroke="#f9a8d4" stroke-width="1.2" stroke-dasharray="5,2" d="M20,-429C20,-429 339.25,-429 339.25,-429 345.25,-429 351.25,-435 351.25,-441 351.25,-441 351.25,-494 351.25,-494 351.25,-500 345.25,-506 339.25,-506 339.25,-506 20,-506 20,-506 14,-506 8,-500 8,-494 8,-494 8,-441 8,-441 8,-435 14,-429 20,-429"/>
<text xml:space="preserve" text-anchor="middle" x="179.62" y="-488.7" font-family="Times New Roman,serif" font-size="14.00">Document Outcome</text>
</g>
<!-- n475651202585533633 -->
<g id="node1" class="node">
<title>n475651202585533633</title>
<g id="a_node1"><a xlink:title="gemini:3&#45;1&#45;flash&#45;lite">
<path fill="#dbeafe" stroke="#1d4ed8" d="M671.38,-239C671.38,-239 574.38,-239 574.38,-239 568.38,-239 562.38,-233 562.38,-227 562.38,-227 562.38,-215 562.38,-215 562.38,-209 568.38,-203 574.38,-203 574.38,-203 671.38,-203 671.38,-203 677.38,-203 683.38,-209 683.38,-215 683.38,-215 683.38,-227 683.38,-227 683.38,-233 677.38,-239 671.38,-239"/>
<text xml:space="preserve" text-anchor="middle" x="622.88" y="-216.72" font-family="Helvetica,sans-Serif" font-size="12.00">gemini:3&#45;1&#45;flash&#45;lite</text>
</a>
</g>
</g>
<!-- n2675561076769419085 -->
<g id="node2" class="node">
<title>n2675561076769419085</title>
<g id="a_node2"><a xlink:title="jdd:classification&#45;20a75290&#45;a23f&#45;545c&#45;b8fb&#45;f8530dccd30b">
<polygon fill="#dbeafe" stroke="#1d4ed8" points="342.5,-203 16.75,-203 16.75,-199 12.75,-199 12.75,-195 16.75,-195 16.75,-175 12.75,-175 12.75,-171 16.75,-171 16.75,-167 342.5,-167 342.5,-203"/>
<polyline fill="none" stroke="#1d4ed8" points="16.75,-199 20.75,-199 20.75,-195 16.75,-195"/>
<polyline fill="none" stroke="#1d4ed8" points="16.75,-175 20.75,-175 20.75,-171 16.75,-171"/>
<text xml:space="preserve" text-anchor="middle" x="179.62" y="-180.72" font-family="Helvetica,sans-Serif" font-size="12.00">jdd:classification&#45;20a75290&#45;a23f&#45;545c&#45;b8fb&#45;f8530dccd30b</text>
</a>
</g>
</g>
<!-- n2675561076769419085&#45;&gt;n475651202585533633 -->
<g id="edge3" class="edge">
<title>n2675561076769419085&#45;&gt;n475651202585533633</title>
<path fill="none" stroke="#334155" stroke-width="1.6" d="M342.96,-194C469.18,-194 622.5,-194 622.5,-194 622.5,-194 622.5,-194.85 622.5,-194.85"/>
<polygon fill="#334155" stroke="#334155" stroke-width="1.6" points="619,-190.12 622.5,-200.12 626,-190.12 619,-190.12"/>
<text xml:space="preserve" text-anchor="middle" x="435.75" y="-223.5" font-family="Helvetica,sans-Serif" font-size="10.00">wasAssociatedWith</text>
</g>
<!-- n2277278099387001176 -->
<g id="node5" class="node">
<title>n2277278099387001176</title>
<g id="a_node5"><a xlink:title="tres:5020184&#45;43.2025.4.02.5101&#10;&#10;subject: IRPF/Imposto de Renda de Pessoa Física, Impostos, DIREITO TRIBUTÁRIO, Isenção, Limitações ao Poder de Tributar, DIREITO TRIBUTÁRIO, Incidência sobre Aposentadoria, IRPF/Imposto de Renda de Pessoa Física, Impostos, DIR...">
<path fill="#e0e7ff" stroke="#4338ca" d="M705.5,-118C705.5,-118 540.25,-118 540.25,-118 534.25,-118 528.25,-112 528.25,-106 528.25,-106 528.25,-94 528.25,-94 528.25,-88 534.25,-82 540.25,-82 540.25,-82 705.5,-82 705.5,-82 711.5,-82 717.5,-88 717.5,-94 717.5,-94 717.5,-106 717.5,-106 717.5,-112 711.5,-118 705.5,-118"/>
<text xml:space="preserve" text-anchor="middle" x="622.88" y="-95.72" font-family="Helvetica,sans-Serif" font-size="12.00">tres:5020184&#45;43.2025.4.02.5101</text>
</a>
</g>
</g>
<!-- n2675561076769419085&#45;&gt;n2277278099387001176 -->
<g id="edge2" class="edge">
<title>n2675561076769419085&#45;&gt;n2277278099387001176</title>
<path fill="none" stroke="#334155" stroke-width="1.6" d="M342.77,-176C440.33,-176 545.5,-176 545.5,-176 545.5,-176 545.5,-130.82 545.5,-130.82"/>
<polygon fill="#334155" stroke="#334155" stroke-width="1.6" points="549,-130.82 545.5,-120.82 542,-130.82 549,-130.82"/>
<text xml:space="preserve" text-anchor="middle" x="435.75" y="-127.5" font-family="Helvetica,sans-Serif" font-size="10.00">used</text>
</g>
<!-- n9110833537213892207 -->
<g id="node6" class="node">
<title>n9110833537213892207</title>
<g id="a_node6"><a xlink:title="Tema 1 &#45; Julgado">
<path fill="#dcfce7" stroke="#15803d" d="M1215.5,-103C1215.5,-103 1132,-103 1132,-103 1126,-103 1120,-97 1120,-91 1120,-91 1120,-79 1120,-79 1120,-73 1126,-67 1132,-67 1132,-67 1215.5,-67 1215.5,-67 1221.5,-67 1227.5,-73 1227.5,-79 1227.5,-79 1227.5,-91 1227.5,-91 1227.5,-97 1221.5,-103 1215.5,-103"/>
<text xml:space="preserve" text-anchor="middle" x="1173.75" y="-80.72" font-family="Helvetica,sans-Serif" font-size="12.00">Tema 1 &#45; Julgado</text>
</a>
</g>
</g>
<!-- n2675561076769419085&#45;&gt;n9110833537213892207 -->
<g id="edge1" class="edge">
<title>n2675561076769419085&#45;&gt;n9110833537213892207</title>
<path fill="none" stroke="#334155" stroke-width="1.6" d="M342.91,-185C624.95,-185 1173.5,-185 1173.5,-185 1173.5,-185 1173.5,-115.76 1173.5,-115.76"/>
<polygon fill="#334155" stroke="#334155" stroke-width="1.6" points="1177,-115.76 1173.5,-105.76 1170,-115.76 1177,-115.76"/>
<text xml:space="preserve" text-anchor="middle" x="795.75" y="-2.5" font-family="Helvetica,sans-Serif" font-size="10.00">used</text>
</g>
<!-- n5283323910481436732 -->
<g id="node3" class="node">
<title>n5283323910481436732</title>
<g id="a_node3"><a xlink:title="jdd:pipeline">
<path fill="#dbeafe" stroke="#1d4ed8" d="M206.75,-293C206.75,-293 152.5,-293 152.5,-293 146.5,-293 140.5,-287 140.5,-281 140.5,-281 140.5,-269 140.5,-269 140.5,-263 146.5,-257 152.5,-257 152.5,-257 206.75,-257 206.75,-257 212.75,-257 218.75,-263 218.75,-269 218.75,-269 218.75,-281 218.75,-281 218.75,-287 212.75,-293 206.75,-293"/>
<text xml:space="preserve" text-anchor="middle" x="179.62" y="-270.73" font-family="Helvetica,sans-Serif" font-size="12.00">jdd:pipeline</text>
</a>
</g>
</g>
<!-- n1973294339923014596 -->
<g id="node4" class="node">
<title>n1973294339923014596</title>
<g id="a_node4"><a xlink:title="jdd:pipeline&#45;run&#45;725b78ed&#45;24f3&#45;590b&#45;b597&#45;14f416024a06">
<path fill="#dbeafe" stroke="#1d4ed8" d="M330.88,-383C330.88,-383 28.38,-383 28.38,-383 22.38,-383 16.38,-377 16.38,-371 16.38,-371 16.38,-359 16.38,-359 16.38,-353 22.38,-347 28.38,-347 28.38,-347 330.88,-347 330.88,-347 336.88,-347 342.88,-353 342.88,-359 342.88,-359 342.88,-371 342.88,-371 342.88,-377 336.88,-383 330.88,-383"/>
<text xml:space="preserve" text-anchor="middle" x="179.62" y="-360.73" font-family="Helvetica,sans-Serif" font-size="12.00">jdd:pipeline&#45;run&#45;725b78ed&#45;24f3&#45;590b&#45;b597&#45;14f416024a06</text>
</a>
</g>
</g>
<!-- n28306730384850269 -->
<g id="node7" class="node">
<title>n28306730384850269</title>
<g id="a_node7"><a xlink:title="Theme 1 Thesis&#10;&#10;description: O valor da aposentadoria por invalidez e do auxílio&#45;doença, bem como das pensões destes derivados ou calculadas com base no art. 75, da Lei n. 8.213/91, será obtido, na forma do art. 29, II, do mesmo diploma, por meio...">
<path fill="#ecfccb" stroke="#4d7c0f" d="M964.25,-118C964.25,-118 886,-118 886,-118 880,-118 874,-112 874,-106 874,-106 874,-94 874,-94 874,-88 880,-82 886,-82 886,-82 964.25,-82 964.25,-82 970.25,-82 976.25,-88 976.25,-94 976.25,-94 976.25,-106 976.25,-106 976.25,-112 970.25,-118 964.25,-118"/>
<text xml:space="preserve" text-anchor="middle" x="925.12" y="-95.72" font-family="Helvetica,sans-Serif" font-size="12.00">Theme 1 Thesis</text>
</a>
</g>
</g>
<!-- n2277278099387001176&#45;&gt;n28306730384850269 -->
<g id="edge5" class="edge">
<title>n2277278099387001176&#45;&gt;n28306730384850269</title>
<path fill="none" stroke="#334155" stroke-width="1.6" d="M717.68,-100C717.68,-100 861.32,-100 861.32,-100"/>
<polygon fill="#334155" stroke="#334155" stroke-width="1.6" points="861.32,-103.5 871.32,-100 861.32,-96.5 861.32,-103.5"/>
<text xml:space="preserve" text-anchor="middle" x="795.75" y="-102.5" font-family="Helvetica,sans-Serif" font-size="10.00">adoptsThesis</text>
</g>
<!-- n28306730384850269&#45;&gt;n9110833537213892207 -->
<g id="edge4" class="edge">
<title>n28306730384850269&#45;&gt;n9110833537213892207</title>
<path fill="none" stroke="#334155" stroke-width="1.6" d="M976.64,-92.5C976.64,-92.5 1107.3,-92.5 1107.3,-92.5"/>
<polygon fill="#334155" stroke="#334155" stroke-width="1.6" points="1107.3,-96 1117.3,-92.5 1107.3,-89 1107.3,-96"/>
<text xml:space="preserve" text-anchor="middle" x="1048.12" y="-108.5" font-family="Helvetica,sans-Serif" font-size="10.00">hasTheme</text>
</g>
<!-- n1586047000432578503 -->
<g id="node8" class="node">
<title>n1586047000432578503</title>
<g id="a_node8"><a xlink:title="jdd:admissibility&#45;e47473b4&#45;3f05&#45;549c&#45;9b4d&#45;0119d1af65e0">
<path fill="#fce7f3" stroke="#be185d" d="M331.25,-473C331.25,-473 28,-473 28,-473 22,-473 16,-467 16,-461 16,-461 16,-449 16,-449 16,-443 22,-437 28,-437 28,-437 331.25,-437 331.25,-437 337.25,-437 343.25,-443 343.25,-449 343.25,-449 343.25,-461 343.25,-461 343.25,-467 337.25,-473 331.25,-473"/>
<text xml:space="preserve" text-anchor="middle" x="179.62" y="-450.73" font-family="Helvetica,sans-Serif" font-size="12.00">jdd:admissibility&#45;e47473b4&#45;3f05&#45;549c&#45;9b4d&#45;0119d1af65e0</text>
</a>
</g>
</g>
</g>
</svg>
