<?xml version="1.0" encoding="UTF-8" standalone="no"?>
<!DOCTYPE svg PUBLIC "-//W3C//DTD SVG 1.1//EN"
 "http://www.w3.org/Graphics/SVG/1.1/DTD/svg11.dtd">
<!-- Generated by graphviz version 14.1.2 (20260124.0452)
 -->
<!-- Title: rdf_graph Pages: 1 -->
<svg width="1317pt" height="564pt"
 viewBox="0.00 0.00 1317.00 564.00" xmlns="http://www.w3.org/2000/svg" xmlns:xlink="http://www.w3.org/1999/xlink">
<g id="graph0" class="graph" transform="scale(1 1) rotate(0) translate(25.2 539.2)">
<title>rdf_graph</title>
<polygon fill="white" stroke="none" points="-25.2,25.2 -25.2,-539.2 1291.95,-539.2 1291.95,25.2 -25.2,25.2"/>
<g id="clust1" class="cluster">
<title>cluster_workflow</title>
<path fill="white" stroke="#93c5fd" stroke-width="1.2" stroke-dasharray="5,2" d="M20,-159C20,-159 689.12,-159 689.12,-159 695.12,-159 701.12,-165 701.12,-171 701.12,-171 701.12,-404 701.12,-404 701.12,-410 695.12,-416 689.12,-416 689.12,-416 20,-416 20,-416 14,-416 8,-410 8,-404 8,-404 8,-171 8,-171 8,-165 14,-159 20,-159"/>
<text xml:space="preserve" text-anchor="middle" x="354.56" y="-398.7" font-family="Times New Roman,serif" font-size="14.00">Workflow / Agents</text>
</g>
<g id="clust2" class="cluster">
<title>cluster_decision</title>
<path fill="white" stroke="#a5b4fc" stroke-width="1.2" stroke-dasharray="5,2" d="M542,-74C542,-74 723.25,-74 723.25,-74 729.25,-74 735.25,-80 735.25,-86 735.25,-86 735.25,-139 735.25,-139 735.25,-145 729.25,-151 723.25,-151 723.25,-151 542,-151 542,-151 536,-151 530,-145 530,-139 530,-139 530,-86 530,-86 530,-80 536,-74 542,-74"/>
<text xml:space="preserve" text-anchor="middle" x="632.62" y="-133.7" font-family="Times New Roman,serif" font-size="14.00">Decision</text>
</g>
<g id="clust3" class="cluster">
<title>cluster_theme</title>
<path fill="white" stroke="#86efac" stroke-width="1.2" stroke-dasharray="5,2" d="M887.75,-44C887.75,-44 1246.75,-44 1246.75,-44 1252.75,-44 1258.75,-50 1258.75,-56 1258.75,-56 1258.75,-139 1258.75,-139 1258.75,-145 1252.75,-151 1246.75,-151 1246.75,-151 887.75,-151 887.75,-151 881.75,-151 875.75,-145 875.75,-139 875.75,-139 875.75,-56 875.75,-56 875.75,-50 881.75,-44 887.75,-44"/>
<text xml:space="preserve" text-anchor="middle" x="1067.25" y="-133.7" font-family="Times New Roman,serif" font-size="14.00">Theme / Thesis</text>
</g>
<g id="clust4" class="cluster">
<title>cluster_document</title>
<path fill="white" stroke="#f9a8d4" stroke-width="1.2" stroke-dasharray="5,2" d="M26.38,-429C26.38,-429 342.62,-429 342.62,-429 348.62,-429 354.62,-435 354.62,-441 354.62,-441 354.62,-494 354.62,-494 354.62,-500 348.62,-506 342.62,-506 342.62,-506 26.38,-506 26.38,-506 20.38,-506 14.38,-500 14.38,-494 14.38,-494 14.38,-441 14.38,-441 14.38,-435 20.38,-429 26.38,-429"/>
<text xml:space="preserve" text-anchor="middle" x="184.5" y="-488.7" font-family="Times New Roman,serif" font-size="14.00">Document Outcome</text>
</g>
<!-- n5099611868209198514 -->
<g id="node1" class="node">
<title>n5099611868209198514</title>
<g id="a_node1"><a xlink:title="gemini:3&#45;1&#45;flash&#45;lite">
<path fill="#dbeafe" stroke="#1d4ed8" d="M681.12,-239C681.12,-239 584.12,-239 584.12,-239 578.12,-239 572.12,-233 572.12,-227 572.12,-227 572.12,-215 572.12,-215 572.12,-209 578.12,-203 584.12,-203 584.12,-203 681.12,-203 681.12,-203 687.12,-203 693.12,-209 693.12,-215 693.12,-215 693.12,-227 693.12,-227 693.12,-233 687.12,-239 681.12,-239"/>
<text xml:space="preserve" text-anchor="middle" x="632.62" y="-216.72" font-family="Helvetica,sans-Serif" font-size="12.00">gemini:3&#45;1&#45;flash&#45;lite</text>
</a>
</g>
</g>
<!-- n1923910020392173497 -->
<g id="node2" class="node">
<title>n1923910020392173497</title>
<g id="a_node2"><a xlink:title="jdd:classification&#45;e4d56651&#45;73ea&#45;562e&#45;909c&#45;735d61687ccb">
<polygon fill="#dbeafe" stroke="#1d4ed8" points="353,-203 16,-203 16,-199 12,-199 12,-195 16,-195 16,-175 12,-175 12,-171 16,-171 16,-167 353,-167 353,-203"/>
<polyline fill="none" stroke="#1d4ed8" points="16,-199 20,-199 20,-195 16,-195"/>
<polyline fill="none" stroke="#1d4ed8" points="16,-175 20,-175 20,-171 16,-171"/>
<text xml:space="preserve" text-anchor="middle" x="184.5" y="-180.72" font-family="Helvetica,sans-Serif" font-size="12.00">jdd:classification&#45;e4d56651&#45;73ea&#45;562e&#45;909c&#45;735d61687ccb</text>
</a>
</g>
</g>
<!-- n1923910020392173497&#45;&gt;n5099611868209198514 -->
<g id="edge3" class="edge">
<title>n1923910020392173497&#45;&gt;n5099611868209198514</title>
<path fill="none" stroke="#334155" stroke-width="1.6" d="M353.33,-194C480.39,-194 632.75,-194 632.75,-194 632.75,-194 632.75,-194.85 632.75,-194.85"/>
<polygon fill="#334155" stroke="#334155" stroke-width="1.6" points="629.25,-190.12 632.75,-200.12 636.25,-190.12 629.25,-190.12"/>
<text xml:space="preserve" text-anchor="middle" x="445.5" y="-223.5" font-family="Helvetica,sans-Serif" font-size="10.00">wasAssociatedWith</text>
</g>
<!-- n7318613423277731275 -->
<g id="node5" class="node">
<title>n7318613423277731275</title>
<g id="a_node5"><a xlink:title="tres:5016649&#45;09.2025.4.02.5101&#10;&#10;subject: Cirurgia, Tratamento médico&#45;hospitalar, Pública, DIREITO DA SAÚDE">
<path fill="#e0e7ff" stroke="#4338ca" d="M715.25,-118C715.25,-118 550,-118 550,-118 544,-118 538,-112 538,-106 538,-106 538,-94 538,-94 538,-88 544,-82 550,-82 550,-82 715.25,-82 715.25,-82 721.25,-82 727.25,-88 727.25,-94 727.25,-94 727.25,-106 727.25,-106 727.25,-112 721.25,-118 715.25,-118"/>
<text xml:space="preserve" text-anchor="middle" x="632.62" y="-95.72" font-family="Helvetica,sans-Serif" font-size="12.00">tres:5016649&#45;09.2025.4.02.5101</text>
</a>
</g>
</g>
<!-- n1923910020392173497&#45;&gt;n7318613423277731275 -->
<g id="edge2" class="edge">
<title>n1923910020392173497&#45;&gt;n7318613423277731275</title>
<path fill="none" stroke="#334155" stroke-width="1.6" d="M353.37,-176C451.02,-176 554.75,-176 554.75,-176 554.75,-176 554.75,-130.82 554.75,-130.82"/>
<polygon fill="#334155" stroke="#334155" stroke-width="1.6" points="558.25,-130.82 554.75,-120.82 551.25,-130.82 558.25,-130.82"/>
<text xml:space="preserve" text-anchor="middle" x="445.5" y="-127.5" font-family="Helvetica,sans-Serif" font-size="10.00">used</text>
</g>
<!-- n3093655272213802498 -->
<g id="node6" class="node">
<title>n3093655272213802498</title>
<g id="a_node6"><a xlink:title="Tema 20 &#45; Julgado">
<path fill="#dcfce7" stroke="#15803d" d="M1238.75,-103C1238.75,-103 1148.5,-103 1148.5,-103 1142.5,-103 1136.5,-97 1136.5,-91 1136.5,-91 1136.5,-79 1136.5,-79 1136.5,-73 1142.5,-67 1148.5,-67 1148.5,-67 1238.75,-67 1238.75,-67 1244.75,-67 1250.75,-73 1250.75,-79 1250.75,-79 1250.75,-91 1250.75,-91 1250.75,-97 1244.75,-103 1238.75,-103"/>
<text xml:space="preserve" text-anchor="middle" x="1193.62" y="-80.72" font-family="Helvetica,sans-Serif" font-size="12.00">Tema 20 &#45; Julgado</text>
</a>
</g>
</g>
<!-- n1923910020392173497&#45;&gt;n3093655272213802498 -->
<g id="edge1" class="edge">
<title>n1923910020392173497&#45;&gt;n3093655272213802498</title>
<path fill="none" stroke="#334155" stroke-width="1.6" d="M353.43,-185C640.73,-185 1193.75,-185 1193.75,-185 1193.75,-185 1193.75,-115.76 1193.75,-115.76"/>
<polygon fill="#334155" stroke="#334155" stroke-width="1.6" points="1197.25,-115.76 1193.75,-105.76 1190.25,-115.76 1197.25,-115.76"/>
<text xml:space="preserve" text-anchor="middle" x="805.5" y="-2.5" font-family="Helvetica,sans-Serif" font-size="10.00">used</text>
</g>
<!-- n4308472333406374237 -->
<g id="node3" class="node">
<title>n4308472333406374237</title>
<g id="a_node3"><a xlink:title="jdd:pipeline">
<path fill="#dbeafe" stroke="#1d4ed8" d="M211.62,-293C211.62,-293 157.38,-293 157.38,-293 151.38,-293 145.38,-287 145.38,-281 145.38,-281 145.38,-269 145.38,-269 145.38,-263 151.38,-257 157.38,-257 157.38,-257 211.62,-257 211.62,-257 217.62,-257 223.62,-263 223.62,-269 223.62,-269 223.62,-281 223.62,-281 223.62,-287 217.62,-293 211.62,-293"/>
<text xml:space="preserve" text-anchor="middle" x="184.5" y="-270.73" font-family="Helvetica,sans-Serif" font-size="12.00">jdd:pipeline</text>
</a>
</g>
</g>
<!-- n1812625129787256500 -->
<g id="node4" class="node">
<title>n1812625129787256500</title>
<g id="a_node4"><a xlink:title="jdd:pipeline&#45;run&#45;691103ab&#45;64fe&#45;5cb1&#45;8fe7&#45;1f6f21ae865c">
<path fill="#dbeafe" stroke="#1d4ed8" d="M330.88,-383C330.88,-383 38.12,-383 38.12,-383 32.12,-383 26.12,-377 26.12,-371 26.12,-371 26.12,-359 26.12,-359 26.12,-353 32.12,-347 38.12,-347 38.12,-347 330.88,-347 330.88,-347 336.88,-347 342.88,-353 342.88,-359 342.88,-359 342.88,-371 342.88,-371 342.88,-377 336.88,-383 330.88,-383"/>
<text xml:space="preserve" text-anchor="middle" x="184.5" y="-360.73" font-family="Helvetica,sans-Serif" font-size="12.00">jdd:pipeline&#45;run&#45;691103ab&#45;64fe&#45;5cb1&#45;8fe7&#45;1f6f21ae865c</text>
</a>
</g>
</g>
<!-- n8648411908514537729 -->
<g id="node7" class="node">
<title>n8648411908514537729</title>
<g id="a_node7"><a xlink:title="Theme 20 Thesis&#10;&#10;description: O reconhecimento, pela Administração Pública, do direito ao adicional por tempo de serviço &#45; MP 1.962&#45;25/2000, demonstrou renúncia tácita da prescrição, que volta a fluir na integralidade dos cinco anos, cujo termo a ...">
<path fill="#ecfccb" stroke="#4d7c0f" d="M980.75,-118C980.75,-118 895.75,-118 895.75,-118 889.75,-118 883.75,-112 883.75,-106 883.75,-106 883.75,-94 883.75,-94 883.75,-88 889.75,-82 895.75,-82 895.75,-82 980.75,-82 980.75,-82 986.75,-82 992.75,-88 992.75,-94 992.75,-94 992.75,-106 992.75,-106 992.75,-112 986.75,-118 980.75,-118"/>
<text xml:space="preserve" text-anchor="middle" x="938.25" y="-95.72" font-family="Helvetica,sans-Serif" font-size="12.00">Theme 20 Thesis</text>
</a>
</g>
</g>
<!-- n7318613423277731275&#45;&gt;n8648411908514537729 -->
<g id="edge5" class="edge">
<title>n7318613423277731275&#45;&gt;n8648411908514537729</title>
<path fill="none" stroke="#334155" stroke-width="1.6" d="M727.65,-100C727.65,-100 870.94,-100 870.94,-100"/>
<polygon fill="#334155" stroke="#334155" stroke-width="1.6" points="870.94,-103.5 880.94,-100 870.94,-96.5 870.94,-103.5"/>
<text xml:space="preserve" text-anchor="middle" x="805.5" y="-102.5" font-family="Helvetica,sans-Serif" font-size="10.00">adoptsThesis</text>
</g>
<!-- n8648411908514537729&#45;&gt;n3093655272213802498 -->
<g id="edge4" class="edge">
<title>n8648411908514537729&#45;&gt;n3093655272213802498</title>
<path fill="none" stroke="#334155" stroke-width="1.6" d="M993.03,-92.5C993.03,-92.5 1123.85,-92.5 1123.85,-92.5"/>
<polygon fill="#334155" stroke="#334155" stroke-width="1.6" points="1123.85,-96 1133.85,-92.5 1123.85,-89 1123.85,-96"/>
<text xml:space="preserve" text-anchor="middle" x="1064.62" y="-108.5" font-family="Helvetica,sans-Serif" font-size="10.00">hasTheme</text>
</g>
<!-- n3770748067219741235 -->
<g id="node8" class="node">
<title>n3770748067219741235</title>
<g id="a_node8"><a xlink:title="jdd:admissibility&#45;18f28ad3&#45;8c8f&#45;5736&#45;97e9&#45;ae47bb1b470f">
<path fill="#fce7f3" stroke="#be185d" d="M334.62,-473C334.62,-473 34.38,-473 34.38,-473 28.38,-473 22.38,-467 22.38,-461 22.38,-461 22.38,-449 22.38,-449 22.38,-443 28.38,-437 34.38,-437 34.38,-437 334.62,-437 334.62,-437 340.62,-437 346.62,-443 346.62,-449 346.62,-449 346.62,-461 346.62,-461 346.62,-467 340.62,-473 334.62,-473"/>
<text xml:space="preserve" text-anchor="middle" x="184.5" y="-450.73" font-family="Helvetica,sans-Serif" font-size="12.00">jdd:admissibility&#45;18f28ad3&#45;8c8f&#45;5736&#45;97e9&#45;ae47bb1b470f</text>
</a>
</g>
</g>
</g>
</svg>
