<?xml version="1.0" encoding="UTF-8" standalone="no"?>
<!DOCTYPE svg PUBLIC "-//W3C//DTD SVG 1.1//EN"
 "http://www.w3.org/Graphics/SVG/1.1/DTD/svg11.dtd">
<!-- Generated by graphviz version 14.1.2 (20260124.0452)
 -->
<!-- Title: rdf_graph Pages: 1 -->
<svg width="1298pt" height="564pt"
 viewBox="0.00 0.00 1298.00 564.00" xmlns="http://www.w3.org/2000/svg" xmlns:xlink="http://www.w3.org/1999/xlink">
<g id="graph0" class="graph" transform="scale(1 1) rotate(0) translate(25.2 539.2)">
<title>rdf_graph</title>
<polygon fill="white" stroke="none" points="-25.2,25.2 -25.2,-539.2 1273.2,-539.2 1273.2,25.2 -25.2,25.2"/>
<g id="clust1" class="cluster">
<title>cluster_workflow</title>
<path fill="white" stroke="#93c5fd" stroke-width="1.2" stroke-dasharray="5,2" d="M20,-159C20,-159 683.88,-159 683.88,-159 689.88,-159 695.88,-165 695.88,-171 695.88,-171 695.88,-404 695.88,-404 695.88,-410 689.88,-416 683.88,-416 683.88,-416 20,-416 20,-416 14,-416 8,-410 8,-404 8,-404 8,-171 8,-171 8,-165 14,-159 20,-159"/>
<text xml:space="preserve" text-anchor="middle" x="351.94" y="-398.7" font-family="Times New Roman,serif" font-size="14.00">Workflow / Agents</text>
</g>
<g id="clust2" class="cluster">
<title>cluster_decision</title>
<path fill="white" stroke="#a5b4fc" stroke-width="1.2" stroke-dasharray="5,2" d="M536.75,-74C536.75,-74 718,-74 718,-74 724,-74 730,-80 730,-86 730,-86 730,-139 730,-139 730,-145 724,-151 718,-151 718,-151 536.75,-151 536.75,-151 530.75,-151 524.75,-145 524.75,-139 524.75,-139 524.75,-86 524.75,-86 524.75,-80 530.75,-74 536.75,-74"/>
<text xml:space="preserve" text-anchor="middle" x="627.38" y="-133.7" font-family="Times New Roman,serif" font-size="14.00">Decision</text>
</g>
<g id="clust3" class="cluster">
<title>cluster_theme</title>
<path fill="white" stroke="#86efac" stroke-width="1.2" stroke-dasharray="5,2" d="M882.5,-44C882.5,-44 1228,-44 1228,-44 1234,-44 1240,-50 1240,-56 1240,-56 1240,-139 1240,-139 1240,-145 1234,-151 1228,-151 1228,-151 882.5,-151 882.5,-151 876.5,-151 870.5,-145 870.5,-139 870.5,-139 870.5,-56 870.5,-56 870.5,-50 876.5,-44 882.5,-44"/>
<text xml:space="preserve" text-anchor="middle" x="1055.25" y="-133.7" font-family="Times New Roman,serif" font-size="14.00">Theme / Thesis</text>
</g>
<g id="clust4" class="cluster">
<title>cluster_document</title>
<path fill="white" stroke="#f9a8d4" stroke-width="1.2" stroke-dasharray="5,2" d="M23,-429C23,-429 340.75,-429 340.75,-429 346.75,-429 352.75,-435 352.75,-441 352.75,-441 352.75,-494 352.75,-494 352.75,-500 346.75,-506 340.75,-506 340.75,-506 23,-506 23,-506 17,-506 11,-500 11,-494 11,-494 11,-441 11,-441 11,-435 17,-429 23,-429"/>
<text xml:space="preserve" text-anchor="middle" x="181.88" y="-488.7" font-family="Times New Roman,serif" font-size="14.00">Document Outcome</text>
</g>
<!-- n5099611868209198514 -->
<g id="node1" class="node">
<title>n5099611868209198514</title>
<g id="a_node1"><a xlink:title="gemini:3&#45;1&#45;flash&#45;lite">
<path fill="#dbeafe" stroke="#1d4ed8" d="M675.88,-239C675.88,-239 578.88,-239 578.88,-239 572.88,-239 566.88,-233 566.88,-227 566.88,-227 566.88,-215 566.88,-215 566.88,-209 572.88,-203 578.88,-203 578.88,-203 675.88,-203 675.88,-203 681.88,-203 687.88,-209 687.88,-215 687.88,-215 687.88,-227 687.88,-227 687.88,-233 681.88,-239 675.88,-239"/>
<text xml:space="preserve" text-anchor="middle" x="627.38" y="-216.72" font-family="Helvetica,sans-Serif" font-size="12.00">gemini:3&#45;1&#45;flash&#45;lite</text>
</a>
</g>
</g>
<!-- n6204169844487935091 -->
<g id="node2" class="node">
<title>n6204169844487935091</title>
<g id="a_node2"><a xlink:title="jdd:classification&#45;ad2fd4ed&#45;8378&#45;5f58&#45;a79d&#45;1636d4de4084">
<polygon fill="#dbeafe" stroke="#1d4ed8" points="347.75,-203 16,-203 16,-199 12,-199 12,-195 16,-195 16,-175 12,-175 12,-171 16,-171 16,-167 347.75,-167 347.75,-203"/>
<polyline fill="none" stroke="#1d4ed8" points="16,-199 20,-199 20,-195 16,-195"/>
<polyline fill="none" stroke="#1d4ed8" points="16,-175 20,-175 20,-171 16,-171"/>
<text xml:space="preserve" text-anchor="middle" x="181.88" y="-180.72" font-family="Helvetica,sans-Serif" font-size="12.00">jdd:classification&#45;ad2fd4ed&#45;8378&#45;5f58&#45;a79d&#45;1636d4de4084</text>
</a>
</g>
</g>
<!-- n6204169844487935091&#45;&gt;n5099611868209198514 -->
<g id="edge3" class="edge">
<title>n6204169844487935091&#45;&gt;n5099611868209198514</title>
<path fill="none" stroke="#334155" stroke-width="1.6" d="M347.94,-194C474.43,-194 627,-194 627,-194 627,-194 627,-194.85 627,-194.85"/>
<polygon fill="#334155" stroke="#334155" stroke-width="1.6" points="623.5,-190.12 627,-200.12 630.5,-190.12 623.5,-190.12"/>
<text xml:space="preserve" text-anchor="middle" x="440.25" y="-223.5" font-family="Helvetica,sans-Serif" font-size="10.00">wasAssociatedWith</text>
</g>
<!-- n2181830776673561191 -->
<g id="node5" class="node">
<title>n2181830776673561191</title>
<g id="a_node5"><a xlink:title="tres:5019643&#45;10.2025.4.02.5101&#10;&#10;subject: Servidores Inativos, Contribuições Previdenciárias, Contribuições, DIREITO TRIBUTÁRIO">
<path fill="#e0e7ff" stroke="#4338ca" d="M710,-118C710,-118 544.75,-118 544.75,-118 538.75,-118 532.75,-112 532.75,-106 532.75,-106 532.75,-94 532.75,-94 532.75,-88 538.75,-82 544.75,-82 544.75,-82 710,-82 710,-82 716,-82 722,-88 722,-94 722,-94 722,-106 722,-106 722,-112 716,-118 710,-118"/>
<text xml:space="preserve" text-anchor="middle" x="627.38" y="-95.72" font-family="Helvetica,sans-Serif" font-size="12.00">tres:5019643&#45;10.2025.4.02.5101</text>
</a>
</g>
</g>
<!-- n6204169844487935091&#45;&gt;n2181830776673561191 -->
<g id="edge2" class="edge">
<title>n6204169844487935091&#45;&gt;n2181830776673561191</title>
<path fill="none" stroke="#334155" stroke-width="1.6" d="M348.17,-176C445.72,-176 550,-176 550,-176 550,-176 550,-130.82 550,-130.82"/>
<polygon fill="#334155" stroke="#334155" stroke-width="1.6" points="553.5,-130.82 550,-120.82 546.5,-130.82 553.5,-130.82"/>
<text xml:space="preserve" text-anchor="middle" x="440.25" y="-127.5" font-family="Helvetica,sans-Serif" font-size="10.00">used</text>
</g>
<!-- n5866988104830812069 -->
<g id="node6" class="node">
<title>n5866988104830812069</title>
<g id="a_node6"><a xlink:title="Tema 1 &#45; Julgado">
<path fill="#dcfce7" stroke="#15803d" d="M1220,-103C1220,-103 1136.5,-103 1136.5,-103 1130.5,-103 1124.5,-97 1124.5,-91 1124.5,-91 1124.5,-79 1124.5,-79 1124.5,-73 1130.5,-67 1136.5,-67 1136.5,-67 1220,-67 1220,-67 1226,-67 1232,-73 1232,-79 1232,-79 1232,-91 1232,-91 1232,-97 1226,-103 1220,-103"/>
<text xml:space="preserve" text-anchor="middle" x="1178.25" y="-80.72" font-family="Helvetica,sans-Serif" font-size="12.00">Tema 1 &#45; Julgado</text>
</a>
</g>
</g>
<!-- n6204169844487935091&#45;&gt;n5866988104830812069 -->
<g id="edge1" class="edge">
<title>n6204169844487935091&#45;&gt;n5866988104830812069</title>
<path fill="none" stroke="#334155" stroke-width="1.6" d="M348.04,-185C631.46,-185 1178,-185 1178,-185 1178,-185 1178,-115.76 1178,-115.76"/>
<polygon fill="#334155" stroke="#334155" stroke-width="1.6" points="1181.5,-115.76 1178,-105.76 1174.5,-115.76 1181.5,-115.76"/>
<text xml:space="preserve" text-anchor="middle" x="800.25" y="-2.5" font-family="Helvetica,sans-Serif" font-size="10.00">used</text>
</g>
<!-- n4308472333406374237 -->
<g id="node3" class="node">
<title>n4308472333406374237</title>
<g id="a_node3"><a xlink:title="jdd:pipeline">
<path fill="#dbeafe" stroke="#1d4ed8" d="M209,-293C209,-293 154.75,-293 154.75,-293 148.75,-293 142.75,-287 142.75,-281 142.75,-281 142.75,-269 142.75,-269 142.75,-263 148.75,-257 154.75,-257 154.75,-257 209,-257 209,-257 215,-257 221,-263 221,-269 221,-269 221,-281 221,-281 221,-287 215,-293 209,-293"/>
<text xml:space="preserve" text-anchor="middle" x="181.88" y="-270.73" font-family="Helvetica,sans-Serif" font-size="12.00">jdd:pipeline</text>
</a>
</g>
</g>
<!-- n1812625129787256500 -->
<g id="node4" class="node">
<title>n1812625129787256500</title>
<g id="a_node4"><a xlink:title="jdd:pipeline&#45;run&#45;691103ab&#45;64fe&#45;5cb1&#45;8fe7&#45;1f6f21ae865c">
<path fill="#dbeafe" stroke="#1d4ed8" d="M328.25,-383C328.25,-383 35.5,-383 35.5,-383 29.5,-383 23.5,-377 23.5,-371 23.5,-371 23.5,-359 23.5,-359 23.5,-353 29.5,-347 35.5,-347 35.5,-347 328.25,-347 328.25,-347 334.25,-347 340.25,-353 340.25,-359 340.25,-359 340.25,-371 340.25,-371 340.25,-377 334.25,-383 328.25,-383"/>
<text xml:space="preserve" text-anchor="middle" x="181.88" y="-360.73" font-family="Helvetica,sans-Serif" font-size="12.00">jdd:pipeline&#45;run&#45;691103ab&#45;64fe&#45;5cb1&#45;8fe7&#45;1f6f21ae865c</text>
</a>
</g>
</g>
<!-- n8456755776320055909 -->
<g id="node7" class="node">
<title>n8456755776320055909</title>
<g id="a_node7"><a xlink:title="Theme 1 Thesis&#10;&#10;description: O valor da aposentadoria por invalidez e do auxílio&#45;doença, bem como das pensões destes derivados ou calculadas com base no art. 75, da Lei n. 8.213/91, será obtido, na forma do art. 29, II, do mesmo diploma, por meio...">
<path fill="#ecfccb" stroke="#4d7c0f" d="M968.75,-118C968.75,-118 890.5,-118 890.5,-118 884.5,-118 878.5,-112 878.5,-106 878.5,-106 878.5,-94 878.5,-94 878.5,-88 884.5,-82 890.5,-82 890.5,-82 968.75,-82 968.75,-82 974.75,-82 980.75,-88 980.75,-94 980.75,-94 980.75,-106 980.75,-106 980.75,-112 974.75,-118 968.75,-118"/>
<text xml:space="preserve" text-anchor="middle" x="929.62" y="-95.72" font-family="Helvetica,sans-Serif" font-size="12.00">Theme 1 Thesis</text>
</a>
</g>
</g>
<!-- n2181830776673561191&#45;&gt;n8456755776320055909 -->
<g id="edge5" class="edge">
<title>n2181830776673561191&#45;&gt;n8456755776320055909</title>
<path fill="none" stroke="#334155" stroke-width="1.6" d="M722.18,-100C722.18,-100 865.82,-100 865.82,-100"/>
<polygon fill="#334155" stroke="#334155" stroke-width="1.6" points="865.82,-103.5 875.82,-100 865.82,-96.5 865.82,-103.5"/>
<text xml:space="preserve" text-anchor="middle" x="800.25" y="-102.5" font-family="Helvetica,sans-Serif" font-size="10.00">adoptsThesis</text>
</g>
<!-- n8456755776320055909&#45;&gt;n5866988104830812069 -->
<g id="edge4" class="edge">
<title>n8456755776320055909&#45;&gt;n5866988104830812069</title>
<path fill="none" stroke="#334155" stroke-width="1.6" d="M981.14,-92.5C981.14,-92.5 1111.8,-92.5 1111.8,-92.5"/>
<polygon fill="#334155" stroke="#334155" stroke-width="1.6" points="1111.8,-96 1121.8,-92.5 1111.8,-89 1111.8,-96"/>
<text xml:space="preserve" text-anchor="middle" x="1052.62" y="-108.5" font-family="Helvetica,sans-Serif" font-size="10.00">hasTheme</text>
</g>
<!-- n4753656628229250380 -->
<g id="node8" class="node">
<title>n4753656628229250380</title>
<g id="a_node8"><a xlink:title="jdd:admissibility&#45;7257103d&#45;facf&#45;582b&#45;a1cd&#45;c9d805ce51a1">
<path fill="#fce7f3" stroke="#be185d" d="M332.75,-473C332.75,-473 31,-473 31,-473 25,-473 19,-467 19,-461 19,-461 19,-449 19,-449 19,-443 25,-437 31,-437 31,-437 332.75,-437 332.75,-437 338.75,-437 344.75,-443 344.75,-449 344.75,-449 344.75,-461 344.75,-461 344.75,-467 338.75,-473 332.75,-473"/>
<text xml:space="preserve" text-anchor="middle" x="181.88" y="-450.73" font-family="Helvetica,sans-Serif" font-size="12.00">jdd:admissibility&#45;7257103d&#45;facf&#45;582b&#45;a1cd&#45;c9d805ce51a1</text>
</a>
</g>
</g>
</g>
</svg>
