<?xml version="1.0" encoding="UTF-8" standalone="no"?>
<!DOCTYPE svg PUBLIC "-//W3C//DTD SVG 1.1//EN"
 "http://www.w3.org/Graphics/SVG/1.1/DTD/svg11.dtd">
<!-- Generated by graphviz version 14.1.2 (20260124.0452)
 -->
<!-- Title: rdf_graph Pages: 1 -->
<svg width="1301pt" height="564pt"
 viewBox="0.00 0.00 1301.00 564.00" xmlns="http://www.w3.org/2000/svg" xmlns:xlink="http://www.w3.org/1999/xlink">
<g id="graph0" class="graph" transform="scale(1 1) rotate(0) translate(25.2 539.2)">
<title>rdf_graph</title>
<polygon fill="white" stroke="none" points="-25.2,25.2 -25.2,-539.2 1275.45,-539.2 1275.45,25.2 -25.2,25.2"/>
<g id="clust1" class="cluster">
<title>cluster_workflow</title>
<path fill="white" stroke="#93c5fd" stroke-width="1.2" stroke-dasharray="5,2" d="M20,-159C20,-159 686.12,-159 686.12,-159 692.12,-159 698.12,-165 698.12,-171 698.12,-171 698.12,-404 698.12,-404 698.12,-410 692.12,-416 686.12,-416 686.12,-416 20,-416 20,-416 14,-416 8,-410 8,-404 8,-404 8,-171 8,-171 8,-165 14,-159 20,-159"/>
<text xml:space="preserve" text-anchor="middle" x="353.06" y="-398.7" font-family="Times New Roman,serif" font-size="14.00">Workflow / Agents</text>
</g>
<g id="clust2" class="cluster">
<title>cluster_decision</title>
<path fill="white" stroke="#a5b4fc" stroke-width="1.2" stroke-dasharray="5,2" d="M539,-74C539,-74 720.25,-74 720.25,-74 726.25,-74 732.25,-80 732.25,-86 732.25,-86 732.25,-139 732.25,-139 732.25,-145 726.25,-151 720.25,-151 720.25,-151 539,-151 539,-151 533,-151 527,-145 527,-139 527,-139 527,-86 527,-86 527,-80 533,-74 539,-74"/>
<text xml:space="preserve" text-anchor="middle" x="629.62" y="-133.7" font-family="Times New Roman,serif" font-size="14.00">Decision</text>
</g>
<g id="clust3" class="cluster">
<title>cluster_theme</title>
<path fill="white" stroke="#86efac" stroke-width="1.2" stroke-dasharray="5,2" d="M884.75,-44C884.75,-44 1230.25,-44 1230.25,-44 1236.25,-44 1242.25,-50 1242.25,-56 1242.25,-56 1242.25,-139 1242.25,-139 1242.25,-145 1236.25,-151 1230.25,-151 1230.25,-151 884.75,-151 884.75,-151 878.75,-151 872.75,-145 872.75,-139 872.75,-139 872.75,-56 872.75,-56 872.75,-50 878.75,-44 884.75,-44"/>
<text xml:space="preserve" text-anchor="middle" x="1057.5" y="-133.7" font-family="Times New Roman,serif" font-size="14.00">Theme / Thesis</text>
</g>
<g id="clust4" class="cluster">
<title>cluster_document</title>
<path fill="white" stroke="#f9a8d4" stroke-width="1.2" stroke-dasharray="5,2" d="M25.25,-429C25.25,-429 340.75,-429 340.75,-429 346.75,-429 352.75,-435 352.75,-441 352.75,-441 352.75,-494 352.75,-494 352.75,-500 346.75,-506 340.75,-506 340.75,-506 25.25,-506 25.25,-506 19.25,-506 13.25,-500 13.25,-494 13.25,-494 13.25,-441 13.25,-441 13.25,-435 19.25,-429 25.25,-429"/>
<text xml:space="preserve" text-anchor="middle" x="183" y="-488.7" font-family="Times New Roman,serif" font-size="14.00">Document Outcome</text>
</g>
<!-- n5099611868209198514 -->
<g id="node1" class="node">
<title>n5099611868209198514</title>
<g id="a_node1"><a xlink:title="gemini:3&#45;1&#45;flash&#45;lite">
<path fill="#dbeafe" stroke="#1d4ed8" d="M678.12,-239C678.12,-239 581.12,-239 581.12,-239 575.12,-239 569.12,-233 569.12,-227 569.12,-227 569.12,-215 569.12,-215 569.12,-209 575.12,-203 581.12,-203 581.12,-203 678.12,-203 678.12,-203 684.12,-203 690.12,-209 690.12,-215 690.12,-215 690.12,-227 690.12,-227 690.12,-233 684.12,-239 678.12,-239"/>
<text xml:space="preserve" text-anchor="middle" x="629.62" y="-216.72" font-family="Helvetica,sans-Serif" font-size="12.00">gemini:3&#45;1&#45;flash&#45;lite</text>
</a>
</g>
</g>
<!-- n7184569615187937289 -->
<g id="node2" class="node">
<title>n7184569615187937289</title>
<g id="a_node2"><a xlink:title="jdd:classification&#45;634710ab&#45;a863&#45;500c&#45;94cf&#45;a77b93105593">
<polygon fill="#dbeafe" stroke="#1d4ed8" points="350,-203 16,-203 16,-199 12,-199 12,-195 16,-195 16,-175 12,-175 12,-171 16,-171 16,-167 350,-167 350,-203"/>
<polyline fill="none" stroke="#1d4ed8" points="16,-199 20,-199 20,-195 16,-195"/>
<polyline fill="none" stroke="#1d4ed8" points="16,-175 20,-175 20,-171 16,-171"/>
<text xml:space="preserve" text-anchor="middle" x="183" y="-180.72" font-family="Helvetica,sans-Serif" font-size="12.00">jdd:classification&#45;634710ab&#45;a863&#45;500c&#45;94cf&#45;a77b93105593</text>
</a>
</g>
</g>
<!-- n7184569615187937289&#45;&gt;n5099611868209198514 -->
<g id="edge3" class="edge">
<title>n7184569615187937289&#45;&gt;n5099611868209198514</title>
<path fill="none" stroke="#334155" stroke-width="1.6" d="M350.44,-194C477.06,-194 629.25,-194 629.25,-194 629.25,-194 629.25,-194.85 629.25,-194.85"/>
<polygon fill="#334155" stroke="#334155" stroke-width="1.6" points="625.75,-190.12 629.25,-200.12 632.75,-190.12 625.75,-190.12"/>
<text xml:space="preserve" text-anchor="middle" x="442.5" y="-223.5" font-family="Helvetica,sans-Serif" font-size="10.00">wasAssociatedWith</text>
</g>
<!-- n3144438664997143873 -->
<g id="node5" class="node">
<title>n3144438664997143873</title>
<g id="a_node5"><a xlink:title="tres:5014186&#45;94.2025.4.02.5101&#10;&#10;subject: Auxílio&#45;alimentação, Sistema Remuneratório e Benefícios, Servidor Público Civil, DIREITO ADMINISTRATIVO E OUTRAS MATÉRIAS DE DIREITO PÚBLICO">
<path fill="#e0e7ff" stroke="#4338ca" d="M712.25,-118C712.25,-118 547,-118 547,-118 541,-118 535,-112 535,-106 535,-106 535,-94 535,-94 535,-88 541,-82 547,-82 547,-82 712.25,-82 712.25,-82 718.25,-82 724.25,-88 724.25,-94 724.25,-94 724.25,-106 724.25,-106 724.25,-112 718.25,-118 712.25,-118"/>
<text xml:space="preserve" text-anchor="middle" x="629.62" y="-95.72" font-family="Helvetica,sans-Serif" font-size="12.00">tres:5014186&#45;94.2025.4.02.5101</text>
</a>
</g>
</g>
<!-- n7184569615187937289&#45;&gt;n3144438664997143873 -->
<g id="edge2" class="edge">
<title>n7184569615187937289&#45;&gt;n3144438664997143873</title>
<path fill="none" stroke="#334155" stroke-width="1.6" d="M350.34,-176C448.04,-176 552.25,-176 552.25,-176 552.25,-176 552.25,-130.82 552.25,-130.82"/>
<polygon fill="#334155" stroke="#334155" stroke-width="1.6" points="555.75,-130.82 552.25,-120.82 548.75,-130.82 555.75,-130.82"/>
<text xml:space="preserve" text-anchor="middle" x="442.5" y="-127.5" font-family="Helvetica,sans-Serif" font-size="10.00">used</text>
</g>
<!-- n8254952610885942225 -->
<g id="node6" class="node">
<title>n8254952610885942225</title>
<g id="a_node6"><a xlink:title="Tema 4 &#45; Julgado">
<path fill="#dcfce7" stroke="#15803d" d="M1222.25,-103C1222.25,-103 1138.75,-103 1138.75,-103 1132.75,-103 1126.75,-97 1126.75,-91 1126.75,-91 1126.75,-79 1126.75,-79 1126.75,-73 1132.75,-67 1138.75,-67 1138.75,-67 1222.25,-67 1222.25,-67 1228.25,-67 1234.25,-73 1234.25,-79 1234.25,-79 1234.25,-91 1234.25,-91 1234.25,-97 1228.25,-103 1222.25,-103"/>
<text xml:space="preserve" text-anchor="middle" x="1180.5" y="-80.72" font-family="Helvetica,sans-Serif" font-size="12.00">Tema 4 &#45; Julgado</text>
</a>
</g>
</g>
<!-- n7184569615187937289&#45;&gt;n8254952610885942225 -->
<g id="edge1" class="edge">
<title>n7184569615187937289&#45;&gt;n8254952610885942225</title>
<path fill="none" stroke="#334155" stroke-width="1.6" d="M350.48,-185C634.53,-185 1180.25,-185 1180.25,-185 1180.25,-185 1180.25,-115.76 1180.25,-115.76"/>
<polygon fill="#334155" stroke="#334155" stroke-width="1.6" points="1183.75,-115.76 1180.25,-105.76 1176.75,-115.76 1183.75,-115.76"/>
<text xml:space="preserve" text-anchor="middle" x="802.5" y="-2.5" font-family="Helvetica,sans-Serif" font-size="10.00">used</text>
</g>
<!-- n4308472333406374237 -->
<g id="node3" class="node">
<title>n4308472333406374237</title>
<g id="a_node3"><a xlink:title="jdd:pipeline">
<path fill="#dbeafe" stroke="#1d4ed8" d="M210.12,-293C210.12,-293 155.88,-293 155.88,-293 149.88,-293 143.88,-287 143.88,-281 143.88,-281 143.88,-269 143.88,-269 143.88,-263 149.88,-257 155.88,-257 155.88,-257 210.12,-257 210.12,-257 216.12,-257 222.12,-263 222.12,-269 222.12,-269 222.12,-281 222.12,-281 222.12,-287 216.12,-293 210.12,-293"/>
<text xml:space="preserve" text-anchor="middle" x="183" y="-270.73" font-family="Helvetica,sans-Serif" font-size="12.00">jdd:pipeline</text>
</a>
</g>
</g>
<!-- n1812625129787256500 -->
<g id="node4" class="node">
<title>n1812625129787256500</title>
<g id="a_node4"><a xlink:title="jdd:pipeline&#45;run&#45;691103ab&#45;64fe&#45;5cb1&#45;8fe7&#45;1f6f21ae865c">
<path fill="#dbeafe" stroke="#1d4ed8" d="M329.38,-383C329.38,-383 36.62,-383 36.62,-383 30.62,-383 24.62,-377 24.62,-371 24.62,-371 24.62,-359 24.62,-359 24.62,-353 30.62,-347 36.62,-347 36.62,-347 329.38,-347 329.38,-347 335.38,-347 341.38,-353 341.38,-359 341.38,-359 341.38,-371 341.38,-371 341.38,-377 335.38,-383 329.38,-383"/>
<text xml:space="preserve" text-anchor="middle" x="183" y="-360.73" font-family="Helvetica,sans-Serif" font-size="12.00">jdd:pipeline&#45;run&#45;691103ab&#45;64fe&#45;5cb1&#45;8fe7&#45;1f6f21ae865c</text>
</a>
</g>
</g>
<!-- n3787711732199272007 -->
<g id="node7" class="node">
<title>n3787711732199272007</title>
<g id="a_node7"><a xlink:title="Theme 4 Thesis&#10;&#10;description: É devido o restabelecimento do auxílio&#45;doença nas hipóteses conhecidas por “alta programada”, independentemente de prévio pedido administrativo de prorrogação. VIDE TEMA 164/TNU">
<path fill="#ecfccb" stroke="#4d7c0f" d="M971,-118C971,-118 892.75,-118 892.75,-118 886.75,-118 880.75,-112 880.75,-106 880.75,-106 880.75,-94 880.75,-94 880.75,-88 886.75,-82 892.75,-82 892.75,-82 971,-82 971,-82 977,-82 983,-88 983,-94 983,-94 983,-106 983,-106 983,-112 977,-118 971,-118"/>
<text xml:space="preserve" text-anchor="middle" x="931.88" y="-95.72" font-family="Helvetica,sans-Serif" font-size="12.00">Theme 4 Thesis</text>
</a>
</g>
</g>
<!-- n3144438664997143873&#45;&gt;n3787711732199272007 -->
<g id="edge5" class="edge">
<title>n3144438664997143873&#45;&gt;n3787711732199272007</title>
<path fill="none" stroke="#334155" stroke-width="1.6" d="M724.43,-100C724.43,-100 868.07,-100 868.07,-100"/>
<polygon fill="#334155" stroke="#334155" stroke-width="1.6" points="868.07,-103.5 878.07,-100 868.07,-96.5 868.07,-103.5"/>
<text xml:space="preserve" text-anchor="middle" x="802.5" y="-102.5" font-family="Helvetica,sans-Serif" font-size="10.00">adoptsThesis</text>
</g>
<!-- n3787711732199272007&#45;&gt;n8254952610885942225 -->
<g id="edge4" class="edge">
<title>n3787711732199272007&#45;&gt;n8254952610885942225</title>
<path fill="none" stroke="#334155" stroke-width="1.6" d="M983.39,-92.5C983.39,-92.5 1114.05,-92.5 1114.05,-92.5"/>
<polygon fill="#334155" stroke="#334155" stroke-width="1.6" points="1114.05,-96 1124.05,-92.5 1114.05,-89 1114.05,-96"/>
<text xml:space="preserve" text-anchor="middle" x="1054.88" y="-108.5" font-family="Helvetica,sans-Serif" font-size="10.00">hasTheme</text>
</g>
<!-- n1265796366503241189 -->
<g id="node8" class="node">
<title>n1265796366503241189</title>
<g id="a_node8"><a xlink:title="jdd:admissibility&#45;939b237a&#45;3f3b&#45;5ceb&#45;af59&#45;d1f5be9229bc">
<path fill="#fce7f3" stroke="#be185d" d="M332.75,-473C332.75,-473 33.25,-473 33.25,-473 27.25,-473 21.25,-467 21.25,-461 21.25,-461 21.25,-449 21.25,-449 21.25,-443 27.25,-437 33.25,-437 33.25,-437 332.75,-437 332.75,-437 338.75,-437 344.75,-443 344.75,-449 344.75,-449 344.75,-461 344.75,-461 344.75,-467 338.75,-473 332.75,-473"/>
<text xml:space="preserve" text-anchor="middle" x="183" y="-450.73" font-family="Helvetica,sans-Serif" font-size="12.00">jdd:admissibility&#45;939b237a&#45;3f3b&#45;5ceb&#45;af59&#45;d1f5be9229bc</text>
</a>
</g>
</g>
</g>
</svg>
