<?xml version="1.0" encoding="UTF-8" standalone="no"?>
<!DOCTYPE svg PUBLIC "-//W3C//DTD SVG 1.1//EN"
 "http://www.w3.org/Graphics/SVG/1.1/DTD/svg11.dtd">
<!-- Generated by graphviz version 14.1.2 (20260124.0452)
 -->
<!-- Title: rdf_graph Pages: 1 -->
<svg width="1313pt" height="564pt"
 viewBox="0.00 0.00 1313.00 564.00" xmlns="http://www.w3.org/2000/svg" xmlns:xlink="http://www.w3.org/1999/xlink">
<g id="graph0" class="graph" transform="scale(1 1) rotate(0) translate(25.2 539.2)">
<title>rdf_graph</title>
<polygon fill="white" stroke="none" points="-25.2,25.2 -25.2,-539.2 1288.2,-539.2 1288.2,25.2 -25.2,25.2"/>
<g id="clust1" class="cluster">
<title>cluster_workflow</title>
<path fill="white" stroke="#93c5fd" stroke-width="1.2" stroke-dasharray="5,2" d="M20,-159C20,-159 685.75,-159 685.75,-159 691.75,-159 697.75,-165 697.75,-171 697.75,-171 697.75,-404 697.75,-404 697.75,-410 691.75,-416 685.75,-416 685.75,-416 20,-416 20,-416 14,-416 8,-410 8,-404 8,-404 8,-171 8,-171 8,-165 14,-159 20,-159"/>
<text xml:space="preserve" text-anchor="middle" x="352.88" y="-398.7" font-family="Times New Roman,serif" font-size="14.00">Workflow / Agents</text>
</g>
<g id="clust2" class="cluster">
<title>cluster_decision</title>
<path fill="white" stroke="#a5b4fc" stroke-width="1.2" stroke-dasharray="5,2" d="M539,-74C539,-74 719.5,-74 719.5,-74 725.5,-74 731.5,-80 731.5,-86 731.5,-86 731.5,-139 731.5,-139 731.5,-145 725.5,-151 719.5,-151 719.5,-151 539,-151 539,-151 533,-151 527,-145 527,-139 527,-139 527,-86 527,-86 527,-80 533,-74 539,-74"/>
<text xml:space="preserve" text-anchor="middle" x="629.25" y="-133.7" font-family="Times New Roman,serif" font-size="14.00">Decision</text>
</g>
<g id="clust3" class="cluster">
<title>cluster_theme</title>
<path fill="white" stroke="#86efac" stroke-width="1.2" stroke-dasharray="5,2" d="M884,-44C884,-44 1243,-44 1243,-44 1249,-44 1255,-50 1255,-56 1255,-56 1255,-139 1255,-139 1255,-145 1249,-151 1243,-151 1243,-151 884,-151 884,-151 878,-151 872,-145 872,-139 872,-139 872,-56 872,-56 872,-50 878,-44 884,-44"/>
<text xml:space="preserve" text-anchor="middle" x="1063.5" y="-133.7" font-family="Times New Roman,serif" font-size="14.00">Theme / Thesis</text>
</g>
<g id="clust4" class="cluster">
<title>cluster_document</title>
<path fill="white" stroke="#f9a8d4" stroke-width="1.2" stroke-dasharray="5,2" d="M30.88,-429C30.88,-429 335.12,-429 335.12,-429 341.12,-429 347.12,-435 347.12,-441 347.12,-441 347.12,-494 347.12,-494 347.12,-500 341.12,-506 335.12,-506 335.12,-506 30.88,-506 30.88,-506 24.88,-506 18.88,-500 18.88,-494 18.88,-494 18.88,-441 18.88,-441 18.88,-435 24.88,-429 30.88,-429"/>
<text xml:space="preserve" text-anchor="middle" x="183" y="-488.7" font-family="Times New Roman,serif" font-size="14.00">Document Outcome</text>
</g>
<!-- n5099611868209198514 -->
<g id="node1" class="node">
<title>n5099611868209198514</title>
<g id="a_node1"><a xlink:title="gemini:3&#45;1&#45;flash&#45;lite">
<path fill="#dbeafe" stroke="#1d4ed8" d="M677.75,-239C677.75,-239 580.75,-239 580.75,-239 574.75,-239 568.75,-233 568.75,-227 568.75,-227 568.75,-215 568.75,-215 568.75,-209 574.75,-203 580.75,-203 580.75,-203 677.75,-203 677.75,-203 683.75,-203 689.75,-209 689.75,-215 689.75,-215 689.75,-227 689.75,-227 689.75,-233 683.75,-239 677.75,-239"/>
<text xml:space="preserve" text-anchor="middle" x="629.25" y="-216.72" font-family="Helvetica,sans-Serif" font-size="12.00">gemini:3&#45;1&#45;flash&#45;lite</text>
</a>
</g>
</g>
<!-- n2266694777488011529 -->
<g id="node2" class="node">
<title>n2266694777488011529</title>
<g id="a_node2"><a xlink:title="jdd:classification&#45;b591c1d9&#45;83bc&#45;5920&#45;bfd6&#45;607eda6900d0">
<polygon fill="#dbeafe" stroke="#1d4ed8" points="350,-203 16,-203 16,-199 12,-199 12,-195 16,-195 16,-175 12,-175 12,-171 16,-171 16,-167 350,-167 350,-203"/>
<polyline fill="none" stroke="#1d4ed8" points="16,-199 20,-199 20,-195 16,-195"/>
<polyline fill="none" stroke="#1d4ed8" points="16,-175 20,-175 20,-171 16,-171"/>
<text xml:space="preserve" text-anchor="middle" x="183" y="-180.72" font-family="Helvetica,sans-Serif" font-size="12.00">jdd:classification&#45;b591c1d9&#45;83bc&#45;5920&#45;bfd6&#45;607eda6900d0</text>
</a>
</g>
</g>
<!-- n2266694777488011529&#45;&gt;n5099611868209198514 -->
<g id="edge3" class="edge">
<title>n2266694777488011529&#45;&gt;n5099611868209198514</title>
<path fill="none" stroke="#334155" stroke-width="1.6" d="M346,-203.42C346,-212.28 346,-221 346,-221 346,-221 556.06,-221 556.06,-221"/>
<polygon fill="#334155" stroke="#334155" stroke-width="1.6" points="556.06,-224.5 566.06,-221 556.06,-217.5 556.06,-224.5"/>
<text xml:space="preserve" text-anchor="middle" x="442.5" y="-223.5" font-family="Helvetica,sans-Serif" font-size="10.00">wasAssociatedWith</text>
</g>
<!-- n2529059113854734349 -->
<g id="node5" class="node">
<title>n2529059113854734349</title>
<g id="a_node5"><a xlink:title="tres:5002855&#45;07.2024.4.02.5116&#10;&#10;subject: Incidência sobre Licença&#45;Prêmio/Abono/Indenização, IRPF/Imposto de Renda de Pessoa Física, Impostos, DIREITO TRIBUTÁRIO">
<path fill="#e0e7ff" stroke="#4338ca" d="M711.5,-118C711.5,-118 547,-118 547,-118 541,-118 535,-112 535,-106 535,-106 535,-94 535,-94 535,-88 541,-82 547,-82 547,-82 711.5,-82 711.5,-82 717.5,-82 723.5,-88 723.5,-94 723.5,-94 723.5,-106 723.5,-106 723.5,-112 717.5,-118 711.5,-118"/>
<text xml:space="preserve" text-anchor="middle" x="629.25" y="-95.72" font-family="Helvetica,sans-Serif" font-size="12.00">tres:5002855&#45;07.2024.4.02.5116</text>
</a>
</g>
</g>
<!-- n2266694777488011529&#45;&gt;n2529059113854734349 -->
<g id="edge2" class="edge">
<title>n2266694777488011529&#45;&gt;n2529059113854734349</title>
<path fill="none" stroke="#334155" stroke-width="1.6" d="M350.49,-179C448.05,-179 552,-179 552,-179 552,-179 552,-130.74 552,-130.74"/>
<polygon fill="#334155" stroke="#334155" stroke-width="1.6" points="555.5,-130.74 552,-120.74 548.5,-130.74 555.5,-130.74"/>
<text xml:space="preserve" text-anchor="middle" x="442.5" y="-127.5" font-family="Helvetica,sans-Serif" font-size="10.00">used</text>
</g>
<!-- n7244866037813270895 -->
<g id="node6" class="node">
<title>n7244866037813270895</title>
<g id="a_node6"><a xlink:title="Tema 13 &#45; Julgado">
<path fill="#dcfce7" stroke="#15803d" d="M1235,-103C1235,-103 1144.75,-103 1144.75,-103 1138.75,-103 1132.75,-97 1132.75,-91 1132.75,-91 1132.75,-79 1132.75,-79 1132.75,-73 1138.75,-67 1144.75,-67 1144.75,-67 1235,-67 1235,-67 1241,-67 1247,-73 1247,-79 1247,-79 1247,-91 1247,-91 1247,-97 1241,-103 1235,-103"/>
<text xml:space="preserve" text-anchor="middle" x="1189.88" y="-80.72" font-family="Helvetica,sans-Serif" font-size="12.00">Tema 13 &#45; Julgado</text>
</a>
</g>
</g>
<!-- n2266694777488011529&#45;&gt;n7244866037813270895 -->
<g id="edge1" class="edge">
<title>n2266694777488011529&#45;&gt;n7244866037813270895</title>
<path fill="none" stroke="#334155" stroke-width="1.6" d="M350.42,-191C636.76,-191 1190,-191 1190,-191 1190,-191 1190,-115.89 1190,-115.89"/>
<polygon fill="#334155" stroke="#334155" stroke-width="1.6" points="1193.5,-115.89 1190,-105.89 1186.5,-115.89 1193.5,-115.89"/>
<text xml:space="preserve" text-anchor="middle" x="801.75" y="-2.5" font-family="Helvetica,sans-Serif" font-size="10.00">used</text>
</g>
<!-- n4308472333406374237 -->
<g id="node3" class="node">
<title>n4308472333406374237</title>
<g id="a_node3"><a xlink:title="jdd:pipeline">
<path fill="#dbeafe" stroke="#1d4ed8" d="M210.12,-293C210.12,-293 155.88,-293 155.88,-293 149.88,-293 143.88,-287 143.88,-281 143.88,-281 143.88,-269 143.88,-269 143.88,-263 149.88,-257 155.88,-257 155.88,-257 210.12,-257 210.12,-257 216.12,-257 222.12,-263 222.12,-269 222.12,-269 222.12,-281 222.12,-281 222.12,-287 216.12,-293 210.12,-293"/>
<text xml:space="preserve" text-anchor="middle" x="183" y="-270.73" font-family="Helvetica,sans-Serif" font-size="12.00">jdd:pipeline</text>
</a>
</g>
</g>
<!-- n1812625129787256500 -->
<g id="node4" class="node">
<title>n1812625129787256500</title>
<g id="a_node4"><a xlink:title="jdd:pipeline&#45;run&#45;691103ab&#45;64fe&#45;5cb1&#45;8fe7&#45;1f6f21ae865c">
<path fill="#dbeafe" stroke="#1d4ed8" d="M329.38,-383C329.38,-383 36.62,-383 36.62,-383 30.62,-383 24.62,-377 24.62,-371 24.62,-371 24.62,-359 24.62,-359 24.62,-353 30.62,-347 36.62,-347 36.62,-347 329.38,-347 329.38,-347 335.38,-347 341.38,-353 341.38,-359 341.38,-359 341.38,-371 341.38,-371 341.38,-377 335.38,-383 329.38,-383"/>
<text xml:space="preserve" text-anchor="middle" x="183" y="-360.73" font-family="Helvetica,sans-Serif" font-size="12.00">jdd:pipeline&#45;run&#45;691103ab&#45;64fe&#45;5cb1&#45;8fe7&#45;1f6f21ae865c</text>
</a>
</g>
</g>
<!-- n8733136517566195040 -->
<g id="node7" class="node">
<title>n8733136517566195040</title>
<g id="a_node7"><a xlink:title="Theme 13 Thesis&#10;&#10;description: É dispensável prévio requerimento administrativo de revisão de aposentadoria por tempo de contribuição quando houver omissão da autarquia na análise do tempo especial anterior à Lei n. 9.032/95.">
<path fill="#ecfccb" stroke="#4d7c0f" d="M977,-118C977,-118 892,-118 892,-118 886,-118 880,-112 880,-106 880,-106 880,-94 880,-94 880,-88 886,-82 892,-82 892,-82 977,-82 977,-82 983,-82 989,-88 989,-94 989,-94 989,-106 989,-106 989,-112 983,-118 977,-118"/>
<text xml:space="preserve" text-anchor="middle" x="934.5" y="-95.72" font-family="Helvetica,sans-Serif" font-size="12.00">Theme 13 Thesis</text>
</a>
</g>
</g>
<!-- n2529059113854734349&#45;&gt;n8733136517566195040 -->
<g id="edge5" class="edge">
<title>n2529059113854734349&#45;&gt;n8733136517566195040</title>
<path fill="none" stroke="#334155" stroke-width="1.6" d="M723.74,-100C723.74,-100 867.1,-100 867.1,-100"/>
<polygon fill="#334155" stroke="#334155" stroke-width="1.6" points="867.1,-103.5 877.1,-100 867.1,-96.5 867.1,-103.5"/>
<text xml:space="preserve" text-anchor="middle" x="801.75" y="-102.5" font-family="Helvetica,sans-Serif" font-size="10.00">adoptsThesis</text>
</g>
<!-- n8733136517566195040&#45;&gt;n7244866037813270895 -->
<g id="edge4" class="edge">
<title>n8733136517566195040&#45;&gt;n7244866037813270895</title>
<path fill="none" stroke="#334155" stroke-width="1.6" d="M989.28,-92.5C989.28,-92.5 1120.1,-92.5 1120.1,-92.5"/>
<polygon fill="#334155" stroke="#334155" stroke-width="1.6" points="1120.1,-96 1130.1,-92.5 1120.1,-89 1120.1,-96"/>
<text xml:space="preserve" text-anchor="middle" x="1060.88" y="-108.5" font-family="Helvetica,sans-Serif" font-size="10.00">hasTheme</text>
</g>
<!-- n2241688951934889964 -->
<g id="node8" class="node">
<title>n2241688951934889964</title>
<g id="a_node8"><a xlink:title="jdd:admissibility&#45;87bb3f8e&#45;261e&#45;507b&#45;b7fd&#45;cffe0fcd439f">
<path fill="#fce7f3" stroke="#be185d" d="M327.12,-473C327.12,-473 38.88,-473 38.88,-473 32.88,-473 26.88,-467 26.88,-461 26.88,-461 26.88,-449 26.88,-449 26.88,-443 32.88,-437 38.88,-437 38.88,-437 327.12,-437 327.12,-437 333.12,-437 339.12,-443 339.12,-449 339.12,-449 339.12,-461 339.12,-461 339.12,-467 333.12,-473 327.12,-473"/>
<text xml:space="preserve" text-anchor="middle" x="183" y="-450.73" font-family="Helvetica,sans-Serif" font-size="12.00">jdd:admissibility&#45;87bb3f8e&#45;261e&#45;507b&#45;b7fd&#45;cffe0fcd439f</text>
</a>
</g>
</g>
</g>
</svg>
