<?xml version="1.0" encoding="UTF-8" standalone="no"?>
<!DOCTYPE svg PUBLIC "-//W3C//DTD SVG 1.1//EN"
 "http://www.w3.org/Graphics/SVG/1.1/DTD/svg11.dtd">
<!-- Generated by graphviz version 14.1.2 (20260124.0452)
 -->
<!-- Title: rdf_graph Pages: 1 -->
<svg width="1319pt" height="564pt"
 viewBox="0.00 0.00 1319.00 564.00" xmlns="http://www.w3.org/2000/svg" xmlns:xlink="http://www.w3.org/1999/xlink">
<g id="graph0" class="graph" transform="scale(1 1) rotate(0) translate(25.2 539.2)">
<title>rdf_graph</title>
<polygon fill="white" stroke="none" points="-25.2,25.2 -25.2,-539.2 1293.45,-539.2 1293.45,25.2 -25.2,25.2"/>
<g id="clust1" class="cluster">
<title>cluster_workflow</title>
<path fill="white" stroke="#93c5fd" stroke-width="1.2" stroke-dasharray="5,2" d="M20,-159C20,-159 690.62,-159 690.62,-159 696.62,-159 702.62,-165 702.62,-171 702.62,-171 702.62,-404 702.62,-404 702.62,-410 696.62,-416 690.62,-416 690.62,-416 20,-416 20,-416 14,-416 8,-410 8,-404 8,-404 8,-171 8,-171 8,-165 14,-159 20,-159"/>
<text xml:space="preserve" text-anchor="middle" x="355.31" y="-398.7" font-family="Times New Roman,serif" font-size="14.00">Workflow / Agents</text>
</g>
<g id="clust2" class="cluster">
<title>cluster_decision</title>
<path fill="white" stroke="#a5b4fc" stroke-width="1.2" stroke-dasharray="5,2" d="M543.5,-74C543.5,-74 724.75,-74 724.75,-74 730.75,-74 736.75,-80 736.75,-86 736.75,-86 736.75,-139 736.75,-139 736.75,-145 730.75,-151 724.75,-151 724.75,-151 543.5,-151 543.5,-151 537.5,-151 531.5,-145 531.5,-139 531.5,-139 531.5,-86 531.5,-86 531.5,-80 537.5,-74 543.5,-74"/>
<text xml:space="preserve" text-anchor="middle" x="634.12" y="-133.7" font-family="Times New Roman,serif" font-size="14.00">Decision</text>
</g>
<g id="clust3" class="cluster">
<title>cluster_theme</title>
<path fill="white" stroke="#86efac" stroke-width="1.2" stroke-dasharray="5,2" d="M889.25,-44C889.25,-44 1248.25,-44 1248.25,-44 1254.25,-44 1260.25,-50 1260.25,-56 1260.25,-56 1260.25,-139 1260.25,-139 1260.25,-145 1254.25,-151 1248.25,-151 1248.25,-151 889.25,-151 889.25,-151 883.25,-151 877.25,-145 877.25,-139 877.25,-139 877.25,-56 877.25,-56 877.25,-50 883.25,-44 889.25,-44"/>
<text xml:space="preserve" text-anchor="middle" x="1068.75" y="-133.7" font-family="Times New Roman,serif" font-size="14.00">Theme / Thesis</text>
</g>
<g id="clust4" class="cluster">
<title>cluster_document</title>
<path fill="white" stroke="#f9a8d4" stroke-width="1.2" stroke-dasharray="5,2" d="M23.38,-429C23.38,-429 347.12,-429 347.12,-429 353.12,-429 359.12,-435 359.12,-441 359.12,-441 359.12,-494 359.12,-494 359.12,-500 353.12,-506 347.12,-506 347.12,-506 23.38,-506 23.38,-506 17.38,-506 11.38,-500 11.38,-494 11.38,-494 11.38,-441 11.38,-441 11.38,-435 17.38,-429 23.38,-429"/>
<text xml:space="preserve" text-anchor="middle" x="185.25" y="-488.7" font-family="Times New Roman,serif" font-size="14.00">Document Outcome</text>
</g>
<!-- n5099611868209198514 -->
<g id="node1" class="node">
<title>n5099611868209198514</title>
<g id="a_node1"><a xlink:title="gemini:3&#45;1&#45;flash&#45;lite">
<path fill="#dbeafe" stroke="#1d4ed8" d="M682.62,-239C682.62,-239 585.62,-239 585.62,-239 579.62,-239 573.62,-233 573.62,-227 573.62,-227 573.62,-215 573.62,-215 573.62,-209 579.62,-203 585.62,-203 585.62,-203 682.62,-203 682.62,-203 688.62,-203 694.62,-209 694.62,-215 694.62,-215 694.62,-227 694.62,-227 694.62,-233 688.62,-239 682.62,-239"/>
<text xml:space="preserve" text-anchor="middle" x="634.12" y="-216.72" font-family="Helvetica,sans-Serif" font-size="12.00">gemini:3&#45;1&#45;flash&#45;lite</text>
</a>
</g>
</g>
<!-- n5009275804066715288 -->
<g id="node2" class="node">
<title>n5009275804066715288</title>
<g id="a_node2"><a xlink:title="jdd:classification&#45;1a3d057c&#45;5044&#45;5264&#45;ae13&#45;a2e5633085b4">
<polygon fill="#dbeafe" stroke="#1d4ed8" points="354.5,-203 16,-203 16,-199 12,-199 12,-195 16,-195 16,-175 12,-175 12,-171 16,-171 16,-167 354.5,-167 354.5,-203"/>
<polyline fill="none" stroke="#1d4ed8" points="16,-199 20,-199 20,-195 16,-195"/>
<polyline fill="none" stroke="#1d4ed8" points="16,-175 20,-175 20,-171 16,-171"/>
<text xml:space="preserve" text-anchor="middle" x="185.25" y="-180.72" font-family="Helvetica,sans-Serif" font-size="12.00">jdd:classification&#45;1a3d057c&#45;5044&#45;5264&#45;ae13&#45;a2e5633085b4</text>
</a>
</g>
</g>
<!-- n5009275804066715288&#45;&gt;n5099611868209198514 -->
<g id="edge3" class="edge">
<title>n5009275804066715288&#45;&gt;n5099611868209198514</title>
<path fill="none" stroke="#334155" stroke-width="1.6" d="M347.25,-203.42C347.25,-212.28 347.25,-221 347.25,-221 347.25,-221 560.86,-221 560.86,-221"/>
<polygon fill="#334155" stroke="#334155" stroke-width="1.6" points="560.86,-224.5 570.86,-221 560.86,-217.5 560.86,-224.5"/>
<text xml:space="preserve" text-anchor="middle" x="447" y="-223.5" font-family="Helvetica,sans-Serif" font-size="10.00">wasAssociatedWith</text>
</g>
<!-- n269192580934820462 -->
<g id="node5" class="node">
<title>n269192580934820462</title>
<g id="a_node5"><a xlink:title="tres:5017817&#45;46.2025.4.02.5101&#10;&#10;subject: Gratificação de incentivo, Sistema Remuneratório e Benefícios, Servidor Público Civil, DIREITO ADMINISTRATIVO E OUTRAS MATÉRIAS DE DIREITO PÚBLICO">
<path fill="#e0e7ff" stroke="#4338ca" d="M716.75,-118C716.75,-118 551.5,-118 551.5,-118 545.5,-118 539.5,-112 539.5,-106 539.5,-106 539.5,-94 539.5,-94 539.5,-88 545.5,-82 551.5,-82 551.5,-82 716.75,-82 716.75,-82 722.75,-82 728.75,-88 728.75,-94 728.75,-94 728.75,-106 728.75,-106 728.75,-112 722.75,-118 716.75,-118"/>
<text xml:space="preserve" text-anchor="middle" x="634.12" y="-95.72" font-family="Helvetica,sans-Serif" font-size="12.00">tres:5017817&#45;46.2025.4.02.5101</text>
</a>
</g>
</g>
<!-- n5009275804066715288&#45;&gt;n269192580934820462 -->
<g id="edge2" class="edge">
<title>n5009275804066715288&#45;&gt;n269192580934820462</title>
<path fill="none" stroke="#334155" stroke-width="1.6" d="M354.74,-179C452.5,-179 556.25,-179 556.25,-179 556.25,-179 556.25,-130.74 556.25,-130.74"/>
<polygon fill="#334155" stroke="#334155" stroke-width="1.6" points="559.75,-130.74 556.25,-120.74 552.75,-130.74 559.75,-130.74"/>
<text xml:space="preserve" text-anchor="middle" x="447" y="-127.5" font-family="Helvetica,sans-Serif" font-size="10.00">used</text>
</g>
<!-- n2381437638039233371 -->
<g id="node6" class="node">
<title>n2381437638039233371</title>
<g id="a_node6"><a xlink:title="Tema 16 &#45; Julgado">
<path fill="#dcfce7" stroke="#15803d" d="M1240.25,-103C1240.25,-103 1150,-103 1150,-103 1144,-103 1138,-97 1138,-91 1138,-91 1138,-79 1138,-79 1138,-73 1144,-67 1150,-67 1150,-67 1240.25,-67 1240.25,-67 1246.25,-67 1252.25,-73 1252.25,-79 1252.25,-79 1252.25,-91 1252.25,-91 1252.25,-97 1246.25,-103 1240.25,-103"/>
<text xml:space="preserve" text-anchor="middle" x="1195.12" y="-80.72" font-family="Helvetica,sans-Serif" font-size="12.00">Tema 16 &#45; Julgado</text>
</a>
</g>
</g>
<!-- n5009275804066715288&#45;&gt;n2381437638039233371 -->
<g id="edge1" class="edge">
<title>n5009275804066715288&#45;&gt;n2381437638039233371</title>
<path fill="none" stroke="#334155" stroke-width="1.6" d="M354.87,-191C642.55,-191 1195.25,-191 1195.25,-191 1195.25,-191 1195.25,-115.89 1195.25,-115.89"/>
<polygon fill="#334155" stroke="#334155" stroke-width="1.6" points="1198.75,-115.89 1195.25,-105.89 1191.75,-115.89 1198.75,-115.89"/>
<text xml:space="preserve" text-anchor="middle" x="807" y="-2.5" font-family="Helvetica,sans-Serif" font-size="10.00">used</text>
</g>
<!-- n4308472333406374237 -->
<g id="node3" class="node">
<title>n4308472333406374237</title>
<g id="a_node3"><a xlink:title="jdd:pipeline">
<path fill="#dbeafe" stroke="#1d4ed8" d="M212.38,-293C212.38,-293 158.12,-293 158.12,-293 152.12,-293 146.12,-287 146.12,-281 146.12,-281 146.12,-269 146.12,-269 146.12,-263 152.12,-257 158.12,-257 158.12,-257 212.38,-257 212.38,-257 218.38,-257 224.38,-263 224.38,-269 224.38,-269 224.38,-281 224.38,-281 224.38,-287 218.38,-293 212.38,-293"/>
<text xml:space="preserve" text-anchor="middle" x="185.25" y="-270.73" font-family="Helvetica,sans-Serif" font-size="12.00">jdd:pipeline</text>
</a>
</g>
</g>
<!-- n1812625129787256500 -->
<g id="node4" class="node">
<title>n1812625129787256500</title>
<g id="a_node4"><a xlink:title="jdd:pipeline&#45;run&#45;691103ab&#45;64fe&#45;5cb1&#45;8fe7&#45;1f6f21ae865c">
<path fill="#dbeafe" stroke="#1d4ed8" d="M331.62,-383C331.62,-383 38.88,-383 38.88,-383 32.88,-383 26.88,-377 26.88,-371 26.88,-371 26.88,-359 26.88,-359 26.88,-353 32.88,-347 38.88,-347 38.88,-347 331.62,-347 331.62,-347 337.62,-347 343.62,-353 343.62,-359 343.62,-359 343.62,-371 343.62,-371 343.62,-377 337.62,-383 331.62,-383"/>
<text xml:space="preserve" text-anchor="middle" x="185.25" y="-360.73" font-family="Helvetica,sans-Serif" font-size="12.00">jdd:pipeline&#45;run&#45;691103ab&#45;64fe&#45;5cb1&#45;8fe7&#45;1f6f21ae865c</text>
</a>
</g>
</g>
<!-- n7236846215340469957 -->
<g id="node7" class="node">
<title>n7236846215340469957</title>
<g id="a_node7"><a xlink:title="Theme 16 Thesis&#10;&#10;description: A eficácia da progressão funcional deve ser observada segundo a situação individual de cada servidor e seus efeitos retroagem ao momento em que os requisitos legais foram implementados. Vide Tema 82 e PEDILEF n. 50036...">
<path fill="#ecfccb" stroke="#4d7c0f" d="M982.25,-118C982.25,-118 897.25,-118 897.25,-118 891.25,-118 885.25,-112 885.25,-106 885.25,-106 885.25,-94 885.25,-94 885.25,-88 891.25,-82 897.25,-82 897.25,-82 982.25,-82 982.25,-82 988.25,-82 994.25,-88 994.25,-94 994.25,-94 994.25,-106 994.25,-106 994.25,-112 988.25,-118 982.25,-118"/>
<text xml:space="preserve" text-anchor="middle" x="939.75" y="-95.72" font-family="Helvetica,sans-Serif" font-size="12.00">Theme 16 Thesis</text>
</a>
</g>
</g>
<!-- n269192580934820462&#45;&gt;n7236846215340469957 -->
<g id="edge5" class="edge">
<title>n269192580934820462&#45;&gt;n7236846215340469957</title>
<path fill="none" stroke="#334155" stroke-width="1.6" d="M729.15,-100C729.15,-100 872.44,-100 872.44,-100"/>
<polygon fill="#334155" stroke="#334155" stroke-width="1.6" points="872.44,-103.5 882.44,-100 872.44,-96.5 872.44,-103.5"/>
<text xml:space="preserve" text-anchor="middle" x="807" y="-102.5" font-family="Helvetica,sans-Serif" font-size="10.00">adoptsThesis</text>
</g>
<!-- n7236846215340469957&#45;&gt;n2381437638039233371 -->
<g id="edge4" class="edge">
<title>n7236846215340469957&#45;&gt;n2381437638039233371</title>
<path fill="none" stroke="#334155" stroke-width="1.6" d="M994.53,-92.5C994.53,-92.5 1125.35,-92.5 1125.35,-92.5"/>
<polygon fill="#334155" stroke="#334155" stroke-width="1.6" points="1125.35,-96 1135.35,-92.5 1125.35,-89 1125.35,-96"/>
<text xml:space="preserve" text-anchor="middle" x="1066.12" y="-108.5" font-family="Helvetica,sans-Serif" font-size="10.00">hasTheme</text>
</g>
<!-- n5534250910001424065 -->
<g id="node8" class="node">
<title>n5534250910001424065</title>
<g id="a_node8"><a xlink:title="jdd:admissibility&#45;dc2b021a&#45;f64e&#45;575d&#45;8b86&#45;dd8966eb00ae">
<path fill="#fce7f3" stroke="#be185d" d="M339.12,-473C339.12,-473 31.38,-473 31.38,-473 25.38,-473 19.38,-467 19.38,-461 19.38,-461 19.38,-449 19.38,-449 19.38,-443 25.38,-437 31.38,-437 31.38,-437 339.12,-437 339.12,-437 345.12,-437 351.12,-443 351.12,-449 351.12,-449 351.12,-461 351.12,-461 351.12,-467 345.12,-473 339.12,-473"/>
<text xml:space="preserve" text-anchor="middle" x="185.25" y="-450.73" font-family="Helvetica,sans-Serif" font-size="12.00">jdd:admissibility&#45;dc2b021a&#45;f64e&#45;575d&#45;8b86&#45;dd8966eb00ae</text>
</a>
</g>
</g>
</g>
</svg>
