<?xml version="1.0" encoding="UTF-8" standalone="no"?>
<!DOCTYPE svg PUBLIC "-//W3C//DTD SVG 1.1//EN"
 "http://www.w3.org/Graphics/SVG/1.1/DTD/svg11.dtd">
<!-- Generated by graphviz version 14.1.2 (20260124.0452)
 -->
<!-- Title: rdf_graph Pages: 1 -->
<svg width="1305pt" height="564pt"
 viewBox="0.00 0.00 1305.00 564.00" xmlns="http://www.w3.org/2000/svg" xmlns:xlink="http://www.w3.org/1999/xlink">
<g id="graph0" class="graph" transform="scale(1 1) rotate(0) translate(25.2 539.2)">
<title>rdf_graph</title>
<polygon fill="white" stroke="none" points="-25.2,25.2 -25.2,-539.2 1279.95,-539.2 1279.95,25.2 -25.2,25.2"/>
<g id="clust1" class="cluster">
<title>cluster_workflow</title>
<path fill="white" stroke="#93c5fd" stroke-width="1.2" stroke-dasharray="5,2" d="M20,-159C20,-159 690.62,-159 690.62,-159 696.62,-159 702.62,-165 702.62,-171 702.62,-171 702.62,-404 702.62,-404 702.62,-410 696.62,-416 690.62,-416 690.62,-416 20,-416 20,-416 14,-416 8,-410 8,-404 8,-404 8,-171 8,-171 8,-165 14,-159 20,-159"/>
<text xml:space="preserve" text-anchor="middle" x="355.31" y="-398.7" font-family="Times New Roman,serif" font-size="14.00">Workflow / Agents</text>
</g>
<g id="clust2" class="cluster">
<title>cluster_decision</title>
<path fill="white" stroke="#a5b4fc" stroke-width="1.2" stroke-dasharray="5,2" d="M543.5,-74C543.5,-74 724.75,-74 724.75,-74 730.75,-74 736.75,-80 736.75,-86 736.75,-86 736.75,-139 736.75,-139 736.75,-145 730.75,-151 724.75,-151 724.75,-151 543.5,-151 543.5,-151 537.5,-151 531.5,-145 531.5,-139 531.5,-139 531.5,-86 531.5,-86 531.5,-80 537.5,-74 543.5,-74"/>
<text xml:space="preserve" text-anchor="middle" x="634.12" y="-133.7" font-family="Times New Roman,serif" font-size="14.00">Decision</text>
</g>
<g id="clust3" class="cluster">
<title>cluster_theme</title>
<path fill="white" stroke="#86efac" stroke-width="1.2" stroke-dasharray="5,2" d="M889.25,-44C889.25,-44 1234.75,-44 1234.75,-44 1240.75,-44 1246.75,-50 1246.75,-56 1246.75,-56 1246.75,-139 1246.75,-139 1246.75,-145 1240.75,-151 1234.75,-151 1234.75,-151 889.25,-151 889.25,-151 883.25,-151 877.25,-145 877.25,-139 877.25,-139 877.25,-56 877.25,-56 877.25,-50 883.25,-44 889.25,-44"/>
<text xml:space="preserve" text-anchor="middle" x="1062" y="-133.7" font-family="Times New Roman,serif" font-size="14.00">Theme / Thesis</text>
</g>
<g id="clust4" class="cluster">
<title>cluster_document</title>
<path fill="white" stroke="#f9a8d4" stroke-width="1.2" stroke-dasharray="5,2" d="M27.12,-429C27.12,-429 343.38,-429 343.38,-429 349.38,-429 355.38,-435 355.38,-441 355.38,-441 355.38,-494 355.38,-494 355.38,-500 349.38,-506 343.38,-506 343.38,-506 27.12,-506 27.12,-506 21.12,-506 15.12,-500 15.12,-494 15.12,-494 15.12,-441 15.12,-441 15.12,-435 21.12,-429 27.12,-429"/>
<text xml:space="preserve" text-anchor="middle" x="185.25" y="-488.7" font-family="Times New Roman,serif" font-size="14.00">Document Outcome</text>
</g>
<!-- n5099611868209198514 -->
<g id="node1" class="node">
<title>n5099611868209198514</title>
<g id="a_node1"><a xlink:title="gemini:3&#45;1&#45;flash&#45;lite">
<path fill="#dbeafe" stroke="#1d4ed8" d="M682.62,-239C682.62,-239 585.62,-239 585.62,-239 579.62,-239 573.62,-233 573.62,-227 573.62,-227 573.62,-215 573.62,-215 573.62,-209 579.62,-203 585.62,-203 585.62,-203 682.62,-203 682.62,-203 688.62,-203 694.62,-209 694.62,-215 694.62,-215 694.62,-227 694.62,-227 694.62,-233 688.62,-239 682.62,-239"/>
<text xml:space="preserve" text-anchor="middle" x="634.12" y="-216.72" font-family="Helvetica,sans-Serif" font-size="12.00">gemini:3&#45;1&#45;flash&#45;lite</text>
</a>
</g>
</g>
<!-- n6429541959880591789 -->
<g id="node2" class="node">
<title>n6429541959880591789</title>
<g id="a_node2"><a xlink:title="jdd:classification&#45;38b7379e&#45;7062&#45;54e0&#45;8d58&#45;b6bc5e561285">
<polygon fill="#dbeafe" stroke="#1d4ed8" points="354.5,-203 16,-203 16,-199 12,-199 12,-195 16,-195 16,-175 12,-175 12,-171 16,-171 16,-167 354.5,-167 354.5,-203"/>
<polyline fill="none" stroke="#1d4ed8" points="16,-199 20,-199 20,-195 16,-195"/>
<polyline fill="none" stroke="#1d4ed8" points="16,-175 20,-175 20,-171 16,-171"/>
<text xml:space="preserve" text-anchor="middle" x="185.25" y="-180.72" font-family="Helvetica,sans-Serif" font-size="12.00">jdd:classification&#45;38b7379e&#45;7062&#45;54e0&#45;8d58&#45;b6bc5e561285</text>
</a>
</g>
</g>
<!-- n6429541959880591789&#45;&gt;n5099611868209198514 -->
<g id="edge3" class="edge">
<title>n6429541959880591789&#45;&gt;n5099611868209198514</title>
<path fill="none" stroke="#334155" stroke-width="1.6" d="M350.75,-203.42C350.75,-212.28 350.75,-221 350.75,-221 350.75,-221 560.91,-221 560.91,-221"/>
<polygon fill="#334155" stroke="#334155" stroke-width="1.6" points="560.91,-224.5 570.91,-221 560.91,-217.5 560.91,-224.5"/>
<text xml:space="preserve" text-anchor="middle" x="447" y="-223.5" font-family="Helvetica,sans-Serif" font-size="10.00">wasAssociatedWith</text>
</g>
<!-- n2973592830960893356 -->
<g id="node5" class="node">
<title>n2973592830960893356</title>
<g id="a_node5"><a xlink:title="tres:5019552&#45;17.2025.4.02.5101&#10;&#10;subject: CND/Certidão Negativa de Débito, Crédito Tributário, DIREITO TRIBUTÁRIO">
<path fill="#e0e7ff" stroke="#4338ca" d="M716.75,-118C716.75,-118 551.5,-118 551.5,-118 545.5,-118 539.5,-112 539.5,-106 539.5,-106 539.5,-94 539.5,-94 539.5,-88 545.5,-82 551.5,-82 551.5,-82 716.75,-82 716.75,-82 722.75,-82 728.75,-88 728.75,-94 728.75,-94 728.75,-106 728.75,-106 728.75,-112 722.75,-118 716.75,-118"/>
<text xml:space="preserve" text-anchor="middle" x="634.12" y="-95.72" font-family="Helvetica,sans-Serif" font-size="12.00">tres:5019552&#45;17.2025.4.02.5101</text>
</a>
</g>
</g>
<!-- n6429541959880591789&#45;&gt;n2973592830960893356 -->
<g id="edge2" class="edge">
<title>n6429541959880591789&#45;&gt;n2973592830960893356</title>
<path fill="none" stroke="#334155" stroke-width="1.6" d="M354.96,-179C452.86,-179 556.75,-179 556.75,-179 556.75,-179 556.75,-130.74 556.75,-130.74"/>
<polygon fill="#334155" stroke="#334155" stroke-width="1.6" points="560.25,-130.74 556.75,-120.74 553.25,-130.74 560.25,-130.74"/>
<text xml:space="preserve" text-anchor="middle" x="447" y="-127.5" font-family="Helvetica,sans-Serif" font-size="10.00">used</text>
</g>
<!-- n4985406703804793780 -->
<g id="node6" class="node">
<title>n4985406703804793780</title>
<g id="a_node6"><a xlink:title="Tema 2 &#45; Julgado">
<path fill="#dcfce7" stroke="#15803d" d="M1226.75,-103C1226.75,-103 1143.25,-103 1143.25,-103 1137.25,-103 1131.25,-97 1131.25,-91 1131.25,-91 1131.25,-79 1131.25,-79 1131.25,-73 1137.25,-67 1143.25,-67 1143.25,-67 1226.75,-67 1226.75,-67 1232.75,-67 1238.75,-73 1238.75,-79 1238.75,-79 1238.75,-91 1238.75,-91 1238.75,-97 1232.75,-103 1226.75,-103"/>
<text xml:space="preserve" text-anchor="middle" x="1185" y="-80.72" font-family="Helvetica,sans-Serif" font-size="12.00">Tema 2 &#45; Julgado</text>
</a>
</g>
</g>
<!-- n6429541959880591789&#45;&gt;n4985406703804793780 -->
<g id="edge1" class="edge">
<title>n6429541959880591789&#45;&gt;n4985406703804793780</title>
<path fill="none" stroke="#334155" stroke-width="1.6" d="M354.8,-191C639.96,-191 1184.75,-191 1184.75,-191 1184.75,-191 1184.75,-115.89 1184.75,-115.89"/>
<polygon fill="#334155" stroke="#334155" stroke-width="1.6" points="1188.25,-115.89 1184.75,-105.89 1181.25,-115.89 1188.25,-115.89"/>
<text xml:space="preserve" text-anchor="middle" x="807" y="-2.5" font-family="Helvetica,sans-Serif" font-size="10.00">used</text>
</g>
<!-- n4308472333406374237 -->
<g id="node3" class="node">
<title>n4308472333406374237</title>
<g id="a_node3"><a xlink:title="jdd:pipeline">
<path fill="#dbeafe" stroke="#1d4ed8" d="M212.38,-293C212.38,-293 158.12,-293 158.12,-293 152.12,-293 146.12,-287 146.12,-281 146.12,-281 146.12,-269 146.12,-269 146.12,-263 152.12,-257 158.12,-257 158.12,-257 212.38,-257 212.38,-257 218.38,-257 224.38,-263 224.38,-269 224.38,-269 224.38,-281 224.38,-281 224.38,-287 218.38,-293 212.38,-293"/>
<text xml:space="preserve" text-anchor="middle" x="185.25" y="-270.73" font-family="Helvetica,sans-Serif" font-size="12.00">jdd:pipeline</text>
</a>
</g>
</g>
<!-- n1812625129787256500 -->
<g id="node4" class="node">
<title>n1812625129787256500</title>
<g id="a_node4"><a xlink:title="jdd:pipeline&#45;run&#45;691103ab&#45;64fe&#45;5cb1&#45;8fe7&#45;1f6f21ae865c">
<path fill="#dbeafe" stroke="#1d4ed8" d="M331.62,-383C331.62,-383 38.88,-383 38.88,-383 32.88,-383 26.88,-377 26.88,-371 26.88,-371 26.88,-359 26.88,-359 26.88,-353 32.88,-347 38.88,-347 38.88,-347 331.62,-347 331.62,-347 337.62,-347 343.62,-353 343.62,-359 343.62,-359 343.62,-371 343.62,-371 343.62,-377 337.62,-383 331.62,-383"/>
<text xml:space="preserve" text-anchor="middle" x="185.25" y="-360.73" font-family="Helvetica,sans-Serif" font-size="12.00">jdd:pipeline&#45;run&#45;691103ab&#45;64fe&#45;5cb1&#45;8fe7&#45;1f6f21ae865c</text>
</a>
</g>
</g>
<!-- n3076704626938070760 -->
<g id="node7" class="node">
<title>n3076704626938070760</title>
<g id="a_node7"><a xlink:title="Theme 2 Thesis&#10;&#10;description: No caso de aposentadoria por idade rural, a certidão de casamento vale como início de prova material, ainda que extemporânea.">
<path fill="#ecfccb" stroke="#4d7c0f" d="M975.5,-118C975.5,-118 897.25,-118 897.25,-118 891.25,-118 885.25,-112 885.25,-106 885.25,-106 885.25,-94 885.25,-94 885.25,-88 891.25,-82 897.25,-82 897.25,-82 975.5,-82 975.5,-82 981.5,-82 987.5,-88 987.5,-94 987.5,-94 987.5,-106 987.5,-106 987.5,-112 981.5,-118 975.5,-118"/>
<text xml:space="preserve" text-anchor="middle" x="936.38" y="-95.72" font-family="Helvetica,sans-Serif" font-size="12.00">Theme 2 Thesis</text>
</a>
</g>
</g>
<!-- n2973592830960893356&#45;&gt;n3076704626938070760 -->
<g id="edge5" class="edge">
<title>n2973592830960893356&#45;&gt;n3076704626938070760</title>
<path fill="none" stroke="#334155" stroke-width="1.6" d="M728.93,-100C728.93,-100 872.57,-100 872.57,-100"/>
<polygon fill="#334155" stroke="#334155" stroke-width="1.6" points="872.57,-103.5 882.57,-100 872.57,-96.5 872.57,-103.5"/>
<text xml:space="preserve" text-anchor="middle" x="807" y="-102.5" font-family="Helvetica,sans-Serif" font-size="10.00">adoptsThesis</text>
</g>
<!-- n3076704626938070760&#45;&gt;n4985406703804793780 -->
<g id="edge4" class="edge">
<title>n3076704626938070760&#45;&gt;n4985406703804793780</title>
<path fill="none" stroke="#334155" stroke-width="1.6" d="M987.89,-92.5C987.89,-92.5 1118.55,-92.5 1118.55,-92.5"/>
<polygon fill="#334155" stroke="#334155" stroke-width="1.6" points="1118.55,-96 1128.55,-92.5 1118.55,-89 1118.55,-96"/>
<text xml:space="preserve" text-anchor="middle" x="1059.38" y="-108.5" font-family="Helvetica,sans-Serif" font-size="10.00">hasTheme</text>
</g>
<!-- n1427611191395939954 -->
<g id="node8" class="node">
<title>n1427611191395939954</title>
<g id="a_node8"><a xlink:title="jdd:admissibility&#45;d4a6efd2&#45;b56e&#45;5780&#45;92ff&#45;2d3468137c8d">
<path fill="#fce7f3" stroke="#be185d" d="M335.38,-473C335.38,-473 35.12,-473 35.12,-473 29.12,-473 23.12,-467 23.12,-461 23.12,-461 23.12,-449 23.12,-449 23.12,-443 29.12,-437 35.12,-437 35.12,-437 335.38,-437 335.38,-437 341.38,-437 347.38,-443 347.38,-449 347.38,-449 347.38,-461 347.38,-461 347.38,-467 341.38,-473 335.38,-473"/>
<text xml:space="preserve" text-anchor="middle" x="185.25" y="-450.73" font-family="Helvetica,sans-Serif" font-size="12.00">jdd:admissibility&#45;d4a6efd2&#45;b56e&#45;5780&#45;92ff&#45;2d3468137c8d</text>
</a>
</g>
</g>
</g>
</svg>
