<?xml version="1.0" encoding="UTF-8" standalone="no"?>
<!DOCTYPE svg PUBLIC "-//W3C//DTD SVG 1.1//EN"
 "http://www.w3.org/Graphics/SVG/1.1/DTD/svg11.dtd">
<!-- Generated by graphviz version 14.1.2 (20260124.0452)
 -->
<!-- Title: rdf_graph Pages: 1 -->
<svg width="1390pt" height="564pt"
 viewBox="0.00 0.00 1390.00 564.00" xmlns="http://www.w3.org/2000/svg" xmlns:xlink="http://www.w3.org/1999/xlink">
<g id="graph0" class="graph" transform="scale(1 1) rotate(0) translate(25.2 539.2)">
<title>rdf_graph</title>
<polygon fill="white" stroke="none" points="-25.2,25.2 -25.2,-539.2 1364.7,-539.2 1364.7,25.2 -25.2,25.2"/>
<g id="clust1" class="cluster">
<title>cluster_workflow</title>
<path fill="white" stroke="#93c5fd" stroke-width="1.2" stroke-dasharray="5,2" d="M20,-159C20,-159 669.62,-159 669.62,-159 675.62,-159 681.62,-165 681.62,-171 681.62,-171 681.62,-404 681.62,-404 681.62,-410 675.62,-416 669.62,-416 669.62,-416 20,-416 20,-416 14,-416 8,-410 8,-404 8,-404 8,-171 8,-171 8,-165 14,-159 20,-159"/>
<text xml:space="preserve" text-anchor="middle" x="344.81" y="-398.7" font-family="Times New Roman,serif" font-size="14.00">Workflow / Agents</text>
</g>
<g id="clust2" class="cluster">
<title>cluster_decision</title>
<path fill="white" stroke="#a5b4fc" stroke-width="1.2" stroke-dasharray="5,2" d="M522.5,-74C522.5,-74 703.75,-74 703.75,-74 709.75,-74 715.75,-80 715.75,-86 715.75,-86 715.75,-139 715.75,-139 715.75,-145 709.75,-151 703.75,-151 703.75,-151 522.5,-151 522.5,-151 516.5,-151 510.5,-145 510.5,-139 510.5,-139 510.5,-86 510.5,-86 510.5,-80 516.5,-74 522.5,-74"/>
<text xml:space="preserve" text-anchor="middle" x="613.12" y="-133.7" font-family="Times New Roman,serif" font-size="14.00">Decision</text>
</g>
<g id="clust3" class="cluster">
<title>cluster_theme</title>
<path fill="white" stroke="#86efac" stroke-width="1.2" stroke-dasharray="5,2" d="M868.25,-44C868.25,-44 1319.5,-44 1319.5,-44 1325.5,-44 1331.5,-50 1331.5,-56 1331.5,-56 1331.5,-139 1331.5,-139 1331.5,-145 1325.5,-151 1319.5,-151 1319.5,-151 868.25,-151 868.25,-151 862.25,-151 856.25,-145 856.25,-139 856.25,-139 856.25,-56 856.25,-56 856.25,-50 862.25,-44 868.25,-44"/>
<text xml:space="preserve" text-anchor="middle" x="1093.88" y="-133.7" font-family="Times New Roman,serif" font-size="14.00">Theme / Thesis</text>
</g>
<g id="clust4" class="cluster">
<title>cluster_document</title>
<path fill="white" stroke="#f9a8d4" stroke-width="1.2" stroke-dasharray="5,2" d="M22.25,-429C22.25,-429 327.25,-429 327.25,-429 333.25,-429 339.25,-435 339.25,-441 339.25,-441 339.25,-494 339.25,-494 339.25,-500 333.25,-506 327.25,-506 327.25,-506 22.25,-506 22.25,-506 16.25,-506 10.25,-500 10.25,-494 10.25,-494 10.25,-441 10.25,-441 10.25,-435 16.25,-429 22.25,-429"/>
<text xml:space="preserve" text-anchor="middle" x="174.75" y="-488.7" font-family="Times New Roman,serif" font-size="14.00">Document Outcome</text>
</g>
<!-- n5099611868209198514 -->
<g id="node1" class="node">
<title>n5099611868209198514</title>
<g id="a_node1"><a xlink:title="gemini:3&#45;1&#45;flash&#45;lite">
<path fill="#dbeafe" stroke="#1d4ed8" d="M661.62,-239C661.62,-239 564.62,-239 564.62,-239 558.62,-239 552.62,-233 552.62,-227 552.62,-227 552.62,-215 552.62,-215 552.62,-209 558.62,-203 564.62,-203 564.62,-203 661.62,-203 661.62,-203 667.62,-203 673.62,-209 673.62,-215 673.62,-215 673.62,-227 673.62,-227 673.62,-233 667.62,-239 661.62,-239"/>
<text xml:space="preserve" text-anchor="middle" x="613.12" y="-216.72" font-family="Helvetica,sans-Serif" font-size="12.00">gemini:3&#45;1&#45;flash&#45;lite</text>
</a>
</g>
</g>
<!-- n4865876035614724592 -->
<g id="node2" class="node">
<title>n4865876035614724592</title>
<g id="a_node2"><a xlink:title="jdd:classification&#45;41edc8ce&#45;3391&#45;56ff&#45;9594&#45;47cf11228ff0">
<polygon fill="#dbeafe" stroke="#1d4ed8" points="333.5,-203 16,-203 16,-199 12,-199 12,-195 16,-195 16,-175 12,-175 12,-171 16,-171 16,-167 333.5,-167 333.5,-203"/>
<polyline fill="none" stroke="#1d4ed8" points="16,-199 20,-199 20,-195 16,-195"/>
<polyline fill="none" stroke="#1d4ed8" points="16,-175 20,-175 20,-171 16,-171"/>
<text xml:space="preserve" text-anchor="middle" x="174.75" y="-180.72" font-family="Helvetica,sans-Serif" font-size="12.00">jdd:classification&#45;41edc8ce&#45;3391&#45;56ff&#45;9594&#45;47cf11228ff0</text>
</a>
</g>
</g>
<!-- n4865876035614724592&#45;&gt;n5099611868209198514 -->
<g id="edge3" class="edge">
<title>n4865876035614724592&#45;&gt;n5099611868209198514</title>
<path fill="none" stroke="#334155" stroke-width="1.6" d="M273.5,-203.42C273.5,-212.28 273.5,-221 273.5,-221 273.5,-221 539.99,-221 539.99,-221"/>
<polygon fill="#334155" stroke="#334155" stroke-width="1.6" points="539.99,-224.5 549.99,-221 539.99,-217.5 539.99,-224.5"/>
<text xml:space="preserve" text-anchor="middle" x="426" y="-223.5" font-family="Helvetica,sans-Serif" font-size="10.00">wasAssociatedWith</text>
</g>
<!-- n9111418409465193271 -->
<g id="node5" class="node">
<title>n9111418409465193271</title>
<g id="a_node5"><a xlink:title="tres:5018130&#45;07.2025.4.02.5101&#10;&#10;subject: Assistência Social, Garantias Constitucionais, DIREITO ADMINISTRATIVO E OUTRAS MATÉRIAS DE DIREITO PÚBLICO, Bolsa Família (Lei 14.601/2023), DIREITO ASSISTENCIAL">
<path fill="#e0e7ff" stroke="#4338ca" d="M695.75,-118C695.75,-118 530.5,-118 530.5,-118 524.5,-118 518.5,-112 518.5,-106 518.5,-106 518.5,-94 518.5,-94 518.5,-88 524.5,-82 530.5,-82 530.5,-82 695.75,-82 695.75,-82 701.75,-82 707.75,-88 707.75,-94 707.75,-94 707.75,-106 707.75,-106 707.75,-112 701.75,-118 695.75,-118"/>
<text xml:space="preserve" text-anchor="middle" x="613.12" y="-95.72" font-family="Helvetica,sans-Serif" font-size="12.00">tres:5018130&#45;07.2025.4.02.5101</text>
</a>
</g>
</g>
<!-- n4865876035614724592&#45;&gt;n9111418409465193271 -->
<g id="edge2" class="edge">
<title>n4865876035614724592&#45;&gt;n9111418409465193271</title>
<path fill="none" stroke="#334155" stroke-width="1.6" d="M333.77,-179C430.48,-179 535.5,-179 535.5,-179 535.5,-179 535.5,-130.74 535.5,-130.74"/>
<polygon fill="#334155" stroke="#334155" stroke-width="1.6" points="539,-130.74 535.5,-120.74 532,-130.74 539,-130.74"/>
<text xml:space="preserve" text-anchor="middle" x="426" y="-127.5" font-family="Helvetica,sans-Serif" font-size="10.00">used</text>
</g>
<!-- n5209161322203167454 -->
<g id="node6" class="node">
<title>n5209161322203167454</title>
<g id="a_node6"><a xlink:title="Tema 10 &#45; Julgado &#45; TEMA 350/STF">
<path fill="#dcfce7" stroke="#15803d" d="M1311.5,-103C1311.5,-103 1129,-103 1129,-103 1123,-103 1117,-97 1117,-91 1117,-91 1117,-79 1117,-79 1117,-73 1123,-67 1129,-67 1129,-67 1311.5,-67 1311.5,-67 1317.5,-67 1323.5,-73 1323.5,-79 1323.5,-79 1323.5,-91 1323.5,-91 1323.5,-97 1317.5,-103 1311.5,-103"/>
<text xml:space="preserve" text-anchor="middle" x="1220.25" y="-80.72" font-family="Helvetica,sans-Serif" font-size="12.00">Tema 10 &#45; Julgado &#45; TEMA 350/STF</text>
</a>
</g>
</g>
<!-- n4865876035614724592&#45;&gt;n5209161322203167454 -->
<g id="edge1" class="edge">
<title>n4865876035614724592&#45;&gt;n5209161322203167454</title>
<path fill="none" stroke="#334155" stroke-width="1.6" d="M333.86,-191C626.51,-191 1220.5,-191 1220.5,-191 1220.5,-191 1220.5,-115.89 1220.5,-115.89"/>
<polygon fill="#334155" stroke="#334155" stroke-width="1.6" points="1224,-115.89 1220.5,-105.89 1217,-115.89 1224,-115.89"/>
<text xml:space="preserve" text-anchor="middle" x="786" y="-2.5" font-family="Helvetica,sans-Serif" font-size="10.00">used</text>
</g>
<!-- n4308472333406374237 -->
<g id="node3" class="node">
<title>n4308472333406374237</title>
<g id="a_node3"><a xlink:title="jdd:pipeline">
<path fill="#dbeafe" stroke="#1d4ed8" d="M201.88,-293C201.88,-293 147.62,-293 147.62,-293 141.62,-293 135.62,-287 135.62,-281 135.62,-281 135.62,-269 135.62,-269 135.62,-263 141.62,-257 147.62,-257 147.62,-257 201.88,-257 201.88,-257 207.88,-257 213.88,-263 213.88,-269 213.88,-269 213.88,-281 213.88,-281 213.88,-287 207.88,-293 201.88,-293"/>
<text xml:space="preserve" text-anchor="middle" x="174.75" y="-270.73" font-family="Helvetica,sans-Serif" font-size="12.00">jdd:pipeline</text>
</a>
</g>
</g>
<!-- n1812625129787256500 -->
<g id="node4" class="node">
<title>n1812625129787256500</title>
<g id="a_node4"><a xlink:title="jdd:pipeline&#45;run&#45;691103ab&#45;64fe&#45;5cb1&#45;8fe7&#45;1f6f21ae865c">
<path fill="#dbeafe" stroke="#1d4ed8" d="M321.12,-383C321.12,-383 28.38,-383 28.38,-383 22.38,-383 16.38,-377 16.38,-371 16.38,-371 16.38,-359 16.38,-359 16.38,-353 22.38,-347 28.38,-347 28.38,-347 321.12,-347 321.12,-347 327.12,-347 333.12,-353 333.12,-359 333.12,-359 333.12,-371 333.12,-371 333.12,-377 327.12,-383 321.12,-383"/>
<text xml:space="preserve" text-anchor="middle" x="174.75" y="-360.73" font-family="Helvetica,sans-Serif" font-size="12.00">jdd:pipeline&#45;run&#45;691103ab&#45;64fe&#45;5cb1&#45;8fe7&#45;1f6f21ae865c</text>
</a>
</g>
</g>
<!-- n6161943498682192425 -->
<g id="node7" class="node">
<title>n6161943498682192425</title>
<g id="a_node7"><a xlink:title="Theme 10 Thesis&#10;&#10;description: O ajuizamento de ações visando o recebimento do benefício previsto no art. 203, V, da Constituição Federal não exige a renovação bienal do requerimento administrativo, afastada a indevida analogia ao art. 21, da Lei n...">
<path fill="#ecfccb" stroke="#4d7c0f" d="M961.25,-118C961.25,-118 876.25,-118 876.25,-118 870.25,-118 864.25,-112 864.25,-106 864.25,-106 864.25,-94 864.25,-94 864.25,-88 870.25,-82 876.25,-82 876.25,-82 961.25,-82 961.25,-82 967.25,-82 973.25,-88 973.25,-94 973.25,-94 973.25,-106 973.25,-106 973.25,-112 967.25,-118 961.25,-118"/>
<text xml:space="preserve" text-anchor="middle" x="918.75" y="-95.72" font-family="Helvetica,sans-Serif" font-size="12.00">Theme 10 Thesis</text>
</a>
</g>
</g>
<!-- n9111418409465193271&#45;&gt;n6161943498682192425 -->
<g id="edge5" class="edge">
<title>n9111418409465193271&#45;&gt;n6161943498682192425</title>
<path fill="none" stroke="#334155" stroke-width="1.6" d="M708.15,-100C708.15,-100 851.44,-100 851.44,-100"/>
<polygon fill="#334155" stroke="#334155" stroke-width="1.6" points="851.44,-103.5 861.44,-100 851.44,-96.5 851.44,-103.5"/>
<text xml:space="preserve" text-anchor="middle" x="786" y="-102.5" font-family="Helvetica,sans-Serif" font-size="10.00">adoptsThesis</text>
</g>
<!-- n6161943498682192425&#45;&gt;n5209161322203167454 -->
<g id="edge4" class="edge">
<title>n6161943498682192425&#45;&gt;n5209161322203167454</title>
<path fill="none" stroke="#334155" stroke-width="1.6" d="M973.7,-92.5C973.7,-92.5 1104.16,-92.5 1104.16,-92.5"/>
<polygon fill="#334155" stroke="#334155" stroke-width="1.6" points="1104.16,-96 1114.16,-92.5 1104.16,-89 1104.16,-96"/>
<text xml:space="preserve" text-anchor="middle" x="1045.12" y="-108.5" font-family="Helvetica,sans-Serif" font-size="10.00">hasTheme</text>
</g>
<!-- n4172406710662764023 -->
<g id="node8" class="node">
<title>n4172406710662764023</title>
<g id="a_node8"><a xlink:title="jdd:admissibility&#45;2f35b8aa&#45;0efa&#45;5b1f&#45;b569&#45;8fb1f4c6f97e">
<path fill="#fce7f3" stroke="#be185d" d="M319.25,-473C319.25,-473 30.25,-473 30.25,-473 24.25,-473 18.25,-467 18.25,-461 18.25,-461 18.25,-449 18.25,-449 18.25,-443 24.25,-437 30.25,-437 30.25,-437 319.25,-437 319.25,-437 325.25,-437 331.25,-443 331.25,-449 331.25,-449 331.25,-461 331.25,-461 331.25,-467 325.25,-473 319.25,-473"/>
<text xml:space="preserve" text-anchor="middle" x="174.75" y="-450.73" font-family="Helvetica,sans-Serif" font-size="12.00">jdd:admissibility&#45;2f35b8aa&#45;0efa&#45;5b1f&#45;b569&#45;8fb1f4c6f97e</text>
</a>
</g>
</g>
</g>
</svg>
