<?xml version="1.0" encoding="UTF-8" standalone="no"?>
<!DOCTYPE svg PUBLIC "-//W3C//DTD SVG 1.1//EN"
 "http://www.w3.org/Graphics/SVG/1.1/DTD/svg11.dtd">
<!-- Generated by graphviz version 14.1.2 (20260124.0452)
 -->
<!-- Title: rdf_graph Pages: 1 -->
<svg width="1742pt" height="564pt"
 viewBox="0.00 0.00 1742.00 564.00" xmlns="http://www.w3.org/2000/svg" xmlns:xlink="http://www.w3.org/1999/xlink">
<g id="graph0" class="graph" transform="scale(1 1) rotate(0) translate(25.2 539.2)">
<title>rdf_graph</title>
<polygon fill="white" stroke="none" points="-25.2,25.2 -25.2,-539.2 1717.2,-539.2 1717.2,25.2 -25.2,25.2"/>
<g id="clust1" class="cluster">
<title>cluster_workflow</title>
<path fill="white" stroke="#93c5fd" stroke-width="1.2" stroke-dasharray="5,2" d="M20,-159C20,-159 691.38,-159 691.38,-159 697.38,-159 703.38,-165 703.38,-171 703.38,-171 703.38,-404 703.38,-404 703.38,-410 697.38,-416 691.38,-416 691.38,-416 20,-416 20,-416 14,-416 8,-410 8,-404 8,-404 8,-171 8,-171 8,-165 14,-159 20,-159"/>
<text xml:space="preserve" text-anchor="middle" x="355.69" y="-398.7" font-family="Times New Roman,serif" font-size="14.00">Workflow / Agents</text>
</g>
<g id="clust2" class="cluster">
<title>cluster_decision</title>
<path fill="white" stroke="#a5b4fc" stroke-width="1.2" stroke-dasharray="5,2" d="M544.25,-74C544.25,-74 725.5,-74 725.5,-74 731.5,-74 737.5,-80 737.5,-86 737.5,-86 737.5,-139 737.5,-139 737.5,-145 731.5,-151 725.5,-151 725.5,-151 544.25,-151 544.25,-151 538.25,-151 532.25,-145 532.25,-139 532.25,-139 532.25,-86 532.25,-86 532.25,-80 538.25,-74 544.25,-74"/>
<text xml:space="preserve" text-anchor="middle" x="634.88" y="-133.7" font-family="Times New Roman,serif" font-size="14.00">Decision</text>
</g>
<g id="clust3" class="cluster">
<title>cluster_theme</title>
<path fill="white" stroke="#86efac" stroke-width="1.2" stroke-dasharray="5,2" d="M890,-44C890,-44 1672,-44 1672,-44 1678,-44 1684,-50 1684,-56 1684,-56 1684,-139 1684,-139 1684,-145 1678,-151 1672,-151 1672,-151 890,-151 890,-151 884,-151 878,-145 878,-139 878,-139 878,-56 878,-56 878,-50 884,-44 890,-44"/>
<text xml:space="preserve" text-anchor="middle" x="1281" y="-133.7" font-family="Times New Roman,serif" font-size="14.00">Theme / Thesis</text>
</g>
<g id="clust4" class="cluster">
<title>cluster_document</title>
<path fill="white" stroke="#f9a8d4" stroke-width="1.2" stroke-dasharray="5,2" d="M21.88,-429C21.88,-429 349.38,-429 349.38,-429 355.38,-429 361.38,-435 361.38,-441 361.38,-441 361.38,-494 361.38,-494 361.38,-500 355.38,-506 349.38,-506 349.38,-506 21.88,-506 21.88,-506 15.88,-506 9.88,-500 9.88,-494 9.88,-494 9.88,-441 9.88,-441 9.88,-435 15.88,-429 21.88,-429"/>
<text xml:space="preserve" text-anchor="middle" x="185.62" y="-488.7" font-family="Times New Roman,serif" font-size="14.00">Document Outcome</text>
</g>
<!-- n5158763099284419942 -->
<g id="node1" class="node">
<title>n5158763099284419942</title>
<g id="a_node1"><a xlink:title="gemini:3&#45;1&#45;flash&#45;lite">
<path fill="#dbeafe" stroke="#1d4ed8" d="M683.38,-239C683.38,-239 586.38,-239 586.38,-239 580.38,-239 574.38,-233 574.38,-227 574.38,-227 574.38,-215 574.38,-215 574.38,-209 580.38,-203 586.38,-203 586.38,-203 683.38,-203 683.38,-203 689.38,-203 695.38,-209 695.38,-215 695.38,-215 695.38,-227 695.38,-227 695.38,-233 689.38,-239 683.38,-239"/>
<text xml:space="preserve" text-anchor="middle" x="634.88" y="-216.72" font-family="Helvetica,sans-Serif" font-size="12.00">gemini:3&#45;1&#45;flash&#45;lite</text>
</a>
</g>
</g>
<!-- n3937578896223745344 -->
<g id="node2" class="node">
<title>n3937578896223745344</title>
<g id="a_node2"><a xlink:title="jdd:classification&#45;3268aa68&#45;a122&#45;5e84&#45;9524&#45;3372d2425e12">
<polygon fill="#dbeafe" stroke="#1d4ed8" points="355.25,-203 16,-203 16,-199 12,-199 12,-195 16,-195 16,-175 12,-175 12,-171 16,-171 16,-167 355.25,-167 355.25,-203"/>
<polyline fill="none" stroke="#1d4ed8" points="16,-199 20,-199 20,-195 16,-195"/>
<polyline fill="none" stroke="#1d4ed8" points="16,-175 20,-175 20,-171 16,-171"/>
<text xml:space="preserve" text-anchor="middle" x="185.62" y="-180.72" font-family="Helvetica,sans-Serif" font-size="12.00">jdd:classification&#45;3268aa68&#45;a122&#45;5e84&#45;9524&#45;3372d2425e12</text>
</a>
</g>
</g>
<!-- n3937578896223745344&#45;&gt;n5158763099284419942 -->
<g id="edge3" class="edge">
<title>n3937578896223745344&#45;&gt;n5158763099284419942</title>
<path fill="none" stroke="#334155" stroke-width="1.6" d="M355.51,-191C482.77,-191 635,-191 635,-191 635,-191 635,-192.15 635,-192.15"/>
<polygon fill="#334155" stroke="#334155" stroke-width="1.6" points="631.5,-190.09 635,-200.09 638.5,-190.09 631.5,-190.09"/>
<text xml:space="preserve" text-anchor="middle" x="447.75" y="-223.5" font-family="Helvetica,sans-Serif" font-size="10.00">wasAssociatedWith</text>
</g>
<!-- n5479261861552176161 -->
<g id="node5" class="node">
<title>n5479261861552176161</title>
<g id="a_node5"><a xlink:title="tres:5056703&#45;85.2023.4.02.5101&#10;&#10;subject: Art. 29, § 5º, da Lei 8.213/1991, RMI &#45; Renda Mensal Inicial, RMI &#45; Renda Mensal Inicial, Reajustes e Revisões Específicas, DIREITO PREVIDENCIÁRIO">
<path fill="#e0e7ff" stroke="#4338ca" d="M717.5,-118C717.5,-118 552.25,-118 552.25,-118 546.25,-118 540.25,-112 540.25,-106 540.25,-106 540.25,-94 540.25,-94 540.25,-88 546.25,-82 552.25,-82 552.25,-82 717.5,-82 717.5,-82 723.5,-82 729.5,-88 729.5,-94 729.5,-94 729.5,-106 729.5,-106 729.5,-112 723.5,-118 717.5,-118"/>
<text xml:space="preserve" text-anchor="middle" x="634.88" y="-95.72" font-family="Helvetica,sans-Serif" font-size="12.00">tres:5056703&#45;85.2023.4.02.5101</text>
</a>
</g>
</g>
<!-- n3937578896223745344&#45;&gt;n5479261861552176161 -->
<g id="edge2" class="edge">
<title>n3937578896223745344&#45;&gt;n5479261861552176161</title>
<path fill="none" stroke="#334155" stroke-width="1.6" d="M355.55,-179C453.34,-179 557,-179 557,-179 557,-179 557,-130.74 557,-130.74"/>
<polygon fill="#334155" stroke="#334155" stroke-width="1.6" points="560.5,-130.74 557,-120.74 553.5,-130.74 560.5,-130.74"/>
<text xml:space="preserve" text-anchor="middle" x="447.75" y="-127.5" font-family="Helvetica,sans-Serif" font-size="10.00">used</text>
</g>
<!-- n4109522917020671262 -->
<g id="node6" class="node">
<title>n4109522917020671262</title>
<g id="a_node6"><a xlink:title="Tema 172 &#45; Sobrestado &#45; Tema 999/STJ (RE 1276977 e RE 1276976 admitidos, no STJ, como r...">
<path fill="#dcfce7" stroke="#15803d" d="M1664,-103C1664,-103 1157.5,-103 1157.5,-103 1151.5,-103 1145.5,-97 1145.5,-91 1145.5,-91 1145.5,-79 1145.5,-79 1145.5,-73 1151.5,-67 1157.5,-67 1157.5,-67 1664,-67 1664,-67 1670,-67 1676,-73 1676,-79 1676,-79 1676,-91 1676,-91 1676,-97 1670,-103 1664,-103"/>
<text xml:space="preserve" text-anchor="middle" x="1410.75" y="-80.72" font-family="Helvetica,sans-Serif" font-size="12.00">Tema 172 &#45; Sobrestado &#45; Tema 999/STJ (RE 1276977 e RE 1276976 admitidos, no STJ, como r...</text>
</a>
</g>
</g>
<!-- n3937578896223745344&#45;&gt;n4109522917020671262 -->
<g id="edge1" class="edge">
<title>n3937578896223745344&#45;&gt;n4109522917020671262</title>
<path fill="none" stroke="#334155" stroke-width="1.6" d="M186,-166.75C186,-135.37 186,-74.5 186,-74.5 186,-74.5 1132.95,-74.5 1132.95,-74.5"/>
<polygon fill="#334155" stroke="#334155" stroke-width="1.6" points="1132.95,-78 1142.95,-74.5 1132.95,-71 1132.95,-78"/>
<text xml:space="preserve" text-anchor="middle" x="807.75" y="-2.5" font-family="Helvetica,sans-Serif" font-size="10.00">used</text>
</g>
<!-- n8365020232235502150 -->
<g id="node3" class="node">
<title>n8365020232235502150</title>
<g id="a_node3"><a xlink:title="jdd:pipeline">
<path fill="#dbeafe" stroke="#1d4ed8" d="M212.75,-293C212.75,-293 158.5,-293 158.5,-293 152.5,-293 146.5,-287 146.5,-281 146.5,-281 146.5,-269 146.5,-269 146.5,-263 152.5,-257 158.5,-257 158.5,-257 212.75,-257 212.75,-257 218.75,-257 224.75,-263 224.75,-269 224.75,-269 224.75,-281 224.75,-281 224.75,-287 218.75,-293 212.75,-293"/>
<text xml:space="preserve" text-anchor="middle" x="185.62" y="-270.73" font-family="Helvetica,sans-Serif" font-size="12.00">jdd:pipeline</text>
</a>
</g>
</g>
<!-- n72143406309294881 -->
<g id="node4" class="node">
<title>n72143406309294881</title>
<g id="a_node4"><a xlink:title="jdd:pipeline&#45;run&#45;309b4714&#45;3039&#45;5369&#45;9ea5&#45;316072357a8d">
<path fill="#dbeafe" stroke="#1d4ed8" d="M340.62,-383C340.62,-383 30.62,-383 30.62,-383 24.62,-383 18.62,-377 18.62,-371 18.62,-371 18.62,-359 18.62,-359 18.62,-353 24.62,-347 30.62,-347 30.62,-347 340.62,-347 340.62,-347 346.62,-347 352.62,-353 352.62,-359 352.62,-359 352.62,-371 352.62,-371 352.62,-377 346.62,-383 340.62,-383"/>
<text xml:space="preserve" text-anchor="middle" x="185.62" y="-360.73" font-family="Helvetica,sans-Serif" font-size="12.00">jdd:pipeline&#45;run&#45;309b4714&#45;3039&#45;5369&#45;9ea5&#45;316072357a8d</text>
</a>
</g>
</g>
<!-- n551746723154355196 -->
<g id="node7" class="node">
<title>n551746723154355196</title>
<g id="a_node7"><a xlink:title="Theme 172 Thesis&#10;&#10;description: Tese firmada no Tema 999/STJ: Aplica&#45;se a regra definitiva prevista no art. 29, I e II da Lei 8.213/1991, na apuração do salário de benefício, quando mais favorável do que a regra de transição contida no art. 3o. da L...">
<path fill="#ecfccb" stroke="#4d7c0f" d="M989.75,-118C989.75,-118 898,-118 898,-118 892,-118 886,-112 886,-106 886,-106 886,-94 886,-94 886,-88 892,-82 898,-82 898,-82 989.75,-82 989.75,-82 995.75,-82 1001.75,-88 1001.75,-94 1001.75,-94 1001.75,-106 1001.75,-106 1001.75,-112 995.75,-118 989.75,-118"/>
<text xml:space="preserve" text-anchor="middle" x="943.88" y="-95.72" font-family="Helvetica,sans-Serif" font-size="12.00">Theme 172 Thesis</text>
</a>
</g>
</g>
<!-- n5479261861552176161&#45;&gt;n551746723154355196 -->
<g id="edge5" class="edge">
<title>n5479261861552176161&#45;&gt;n551746723154355196</title>
<path fill="none" stroke="#334155" stroke-width="1.6" d="M729.69,-100C729.69,-100 873.21,-100 873.21,-100"/>
<polygon fill="#334155" stroke="#334155" stroke-width="1.6" points="873.21,-103.5 883.21,-100 873.21,-96.5 873.21,-103.5"/>
<text xml:space="preserve" text-anchor="middle" x="807.75" y="-102.5" font-family="Helvetica,sans-Serif" font-size="10.00">adoptsThesis</text>
</g>
<!-- n551746723154355196&#45;&gt;n4109522917020671262 -->
<g id="edge4" class="edge">
<title>n551746723154355196&#45;&gt;n4109522917020671262</title>
<path fill="none" stroke="#334155" stroke-width="1.6" d="M1002.06,-92.5C1002.06,-92.5 1132.74,-92.5 1132.74,-92.5"/>
<polygon fill="#334155" stroke="#334155" stroke-width="1.6" points="1132.74,-96 1142.74,-92.5 1132.74,-89 1132.74,-96"/>
<text xml:space="preserve" text-anchor="middle" x="1073.62" y="-108.5" font-family="Helvetica,sans-Serif" font-size="10.00">hasTheme</text>
</g>
<!-- n5860391212591935966 -->
<g id="node8" class="node">
<title>n5860391212591935966</title>
<g id="a_node8"><a xlink:title="jdd:admissibility&#45;d5b56985&#45;a3b2&#45;5084&#45;9171&#45;1bb6b1eecdd4">
<path fill="#fce7f3" stroke="#be185d" d="M341.38,-473C341.38,-473 29.88,-473 29.88,-473 23.88,-473 17.88,-467 17.88,-461 17.88,-461 17.88,-449 17.88,-449 17.88,-443 23.88,-437 29.88,-437 29.88,-437 341.38,-437 341.38,-437 347.38,-437 353.38,-443 353.38,-449 353.38,-449 353.38,-461 353.38,-461 353.38,-467 347.38,-473 341.38,-473"/>
<text xml:space="preserve" text-anchor="middle" x="185.62" y="-450.73" font-family="Helvetica,sans-Serif" font-size="12.00">jdd:admissibility&#45;d5b56985&#45;a3b2&#45;5084&#45;9171&#45;1bb6b1eecdd4</text>
</a>
</g>
</g>
</g>
</svg>
