<?xml version="1.0" encoding="UTF-8" standalone="no"?>
<!DOCTYPE svg PUBLIC "-//W3C//DTD SVG 1.1//EN"
 "http://www.w3.org/Graphics/SVG/1.1/DTD/svg11.dtd">
<!-- Generated by graphviz version 14.1.2 (20260124.0452)
 -->
<!-- Title: rdf_graph Pages: 1 -->
<svg width="1303pt" height="564pt"
 viewBox="0.00 0.00 1303.00 564.00" xmlns="http://www.w3.org/2000/svg" xmlns:xlink="http://www.w3.org/1999/xlink">
<g id="graph0" class="graph" transform="scale(1 1) rotate(0) translate(25.2 539.2)">
<title>rdf_graph</title>
<polygon fill="white" stroke="none" points="-25.2,25.2 -25.2,-539.2 1277.7,-539.2 1277.7,25.2 -25.2,25.2"/>
<g id="clust1" class="cluster">
<title>cluster_workflow</title>
<path fill="white" stroke="#93c5fd" stroke-width="1.2" stroke-dasharray="5,2" d="M20,-159C20,-159 688.38,-159 688.38,-159 694.38,-159 700.38,-165 700.38,-171 700.38,-171 700.38,-404 700.38,-404 700.38,-410 694.38,-416 688.38,-416 688.38,-416 20,-416 20,-416 14,-416 8,-410 8,-404 8,-404 8,-171 8,-171 8,-165 14,-159 20,-159"/>
<text xml:space="preserve" text-anchor="middle" x="354.19" y="-398.7" font-family="Times New Roman,serif" font-size="14.00">Workflow / Agents</text>
</g>
<g id="clust2" class="cluster">
<title>cluster_decision</title>
<path fill="white" stroke="#a5b4fc" stroke-width="1.2" stroke-dasharray="5,2" d="M541.25,-74C541.25,-74 722.5,-74 722.5,-74 728.5,-74 734.5,-80 734.5,-86 734.5,-86 734.5,-139 734.5,-139 734.5,-145 728.5,-151 722.5,-151 722.5,-151 541.25,-151 541.25,-151 535.25,-151 529.25,-145 529.25,-139 529.25,-139 529.25,-86 529.25,-86 529.25,-80 535.25,-74 541.25,-74"/>
<text xml:space="preserve" text-anchor="middle" x="631.88" y="-133.7" font-family="Times New Roman,serif" font-size="14.00">Decision</text>
</g>
<g id="clust3" class="cluster">
<title>cluster_theme</title>
<path fill="white" stroke="#86efac" stroke-width="1.2" stroke-dasharray="5,2" d="M887,-44C887,-44 1232.5,-44 1232.5,-44 1238.5,-44 1244.5,-50 1244.5,-56 1244.5,-56 1244.5,-139 1244.5,-139 1244.5,-145 1238.5,-151 1232.5,-151 1232.5,-151 887,-151 887,-151 881,-151 875,-145 875,-139 875,-139 875,-56 875,-56 875,-50 881,-44 887,-44"/>
<text xml:space="preserve" text-anchor="middle" x="1059.75" y="-133.7" font-family="Times New Roman,serif" font-size="14.00">Theme / Thesis</text>
</g>
<g id="clust4" class="cluster">
<title>cluster_document</title>
<path fill="white" stroke="#f9a8d4" stroke-width="1.2" stroke-dasharray="5,2" d="M24.5,-429C24.5,-429 343.75,-429 343.75,-429 349.75,-429 355.75,-435 355.75,-441 355.75,-441 355.75,-494 355.75,-494 355.75,-500 349.75,-506 343.75,-506 343.75,-506 24.5,-506 24.5,-506 18.5,-506 12.5,-500 12.5,-494 12.5,-494 12.5,-441 12.5,-441 12.5,-435 18.5,-429 24.5,-429"/>
<text xml:space="preserve" text-anchor="middle" x="184.12" y="-488.7" font-family="Times New Roman,serif" font-size="14.00">Document Outcome</text>
</g>
<!-- n1813255899460198435 -->
<g id="node1" class="node">
<title>n1813255899460198435</title>
<g id="a_node1"><a xlink:title="gemini:3&#45;1&#45;flash&#45;lite">
<path fill="#dbeafe" stroke="#1d4ed8" d="M680.38,-239C680.38,-239 583.38,-239 583.38,-239 577.38,-239 571.38,-233 571.38,-227 571.38,-227 571.38,-215 571.38,-215 571.38,-209 577.38,-203 583.38,-203 583.38,-203 680.38,-203 680.38,-203 686.38,-203 692.38,-209 692.38,-215 692.38,-215 692.38,-227 692.38,-227 692.38,-233 686.38,-239 680.38,-239"/>
<text xml:space="preserve" text-anchor="middle" x="631.88" y="-216.72" font-family="Helvetica,sans-Serif" font-size="12.00">gemini:3&#45;1&#45;flash&#45;lite</text>
</a>
</g>
</g>
<!-- n4145824553187066821 -->
<g id="node2" class="node">
<title>n4145824553187066821</title>
<g id="a_node2"><a xlink:title="jdd:classification&#45;e5a5dc55&#45;9c93&#45;5585&#45;b806&#45;c5e7ea38caba">
<polygon fill="#dbeafe" stroke="#1d4ed8" points="352.25,-203 16,-203 16,-199 12,-199 12,-195 16,-195 16,-175 12,-175 12,-171 16,-171 16,-167 352.25,-167 352.25,-203"/>
<polyline fill="none" stroke="#1d4ed8" points="16,-199 20,-199 20,-195 16,-195"/>
<polyline fill="none" stroke="#1d4ed8" points="16,-175 20,-175 20,-171 16,-171"/>
<text xml:space="preserve" text-anchor="middle" x="184.12" y="-180.72" font-family="Helvetica,sans-Serif" font-size="12.00">jdd:classification&#45;e5a5dc55&#45;9c93&#45;5585&#45;b806&#45;c5e7ea38caba</text>
</a>
</g>
</g>
<!-- n4145824553187066821&#45;&gt;n1813255899460198435 -->
<g id="edge3" class="edge">
<title>n4145824553187066821&#45;&gt;n1813255899460198435</title>
<path fill="none" stroke="#334155" stroke-width="1.6" d="M352.62,-194C479.44,-194 631.5,-194 631.5,-194 631.5,-194 631.5,-194.85 631.5,-194.85"/>
<polygon fill="#334155" stroke="#334155" stroke-width="1.6" points="628,-190.12 631.5,-200.12 635,-190.12 628,-190.12"/>
<text xml:space="preserve" text-anchor="middle" x="444.75" y="-223.5" font-family="Helvetica,sans-Serif" font-size="10.00">wasAssociatedWith</text>
</g>
<!-- n8059174062474060639 -->
<g id="node5" class="node">
<title>n8059174062474060639</title>
<g id="a_node5"><a xlink:title="tres:5017606&#45;10.2025.4.02.5101&#10;&#10;subject: Graduação (Bacharelado, Licenciatura, Profissional Tecnológica), EDUCAÇÃO SUPERIOR, DIREITO À EDUCAÇÃO">
<path fill="#e0e7ff" stroke="#4338ca" d="M714.5,-118C714.5,-118 549.25,-118 549.25,-118 543.25,-118 537.25,-112 537.25,-106 537.25,-106 537.25,-94 537.25,-94 537.25,-88 543.25,-82 549.25,-82 549.25,-82 714.5,-82 714.5,-82 720.5,-82 726.5,-88 726.5,-94 726.5,-94 726.5,-106 726.5,-106 726.5,-112 720.5,-118 714.5,-118"/>
<text xml:space="preserve" text-anchor="middle" x="631.88" y="-95.72" font-family="Helvetica,sans-Serif" font-size="12.00">tres:5017606&#45;10.2025.4.02.5101</text>
</a>
</g>
</g>
<!-- n4145824553187066821&#45;&gt;n8059174062474060639 -->
<g id="edge2" class="edge">
<title>n4145824553187066821&#45;&gt;n8059174062474060639</title>
<path fill="none" stroke="#334155" stroke-width="1.6" d="M352.51,-176C450.35,-176 554.5,-176 554.5,-176 554.5,-176 554.5,-130.82 554.5,-130.82"/>
<polygon fill="#334155" stroke="#334155" stroke-width="1.6" points="558,-130.82 554.5,-120.82 551,-130.82 558,-130.82"/>
<text xml:space="preserve" text-anchor="middle" x="444.75" y="-127.5" font-family="Helvetica,sans-Serif" font-size="10.00">used</text>
</g>
<!-- n378557523413413811 -->
<g id="node6" class="node">
<title>n378557523413413811</title>
<g id="a_node6"><a xlink:title="Tema 7 &#45; Julgado">
<path fill="#dcfce7" stroke="#15803d" d="M1224.5,-103C1224.5,-103 1141,-103 1141,-103 1135,-103 1129,-97 1129,-91 1129,-91 1129,-79 1129,-79 1129,-73 1135,-67 1141,-67 1141,-67 1224.5,-67 1224.5,-67 1230.5,-67 1236.5,-73 1236.5,-79 1236.5,-79 1236.5,-91 1236.5,-91 1236.5,-97 1230.5,-103 1224.5,-103"/>
<text xml:space="preserve" text-anchor="middle" x="1182.75" y="-80.72" font-family="Helvetica,sans-Serif" font-size="12.00">Tema 7 &#45; Julgado</text>
</a>
</g>
</g>
<!-- n4145824553187066821&#45;&gt;n378557523413413811 -->
<g id="edge1" class="edge">
<title>n4145824553187066821&#45;&gt;n378557523413413811</title>
<path fill="none" stroke="#334155" stroke-width="1.6" d="M352.64,-185C637.25,-185 1182.5,-185 1182.5,-185 1182.5,-185 1182.5,-115.76 1182.5,-115.76"/>
<polygon fill="#334155" stroke="#334155" stroke-width="1.6" points="1186,-115.76 1182.5,-105.76 1179,-115.76 1186,-115.76"/>
<text xml:space="preserve" text-anchor="middle" x="804.75" y="-2.5" font-family="Helvetica,sans-Serif" font-size="10.00">used</text>
</g>
<!-- n3060526251864380153 -->
<g id="node3" class="node">
<title>n3060526251864380153</title>
<g id="a_node3"><a xlink:title="jdd:pipeline">
<path fill="#dbeafe" stroke="#1d4ed8" d="M211.25,-293C211.25,-293 157,-293 157,-293 151,-293 145,-287 145,-281 145,-281 145,-269 145,-269 145,-263 151,-257 157,-257 157,-257 211.25,-257 211.25,-257 217.25,-257 223.25,-263 223.25,-269 223.25,-269 223.25,-281 223.25,-281 223.25,-287 217.25,-293 211.25,-293"/>
<text xml:space="preserve" text-anchor="middle" x="184.12" y="-270.73" font-family="Helvetica,sans-Serif" font-size="12.00">jdd:pipeline</text>
</a>
</g>
</g>
<!-- n3369513106044763655 -->
<g id="node4" class="node">
<title>n3369513106044763655</title>
<g id="a_node4"><a xlink:title="jdd:pipeline&#45;run&#45;ea0ead4f&#45;edf8&#45;5799&#45;b634&#45;80cf2088da98">
<path fill="#dbeafe" stroke="#1d4ed8" d="M333.12,-383C333.12,-383 35.12,-383 35.12,-383 29.12,-383 23.12,-377 23.12,-371 23.12,-371 23.12,-359 23.12,-359 23.12,-353 29.12,-347 35.12,-347 35.12,-347 333.12,-347 333.12,-347 339.12,-347 345.12,-353 345.12,-359 345.12,-359 345.12,-371 345.12,-371 345.12,-377 339.12,-383 333.12,-383"/>
<text xml:space="preserve" text-anchor="middle" x="184.12" y="-360.73" font-family="Helvetica,sans-Serif" font-size="12.00">jdd:pipeline&#45;run&#45;ea0ead4f&#45;edf8&#45;5799&#45;b634&#45;80cf2088da98</text>
</a>
</g>
</g>
<!-- n7354159710877492611 -->
<g id="node7" class="node">
<title>n7354159710877492611</title>
<g id="a_node7"><a xlink:title="Theme 7 Thesis&#10;&#10;description: É indevida a prorrogação da pensão por morte ao filho maior de 21 anos, ainda que esteja cursando o ensino superior.">
<path fill="#ecfccb" stroke="#4d7c0f" d="M973.25,-118C973.25,-118 895,-118 895,-118 889,-118 883,-112 883,-106 883,-106 883,-94 883,-94 883,-88 889,-82 895,-82 895,-82 973.25,-82 973.25,-82 979.25,-82 985.25,-88 985.25,-94 985.25,-94 985.25,-106 985.25,-106 985.25,-112 979.25,-118 973.25,-118"/>
<text xml:space="preserve" text-anchor="middle" x="934.12" y="-95.72" font-family="Helvetica,sans-Serif" font-size="12.00">Theme 7 Thesis</text>
</a>
</g>
</g>
<!-- n8059174062474060639&#45;&gt;n7354159710877492611 -->
<g id="edge5" class="edge">
<title>n8059174062474060639&#45;&gt;n7354159710877492611</title>
<path fill="none" stroke="#334155" stroke-width="1.6" d="M726.68,-100C726.68,-100 870.32,-100 870.32,-100"/>
<polygon fill="#334155" stroke="#334155" stroke-width="1.6" points="870.32,-103.5 880.32,-100 870.32,-96.5 870.32,-103.5"/>
<text xml:space="preserve" text-anchor="middle" x="804.75" y="-102.5" font-family="Helvetica,sans-Serif" font-size="10.00">adoptsThesis</text>
</g>
<!-- n7354159710877492611&#45;&gt;n378557523413413811 -->
<g id="edge4" class="edge">
<title>n7354159710877492611&#45;&gt;n378557523413413811</title>
<path fill="none" stroke="#334155" stroke-width="1.6" d="M985.64,-92.5C985.64,-92.5 1116.3,-92.5 1116.3,-92.5"/>
<polygon fill="#334155" stroke="#334155" stroke-width="1.6" points="1116.3,-96 1126.3,-92.5 1116.3,-89 1116.3,-96"/>
<text xml:space="preserve" text-anchor="middle" x="1057.12" y="-108.5" font-family="Helvetica,sans-Serif" font-size="10.00">hasTheme</text>
</g>
<!-- n4557272038961826856 -->
<g id="node8" class="node">
<title>n4557272038961826856</title>
<g id="a_node8"><a xlink:title="jdd:admissibility&#45;f26f54c1&#45;e775&#45;5add&#45;b312&#45;dec03052d098">
<path fill="#fce7f3" stroke="#be185d" d="M335.75,-473C335.75,-473 32.5,-473 32.5,-473 26.5,-473 20.5,-467 20.5,-461 20.5,-461 20.5,-449 20.5,-449 20.5,-443 26.5,-437 32.5,-437 32.5,-437 335.75,-437 335.75,-437 341.75,-437 347.75,-443 347.75,-449 347.75,-449 347.75,-461 347.75,-461 347.75,-467 341.75,-473 335.75,-473"/>
<text xml:space="preserve" text-anchor="middle" x="184.12" y="-450.73" font-family="Helvetica,sans-Serif" font-size="12.00">jdd:admissibility&#45;f26f54c1&#45;e775&#45;5add&#45;b312&#45;dec03052d098</text>
</a>
</g>
</g>
</g>
</svg>
