<?xml version="1.0" encoding="UTF-8" standalone="no"?>
<!DOCTYPE svg PUBLIC "-//W3C//DTD SVG 1.1//EN"
 "http://www.w3.org/Graphics/SVG/1.1/DTD/svg11.dtd">
<!-- Generated by graphviz version 14.1.2 (20260124.0452)
 -->
<!-- Title: rdf_graph Pages: 1 -->
<svg width="1301pt" height="564pt"
 viewBox="0.00 0.00 1301.00 564.00" xmlns="http://www.w3.org/2000/svg" xmlns:xlink="http://www.w3.org/1999/xlink">
<g id="graph0" class="graph" transform="scale(1 1) rotate(0) translate(25.2 539.2)">
<title>rdf_graph</title>
<polygon fill="white" stroke="none" points="-25.2,25.2 -25.2,-539.2 1276.2,-539.2 1276.2,25.2 -25.2,25.2"/>
<g id="clust1" class="cluster">
<title>cluster_workflow</title>
<path fill="white" stroke="#93c5fd" stroke-width="1.2" stroke-dasharray="5,2" d="M20,-159C20,-159 686.88,-159 686.88,-159 692.88,-159 698.88,-165 698.88,-171 698.88,-171 698.88,-404 698.88,-404 698.88,-410 692.88,-416 686.88,-416 686.88,-416 20,-416 20,-416 14,-416 8,-410 8,-404 8,-404 8,-171 8,-171 8,-165 14,-159 20,-159"/>
<text xml:space="preserve" text-anchor="middle" x="353.44" y="-398.7" font-family="Times New Roman,serif" font-size="14.00">Workflow / Agents</text>
</g>
<g id="clust2" class="cluster">
<title>cluster_decision</title>
<path fill="white" stroke="#a5b4fc" stroke-width="1.2" stroke-dasharray="5,2" d="M539.75,-74C539.75,-74 721,-74 721,-74 727,-74 733,-80 733,-86 733,-86 733,-139 733,-139 733,-145 727,-151 721,-151 721,-151 539.75,-151 539.75,-151 533.75,-151 527.75,-145 527.75,-139 527.75,-139 527.75,-86 527.75,-86 527.75,-80 533.75,-74 539.75,-74"/>
<text xml:space="preserve" text-anchor="middle" x="630.38" y="-133.7" font-family="Times New Roman,serif" font-size="14.00">Decision</text>
</g>
<g id="clust3" class="cluster">
<title>cluster_theme</title>
<path fill="white" stroke="#86efac" stroke-width="1.2" stroke-dasharray="5,2" d="M885.5,-44C885.5,-44 1231,-44 1231,-44 1237,-44 1243,-50 1243,-56 1243,-56 1243,-139 1243,-139 1243,-145 1237,-151 1231,-151 1231,-151 885.5,-151 885.5,-151 879.5,-151 873.5,-145 873.5,-139 873.5,-139 873.5,-56 873.5,-56 873.5,-50 879.5,-44 885.5,-44"/>
<text xml:space="preserve" text-anchor="middle" x="1058.25" y="-133.7" font-family="Times New Roman,serif" font-size="14.00">Theme / Thesis</text>
</g>
<g id="clust4" class="cluster">
<title>cluster_document</title>
<path fill="white" stroke="#f9a8d4" stroke-width="1.2" stroke-dasharray="5,2" d="M22.62,-429C22.62,-429 344.12,-429 344.12,-429 350.12,-429 356.12,-435 356.12,-441 356.12,-441 356.12,-494 356.12,-494 356.12,-500 350.12,-506 344.12,-506 344.12,-506 22.62,-506 22.62,-506 16.62,-506 10.62,-500 10.62,-494 10.62,-494 10.62,-441 10.62,-441 10.62,-435 16.62,-429 22.62,-429"/>
<text xml:space="preserve" text-anchor="middle" x="183.38" y="-488.7" font-family="Times New Roman,serif" font-size="14.00">Document Outcome</text>
</g>
<!-- n1813255899460198435 -->
<g id="node1" class="node">
<title>n1813255899460198435</title>
<g id="a_node1"><a xlink:title="gemini:3&#45;1&#45;flash&#45;lite">
<path fill="#dbeafe" stroke="#1d4ed8" d="M678.88,-239C678.88,-239 581.88,-239 581.88,-239 575.88,-239 569.88,-233 569.88,-227 569.88,-227 569.88,-215 569.88,-215 569.88,-209 575.88,-203 581.88,-203 581.88,-203 678.88,-203 678.88,-203 684.88,-203 690.88,-209 690.88,-215 690.88,-215 690.88,-227 690.88,-227 690.88,-233 684.88,-239 678.88,-239"/>
<text xml:space="preserve" text-anchor="middle" x="630.38" y="-216.72" font-family="Helvetica,sans-Serif" font-size="12.00">gemini:3&#45;1&#45;flash&#45;lite</text>
</a>
</g>
</g>
<!-- n7041168661456503424 -->
<g id="node2" class="node">
<title>n7041168661456503424</title>
<g id="a_node2"><a xlink:title="jdd:classification&#45;a6e756d7&#45;7b14&#45;5e6a&#45;aca5&#45;896f57266dae">
<polygon fill="#dbeafe" stroke="#1d4ed8" points="350.75,-203 16,-203 16,-199 12,-199 12,-195 16,-195 16,-175 12,-175 12,-171 16,-171 16,-167 350.75,-167 350.75,-203"/>
<polyline fill="none" stroke="#1d4ed8" points="16,-199 20,-199 20,-195 16,-195"/>
<polyline fill="none" stroke="#1d4ed8" points="16,-175 20,-175 20,-171 16,-171"/>
<text xml:space="preserve" text-anchor="middle" x="183.38" y="-180.72" font-family="Helvetica,sans-Serif" font-size="12.00">jdd:classification&#45;a6e756d7&#45;7b14&#45;5e6a&#45;aca5&#45;896f57266dae</text>
</a>
</g>
</g>
<!-- n7041168661456503424&#45;&gt;n1813255899460198435 -->
<g id="edge3" class="edge">
<title>n7041168661456503424&#45;&gt;n1813255899460198435</title>
<path fill="none" stroke="#334155" stroke-width="1.6" d="M350.95,-194C477.68,-194 630,-194 630,-194 630,-194 630,-194.85 630,-194.85"/>
<polygon fill="#334155" stroke="#334155" stroke-width="1.6" points="626.5,-190.12 630,-200.12 633.5,-190.12 626.5,-190.12"/>
<text xml:space="preserve" text-anchor="middle" x="443.25" y="-223.5" font-family="Helvetica,sans-Serif" font-size="10.00">wasAssociatedWith</text>
</g>
<!-- n212528677004200435 -->
<g id="node5" class="node">
<title>n212528677004200435</title>
<g id="a_node5"><a xlink:title="tres:5015810&#45;81.2025.4.02.5101&#10;&#10;subject: Indenização por Dano Material, Responsabilidade do Fornecedor, DIREITO DO CONSUMIDOR, Indenização por Dano Moral, Responsabilidade do Fornecedor, DIREITO DO CONSUMIDOR">
<path fill="#e0e7ff" stroke="#4338ca" d="M713,-118C713,-118 547.75,-118 547.75,-118 541.75,-118 535.75,-112 535.75,-106 535.75,-106 535.75,-94 535.75,-94 535.75,-88 541.75,-82 547.75,-82 547.75,-82 713,-82 713,-82 719,-82 725,-88 725,-94 725,-94 725,-106 725,-106 725,-112 719,-118 713,-118"/>
<text xml:space="preserve" text-anchor="middle" x="630.38" y="-95.72" font-family="Helvetica,sans-Serif" font-size="12.00">tres:5015810&#45;81.2025.4.02.5101</text>
</a>
</g>
</g>
<!-- n7041168661456503424&#45;&gt;n212528677004200435 -->
<g id="edge2" class="edge">
<title>n7041168661456503424&#45;&gt;n212528677004200435</title>
<path fill="none" stroke="#334155" stroke-width="1.6" d="M351.15,-176C448.87,-176 553,-176 553,-176 553,-176 553,-130.82 553,-130.82"/>
<polygon fill="#334155" stroke="#334155" stroke-width="1.6" points="556.5,-130.82 553,-120.82 549.5,-130.82 556.5,-130.82"/>
<text xml:space="preserve" text-anchor="middle" x="443.25" y="-127.5" font-family="Helvetica,sans-Serif" font-size="10.00">used</text>
</g>
<!-- n3984855686509404397 -->
<g id="node6" class="node">
<title>n3984855686509404397</title>
<g id="a_node6"><a xlink:title="Tema 2 &#45; Julgado">
<path fill="#dcfce7" stroke="#15803d" d="M1223,-103C1223,-103 1139.5,-103 1139.5,-103 1133.5,-103 1127.5,-97 1127.5,-91 1127.5,-91 1127.5,-79 1127.5,-79 1127.5,-73 1133.5,-67 1139.5,-67 1139.5,-67 1223,-67 1223,-67 1229,-67 1235,-73 1235,-79 1235,-79 1235,-91 1235,-91 1235,-97 1229,-103 1223,-103"/>
<text xml:space="preserve" text-anchor="middle" x="1181.25" y="-80.72" font-family="Helvetica,sans-Serif" font-size="12.00">Tema 2 &#45; Julgado</text>
</a>
</g>
</g>
<!-- n7041168661456503424&#45;&gt;n3984855686509404397 -->
<g id="edge1" class="edge">
<title>n7041168661456503424&#45;&gt;n3984855686509404397</title>
<path fill="none" stroke="#334155" stroke-width="1.6" d="M351.2,-185C635.44,-185 1181,-185 1181,-185 1181,-185 1181,-115.76 1181,-115.76"/>
<polygon fill="#334155" stroke="#334155" stroke-width="1.6" points="1184.5,-115.76 1181,-105.76 1177.5,-115.76 1184.5,-115.76"/>
<text xml:space="preserve" text-anchor="middle" x="803.25" y="-2.5" font-family="Helvetica,sans-Serif" font-size="10.00">used</text>
</g>
<!-- n3060526251864380153 -->
<g id="node3" class="node">
<title>n3060526251864380153</title>
<g id="a_node3"><a xlink:title="jdd:pipeline">
<path fill="#dbeafe" stroke="#1d4ed8" d="M210.5,-293C210.5,-293 156.25,-293 156.25,-293 150.25,-293 144.25,-287 144.25,-281 144.25,-281 144.25,-269 144.25,-269 144.25,-263 150.25,-257 156.25,-257 156.25,-257 210.5,-257 210.5,-257 216.5,-257 222.5,-263 222.5,-269 222.5,-269 222.5,-281 222.5,-281 222.5,-287 216.5,-293 210.5,-293"/>
<text xml:space="preserve" text-anchor="middle" x="183.38" y="-270.73" font-family="Helvetica,sans-Serif" font-size="12.00">jdd:pipeline</text>
</a>
</g>
</g>
<!-- n3369513106044763655 -->
<g id="node4" class="node">
<title>n3369513106044763655</title>
<g id="a_node4"><a xlink:title="jdd:pipeline&#45;run&#45;ea0ead4f&#45;edf8&#45;5799&#45;b634&#45;80cf2088da98">
<path fill="#dbeafe" stroke="#1d4ed8" d="M332.38,-383C332.38,-383 34.38,-383 34.38,-383 28.38,-383 22.38,-377 22.38,-371 22.38,-371 22.38,-359 22.38,-359 22.38,-353 28.38,-347 34.38,-347 34.38,-347 332.38,-347 332.38,-347 338.38,-347 344.38,-353 344.38,-359 344.38,-359 344.38,-371 344.38,-371 344.38,-377 338.38,-383 332.38,-383"/>
<text xml:space="preserve" text-anchor="middle" x="183.38" y="-360.73" font-family="Helvetica,sans-Serif" font-size="12.00">jdd:pipeline&#45;run&#45;ea0ead4f&#45;edf8&#45;5799&#45;b634&#45;80cf2088da98</text>
</a>
</g>
</g>
<!-- n8575965694937584019 -->
<g id="node7" class="node">
<title>n8575965694937584019</title>
<g id="a_node7"><a xlink:title="Theme 2 Thesis&#10;&#10;description: No caso de aposentadoria por idade rural, a certidão de casamento vale como início de prova material, ainda que extemporânea.">
<path fill="#ecfccb" stroke="#4d7c0f" d="M971.75,-118C971.75,-118 893.5,-118 893.5,-118 887.5,-118 881.5,-112 881.5,-106 881.5,-106 881.5,-94 881.5,-94 881.5,-88 887.5,-82 893.5,-82 893.5,-82 971.75,-82 971.75,-82 977.75,-82 983.75,-88 983.75,-94 983.75,-94 983.75,-106 983.75,-106 983.75,-112 977.75,-118 971.75,-118"/>
<text xml:space="preserve" text-anchor="middle" x="932.62" y="-95.72" font-family="Helvetica,sans-Serif" font-size="12.00">Theme 2 Thesis</text>
</a>
</g>
</g>
<!-- n212528677004200435&#45;&gt;n8575965694937584019 -->
<g id="edge5" class="edge">
<title>n212528677004200435&#45;&gt;n8575965694937584019</title>
<path fill="none" stroke="#334155" stroke-width="1.6" d="M725.18,-100C725.18,-100 868.82,-100 868.82,-100"/>
<polygon fill="#334155" stroke="#334155" stroke-width="1.6" points="868.82,-103.5 878.82,-100 868.82,-96.5 868.82,-103.5"/>
<text xml:space="preserve" text-anchor="middle" x="803.25" y="-102.5" font-family="Helvetica,sans-Serif" font-size="10.00">adoptsThesis</text>
</g>
<!-- n8575965694937584019&#45;&gt;n3984855686509404397 -->
<g id="edge4" class="edge">
<title>n8575965694937584019&#45;&gt;n3984855686509404397</title>
<path fill="none" stroke="#334155" stroke-width="1.6" d="M984.14,-92.5C984.14,-92.5 1114.8,-92.5 1114.8,-92.5"/>
<polygon fill="#334155" stroke="#334155" stroke-width="1.6" points="1114.8,-96 1124.8,-92.5 1114.8,-89 1114.8,-96"/>
<text xml:space="preserve" text-anchor="middle" x="1055.62" y="-108.5" font-family="Helvetica,sans-Serif" font-size="10.00">hasTheme</text>
</g>
<!-- n5257291237854483226 -->
<g id="node8" class="node">
<title>n5257291237854483226</title>
<g id="a_node8"><a xlink:title="jdd:admissibility&#45;ce2bf0d9&#45;8c0e&#45;5702&#45;b9cb&#45;3cd34180d63b">
<path fill="#fce7f3" stroke="#be185d" d="M336.12,-473C336.12,-473 30.62,-473 30.62,-473 24.62,-473 18.62,-467 18.62,-461 18.62,-461 18.62,-449 18.62,-449 18.62,-443 24.62,-437 30.62,-437 30.62,-437 336.12,-437 336.12,-437 342.12,-437 348.12,-443 348.12,-449 348.12,-449 348.12,-461 348.12,-461 348.12,-467 342.12,-473 336.12,-473"/>
<text xml:space="preserve" text-anchor="middle" x="183.38" y="-450.73" font-family="Helvetica,sans-Serif" font-size="12.00">jdd:admissibility&#45;ce2bf0d9&#45;8c0e&#45;5702&#45;b9cb&#45;3cd34180d63b</text>
</a>
</g>
</g>
</g>
</svg>
