<?xml version="1.0" encoding="UTF-8" standalone="no"?>
<!DOCTYPE svg PUBLIC "-//W3C//DTD SVG 1.1//EN"
 "http://www.w3.org/Graphics/SVG/1.1/DTD/svg11.dtd">
<!-- Generated by graphviz version 14.1.2 (20260124.0452)
 -->
<!-- Title: rdf_graph Pages: 1 -->
<svg width="1394pt" height="564pt"
 viewBox="0.00 0.00 1394.00 564.00" xmlns="http://www.w3.org/2000/svg" xmlns:xlink="http://www.w3.org/1999/xlink">
<g id="graph0" class="graph" transform="scale(1 1) rotate(0) translate(25.2 539.2)">
<title>rdf_graph</title>
<polygon fill="white" stroke="none" points="-25.2,25.2 -25.2,-539.2 1369.2,-539.2 1369.2,25.2 -25.2,25.2"/>
<g id="clust1" class="cluster">
<title>cluster_workflow</title>
<path fill="white" stroke="#93c5fd" stroke-width="1.2" stroke-dasharray="5,2" d="M20,-159C20,-159 674.12,-159 674.12,-159 680.12,-159 686.12,-165 686.12,-171 686.12,-171 686.12,-404 686.12,-404 686.12,-410 680.12,-416 674.12,-416 674.12,-416 20,-416 20,-416 14,-416 8,-410 8,-404 8,-404 8,-171 8,-171 8,-165 14,-159 20,-159"/>
<text xml:space="preserve" text-anchor="middle" x="347.06" y="-398.7" font-family="Times New Roman,serif" font-size="14.00">Workflow / Agents</text>
</g>
<g id="clust2" class="cluster">
<title>cluster_decision</title>
<path fill="white" stroke="#a5b4fc" stroke-width="1.2" stroke-dasharray="5,2" d="M527,-74C527,-74 708.25,-74 708.25,-74 714.25,-74 720.25,-80 720.25,-86 720.25,-86 720.25,-139 720.25,-139 720.25,-145 714.25,-151 708.25,-151 708.25,-151 527,-151 527,-151 521,-151 515,-145 515,-139 515,-139 515,-86 515,-86 515,-80 521,-74 527,-74"/>
<text xml:space="preserve" text-anchor="middle" x="617.62" y="-133.7" font-family="Times New Roman,serif" font-size="14.00">Decision</text>
</g>
<g id="clust3" class="cluster">
<title>cluster_theme</title>
<path fill="white" stroke="#86efac" stroke-width="1.2" stroke-dasharray="5,2" d="M872.75,-44C872.75,-44 1324,-44 1324,-44 1330,-44 1336,-50 1336,-56 1336,-56 1336,-139 1336,-139 1336,-145 1330,-151 1324,-151 1324,-151 872.75,-151 872.75,-151 866.75,-151 860.75,-145 860.75,-139 860.75,-139 860.75,-56 860.75,-56 860.75,-50 866.75,-44 872.75,-44"/>
<text xml:space="preserve" text-anchor="middle" x="1098.38" y="-133.7" font-family="Times New Roman,serif" font-size="14.00">Theme / Thesis</text>
</g>
<g id="clust4" class="cluster">
<title>cluster_document</title>
<path fill="white" stroke="#f9a8d4" stroke-width="1.2" stroke-dasharray="5,2" d="M24.5,-429C24.5,-429 329.5,-429 329.5,-429 335.5,-429 341.5,-435 341.5,-441 341.5,-441 341.5,-494 341.5,-494 341.5,-500 335.5,-506 329.5,-506 329.5,-506 24.5,-506 24.5,-506 18.5,-506 12.5,-500 12.5,-494 12.5,-494 12.5,-441 12.5,-441 12.5,-435 18.5,-429 24.5,-429"/>
<text xml:space="preserve" text-anchor="middle" x="177" y="-488.7" font-family="Times New Roman,serif" font-size="14.00">Document Outcome</text>
</g>
<!-- n1813255899460198435 -->
<g id="node1" class="node">
<title>n1813255899460198435</title>
<g id="a_node1"><a xlink:title="gemini:3&#45;1&#45;flash&#45;lite">
<path fill="#dbeafe" stroke="#1d4ed8" d="M666.12,-239C666.12,-239 569.12,-239 569.12,-239 563.12,-239 557.12,-233 557.12,-227 557.12,-227 557.12,-215 557.12,-215 557.12,-209 563.12,-203 569.12,-203 569.12,-203 666.12,-203 666.12,-203 672.12,-203 678.12,-209 678.12,-215 678.12,-215 678.12,-227 678.12,-227 678.12,-233 672.12,-239 666.12,-239"/>
<text xml:space="preserve" text-anchor="middle" x="617.62" y="-216.72" font-family="Helvetica,sans-Serif" font-size="12.00">gemini:3&#45;1&#45;flash&#45;lite</text>
</a>
</g>
</g>
<!-- n2118143280690903664 -->
<g id="node2" class="node">
<title>n2118143280690903664</title>
<g id="a_node2"><a xlink:title="jdd:classification&#45;41edc8ce&#45;3391&#45;56ff&#45;9594&#45;47cf11228ff0">
<polygon fill="#dbeafe" stroke="#1d4ed8" points="335.75,-203 18.25,-203 18.25,-199 14.25,-199 14.25,-195 18.25,-195 18.25,-175 14.25,-175 14.25,-171 18.25,-171 18.25,-167 335.75,-167 335.75,-203"/>
<polyline fill="none" stroke="#1d4ed8" points="18.25,-199 22.25,-199 22.25,-195 18.25,-195"/>
<polyline fill="none" stroke="#1d4ed8" points="18.25,-175 22.25,-175 22.25,-171 18.25,-171"/>
<text xml:space="preserve" text-anchor="middle" x="177" y="-180.72" font-family="Helvetica,sans-Serif" font-size="12.00">jdd:classification&#45;41edc8ce&#45;3391&#45;56ff&#45;9594&#45;47cf11228ff0</text>
</a>
</g>
</g>
<!-- n2118143280690903664&#45;&gt;n1813255899460198435 -->
<g id="edge3" class="edge">
<title>n2118143280690903664&#45;&gt;n1813255899460198435</title>
<path fill="none" stroke="#334155" stroke-width="1.6" d="M276,-203.42C276,-212.28 276,-221 276,-221 276,-221 544.52,-221 544.52,-221"/>
<polygon fill="#334155" stroke="#334155" stroke-width="1.6" points="544.52,-224.5 554.52,-221 544.52,-217.5 544.52,-224.5"/>
<text xml:space="preserve" text-anchor="middle" x="430.5" y="-223.5" font-family="Helvetica,sans-Serif" font-size="10.00">wasAssociatedWith</text>
</g>
<!-- n7613683876951351362 -->
<g id="node5" class="node">
<title>n7613683876951351362</title>
<g id="a_node5"><a xlink:title="tres:5018130&#45;07.2025.4.02.5101&#10;&#10;subject: Assistência Social, Garantias Constitucionais, DIREITO ADMINISTRATIVO E OUTRAS MATÉRIAS DE DIREITO PÚBLICO, Bolsa Família (Lei 14.601/2023), DIREITO ASSISTENCIAL">
<path fill="#e0e7ff" stroke="#4338ca" d="M700.25,-118C700.25,-118 535,-118 535,-118 529,-118 523,-112 523,-106 523,-106 523,-94 523,-94 523,-88 529,-82 535,-82 535,-82 700.25,-82 700.25,-82 706.25,-82 712.25,-88 712.25,-94 712.25,-94 712.25,-106 712.25,-106 712.25,-112 706.25,-118 700.25,-118"/>
<text xml:space="preserve" text-anchor="middle" x="617.62" y="-95.72" font-family="Helvetica,sans-Serif" font-size="12.00">tres:5018130&#45;07.2025.4.02.5101</text>
</a>
</g>
</g>
<!-- n2118143280690903664&#45;&gt;n7613683876951351362 -->
<g id="edge2" class="edge">
<title>n2118143280690903664&#45;&gt;n7613683876951351362</title>
<path fill="none" stroke="#334155" stroke-width="1.6" d="M336.22,-179C433.75,-179 540,-179 540,-179 540,-179 540,-130.74 540,-130.74"/>
<polygon fill="#334155" stroke="#334155" stroke-width="1.6" points="543.5,-130.74 540,-120.74 536.5,-130.74 543.5,-130.74"/>
<text xml:space="preserve" text-anchor="middle" x="430.5" y="-127.5" font-family="Helvetica,sans-Serif" font-size="10.00">used</text>
</g>
<!-- n7831452608132545121 -->
<g id="node6" class="node">
<title>n7831452608132545121</title>
<g id="a_node6"><a xlink:title="Tema 10 &#45; Julgado &#45; TEMA 350/STF">
<path fill="#dcfce7" stroke="#15803d" d="M1316,-103C1316,-103 1133.5,-103 1133.5,-103 1127.5,-103 1121.5,-97 1121.5,-91 1121.5,-91 1121.5,-79 1121.5,-79 1121.5,-73 1127.5,-67 1133.5,-67 1133.5,-67 1316,-67 1316,-67 1322,-67 1328,-73 1328,-79 1328,-79 1328,-91 1328,-91 1328,-97 1322,-103 1316,-103"/>
<text xml:space="preserve" text-anchor="middle" x="1224.75" y="-80.72" font-family="Helvetica,sans-Serif" font-size="12.00">Tema 10 &#45; Julgado &#45; TEMA 350/STF</text>
</a>
</g>
</g>
<!-- n2118143280690903664&#45;&gt;n7831452608132545121 -->
<g id="edge1" class="edge">
<title>n2118143280690903664&#45;&gt;n7831452608132545121</title>
<path fill="none" stroke="#334155" stroke-width="1.6" d="M336.17,-191C629.34,-191 1225,-191 1225,-191 1225,-191 1225,-115.89 1225,-115.89"/>
<polygon fill="#334155" stroke="#334155" stroke-width="1.6" points="1228.5,-115.89 1225,-105.89 1221.5,-115.89 1228.5,-115.89"/>
<text xml:space="preserve" text-anchor="middle" x="790.5" y="-2.5" font-family="Helvetica,sans-Serif" font-size="10.00">used</text>
</g>
<!-- n3060526251864380153 -->
<g id="node3" class="node">
<title>n3060526251864380153</title>
<g id="a_node3"><a xlink:title="jdd:pipeline">
<path fill="#dbeafe" stroke="#1d4ed8" d="M204.12,-293C204.12,-293 149.88,-293 149.88,-293 143.88,-293 137.88,-287 137.88,-281 137.88,-281 137.88,-269 137.88,-269 137.88,-263 143.88,-257 149.88,-257 149.88,-257 204.12,-257 204.12,-257 210.12,-257 216.12,-263 216.12,-269 216.12,-269 216.12,-281 216.12,-281 216.12,-287 210.12,-293 204.12,-293"/>
<text xml:space="preserve" text-anchor="middle" x="177" y="-270.73" font-family="Helvetica,sans-Serif" font-size="12.00">jdd:pipeline</text>
</a>
</g>
</g>
<!-- n3369513106044763655 -->
<g id="node4" class="node">
<title>n3369513106044763655</title>
<g id="a_node4"><a xlink:title="jdd:pipeline&#45;run&#45;ea0ead4f&#45;edf8&#45;5799&#45;b634&#45;80cf2088da98">
<path fill="#dbeafe" stroke="#1d4ed8" d="M326,-383C326,-383 28,-383 28,-383 22,-383 16,-377 16,-371 16,-371 16,-359 16,-359 16,-353 22,-347 28,-347 28,-347 326,-347 326,-347 332,-347 338,-353 338,-359 338,-359 338,-371 338,-371 338,-377 332,-383 326,-383"/>
<text xml:space="preserve" text-anchor="middle" x="177" y="-360.73" font-family="Helvetica,sans-Serif" font-size="12.00">jdd:pipeline&#45;run&#45;ea0ead4f&#45;edf8&#45;5799&#45;b634&#45;80cf2088da98</text>
</a>
</g>
</g>
<!-- n8629022435086607622 -->
<g id="node7" class="node">
<title>n8629022435086607622</title>
<g id="a_node7"><a xlink:title="Theme 10 Thesis&#10;&#10;description: O ajuizamento de ações visando o recebimento do benefício previsto no art. 203, V, da Constituição Federal não exige a renovação bienal do requerimento administrativo, afastada a indevida analogia ao art. 21, da Lei n...">
<path fill="#ecfccb" stroke="#4d7c0f" d="M965.75,-118C965.75,-118 880.75,-118 880.75,-118 874.75,-118 868.75,-112 868.75,-106 868.75,-106 868.75,-94 868.75,-94 868.75,-88 874.75,-82 880.75,-82 880.75,-82 965.75,-82 965.75,-82 971.75,-82 977.75,-88 977.75,-94 977.75,-94 977.75,-106 977.75,-106 977.75,-112 971.75,-118 965.75,-118"/>
<text xml:space="preserve" text-anchor="middle" x="923.25" y="-95.72" font-family="Helvetica,sans-Serif" font-size="12.00">Theme 10 Thesis</text>
</a>
</g>
</g>
<!-- n7613683876951351362&#45;&gt;n8629022435086607622 -->
<g id="edge5" class="edge">
<title>n7613683876951351362&#45;&gt;n8629022435086607622</title>
<path fill="none" stroke="#334155" stroke-width="1.6" d="M712.65,-100C712.65,-100 855.94,-100 855.94,-100"/>
<polygon fill="#334155" stroke="#334155" stroke-width="1.6" points="855.94,-103.5 865.94,-100 855.94,-96.5 855.94,-103.5"/>
<text xml:space="preserve" text-anchor="middle" x="790.5" y="-102.5" font-family="Helvetica,sans-Serif" font-size="10.00">adoptsThesis</text>
</g>
<!-- n8629022435086607622&#45;&gt;n7831452608132545121 -->
<g id="edge4" class="edge">
<title>n8629022435086607622&#45;&gt;n7831452608132545121</title>
<path fill="none" stroke="#334155" stroke-width="1.6" d="M978.2,-92.5C978.2,-92.5 1108.66,-92.5 1108.66,-92.5"/>
<polygon fill="#334155" stroke="#334155" stroke-width="1.6" points="1108.66,-96 1118.66,-92.5 1108.66,-89 1108.66,-96"/>
<text xml:space="preserve" text-anchor="middle" x="1049.62" y="-108.5" font-family="Helvetica,sans-Serif" font-size="10.00">hasTheme</text>
</g>
<!-- n758020021326939917 -->
<g id="node8" class="node">
<title>n758020021326939917</title>
<g id="a_node8"><a xlink:title="jdd:admissibility&#45;2f35b8aa&#45;0efa&#45;5b1f&#45;b569&#45;8fb1f4c6f97e">
<path fill="#fce7f3" stroke="#be185d" d="M321.5,-473C321.5,-473 32.5,-473 32.5,-473 26.5,-473 20.5,-467 20.5,-461 20.5,-461 20.5,-449 20.5,-449 20.5,-443 26.5,-437 32.5,-437 32.5,-437 321.5,-437 321.5,-437 327.5,-437 333.5,-443 333.5,-449 333.5,-449 333.5,-461 333.5,-461 333.5,-467 327.5,-473 321.5,-473"/>
<text xml:space="preserve" text-anchor="middle" x="177" y="-450.73" font-family="Helvetica,sans-Serif" font-size="12.00">jdd:admissibility&#45;2f35b8aa&#45;0efa&#45;5b1f&#45;b569&#45;8fb1f4c6f97e</text>
</a>
</g>
</g>
</g>
</svg>
