<?xml version="1.0" encoding="UTF-8" standalone="no"?>
<!DOCTYPE svg PUBLIC "-//W3C//DTD SVG 1.1//EN"
 "http://www.w3.org/Graphics/SVG/1.1/DTD/svg11.dtd">
<!-- Generated by graphviz version 14.1.2 (20260124.0452)
 -->
<!-- Title: rdf_graph Pages: 1 -->
<svg width="1297pt" height="564pt"
 viewBox="0.00 0.00 1297.00 564.00" xmlns="http://www.w3.org/2000/svg" xmlns:xlink="http://www.w3.org/1999/xlink">
<g id="graph0" class="graph" transform="scale(1 1) rotate(0) translate(25.2 539.2)">
<title>rdf_graph</title>
<polygon fill="white" stroke="none" points="-25.2,25.2 -25.2,-539.2 1271.7,-539.2 1271.7,25.2 -25.2,25.2"/>
<g id="clust1" class="cluster">
<title>cluster_workflow</title>
<path fill="white" stroke="#93c5fd" stroke-width="1.2" stroke-dasharray="5,2" d="M22.25,-159C22.25,-159 682.38,-159 682.38,-159 688.38,-159 694.38,-165 694.38,-171 694.38,-171 694.38,-404 694.38,-404 694.38,-410 688.38,-416 682.38,-416 682.38,-416 22.25,-416 22.25,-416 16.25,-416 10.25,-410 10.25,-404 10.25,-404 10.25,-171 10.25,-171 10.25,-165 16.25,-159 22.25,-159"/>
<text xml:space="preserve" text-anchor="middle" x="352.31" y="-398.7" font-family="Times New Roman,serif" font-size="14.00">Workflow / Agents</text>
</g>
<g id="clust2" class="cluster">
<title>cluster_decision</title>
<path fill="white" stroke="#a5b4fc" stroke-width="1.2" stroke-dasharray="5,2" d="M535.25,-74C535.25,-74 716.5,-74 716.5,-74 722.5,-74 728.5,-80 728.5,-86 728.5,-86 728.5,-139 728.5,-139 728.5,-145 722.5,-151 716.5,-151 716.5,-151 535.25,-151 535.25,-151 529.25,-151 523.25,-145 523.25,-139 523.25,-139 523.25,-86 523.25,-86 523.25,-80 529.25,-74 535.25,-74"/>
<text xml:space="preserve" text-anchor="middle" x="625.88" y="-133.7" font-family="Times New Roman,serif" font-size="14.00">Decision</text>
</g>
<g id="clust3" class="cluster">
<title>cluster_theme</title>
<path fill="white" stroke="#86efac" stroke-width="1.2" stroke-dasharray="5,2" d="M881,-44C881,-44 1226.5,-44 1226.5,-44 1232.5,-44 1238.5,-50 1238.5,-56 1238.5,-56 1238.5,-139 1238.5,-139 1238.5,-145 1232.5,-151 1226.5,-151 1226.5,-151 881,-151 881,-151 875,-151 869,-145 869,-139 869,-139 869,-56 869,-56 869,-50 875,-44 881,-44"/>
<text xml:space="preserve" text-anchor="middle" x="1053.75" y="-133.7" font-family="Times New Roman,serif" font-size="14.00">Theme / Thesis</text>
</g>
<g id="clust4" class="cluster">
<title>cluster_document</title>
<path fill="white" stroke="#f9a8d4" stroke-width="1.2" stroke-dasharray="5,2" d="M20,-429C20,-429 342.25,-429 342.25,-429 348.25,-429 354.25,-435 354.25,-441 354.25,-441 354.25,-494 354.25,-494 354.25,-500 348.25,-506 342.25,-506 342.25,-506 20,-506 20,-506 14,-506 8,-500 8,-494 8,-494 8,-441 8,-441 8,-435 14,-429 20,-429"/>
<text xml:space="preserve" text-anchor="middle" x="181.12" y="-488.7" font-family="Times New Roman,serif" font-size="14.00">Document Outcome</text>
</g>
<!-- n1813255899460198435 -->
<g id="node1" class="node">
<title>n1813255899460198435</title>
<g id="a_node1"><a xlink:title="gemini:3&#45;1&#45;flash&#45;lite">
<path fill="#dbeafe" stroke="#1d4ed8" d="M674.38,-239C674.38,-239 577.38,-239 577.38,-239 571.38,-239 565.38,-233 565.38,-227 565.38,-227 565.38,-215 565.38,-215 565.38,-209 571.38,-203 577.38,-203 577.38,-203 674.38,-203 674.38,-203 680.38,-203 686.38,-209 686.38,-215 686.38,-215 686.38,-227 686.38,-227 686.38,-233 680.38,-239 674.38,-239"/>
<text xml:space="preserve" text-anchor="middle" x="625.88" y="-216.72" font-family="Helvetica,sans-Serif" font-size="12.00">gemini:3&#45;1&#45;flash&#45;lite</text>
</a>
</g>
</g>
<!-- n2348875786546625818 -->
<g id="node2" class="node">
<title>n2348875786546625818</title>
<g id="a_node2"><a xlink:title="jdd:classification&#45;4b6ebcce&#45;d856&#45;5f65&#45;9bf1&#45;08206e89cef8">
<polygon fill="#dbeafe" stroke="#1d4ed8" points="344,-203 18.25,-203 18.25,-199 14.25,-199 14.25,-195 18.25,-195 18.25,-175 14.25,-175 14.25,-171 18.25,-171 18.25,-167 344,-167 344,-203"/>
<polyline fill="none" stroke="#1d4ed8" points="18.25,-199 22.25,-199 22.25,-195 18.25,-195"/>
<polyline fill="none" stroke="#1d4ed8" points="18.25,-175 22.25,-175 22.25,-171 18.25,-171"/>
<text xml:space="preserve" text-anchor="middle" x="181.12" y="-180.72" font-family="Helvetica,sans-Serif" font-size="12.00">jdd:classification&#45;4b6ebcce&#45;d856&#45;5f65&#45;9bf1&#45;08206e89cef8</text>
</a>
</g>
</g>
<!-- n2348875786546625818&#45;&gt;n1813255899460198435 -->
<g id="edge3" class="edge">
<title>n2348875786546625818&#45;&gt;n1813255899460198435</title>
<path fill="none" stroke="#334155" stroke-width="1.6" d="M344.39,-194C471.15,-194 625.5,-194 625.5,-194 625.5,-194 625.5,-194.85 625.5,-194.85"/>
<polygon fill="#334155" stroke="#334155" stroke-width="1.6" points="622,-190.12 625.5,-200.12 629,-190.12 622,-190.12"/>
<text xml:space="preserve" text-anchor="middle" x="438.75" y="-223.5" font-family="Helvetica,sans-Serif" font-size="10.00">wasAssociatedWith</text>
</g>
<!-- n2472666229590180481 -->
<g id="node5" class="node">
<title>n2472666229590180481</title>
<g id="a_node5"><a xlink:title="tres:5017048&#45;38.2025.4.02.5101&#10;&#10;subject: IRPF/Imposto de Renda de Pessoa Física, Impostos, DIREITO TRIBUTÁRIO">
<path fill="#e0e7ff" stroke="#4338ca" d="M708.5,-118C708.5,-118 543.25,-118 543.25,-118 537.25,-118 531.25,-112 531.25,-106 531.25,-106 531.25,-94 531.25,-94 531.25,-88 537.25,-82 543.25,-82 543.25,-82 708.5,-82 708.5,-82 714.5,-82 720.5,-88 720.5,-94 720.5,-94 720.5,-106 720.5,-106 720.5,-112 714.5,-118 708.5,-118"/>
<text xml:space="preserve" text-anchor="middle" x="625.88" y="-95.72" font-family="Helvetica,sans-Serif" font-size="12.00">tres:5017048&#45;38.2025.4.02.5101</text>
</a>
</g>
</g>
<!-- n2348875786546625818&#45;&gt;n2472666229590180481 -->
<g id="edge2" class="edge">
<title>n2348875786546625818&#45;&gt;n2472666229590180481</title>
<path fill="none" stroke="#334155" stroke-width="1.6" d="M344.4,-176C442.52,-176 548.5,-176 548.5,-176 548.5,-176 548.5,-130.82 548.5,-130.82"/>
<polygon fill="#334155" stroke="#334155" stroke-width="1.6" points="552,-130.82 548.5,-120.82 545,-130.82 552,-130.82"/>
<text xml:space="preserve" text-anchor="middle" x="438.75" y="-127.5" font-family="Helvetica,sans-Serif" font-size="10.00">used</text>
</g>
<!-- n4319743034119700236 -->
<g id="node6" class="node">
<title>n4319743034119700236</title>
<g id="a_node6"><a xlink:title="Tema 6 &#45; Julgado">
<path fill="#dcfce7" stroke="#15803d" d="M1218.5,-103C1218.5,-103 1135,-103 1135,-103 1129,-103 1123,-97 1123,-91 1123,-91 1123,-79 1123,-79 1123,-73 1129,-67 1135,-67 1135,-67 1218.5,-67 1218.5,-67 1224.5,-67 1230.5,-73 1230.5,-79 1230.5,-79 1230.5,-91 1230.5,-91 1230.5,-97 1224.5,-103 1218.5,-103"/>
<text xml:space="preserve" text-anchor="middle" x="1176.75" y="-80.72" font-family="Helvetica,sans-Serif" font-size="12.00">Tema 6 &#45; Julgado</text>
</a>
</g>
</g>
<!-- n2348875786546625818&#45;&gt;n4319743034119700236 -->
<g id="edge1" class="edge">
<title>n2348875786546625818&#45;&gt;n4319743034119700236</title>
<path fill="none" stroke="#334155" stroke-width="1.6" d="M344.38,-185C626.76,-185 1176.5,-185 1176.5,-185 1176.5,-185 1176.5,-115.76 1176.5,-115.76"/>
<polygon fill="#334155" stroke="#334155" stroke-width="1.6" points="1180,-115.76 1176.5,-105.76 1173,-115.76 1180,-115.76"/>
<text xml:space="preserve" text-anchor="middle" x="798.75" y="-2.5" font-family="Helvetica,sans-Serif" font-size="10.00">used</text>
</g>
<!-- n3060526251864380153 -->
<g id="node3" class="node">
<title>n3060526251864380153</title>
<g id="a_node3"><a xlink:title="jdd:pipeline">
<path fill="#dbeafe" stroke="#1d4ed8" d="M208.25,-293C208.25,-293 154,-293 154,-293 148,-293 142,-287 142,-281 142,-281 142,-269 142,-269 142,-263 148,-257 154,-257 154,-257 208.25,-257 208.25,-257 214.25,-257 220.25,-263 220.25,-269 220.25,-269 220.25,-281 220.25,-281 220.25,-287 214.25,-293 208.25,-293"/>
<text xml:space="preserve" text-anchor="middle" x="181.12" y="-270.73" font-family="Helvetica,sans-Serif" font-size="12.00">jdd:pipeline</text>
</a>
</g>
</g>
<!-- n3369513106044763655 -->
<g id="node4" class="node">
<title>n3369513106044763655</title>
<g id="a_node4"><a xlink:title="jdd:pipeline&#45;run&#45;ea0ead4f&#45;edf8&#45;5799&#45;b634&#45;80cf2088da98">
<path fill="#dbeafe" stroke="#1d4ed8" d="M330.12,-383C330.12,-383 32.12,-383 32.12,-383 26.12,-383 20.12,-377 20.12,-371 20.12,-371 20.12,-359 20.12,-359 20.12,-353 26.12,-347 32.12,-347 32.12,-347 330.12,-347 330.12,-347 336.12,-347 342.12,-353 342.12,-359 342.12,-359 342.12,-371 342.12,-371 342.12,-377 336.12,-383 330.12,-383"/>
<text xml:space="preserve" text-anchor="middle" x="181.12" y="-360.73" font-family="Helvetica,sans-Serif" font-size="12.00">jdd:pipeline&#45;run&#45;ea0ead4f&#45;edf8&#45;5799&#45;b634&#45;80cf2088da98</text>
</a>
</g>
</g>
<!-- n1804002975772455841 -->
<g id="node7" class="node">
<title>n1804002975772455841</title>
<g id="a_node7"><a xlink:title="Theme 6 Thesis&#10;&#10;description: A contribuição ao FUSEX é tributo cujo lançamento se efetua de ofício, sujeita ao prazo prescricional quinquenal, descrito no art. 168, I, do CTN.">
<path fill="#ecfccb" stroke="#4d7c0f" d="M967.25,-118C967.25,-118 889,-118 889,-118 883,-118 877,-112 877,-106 877,-106 877,-94 877,-94 877,-88 883,-82 889,-82 889,-82 967.25,-82 967.25,-82 973.25,-82 979.25,-88 979.25,-94 979.25,-94 979.25,-106 979.25,-106 979.25,-112 973.25,-118 967.25,-118"/>
<text xml:space="preserve" text-anchor="middle" x="928.12" y="-95.72" font-family="Helvetica,sans-Serif" font-size="12.00">Theme 6 Thesis</text>
</a>
</g>
</g>
<!-- n2472666229590180481&#45;&gt;n1804002975772455841 -->
<g id="edge5" class="edge">
<title>n2472666229590180481&#45;&gt;n1804002975772455841</title>
<path fill="none" stroke="#334155" stroke-width="1.6" d="M720.68,-100C720.68,-100 864.32,-100 864.32,-100"/>
<polygon fill="#334155" stroke="#334155" stroke-width="1.6" points="864.32,-103.5 874.32,-100 864.32,-96.5 864.32,-103.5"/>
<text xml:space="preserve" text-anchor="middle" x="798.75" y="-102.5" font-family="Helvetica,sans-Serif" font-size="10.00">adoptsThesis</text>
</g>
<!-- n1804002975772455841&#45;&gt;n4319743034119700236 -->
<g id="edge4" class="edge">
<title>n1804002975772455841&#45;&gt;n4319743034119700236</title>
<path fill="none" stroke="#334155" stroke-width="1.6" d="M979.64,-92.5C979.64,-92.5 1110.3,-92.5 1110.3,-92.5"/>
<polygon fill="#334155" stroke="#334155" stroke-width="1.6" points="1110.3,-96 1120.3,-92.5 1110.3,-89 1110.3,-96"/>
<text xml:space="preserve" text-anchor="middle" x="1051.12" y="-108.5" font-family="Helvetica,sans-Serif" font-size="10.00">hasTheme</text>
</g>
<!-- n1336012056711135046 -->
<g id="node8" class="node">
<title>n1336012056711135046</title>
<g id="a_node8"><a xlink:title="jdd:admissibility&#45;899e4117&#45;4e5c&#45;52fd&#45;8c51&#45;ab1e760d54d7">
<path fill="#fce7f3" stroke="#be185d" d="M334.25,-473C334.25,-473 28,-473 28,-473 22,-473 16,-467 16,-461 16,-461 16,-449 16,-449 16,-443 22,-437 28,-437 28,-437 334.25,-437 334.25,-437 340.25,-437 346.25,-443 346.25,-449 346.25,-449 346.25,-461 346.25,-461 346.25,-467 340.25,-473 334.25,-473"/>
<text xml:space="preserve" text-anchor="middle" x="181.12" y="-450.73" font-family="Helvetica,sans-Serif" font-size="12.00">jdd:admissibility&#45;899e4117&#45;4e5c&#45;52fd&#45;8c51&#45;ab1e760d54d7</text>
</a>
</g>
</g>
</g>
</svg>
