<?xml version="1.0" encoding="UTF-8" standalone="no"?>
<!DOCTYPE svg PUBLIC "-//W3C//DTD SVG 1.1//EN"
 "http://www.w3.org/Graphics/SVG/1.1/DTD/svg11.dtd">
<!-- Generated by graphviz version 14.1.2 (20260124.0452)
 -->
<!-- Title: rdf_graph Pages: 1 -->
<svg width="1311pt" height="564pt"
 viewBox="0.00 0.00 1311.00 564.00" xmlns="http://www.w3.org/2000/svg" xmlns:xlink="http://www.w3.org/1999/xlink">
<g id="graph0" class="graph" transform="scale(1 1) rotate(0) translate(25.2 539.2)">
<title>rdf_graph</title>
<polygon fill="white" stroke="none" points="-25.2,25.2 -25.2,-539.2 1285.95,-539.2 1285.95,25.2 -25.2,25.2"/>
<g id="clust1" class="cluster">
<title>cluster_workflow</title>
<path fill="white" stroke="#93c5fd" stroke-width="1.2" stroke-dasharray="5,2" d="M20.38,-159C20.38,-159 683.12,-159 683.12,-159 689.12,-159 695.12,-165 695.12,-171 695.12,-171 695.12,-404 695.12,-404 695.12,-410 689.12,-416 683.12,-416 683.12,-416 20.38,-416 20.38,-416 14.38,-416 8.38,-410 8.38,-404 8.38,-404 8.38,-171 8.38,-171 8.38,-165 14.38,-159 20.38,-159"/>
<text xml:space="preserve" text-anchor="middle" x="351.75" y="-398.7" font-family="Times New Roman,serif" font-size="14.00">Workflow / Agents</text>
</g>
<g id="clust2" class="cluster">
<title>cluster_decision</title>
<path fill="white" stroke="#a5b4fc" stroke-width="1.2" stroke-dasharray="5,2" d="M536,-74C536,-74 717.25,-74 717.25,-74 723.25,-74 729.25,-80 729.25,-86 729.25,-86 729.25,-139 729.25,-139 729.25,-145 723.25,-151 717.25,-151 717.25,-151 536,-151 536,-151 530,-151 524,-145 524,-139 524,-139 524,-86 524,-86 524,-80 530,-74 536,-74"/>
<text xml:space="preserve" text-anchor="middle" x="626.62" y="-133.7" font-family="Times New Roman,serif" font-size="14.00">Decision</text>
</g>
<g id="clust3" class="cluster">
<title>cluster_theme</title>
<path fill="white" stroke="#86efac" stroke-width="1.2" stroke-dasharray="5,2" d="M881.75,-44C881.75,-44 1240.75,-44 1240.75,-44 1246.75,-44 1252.75,-50 1252.75,-56 1252.75,-56 1252.75,-139 1252.75,-139 1252.75,-145 1246.75,-151 1240.75,-151 1240.75,-151 881.75,-151 881.75,-151 875.75,-151 869.75,-145 869.75,-139 869.75,-139 869.75,-56 869.75,-56 869.75,-50 875.75,-44 881.75,-44"/>
<text xml:space="preserve" text-anchor="middle" x="1061.25" y="-133.7" font-family="Times New Roman,serif" font-size="14.00">Theme / Thesis</text>
</g>
<g id="clust4" class="cluster">
<title>cluster_document</title>
<path fill="white" stroke="#f9a8d4" stroke-width="1.2" stroke-dasharray="5,2" d="M20,-429C20,-429 343,-429 343,-429 349,-429 355,-435 355,-441 355,-441 355,-494 355,-494 355,-500 349,-506 343,-506 343,-506 20,-506 20,-506 14,-506 8,-500 8,-494 8,-494 8,-441 8,-441 8,-435 14,-429 20,-429"/>
<text xml:space="preserve" text-anchor="middle" x="181.5" y="-488.7" font-family="Times New Roman,serif" font-size="14.00">Document Outcome</text>
</g>
<!-- n1813255899460198435 -->
<g id="node1" class="node">
<title>n1813255899460198435</title>
<g id="a_node1"><a xlink:title="gemini:3&#45;1&#45;flash&#45;lite">
<path fill="#dbeafe" stroke="#1d4ed8" d="M675.12,-239C675.12,-239 578.12,-239 578.12,-239 572.12,-239 566.12,-233 566.12,-227 566.12,-227 566.12,-215 566.12,-215 566.12,-209 572.12,-203 578.12,-203 578.12,-203 675.12,-203 675.12,-203 681.12,-203 687.12,-209 687.12,-215 687.12,-215 687.12,-227 687.12,-227 687.12,-233 681.12,-239 675.12,-239"/>
<text xml:space="preserve" text-anchor="middle" x="626.62" y="-216.72" font-family="Helvetica,sans-Serif" font-size="12.00">gemini:3&#45;1&#45;flash&#45;lite</text>
</a>
</g>
</g>
<!-- n6215714429281956009 -->
<g id="node2" class="node">
<title>n6215714429281956009</title>
<g id="a_node2"><a xlink:title="jdd:classification&#45;dd89e38c&#45;2012&#45;5d03&#45;bdfb&#45;a744e6f798c5">
<polygon fill="#dbeafe" stroke="#1d4ed8" points="346.62,-203 16.38,-203 16.38,-199 12.38,-199 12.38,-195 16.38,-195 16.38,-175 12.38,-175 12.38,-171 16.38,-171 16.38,-167 346.62,-167 346.62,-203"/>
<polyline fill="none" stroke="#1d4ed8" points="16.38,-199 20.38,-199 20.38,-195 16.38,-195"/>
<polyline fill="none" stroke="#1d4ed8" points="16.38,-175 20.38,-175 20.38,-171 16.38,-171"/>
<text xml:space="preserve" text-anchor="middle" x="181.5" y="-180.72" font-family="Helvetica,sans-Serif" font-size="12.00">jdd:classification&#45;dd89e38c&#45;2012&#45;5d03&#45;bdfb&#45;a744e6f798c5</text>
</a>
</g>
</g>
<!-- n6215714429281956009&#45;&gt;n1813255899460198435 -->
<g id="edge3" class="edge">
<title>n6215714429281956009&#45;&gt;n1813255899460198435</title>
<path fill="none" stroke="#334155" stroke-width="1.6" d="M346.98,-194C473.63,-194 626.75,-194 626.75,-194 626.75,-194 626.75,-194.85 626.75,-194.85"/>
<polygon fill="#334155" stroke="#334155" stroke-width="1.6" points="623.25,-190.12 626.75,-200.12 630.25,-190.12 623.25,-190.12"/>
<text xml:space="preserve" text-anchor="middle" x="439.5" y="-223.5" font-family="Helvetica,sans-Serif" font-size="10.00">wasAssociatedWith</text>
</g>
<!-- n8819322793656195104 -->
<g id="node5" class="node">
<title>n8819322793656195104</title>
<g id="a_node5"><a xlink:title="tres:5017163&#45;59.2025.4.02.5101&#10;&#10;subject: Fornecimento de medicamentos, Pública, DIREITO DA SAÚDE">
<path fill="#e0e7ff" stroke="#4338ca" d="M709.25,-118C709.25,-118 544,-118 544,-118 538,-118 532,-112 532,-106 532,-106 532,-94 532,-94 532,-88 538,-82 544,-82 544,-82 709.25,-82 709.25,-82 715.25,-82 721.25,-88 721.25,-94 721.25,-94 721.25,-106 721.25,-106 721.25,-112 715.25,-118 709.25,-118"/>
<text xml:space="preserve" text-anchor="middle" x="626.62" y="-95.72" font-family="Helvetica,sans-Serif" font-size="12.00">tres:5017163&#45;59.2025.4.02.5101</text>
</a>
</g>
</g>
<!-- n6215714429281956009&#45;&gt;n8819322793656195104 -->
<g id="edge2" class="edge">
<title>n6215714429281956009&#45;&gt;n8819322793656195104</title>
<path fill="none" stroke="#334155" stroke-width="1.6" d="M346.86,-176C444.34,-176 548.75,-176 548.75,-176 548.75,-176 548.75,-130.82 548.75,-130.82"/>
<polygon fill="#334155" stroke="#334155" stroke-width="1.6" points="552.25,-130.82 548.75,-120.82 545.25,-130.82 552.25,-130.82"/>
<text xml:space="preserve" text-anchor="middle" x="439.5" y="-127.5" font-family="Helvetica,sans-Serif" font-size="10.00">used</text>
</g>
<!-- n5100259574244023654 -->
<g id="node6" class="node">
<title>n5100259574244023654</title>
<g id="a_node6"><a xlink:title="Tema 20 &#45; Julgado">
<path fill="#dcfce7" stroke="#15803d" d="M1232.75,-103C1232.75,-103 1142.5,-103 1142.5,-103 1136.5,-103 1130.5,-97 1130.5,-91 1130.5,-91 1130.5,-79 1130.5,-79 1130.5,-73 1136.5,-67 1142.5,-67 1142.5,-67 1232.75,-67 1232.75,-67 1238.75,-67 1244.75,-73 1244.75,-79 1244.75,-79 1244.75,-91 1244.75,-91 1244.75,-97 1238.75,-103 1232.75,-103"/>
<text xml:space="preserve" text-anchor="middle" x="1187.62" y="-80.72" font-family="Helvetica,sans-Serif" font-size="12.00">Tema 20 &#45; Julgado</text>
</a>
</g>
</g>
<!-- n6215714429281956009&#45;&gt;n5100259574244023654 -->
<g id="edge1" class="edge">
<title>n6215714429281956009&#45;&gt;n5100259574244023654</title>
<path fill="none" stroke="#334155" stroke-width="1.6" d="M347.1,-185C632.74,-185 1187.75,-185 1187.75,-185 1187.75,-185 1187.75,-115.76 1187.75,-115.76"/>
<polygon fill="#334155" stroke="#334155" stroke-width="1.6" points="1191.25,-115.76 1187.75,-105.76 1184.25,-115.76 1191.25,-115.76"/>
<text xml:space="preserve" text-anchor="middle" x="799.5" y="-2.5" font-family="Helvetica,sans-Serif" font-size="10.00">used</text>
</g>
<!-- n3060526251864380153 -->
<g id="node3" class="node">
<title>n3060526251864380153</title>
<g id="a_node3"><a xlink:title="jdd:pipeline">
<path fill="#dbeafe" stroke="#1d4ed8" d="M208.62,-293C208.62,-293 154.38,-293 154.38,-293 148.38,-293 142.38,-287 142.38,-281 142.38,-281 142.38,-269 142.38,-269 142.38,-263 148.38,-257 154.38,-257 154.38,-257 208.62,-257 208.62,-257 214.62,-257 220.62,-263 220.62,-269 220.62,-269 220.62,-281 220.62,-281 220.62,-287 214.62,-293 208.62,-293"/>
<text xml:space="preserve" text-anchor="middle" x="181.5" y="-270.73" font-family="Helvetica,sans-Serif" font-size="12.00">jdd:pipeline</text>
</a>
</g>
</g>
<!-- n3369513106044763655 -->
<g id="node4" class="node">
<title>n3369513106044763655</title>
<g id="a_node4"><a xlink:title="jdd:pipeline&#45;run&#45;ea0ead4f&#45;edf8&#45;5799&#45;b634&#45;80cf2088da98">
<path fill="#dbeafe" stroke="#1d4ed8" d="M330.5,-383C330.5,-383 32.5,-383 32.5,-383 26.5,-383 20.5,-377 20.5,-371 20.5,-371 20.5,-359 20.5,-359 20.5,-353 26.5,-347 32.5,-347 32.5,-347 330.5,-347 330.5,-347 336.5,-347 342.5,-353 342.5,-359 342.5,-359 342.5,-371 342.5,-371 342.5,-377 336.5,-383 330.5,-383"/>
<text xml:space="preserve" text-anchor="middle" x="181.5" y="-360.73" font-family="Helvetica,sans-Serif" font-size="12.00">jdd:pipeline&#45;run&#45;ea0ead4f&#45;edf8&#45;5799&#45;b634&#45;80cf2088da98</text>
</a>
</g>
</g>
<!-- n6742300288562167022 -->
<g id="node7" class="node">
<title>n6742300288562167022</title>
<g id="a_node7"><a xlink:title="Theme 20 Thesis&#10;&#10;description: O reconhecimento, pela Administração Pública, do direito ao adicional por tempo de serviço &#45; MP 1.962&#45;25/2000, demonstrou renúncia tácita da prescrição, que volta a fluir na integralidade dos cinco anos, cujo termo a ...">
<path fill="#ecfccb" stroke="#4d7c0f" d="M974.75,-118C974.75,-118 889.75,-118 889.75,-118 883.75,-118 877.75,-112 877.75,-106 877.75,-106 877.75,-94 877.75,-94 877.75,-88 883.75,-82 889.75,-82 889.75,-82 974.75,-82 974.75,-82 980.75,-82 986.75,-88 986.75,-94 986.75,-94 986.75,-106 986.75,-106 986.75,-112 980.75,-118 974.75,-118"/>
<text xml:space="preserve" text-anchor="middle" x="932.25" y="-95.72" font-family="Helvetica,sans-Serif" font-size="12.00">Theme 20 Thesis</text>
</a>
</g>
</g>
<!-- n8819322793656195104&#45;&gt;n6742300288562167022 -->
<g id="edge5" class="edge">
<title>n8819322793656195104&#45;&gt;n6742300288562167022</title>
<path fill="none" stroke="#334155" stroke-width="1.6" d="M721.65,-100C721.65,-100 864.94,-100 864.94,-100"/>
<polygon fill="#334155" stroke="#334155" stroke-width="1.6" points="864.94,-103.5 874.94,-100 864.94,-96.5 864.94,-103.5"/>
<text xml:space="preserve" text-anchor="middle" x="799.5" y="-102.5" font-family="Helvetica,sans-Serif" font-size="10.00">adoptsThesis</text>
</g>
<!-- n6742300288562167022&#45;&gt;n5100259574244023654 -->
<g id="edge4" class="edge">
<title>n6742300288562167022&#45;&gt;n5100259574244023654</title>
<path fill="none" stroke="#334155" stroke-width="1.6" d="M987.03,-92.5C987.03,-92.5 1117.85,-92.5 1117.85,-92.5"/>
<polygon fill="#334155" stroke="#334155" stroke-width="1.6" points="1117.85,-96 1127.85,-92.5 1117.85,-89 1117.85,-96"/>
<text xml:space="preserve" text-anchor="middle" x="1058.62" y="-108.5" font-family="Helvetica,sans-Serif" font-size="10.00">hasTheme</text>
</g>
<!-- n2246477132371620675 -->
<g id="node8" class="node">
<title>n2246477132371620675</title>
<g id="a_node8"><a xlink:title="jdd:admissibility&#45;7010ea5b&#45;a2ab&#45;5c0a&#45;a3b9&#45;c3607dd0f2ae">
<path fill="#fce7f3" stroke="#be185d" d="M335,-473C335,-473 28,-473 28,-473 22,-473 16,-467 16,-461 16,-461 16,-449 16,-449 16,-443 22,-437 28,-437 28,-437 335,-437 335,-437 341,-437 347,-443 347,-449 347,-449 347,-461 347,-461 347,-467 341,-473 335,-473"/>
<text xml:space="preserve" text-anchor="middle" x="181.5" y="-450.73" font-family="Helvetica,sans-Serif" font-size="12.00">jdd:admissibility&#45;7010ea5b&#45;a2ab&#45;5c0a&#45;a3b9&#45;c3607dd0f2ae</text>
</a>
</g>
</g>
</g>
</svg>
