<?xml version="1.0" encoding="UTF-8" standalone="no"?>
<!DOCTYPE svg PUBLIC "-//W3C//DTD SVG 1.1//EN"
 "http://www.w3.org/Graphics/SVG/1.1/DTD/svg11.dtd">
<!-- Generated by graphviz version 14.1.2 (20260124.0452)
 -->
<!-- Title: rdf_graph Pages: 1 -->
<svg width="1312pt" height="564pt"
 viewBox="0.00 0.00 1312.00 564.00" xmlns="http://www.w3.org/2000/svg" xmlns:xlink="http://www.w3.org/1999/xlink">
<g id="graph0" class="graph" transform="scale(1 1) rotate(0) translate(25.2 539.2)">
<title>rdf_graph</title>
<polygon fill="white" stroke="none" points="-25.2,25.2 -25.2,-539.2 1286.7,-539.2 1286.7,25.2 -25.2,25.2"/>
<g id="clust1" class="cluster">
<title>cluster_workflow</title>
<path fill="white" stroke="#93c5fd" stroke-width="1.2" stroke-dasharray="5,2" d="M20,-159C20,-159 683.88,-159 683.88,-159 689.88,-159 695.88,-165 695.88,-171 695.88,-171 695.88,-404 695.88,-404 695.88,-410 689.88,-416 683.88,-416 683.88,-416 20,-416 20,-416 14,-416 8,-410 8,-404 8,-404 8,-171 8,-171 8,-165 14,-159 20,-159"/>
<text xml:space="preserve" text-anchor="middle" x="351.94" y="-398.7" font-family="Times New Roman,serif" font-size="14.00">Workflow / Agents</text>
</g>
<g id="clust2" class="cluster">
<title>cluster_decision</title>
<path fill="white" stroke="#a5b4fc" stroke-width="1.2" stroke-dasharray="5,2" d="M536.75,-74C536.75,-74 718,-74 718,-74 724,-74 730,-80 730,-86 730,-86 730,-139 730,-139 730,-145 724,-151 718,-151 718,-151 536.75,-151 536.75,-151 530.75,-151 524.75,-145 524.75,-139 524.75,-139 524.75,-86 524.75,-86 524.75,-80 530.75,-74 536.75,-74"/>
<text xml:space="preserve" text-anchor="middle" x="627.38" y="-133.7" font-family="Times New Roman,serif" font-size="14.00">Decision</text>
</g>
<g id="clust3" class="cluster">
<title>cluster_theme</title>
<path fill="white" stroke="#86efac" stroke-width="1.2" stroke-dasharray="5,2" d="M882.5,-44C882.5,-44 1241.5,-44 1241.5,-44 1247.5,-44 1253.5,-50 1253.5,-56 1253.5,-56 1253.5,-139 1253.5,-139 1253.5,-145 1247.5,-151 1241.5,-151 1241.5,-151 882.5,-151 882.5,-151 876.5,-151 870.5,-145 870.5,-139 870.5,-139 870.5,-56 870.5,-56 870.5,-50 876.5,-44 882.5,-44"/>
<text xml:space="preserve" text-anchor="middle" x="1062" y="-133.7" font-family="Times New Roman,serif" font-size="14.00">Theme / Thesis</text>
</g>
<g id="clust4" class="cluster">
<title>cluster_document</title>
<path fill="white" stroke="#f9a8d4" stroke-width="1.2" stroke-dasharray="5,2" d="M21.5,-429C21.5,-429 342.25,-429 342.25,-429 348.25,-429 354.25,-435 354.25,-441 354.25,-441 354.25,-494 354.25,-494 354.25,-500 348.25,-506 342.25,-506 342.25,-506 21.5,-506 21.5,-506 15.5,-506 9.5,-500 9.5,-494 9.5,-494 9.5,-441 9.5,-441 9.5,-435 15.5,-429 21.5,-429"/>
<text xml:space="preserve" text-anchor="middle" x="181.88" y="-488.7" font-family="Times New Roman,serif" font-size="14.00">Document Outcome</text>
</g>
<!-- n1813255899460198435 -->
<g id="node1" class="node">
<title>n1813255899460198435</title>
<g id="a_node1"><a xlink:title="gemini:3&#45;1&#45;flash&#45;lite">
<path fill="#dbeafe" stroke="#1d4ed8" d="M675.88,-239C675.88,-239 578.88,-239 578.88,-239 572.88,-239 566.88,-233 566.88,-227 566.88,-227 566.88,-215 566.88,-215 566.88,-209 572.88,-203 578.88,-203 578.88,-203 675.88,-203 675.88,-203 681.88,-203 687.88,-209 687.88,-215 687.88,-215 687.88,-227 687.88,-227 687.88,-233 681.88,-239 675.88,-239"/>
<text xml:space="preserve" text-anchor="middle" x="627.38" y="-216.72" font-family="Helvetica,sans-Serif" font-size="12.00">gemini:3&#45;1&#45;flash&#45;lite</text>
</a>
</g>
</g>
<!-- n6526995485557451946 -->
<g id="node2" class="node">
<title>n6526995485557451946</title>
<g id="a_node2"><a xlink:title="jdd:classification&#45;11ec3eed&#45;5226&#45;57a9&#45;abd2&#45;1cf26111e3b9">
<polygon fill="#dbeafe" stroke="#1d4ed8" points="347.75,-203 16,-203 16,-199 12,-199 12,-195 16,-195 16,-175 12,-175 12,-171 16,-171 16,-167 347.75,-167 347.75,-203"/>
<polyline fill="none" stroke="#1d4ed8" points="16,-199 20,-199 20,-195 16,-195"/>
<polyline fill="none" stroke="#1d4ed8" points="16,-175 20,-175 20,-171 16,-171"/>
<text xml:space="preserve" text-anchor="middle" x="181.88" y="-180.72" font-family="Helvetica,sans-Serif" font-size="12.00">jdd:classification&#45;11ec3eed&#45;5226&#45;57a9&#45;abd2&#45;1cf26111e3b9</text>
</a>
</g>
</g>
<!-- n6526995485557451946&#45;&gt;n1813255899460198435 -->
<g id="edge3" class="edge">
<title>n6526995485557451946&#45;&gt;n1813255899460198435</title>
<path fill="none" stroke="#334155" stroke-width="1.6" d="M348.13,-194C474.76,-194 627.5,-194 627.5,-194 627.5,-194 627.5,-194.85 627.5,-194.85"/>
<polygon fill="#334155" stroke="#334155" stroke-width="1.6" points="624,-190.12 627.5,-200.12 631,-190.12 624,-190.12"/>
<text xml:space="preserve" text-anchor="middle" x="440.25" y="-223.5" font-family="Helvetica,sans-Serif" font-size="10.00">wasAssociatedWith</text>
</g>
<!-- n3191434728831834166 -->
<g id="node5" class="node">
<title>n3191434728831834166</title>
<g id="a_node5"><a xlink:title="tres:5017131&#45;54.2025.4.02.5101&#10;&#10;subject: Descontos Indevidos, Sistema Remuneratório e Benefícios, Servidor Público Civil, DIREITO ADMINISTRATIVO E OUTRAS MATÉRIAS DE DIREITO PÚBLICO">
<path fill="#e0e7ff" stroke="#4338ca" d="M710,-118C710,-118 544.75,-118 544.75,-118 538.75,-118 532.75,-112 532.75,-106 532.75,-106 532.75,-94 532.75,-94 532.75,-88 538.75,-82 544.75,-82 544.75,-82 710,-82 710,-82 716,-82 722,-88 722,-94 722,-94 722,-106 722,-106 722,-112 716,-118 710,-118"/>
<text xml:space="preserve" text-anchor="middle" x="627.38" y="-95.72" font-family="Helvetica,sans-Serif" font-size="12.00">tres:5017131&#45;54.2025.4.02.5101</text>
</a>
</g>
</g>
<!-- n6526995485557451946&#45;&gt;n3191434728831834166 -->
<g id="edge2" class="edge">
<title>n6526995485557451946&#45;&gt;n3191434728831834166</title>
<path fill="none" stroke="#334155" stroke-width="1.6" d="M348.21,-176C445.56,-176 549.5,-176 549.5,-176 549.5,-176 549.5,-130.82 549.5,-130.82"/>
<polygon fill="#334155" stroke="#334155" stroke-width="1.6" points="553,-130.82 549.5,-120.82 546,-130.82 553,-130.82"/>
<text xml:space="preserve" text-anchor="middle" x="440.25" y="-127.5" font-family="Helvetica,sans-Serif" font-size="10.00">used</text>
</g>
<!-- n8033980716019946947 -->
<g id="node6" class="node">
<title>n8033980716019946947</title>
<g id="a_node6"><a xlink:title="Tema 16 &#45; Julgado">
<path fill="#dcfce7" stroke="#15803d" d="M1233.5,-103C1233.5,-103 1143.25,-103 1143.25,-103 1137.25,-103 1131.25,-97 1131.25,-91 1131.25,-91 1131.25,-79 1131.25,-79 1131.25,-73 1137.25,-67 1143.25,-67 1143.25,-67 1233.5,-67 1233.5,-67 1239.5,-67 1245.5,-73 1245.5,-79 1245.5,-79 1245.5,-91 1245.5,-91 1245.5,-97 1239.5,-103 1233.5,-103"/>
<text xml:space="preserve" text-anchor="middle" x="1188.38" y="-80.72" font-family="Helvetica,sans-Serif" font-size="12.00">Tema 16 &#45; Julgado</text>
</a>
</g>
</g>
<!-- n6526995485557451946&#45;&gt;n8033980716019946947 -->
<g id="edge1" class="edge">
<title>n6526995485557451946&#45;&gt;n8033980716019946947</title>
<path fill="none" stroke="#334155" stroke-width="1.6" d="M348.1,-185C634.01,-185 1188.5,-185 1188.5,-185 1188.5,-185 1188.5,-115.76 1188.5,-115.76"/>
<polygon fill="#334155" stroke="#334155" stroke-width="1.6" points="1192,-115.76 1188.5,-105.76 1185,-115.76 1192,-115.76"/>
<text xml:space="preserve" text-anchor="middle" x="800.25" y="-2.5" font-family="Helvetica,sans-Serif" font-size="10.00">used</text>
</g>
<!-- n3060526251864380153 -->
<g id="node3" class="node">
<title>n3060526251864380153</title>
<g id="a_node3"><a xlink:title="jdd:pipeline">
<path fill="#dbeafe" stroke="#1d4ed8" d="M209,-293C209,-293 154.75,-293 154.75,-293 148.75,-293 142.75,-287 142.75,-281 142.75,-281 142.75,-269 142.75,-269 142.75,-263 148.75,-257 154.75,-257 154.75,-257 209,-257 209,-257 215,-257 221,-263 221,-269 221,-269 221,-281 221,-281 221,-287 215,-293 209,-293"/>
<text xml:space="preserve" text-anchor="middle" x="181.88" y="-270.73" font-family="Helvetica,sans-Serif" font-size="12.00">jdd:pipeline</text>
</a>
</g>
</g>
<!-- n3369513106044763655 -->
<g id="node4" class="node">
<title>n3369513106044763655</title>
<g id="a_node4"><a xlink:title="jdd:pipeline&#45;run&#45;ea0ead4f&#45;edf8&#45;5799&#45;b634&#45;80cf2088da98">
<path fill="#dbeafe" stroke="#1d4ed8" d="M330.88,-383C330.88,-383 32.88,-383 32.88,-383 26.88,-383 20.88,-377 20.88,-371 20.88,-371 20.88,-359 20.88,-359 20.88,-353 26.88,-347 32.88,-347 32.88,-347 330.88,-347 330.88,-347 336.88,-347 342.88,-353 342.88,-359 342.88,-359 342.88,-371 342.88,-371 342.88,-377 336.88,-383 330.88,-383"/>
<text xml:space="preserve" text-anchor="middle" x="181.88" y="-360.73" font-family="Helvetica,sans-Serif" font-size="12.00">jdd:pipeline&#45;run&#45;ea0ead4f&#45;edf8&#45;5799&#45;b634&#45;80cf2088da98</text>
</a>
</g>
</g>
<!-- n8660803322811732460 -->
<g id="node7" class="node">
<title>n8660803322811732460</title>
<g id="a_node7"><a xlink:title="Theme 16 Thesis&#10;&#10;description: A eficácia da progressão funcional deve ser observada segundo a situação individual de cada servidor e seus efeitos retroagem ao momento em que os requisitos legais foram implementados. Vide Tema 82 e PEDILEF n. 50036...">
<path fill="#ecfccb" stroke="#4d7c0f" d="M975.5,-118C975.5,-118 890.5,-118 890.5,-118 884.5,-118 878.5,-112 878.5,-106 878.5,-106 878.5,-94 878.5,-94 878.5,-88 884.5,-82 890.5,-82 890.5,-82 975.5,-82 975.5,-82 981.5,-82 987.5,-88 987.5,-94 987.5,-94 987.5,-106 987.5,-106 987.5,-112 981.5,-118 975.5,-118"/>
<text xml:space="preserve" text-anchor="middle" x="933" y="-95.72" font-family="Helvetica,sans-Serif" font-size="12.00">Theme 16 Thesis</text>
</a>
</g>
</g>
<!-- n3191434728831834166&#45;&gt;n8660803322811732460 -->
<g id="edge5" class="edge">
<title>n3191434728831834166&#45;&gt;n8660803322811732460</title>
<path fill="none" stroke="#334155" stroke-width="1.6" d="M722.4,-100C722.4,-100 865.69,-100 865.69,-100"/>
<polygon fill="#334155" stroke="#334155" stroke-width="1.6" points="865.69,-103.5 875.69,-100 865.69,-96.5 865.69,-103.5"/>
<text xml:space="preserve" text-anchor="middle" x="800.25" y="-102.5" font-family="Helvetica,sans-Serif" font-size="10.00">adoptsThesis</text>
</g>
<!-- n8660803322811732460&#45;&gt;n8033980716019946947 -->
<g id="edge4" class="edge">
<title>n8660803322811732460&#45;&gt;n8033980716019946947</title>
<path fill="none" stroke="#334155" stroke-width="1.6" d="M987.78,-92.5C987.78,-92.5 1118.6,-92.5 1118.6,-92.5"/>
<polygon fill="#334155" stroke="#334155" stroke-width="1.6" points="1118.6,-96 1128.6,-92.5 1118.6,-89 1118.6,-96"/>
<text xml:space="preserve" text-anchor="middle" x="1059.38" y="-108.5" font-family="Helvetica,sans-Serif" font-size="10.00">hasTheme</text>
</g>
<!-- n1852952033977133985 -->
<g id="node8" class="node">
<title>n1852952033977133985</title>
<g id="a_node8"><a xlink:title="jdd:admissibility&#45;6b3ba933&#45;b7df&#45;5355&#45;981f&#45;85a9810746b5">
<path fill="#fce7f3" stroke="#be185d" d="M334.25,-473C334.25,-473 29.5,-473 29.5,-473 23.5,-473 17.5,-467 17.5,-461 17.5,-461 17.5,-449 17.5,-449 17.5,-443 23.5,-437 29.5,-437 29.5,-437 334.25,-437 334.25,-437 340.25,-437 346.25,-443 346.25,-449 346.25,-449 346.25,-461 346.25,-461 346.25,-467 340.25,-473 334.25,-473"/>
<text xml:space="preserve" text-anchor="middle" x="181.88" y="-450.73" font-family="Helvetica,sans-Serif" font-size="12.00">jdd:admissibility&#45;6b3ba933&#45;b7df&#45;5355&#45;981f&#45;85a9810746b5</text>
</a>
</g>
</g>
</g>
</svg>
