<?xml version="1.0" encoding="UTF-8" standalone="no"?>
<!DOCTYPE svg PUBLIC "-//W3C//DTD SVG 1.1//EN"
 "http://www.w3.org/Graphics/SVG/1.1/DTD/svg11.dtd">
<!-- Generated by graphviz version 14.1.2 (20260124.0452)
 -->
<!-- Title: rdf_graph Pages: 1 -->
<svg width="1295pt" height="892pt"
 viewBox="0.00 0.00 1295.00 892.00" xmlns="http://www.w3.org/2000/svg" xmlns:xlink="http://www.w3.org/1999/xlink">
<g id="graph0" class="graph" transform="scale(1 1) rotate(0) translate(25.2 867.2)">
<title>rdf_graph</title>
<polygon fill="white" stroke="none" points="-25.2,25.2 -25.2,-867.2 1270.2,-867.2 1270.2,25.2 -25.2,25.2"/>
<g id="clust1" class="cluster">
<title>cluster_workflow</title>
<path fill="white" stroke="#93c5fd" stroke-width="1.2" stroke-dasharray="5,2" d="M20,-339C20,-339 680.88,-339 680.88,-339 686.88,-339 692.88,-345 692.88,-351 692.88,-351 692.88,-647 692.88,-647 692.88,-653 686.88,-659 680.88,-659 680.88,-659 20,-659 20,-659 14,-659 8,-653 8,-647 8,-647 8,-351 8,-351 8,-345 14,-339 20,-339"/>
<text xml:space="preserve" text-anchor="middle" x="350.44" y="-641.7" font-family="Times New Roman,serif" font-size="14.00">Workflow / Agents</text>
</g>
<g id="clust2" class="cluster">
<title>cluster_decision</title>
<path fill="white" stroke="#a5b4fc" stroke-width="1.2" stroke-dasharray="5,2" d="M533.75,-164C533.75,-164 715,-164 715,-164 721,-164 727,-170 727,-176 727,-176 727,-319 727,-319 727,-325 721,-331 715,-331 715,-331 533.75,-331 533.75,-331 527.75,-331 521.75,-325 521.75,-319 521.75,-319 521.75,-176 521.75,-176 521.75,-170 527.75,-164 533.75,-164"/>
<text xml:space="preserve" text-anchor="middle" x="624.38" y="-313.7" font-family="Times New Roman,serif" font-size="14.00">Decision</text>
</g>
<g id="clust3" class="cluster">
<title>cluster_theme</title>
<path fill="white" stroke="#86efac" stroke-width="1.2" stroke-dasharray="5,2" d="M879.5,-153C879.5,-153 1225,-153 1225,-153 1231,-153 1237,-159 1237,-165 1237,-165 1237,-319 1237,-319 1237,-325 1231,-331 1225,-331 1225,-331 879.5,-331 879.5,-331 873.5,-331 867.5,-325 867.5,-319 867.5,-319 867.5,-165 867.5,-165 867.5,-159 873.5,-153 879.5,-153"/>
<text xml:space="preserve" text-anchor="middle" x="1052.25" y="-313.7" font-family="Times New Roman,serif" font-size="14.00">Theme / Thesis</text>
</g>
<g id="clust4" class="cluster">
<title>cluster_document</title>
<path fill="white" stroke="#f9a8d4" stroke-width="1.2" stroke-dasharray="5,2" d="M20.75,-667C20.75,-667 340,-667 340,-667 346,-667 352,-673 352,-679 352,-679 352,-822 352,-822 352,-828 346,-834 340,-834 340,-834 20.75,-834 20.75,-834 14.75,-834 8.75,-828 8.75,-822 8.75,-822 8.75,-679 8.75,-679 8.75,-673 14.75,-667 20.75,-667"/>
<text xml:space="preserve" text-anchor="middle" x="180.38" y="-816.7" font-family="Times New Roman,serif" font-size="14.00">Document Outcome</text>
</g>
<!-- n1250360617987570706 -->
<g id="node1" class="node">
<title>n1250360617987570706</title>
<g id="a_node1"><a xlink:title="gemini:3&#45;1&#45;flash&#45;lite">
<path fill="#dbeafe" stroke="#1d4ed8" d="M672.88,-490C672.88,-490 575.88,-490 575.88,-490 569.88,-490 563.88,-484 563.88,-478 563.88,-478 563.88,-466 563.88,-466 563.88,-460 569.88,-454 575.88,-454 575.88,-454 672.88,-454 672.88,-454 678.88,-454 684.88,-460 684.88,-466 684.88,-466 684.88,-478 684.88,-478 684.88,-484 678.88,-490 672.88,-490"/>
<text xml:space="preserve" text-anchor="middle" x="624.38" y="-467.73" font-family="Helvetica,sans-Serif" font-size="12.00">gemini:3&#45;1&#45;flash&#45;lite</text>
</a>
</g>
</g>
<!-- n6987486275125768863 -->
<g id="node2" class="node">
<title>n6987486275125768863</title>
<g id="a_node2"><a xlink:title="jdd:classification&#45;20a75290&#45;a23f&#45;545c&#45;b8fb&#45;f8530dccd30b">
<polygon fill="#dbeafe" stroke="#1d4ed8" points="343.25,-473 17.5,-473 17.5,-469 13.5,-469 13.5,-465 17.5,-465 17.5,-445 13.5,-445 13.5,-441 17.5,-441 17.5,-437 343.25,-437 343.25,-473"/>
<polyline fill="none" stroke="#1d4ed8" points="17.5,-469 21.5,-469 21.5,-465 17.5,-465"/>
<polyline fill="none" stroke="#1d4ed8" points="17.5,-445 21.5,-445 21.5,-441 17.5,-441"/>
<text xml:space="preserve" text-anchor="middle" x="180.38" y="-450.73" font-family="Helvetica,sans-Serif" font-size="12.00">jdd:classification&#45;20a75290&#45;a23f&#45;545c&#45;b8fb&#45;f8530dccd30b</text>
</a>
</g>
</g>
<!-- n6987486275125768863&#45;&gt;n1250360617987570706 -->
<g id="edge3" class="edge">
<title>n6987486275125768863&#45;&gt;n1250360617987570706</title>
<path fill="none" stroke="#334155" stroke-width="1.6" d="M343.5,-463.5C343.5,-463.5 551.1,-463.5 551.1,-463.5"/>
<polygon fill="#334155" stroke="#334155" stroke-width="1.6" points="551.1,-467 561.1,-463.5 551.1,-460 551.1,-467"/>
<text xml:space="preserve" text-anchor="middle" x="437.25" y="-474.5" font-family="Helvetica,sans-Serif" font-size="10.00">wasAssociatedWith</text>
</g>
<!-- n7068979979628240164 -->
<g id="node6" class="node">
<title>n7068979979628240164</title>
<g id="a_node6"><a xlink:title="tres:5020184&#45;43.2025.4.02.5101&#10;&#10;subject: IRPF/Imposto de Renda de Pessoa Física, Impostos, DIREITO TRIBUTÁRIO, Isenção, Limitações ao Poder de Tributar, DIREITO TRIBUTÁRIO, Incidência sobre Aposentadoria, IRPF/Imposto de Renda de Pessoa Física, Impostos, DIR...">
<path fill="#e0e7ff" stroke="#4338ca" d="M707,-298C707,-298 541.75,-298 541.75,-298 535.75,-298 529.75,-292 529.75,-286 529.75,-286 529.75,-274 529.75,-274 529.75,-268 535.75,-262 541.75,-262 541.75,-262 707,-262 707,-262 713,-262 719,-268 719,-274 719,-274 719,-286 719,-286 719,-292 713,-298 707,-298"/>
<text xml:space="preserve" text-anchor="middle" x="624.38" y="-275.73" font-family="Helvetica,sans-Serif" font-size="12.00">tres:5020184&#45;43.2025.4.02.5101</text>
</a>
</g>
</g>
<!-- n6987486275125768863&#45;&gt;n7068979979628240164 -->
<g id="edge2" class="edge">
<title>n6987486275125768863&#45;&gt;n7068979979628240164</title>
<path fill="none" stroke="#334155" stroke-width="1.6" d="M343.58,-442.67C441.43,-442.67 547,-442.67 547,-442.67 547,-442.67 547,-310.77 547,-310.77"/>
<polygon fill="#334155" stroke="#334155" stroke-width="1.6" points="550.5,-310.77 547,-300.77 543.5,-310.77 550.5,-310.77"/>
<text xml:space="preserve" text-anchor="middle" x="437.25" y="-307.5" font-family="Helvetica,sans-Serif" font-size="10.00">used</text>
</g>
<!-- n8054977672465406462 -->
<g id="node8" class="node">
<title>n8054977672465406462</title>
<g id="a_node8"><a xlink:title="Tema 1 &#45; Julgado">
<path fill="#dcfce7" stroke="#15803d" d="M1217,-203C1217,-203 1133.5,-203 1133.5,-203 1127.5,-203 1121.5,-197 1121.5,-191 1121.5,-191 1121.5,-179 1121.5,-179 1121.5,-173 1127.5,-167 1133.5,-167 1133.5,-167 1217,-167 1217,-167 1223,-167 1229,-173 1229,-179 1229,-179 1229,-191 1229,-191 1229,-197 1223,-203 1217,-203"/>
<text xml:space="preserve" text-anchor="middle" x="1175.25" y="-180.72" font-family="Helvetica,sans-Serif" font-size="12.00">Tema 1 &#45; Julgado</text>
</a>
</g>
</g>
<!-- n6987486275125768863&#45;&gt;n8054977672465406462 -->
<g id="edge1" class="edge">
<title>n6987486275125768863&#45;&gt;n8054977672465406462</title>
<path fill="none" stroke="#334155" stroke-width="1.6" d="M343.5,-448.33C601.31,-448.33 1074,-448.33 1074,-448.33 1074,-448.33 1074,-195.25 1074,-195.25 1074,-195.25 1108.65,-195.25 1108.65,-195.25"/>
<polygon fill="#334155" stroke="#334155" stroke-width="1.6" points="1108.65,-198.75 1118.65,-195.25 1108.65,-191.75 1108.65,-198.75"/>
<text xml:space="preserve" text-anchor="middle" x="797.25" y="-92.5" font-family="Helvetica,sans-Serif" font-size="10.00">used</text>
</g>
<!-- n1893382375416918576 -->
<g id="node3" class="node">
<title>n1893382375416918576</title>
<g id="a_node3"><a xlink:title="jdd:classification&#45;a199ba82&#45;d6cd&#45;5cfb&#45;9de4&#45;48fc54192b8c">
<polygon fill="#dbeafe" stroke="#1d4ed8" points="344.75,-383 16,-383 16,-379 12,-379 12,-375 16,-375 16,-355 12,-355 12,-351 16,-351 16,-347 344.75,-347 344.75,-383"/>
<polyline fill="none" stroke="#1d4ed8" points="16,-379 20,-379 20,-375 16,-375"/>
<polyline fill="none" stroke="#1d4ed8" points="16,-355 20,-355 20,-351 16,-351"/>
<text xml:space="preserve" text-anchor="middle" x="180.38" y="-360.73" font-family="Helvetica,sans-Serif" font-size="12.00">jdd:classification&#45;a199ba82&#45;d6cd&#45;5cfb&#45;9de4&#45;48fc54192b8c</text>
</a>
</g>
</g>
<!-- n1893382375416918576&#45;&gt;n1250360617987570706 -->
<g id="edge6" class="edge">
<title>n1893382375416918576&#45;&gt;n1250360617987570706</title>
<path fill="none" stroke="#334155" stroke-width="1.6" d="M345.25,-371C471.44,-371 624,-371 624,-371 624,-371 624,-441.52 624,-441.52"/>
<polygon fill="#334155" stroke="#334155" stroke-width="1.6" points="620.5,-441.52 624,-451.52 627.5,-441.52 620.5,-441.52"/>
<text xml:space="preserve" text-anchor="middle" x="437.25" y="-403.5" font-family="Helvetica,sans-Serif" font-size="10.00">wasAssociatedWith</text>
</g>
<!-- n471427587305740556 -->
<g id="node7" class="node">
<title>n471427587305740556</title>
<g id="a_node7"><a xlink:title="tres:5021277&#45;41.2025.4.02.5101&#10;&#10;subject: Indenização por dano moral, Responsabilidade civil, DIREITO CIVIL">
<path fill="#e0e7ff" stroke="#4338ca" d="M707,-208C707,-208 541.75,-208 541.75,-208 535.75,-208 529.75,-202 529.75,-196 529.75,-196 529.75,-184 529.75,-184 529.75,-178 535.75,-172 541.75,-172 541.75,-172 707,-172 707,-172 713,-172 719,-178 719,-184 719,-184 719,-196 719,-196 719,-202 713,-208 707,-208"/>
<text xml:space="preserve" text-anchor="middle" x="624.38" y="-185.72" font-family="Helvetica,sans-Serif" font-size="12.00">tres:5021277&#45;41.2025.4.02.5101</text>
</a>
</g>
</g>
<!-- n1893382375416918576&#45;&gt;n471427587305740556 -->
<g id="edge5" class="edge">
<title>n1893382375416918576&#45;&gt;n471427587305740556</title>
<path fill="none" stroke="#334155" stroke-width="1.6" d="M180,-346.6C180,-301.67 180,-190 180,-190 180,-190 516.9,-190 516.9,-190"/>
<polygon fill="#334155" stroke="#334155" stroke-width="1.6" points="516.9,-193.5 526.9,-190 516.9,-186.5 516.9,-193.5"/>
<text xml:space="preserve" text-anchor="middle" x="437.25" y="-69.5" font-family="Helvetica,sans-Serif" font-size="10.00">used</text>
</g>
<!-- n1893382375416918576&#45;&gt;n8054977672465406462 -->
<g id="edge4" class="edge">
<title>n1893382375416918576&#45;&gt;n8054977672465406462</title>
<path fill="none" stroke="#334155" stroke-width="1.6" d="M345.18,-359C591.22,-359 1026,-359 1026,-359 1026,-359 1026,-187.5 1026,-187.5 1026,-187.5 1108.95,-187.5 1108.95,-187.5"/>
<polygon fill="#334155" stroke="#334155" stroke-width="1.6" points="1108.95,-191 1118.95,-187.5 1108.95,-184 1108.95,-191"/>
<text xml:space="preserve" text-anchor="middle" x="797.25" y="-2.5" font-family="Helvetica,sans-Serif" font-size="10.00">used</text>
</g>
<!-- n4282303924515904387 -->
<g id="node4" class="node">
<title>n4282303924515904387</title>
<g id="a_node4"><a xlink:title="jdd:pipeline">
<path fill="#dbeafe" stroke="#1d4ed8" d="M651.5,-626C651.5,-626 597.25,-626 597.25,-626 591.25,-626 585.25,-620 585.25,-614 585.25,-614 585.25,-602 585.25,-602 585.25,-596 591.25,-590 597.25,-590 597.25,-590 651.5,-590 651.5,-590 657.5,-590 663.5,-596 663.5,-602 663.5,-602 663.5,-614 663.5,-614 663.5,-620 657.5,-626 651.5,-626"/>
<text xml:space="preserve" text-anchor="middle" x="624.38" y="-603.73" font-family="Helvetica,sans-Serif" font-size="12.00">jdd:pipeline</text>
</a>
</g>
</g>
<!-- n7399021667215515962 -->
<g id="node5" class="node">
<title>n7399021667215515962</title>
<g id="a_node5"><a xlink:title="Pipeline run run&#45;20260618T162535944733Z">
<path fill="#dbeafe" stroke="#1d4ed8" d="M295.62,-592C295.62,-592 65.12,-592 65.12,-592 59.12,-592 53.13,-586 53.13,-580 53.13,-580 53.13,-568 53.13,-568 53.13,-562 59.13,-556 65.13,-556 65.13,-556 295.62,-556 295.62,-556 301.62,-556 307.62,-562 307.62,-568 307.62,-568 307.62,-580 307.62,-580 307.62,-586 301.62,-592 295.62,-592"/>
<text xml:space="preserve" text-anchor="middle" x="180.38" y="-569.73" font-family="Helvetica,sans-Serif" font-size="12.00">Pipeline run run&#45;20260618T162535944733Z</text>
</a>
</g>
</g>
<!-- n7399021667215515962&#45;&gt;n1250360617987570706 -->
<g id="edge7" class="edge">
<title>n7399021667215515962&#45;&gt;n1250360617987570706</title>
<path fill="none" stroke="#334155" stroke-width="1.6" d="M307.95,-567.33C423.25,-567.33 575,-567.33 575,-567.33 575,-567.33 575,-502.8 575,-502.8"/>
<polygon fill="#334155" stroke="#334155" stroke-width="1.6" points="578.5,-502.8 575,-492.8 571.5,-502.8 578.5,-502.8"/>
<text xml:space="preserve" text-anchor="middle" x="437.25" y="-545.5" font-family="Helvetica,sans-Serif" font-size="10.00">wasAssociatedWith</text>
</g>
<!-- n7399021667215515962&#45;&gt;n4282303924515904387 -->
<g id="edge8" class="edge">
<title>n7399021667215515962&#45;&gt;n4282303924515904387</title>
<path fill="none" stroke="#334155" stroke-width="1.6" d="M308.09,-578.67C439.15,-578.67 624,-578.67 624,-578.67 624,-578.67 624,-579.76 624,-579.76"/>
<polygon fill="#334155" stroke="#334155" stroke-width="1.6" points="620.5,-577.17 624,-587.17 627.5,-577.17 620.5,-577.17"/>
<text xml:space="preserve" text-anchor="middle" x="437.25" y="-616.5" font-family="Helvetica,sans-Serif" font-size="10.00">wasAssociatedWith</text>
</g>
<!-- n3572600656135673604 -->
<g id="node10" class="node">
<title>n3572600656135673604</title>
<g id="a_node10"><a xlink:title="Theme 1 Thesis&#10;&#10;description: O valor da aposentadoria por invalidez e do auxílio&#45;doença, bem como das pensões destes derivados ou calculadas com base no art. 75, da Lei n. 8.213/91, será obtido, na forma do art. 29, II, do mesmo diploma, por meio...">
<path fill="#ecfccb" stroke="#4d7c0f" d="M965.75,-208C965.75,-208 887.5,-208 887.5,-208 881.5,-208 875.5,-202 875.5,-196 875.5,-196 875.5,-184 875.5,-184 875.5,-178 881.5,-172 887.5,-172 887.5,-172 965.75,-172 965.75,-172 971.75,-172 977.75,-178 977.75,-184 977.75,-184 977.75,-196 977.75,-196 977.75,-202 971.75,-208 965.75,-208"/>
<text xml:space="preserve" text-anchor="middle" x="926.62" y="-185.72" font-family="Helvetica,sans-Serif" font-size="12.00">Theme 1 Thesis</text>
</a>
</g>
</g>
<!-- n7068979979628240164&#45;&gt;n3572600656135673604 -->
<g id="edge11" class="edge">
<title>n7068979979628240164&#45;&gt;n3572600656135673604</title>
<path fill="none" stroke="#334155" stroke-width="1.6" d="M719.27,-280C759.39,-280 797,-280 797,-280 797,-280 797,-196 797,-196 797,-196 862.6,-196 862.6,-196"/>
<polygon fill="#334155" stroke="#334155" stroke-width="1.6" points="862.6,-199.5 872.6,-196 862.6,-192.5 862.6,-199.5"/>
<text xml:space="preserve" text-anchor="middle" x="797.25" y="-272.5" font-family="Helvetica,sans-Serif" font-size="10.00">adoptsThesis</text>
</g>
<!-- n471427587305740556&#45;&gt;n3572600656135673604 -->
<g id="edge12" class="edge">
<title>n471427587305740556&#45;&gt;n3572600656135673604</title>
<path fill="none" stroke="#334155" stroke-width="1.6" d="M719.18,-184C719.18,-184 862.82,-184 862.82,-184"/>
<polygon fill="#334155" stroke="#334155" stroke-width="1.6" points="862.82,-187.5 872.82,-184 862.82,-180.5 862.82,-187.5"/>
<text xml:space="preserve" text-anchor="middle" x="797.25" y="-192.5" font-family="Helvetica,sans-Serif" font-size="10.00">adoptsThesis</text>
</g>
<!-- n6448903686505267036 -->
<g id="node9" class="node">
<title>n6448903686505267036</title>
<g id="a_node9"><a xlink:title="Tema 2 &#45; Julgado">
<path fill="#dcfce7" stroke="#15803d" d="M1217,-298C1217,-298 1133.5,-298 1133.5,-298 1127.5,-298 1121.5,-292 1121.5,-286 1121.5,-286 1121.5,-274 1121.5,-274 1121.5,-268 1127.5,-262 1133.5,-262 1133.5,-262 1217,-262 1217,-262 1223,-262 1229,-268 1229,-274 1229,-274 1229,-286 1229,-286 1229,-292 1223,-298 1217,-298"/>
<text xml:space="preserve" text-anchor="middle" x="1175.25" y="-275.73" font-family="Helvetica,sans-Serif" font-size="12.00">Tema 2 &#45; Julgado</text>
</a>
</g>
</g>
<!-- n3572600656135673604&#45;&gt;n8054977672465406462 -->
<g id="edge9" class="edge">
<title>n3572600656135673604&#45;&gt;n8054977672465406462</title>
<path fill="none" stroke="#334155" stroke-width="1.6" d="M978.14,-179.75C978.14,-179.75 1108.8,-179.75 1108.8,-179.75"/>
<polygon fill="#334155" stroke="#334155" stroke-width="1.6" points="1108.8,-183.25 1118.8,-179.75 1108.8,-176.25 1108.8,-183.25"/>
<text xml:space="preserve" text-anchor="middle" x="1049.62" y="-217.5" font-family="Helvetica,sans-Serif" font-size="10.00">hasTheme</text>
</g>
<!-- n4047459254301200893 -->
<g id="node11" class="node">
<title>n4047459254301200893</title>
<g id="a_node11"><a xlink:title="Theme 2 Thesis&#10;&#10;description: No caso de aposentadoria por idade rural, a certidão de casamento vale como início de prova material, ainda que extemporânea.">
<path fill="#ecfccb" stroke="#4d7c0f" d="M965.75,-298C965.75,-298 887.5,-298 887.5,-298 881.5,-298 875.5,-292 875.5,-286 875.5,-286 875.5,-274 875.5,-274 875.5,-268 881.5,-262 887.5,-262 887.5,-262 965.75,-262 965.75,-262 971.75,-262 977.75,-268 977.75,-274 977.75,-274 977.75,-286 977.75,-286 977.75,-292 971.75,-298 965.75,-298"/>
<text xml:space="preserve" text-anchor="middle" x="926.62" y="-275.73" font-family="Helvetica,sans-Serif" font-size="12.00">Theme 2 Thesis</text>
</a>
</g>
</g>
<!-- n4047459254301200893&#45;&gt;n6448903686505267036 -->
<g id="edge10" class="edge">
<title>n4047459254301200893&#45;&gt;n6448903686505267036</title>
<path fill="none" stroke="#334155" stroke-width="1.6" d="M978.14,-280C978.14,-280 1108.8,-280 1108.8,-280"/>
<polygon fill="#334155" stroke="#334155" stroke-width="1.6" points="1108.8,-283.5 1118.8,-280 1108.8,-276.5 1108.8,-283.5"/>
<text xml:space="preserve" text-anchor="middle" x="1049.62" y="-288.5" font-family="Helvetica,sans-Serif" font-size="10.00">hasTheme</text>
</g>
<!-- n3369619602977421047 -->
<g id="node12" class="node">
<title>n3369619602977421047</title>
<g id="a_node12"><a xlink:title="jdd:admissibility&#45;ccdd1bbf&#45;4fe7&#45;521a&#45;87b1&#45;64e782a57132">
<path fill="#fce7f3" stroke="#be185d" d="M332,-711C332,-711 28.75,-711 28.75,-711 22.75,-711 16.75,-705 16.75,-699 16.75,-699 16.75,-687 16.75,-687 16.75,-681 22.75,-675 28.75,-675 28.75,-675 332,-675 332,-675 338,-675 344,-681 344,-687 344,-687 344,-699 344,-699 344,-705 338,-711 332,-711"/>
<text xml:space="preserve" text-anchor="middle" x="180.38" y="-688.73" font-family="Helvetica,sans-Serif" font-size="12.00">jdd:admissibility&#45;ccdd1bbf&#45;4fe7&#45;521a&#45;87b1&#45;64e782a57132</text>
</a>
</g>
</g>
<!-- n8348875098101144021 -->
<g id="node13" class="node">
<title>n8348875098101144021</title>
<g id="a_node13"><a xlink:title="jdd:admissibility&#45;e47473b4&#45;3f05&#45;549c&#45;9b4d&#45;0119d1af65e0">
<path fill="#fce7f3" stroke="#be185d" d="M332,-801C332,-801 28.75,-801 28.75,-801 22.75,-801 16.75,-795 16.75,-789 16.75,-789 16.75,-777 16.75,-777 16.75,-771 22.75,-765 28.75,-765 28.75,-765 332,-765 332,-765 338,-765 344,-771 344,-777 344,-777 344,-789 344,-789 344,-795 338,-801 332,-801"/>
<text xml:space="preserve" text-anchor="middle" x="180.38" y="-778.73" font-family="Helvetica,sans-Serif" font-size="12.00">jdd:admissibility&#45;e47473b4&#45;3f05&#45;549c&#45;9b4d&#45;0119d1af65e0</text>
</a>
</g>
</g>
</g>
</svg>
