<?xml version="1.0" encoding="UTF-8" standalone="no"?>
<!DOCTYPE svg PUBLIC "-//W3C//DTD SVG 1.1//EN"
 "http://www.w3.org/Graphics/SVG/1.1/DTD/svg11.dtd">
<!-- Generated by graphviz version 14.1.2 (20260124.0452)
 -->
<!-- Title: rdf_graph Pages: 1 -->
<svg width="1295pt" height="564pt"
 viewBox="0.00 0.00 1295.00 564.00" xmlns="http://www.w3.org/2000/svg" xmlns:xlink="http://www.w3.org/1999/xlink">
<g id="graph0" class="graph" transform="scale(1 1) rotate(0) translate(25.2 539.2)">
<title>rdf_graph</title>
<polygon fill="white" stroke="none" points="-25.2,25.2 -25.2,-539.2 1270.2,-539.2 1270.2,25.2 -25.2,25.2"/>
<g id="clust1" class="cluster">
<title>cluster_workflow</title>
<path fill="white" stroke="#93c5fd" stroke-width="1.2" stroke-dasharray="5,2" d="M20,-159C20,-159 680.88,-159 680.88,-159 686.88,-159 692.88,-165 692.88,-171 692.88,-171 692.88,-404 692.88,-404 692.88,-410 686.88,-416 680.88,-416 680.88,-416 20,-416 20,-416 14,-416 8,-410 8,-404 8,-404 8,-171 8,-171 8,-165 14,-159 20,-159"/>
<text xml:space="preserve" text-anchor="middle" x="350.44" y="-398.7" font-family="Times New Roman,serif" font-size="14.00">Workflow / Agents</text>
</g>
<g id="clust2" class="cluster">
<title>cluster_decision</title>
<path fill="white" stroke="#a5b4fc" stroke-width="1.2" stroke-dasharray="5,2" d="M533.75,-74C533.75,-74 715,-74 715,-74 721,-74 727,-80 727,-86 727,-86 727,-139 727,-139 727,-145 721,-151 715,-151 715,-151 533.75,-151 533.75,-151 527.75,-151 521.75,-145 521.75,-139 521.75,-139 521.75,-86 521.75,-86 521.75,-80 527.75,-74 533.75,-74"/>
<text xml:space="preserve" text-anchor="middle" x="624.38" y="-133.7" font-family="Times New Roman,serif" font-size="14.00">Decision</text>
</g>
<g id="clust3" class="cluster">
<title>cluster_theme</title>
<path fill="white" stroke="#86efac" stroke-width="1.2" stroke-dasharray="5,2" d="M879.5,-44C879.5,-44 1225,-44 1225,-44 1231,-44 1237,-50 1237,-56 1237,-56 1237,-139 1237,-139 1237,-145 1231,-151 1225,-151 1225,-151 879.5,-151 879.5,-151 873.5,-151 867.5,-145 867.5,-139 867.5,-139 867.5,-56 867.5,-56 867.5,-50 873.5,-44 879.5,-44"/>
<text xml:space="preserve" text-anchor="middle" x="1052.25" y="-133.7" font-family="Times New Roman,serif" font-size="14.00">Theme / Thesis</text>
</g>
<g id="clust4" class="cluster">
<title>cluster_document</title>
<path fill="white" stroke="#f9a8d4" stroke-width="1.2" stroke-dasharray="5,2" d="M20.75,-429C20.75,-429 340,-429 340,-429 346,-429 352,-435 352,-441 352,-441 352,-494 352,-494 352,-500 346,-506 340,-506 340,-506 20.75,-506 20.75,-506 14.75,-506 8.75,-500 8.75,-494 8.75,-494 8.75,-441 8.75,-441 8.75,-435 14.75,-429 20.75,-429"/>
<text xml:space="preserve" text-anchor="middle" x="180.38" y="-488.7" font-family="Times New Roman,serif" font-size="14.00">Document Outcome</text>
</g>
<!-- n4968622088209623657 -->
<g id="node1" class="node">
<title>n4968622088209623657</title>
<g id="a_node1"><a xlink:title="gemini:3&#45;1&#45;flash&#45;lite">
<path fill="#dbeafe" stroke="#1d4ed8" d="M672.88,-239C672.88,-239 575.88,-239 575.88,-239 569.88,-239 563.88,-233 563.88,-227 563.88,-227 563.88,-215 563.88,-215 563.88,-209 569.88,-203 575.88,-203 575.88,-203 672.88,-203 672.88,-203 678.88,-203 684.88,-209 684.88,-215 684.88,-215 684.88,-227 684.88,-227 684.88,-233 678.88,-239 672.88,-239"/>
<text xml:space="preserve" text-anchor="middle" x="624.38" y="-216.72" font-family="Helvetica,sans-Serif" font-size="12.00">gemini:3&#45;1&#45;flash&#45;lite</text>
</a>
</g>
</g>
<!-- n6568639636078492260 -->
<g id="node2" class="node">
<title>n6568639636078492260</title>
<g id="a_node2"><a xlink:title="jdd:classification&#45;a199ba82&#45;d6cd&#45;5cfb&#45;9de4&#45;48fc54192b8c">
<polygon fill="#dbeafe" stroke="#1d4ed8" points="344.75,-203 16,-203 16,-199 12,-199 12,-195 16,-195 16,-175 12,-175 12,-171 16,-171 16,-167 344.75,-167 344.75,-203"/>
<polyline fill="none" stroke="#1d4ed8" points="16,-199 20,-199 20,-195 16,-195"/>
<polyline fill="none" stroke="#1d4ed8" points="16,-175 20,-175 20,-171 16,-171"/>
<text xml:space="preserve" text-anchor="middle" x="180.38" y="-180.72" font-family="Helvetica,sans-Serif" font-size="12.00">jdd:classification&#45;a199ba82&#45;d6cd&#45;5cfb&#45;9de4&#45;48fc54192b8c</text>
</a>
</g>
</g>
<!-- n6568639636078492260&#45;&gt;n4968622088209623657 -->
<g id="edge3" class="edge">
<title>n6568639636078492260&#45;&gt;n4968622088209623657</title>
<path fill="none" stroke="#334155" stroke-width="1.6" d="M345.25,-194C471.44,-194 624,-194 624,-194 624,-194 624,-194.85 624,-194.85"/>
<polygon fill="#334155" stroke="#334155" stroke-width="1.6" points="620.5,-190.12 624,-200.12 627.5,-190.12 620.5,-190.12"/>
<text xml:space="preserve" text-anchor="middle" x="437.25" y="-223.5" font-family="Helvetica,sans-Serif" font-size="10.00">wasAssociatedWith</text>
</g>
<!-- n3916405924012973264 -->
<g id="node5" class="node">
<title>n3916405924012973264</title>
<g id="a_node5"><a xlink:title="tres:5021277&#45;41.2025.4.02.5101&#10;&#10;subject: Indenização por dano moral, Responsabilidade civil, DIREITO CIVIL">
<path fill="#e0e7ff" stroke="#4338ca" d="M707,-118C707,-118 541.75,-118 541.75,-118 535.75,-118 529.75,-112 529.75,-106 529.75,-106 529.75,-94 529.75,-94 529.75,-88 535.75,-82 541.75,-82 541.75,-82 707,-82 707,-82 713,-82 719,-88 719,-94 719,-94 719,-106 719,-106 719,-112 713,-118 707,-118"/>
<text xml:space="preserve" text-anchor="middle" x="624.38" y="-95.72" font-family="Helvetica,sans-Serif" font-size="12.00">tres:5021277&#45;41.2025.4.02.5101</text>
</a>
</g>
</g>
<!-- n6568639636078492260&#45;&gt;n3916405924012973264 -->
<g id="edge2" class="edge">
<title>n6568639636078492260&#45;&gt;n3916405924012973264</title>
<path fill="none" stroke="#334155" stroke-width="1.6" d="M345.19,-176C442.58,-176 547,-176 547,-176 547,-176 547,-130.82 547,-130.82"/>
<polygon fill="#334155" stroke="#334155" stroke-width="1.6" points="550.5,-130.82 547,-120.82 543.5,-130.82 550.5,-130.82"/>
<text xml:space="preserve" text-anchor="middle" x="437.25" y="-127.5" font-family="Helvetica,sans-Serif" font-size="10.00">used</text>
</g>
<!-- n1846381668128507765 -->
<g id="node6" class="node">
<title>n1846381668128507765</title>
<g id="a_node6"><a xlink:title="Tema 1 &#45; Julgado">
<path fill="#dcfce7" stroke="#15803d" d="M1217,-103C1217,-103 1133.5,-103 1133.5,-103 1127.5,-103 1121.5,-97 1121.5,-91 1121.5,-91 1121.5,-79 1121.5,-79 1121.5,-73 1127.5,-67 1133.5,-67 1133.5,-67 1217,-67 1217,-67 1223,-67 1229,-73 1229,-79 1229,-79 1229,-91 1229,-91 1229,-97 1223,-103 1217,-103"/>
<text xml:space="preserve" text-anchor="middle" x="1175.25" y="-80.72" font-family="Helvetica,sans-Serif" font-size="12.00">Tema 1 &#45; Julgado</text>
</a>
</g>
</g>
<!-- n6568639636078492260&#45;&gt;n1846381668128507765 -->
<g id="edge1" class="edge">
<title>n6568639636078492260&#45;&gt;n1846381668128507765</title>
<path fill="none" stroke="#334155" stroke-width="1.6" d="M345.18,-185C627.84,-185 1175,-185 1175,-185 1175,-185 1175,-115.76 1175,-115.76"/>
<polygon fill="#334155" stroke="#334155" stroke-width="1.6" points="1178.5,-115.76 1175,-105.76 1171.5,-115.76 1178.5,-115.76"/>
<text xml:space="preserve" text-anchor="middle" x="797.25" y="-2.5" font-family="Helvetica,sans-Serif" font-size="10.00">used</text>
</g>
<!-- n7315456772206326800 -->
<g id="node3" class="node">
<title>n7315456772206326800</title>
<g id="a_node3"><a xlink:title="jdd:pipeline">
<path fill="#dbeafe" stroke="#1d4ed8" d="M207.5,-293C207.5,-293 153.25,-293 153.25,-293 147.25,-293 141.25,-287 141.25,-281 141.25,-281 141.25,-269 141.25,-269 141.25,-263 147.25,-257 153.25,-257 153.25,-257 207.5,-257 207.5,-257 213.5,-257 219.5,-263 219.5,-269 219.5,-269 219.5,-281 219.5,-281 219.5,-287 213.5,-293 207.5,-293"/>
<text xml:space="preserve" text-anchor="middle" x="180.38" y="-270.73" font-family="Helvetica,sans-Serif" font-size="12.00">jdd:pipeline</text>
</a>
</g>
</g>
<!-- n3128471904807685717 -->
<g id="node4" class="node">
<title>n3128471904807685717</title>
<g id="a_node4"><a xlink:title="jdd:pipeline&#45;run&#45;980dd3a7&#45;45dd&#45;599f&#45;9ec6&#45;703bfd84dc45">
<path fill="#dbeafe" stroke="#1d4ed8" d="M330.88,-383C330.88,-383 29.88,-383 29.88,-383 23.88,-383 17.88,-377 17.88,-371 17.88,-371 17.88,-359 17.88,-359 17.88,-353 23.88,-347 29.88,-347 29.88,-347 330.88,-347 330.88,-347 336.88,-347 342.88,-353 342.88,-359 342.88,-359 342.88,-371 342.88,-371 342.88,-377 336.88,-383 330.88,-383"/>
<text xml:space="preserve" text-anchor="middle" x="180.38" y="-360.73" font-family="Helvetica,sans-Serif" font-size="12.00">jdd:pipeline&#45;run&#45;980dd3a7&#45;45dd&#45;599f&#45;9ec6&#45;703bfd84dc45</text>
</a>
</g>
</g>
<!-- n5286804736994607284 -->
<g id="node7" class="node">
<title>n5286804736994607284</title>
<g id="a_node7"><a xlink:title="Theme 1 Thesis&#10;&#10;description: O valor da aposentadoria por invalidez e do auxílio&#45;doença, bem como das pensões destes derivados ou calculadas com base no art. 75, da Lei n. 8.213/91, será obtido, na forma do art. 29, II, do mesmo diploma, por meio...">
<path fill="#ecfccb" stroke="#4d7c0f" d="M965.75,-118C965.75,-118 887.5,-118 887.5,-118 881.5,-118 875.5,-112 875.5,-106 875.5,-106 875.5,-94 875.5,-94 875.5,-88 881.5,-82 887.5,-82 887.5,-82 965.75,-82 965.75,-82 971.75,-82 977.75,-88 977.75,-94 977.75,-94 977.75,-106 977.75,-106 977.75,-112 971.75,-118 965.75,-118"/>
<text xml:space="preserve" text-anchor="middle" x="926.62" y="-95.72" font-family="Helvetica,sans-Serif" font-size="12.00">Theme 1 Thesis</text>
</a>
</g>
</g>
<!-- n3916405924012973264&#45;&gt;n5286804736994607284 -->
<g id="edge5" class="edge">
<title>n3916405924012973264&#45;&gt;n5286804736994607284</title>
<path fill="none" stroke="#334155" stroke-width="1.6" d="M719.18,-100C719.18,-100 862.82,-100 862.82,-100"/>
<polygon fill="#334155" stroke="#334155" stroke-width="1.6" points="862.82,-103.5 872.82,-100 862.82,-96.5 862.82,-103.5"/>
<text xml:space="preserve" text-anchor="middle" x="797.25" y="-102.5" font-family="Helvetica,sans-Serif" font-size="10.00">adoptsThesis</text>
</g>
<!-- n5286804736994607284&#45;&gt;n1846381668128507765 -->
<g id="edge4" class="edge">
<title>n5286804736994607284&#45;&gt;n1846381668128507765</title>
<path fill="none" stroke="#334155" stroke-width="1.6" d="M978.14,-92.5C978.14,-92.5 1108.8,-92.5 1108.8,-92.5"/>
<polygon fill="#334155" stroke="#334155" stroke-width="1.6" points="1108.8,-96 1118.8,-92.5 1108.8,-89 1108.8,-96"/>
<text xml:space="preserve" text-anchor="middle" x="1049.62" y="-108.5" font-family="Helvetica,sans-Serif" font-size="10.00">hasTheme</text>
</g>
<!-- n2881646379498980182 -->
<g id="node8" class="node">
<title>n2881646379498980182</title>
<g id="a_node8"><a xlink:title="jdd:admissibility&#45;ccdd1bbf&#45;4fe7&#45;521a&#45;87b1&#45;64e782a57132">
<path fill="#fce7f3" stroke="#be185d" d="M332,-473C332,-473 28.75,-473 28.75,-473 22.75,-473 16.75,-467 16.75,-461 16.75,-461 16.75,-449 16.75,-449 16.75,-443 22.75,-437 28.75,-437 28.75,-437 332,-437 332,-437 338,-437 344,-443 344,-449 344,-449 344,-461 344,-461 344,-467 338,-473 332,-473"/>
<text xml:space="preserve" text-anchor="middle" x="180.38" y="-450.73" font-family="Helvetica,sans-Serif" font-size="12.00">jdd:admissibility&#45;ccdd1bbf&#45;4fe7&#45;521a&#45;87b1&#45;64e782a57132</text>
</a>
</g>
</g>
</g>
</svg>
