<?xml version="1.0" encoding="UTF-8" standalone="no"?>
<!DOCTYPE svg PUBLIC "-//W3C//DTD SVG 1.1//EN"
 "http://www.w3.org/Graphics/SVG/1.1/DTD/svg11.dtd">
<!-- Generated by graphviz version 14.1.2 (20260124.0452)
 -->
<!-- Title: rdf_graph Pages: 1 -->
<svg width="1329pt" height="564pt"
 viewBox="0.00 0.00 1329.00 564.00" xmlns="http://www.w3.org/2000/svg" xmlns:xlink="http://www.w3.org/1999/xlink">
<g id="graph0" class="graph" transform="scale(1 1) rotate(0) translate(25.2 539.2)">
<title>rdf_graph</title>
<polygon fill="white" stroke="none" points="-25.2,25.2 -25.2,-539.2 1303.95,-539.2 1303.95,25.2 -25.2,25.2"/>
<g id="clust1" class="cluster">
<title>cluster_workflow</title>
<path fill="white" stroke="#93c5fd" stroke-width="1.2" stroke-dasharray="5,2" d="M20,-159C20,-159 687.62,-159 687.62,-159 693.62,-159 699.62,-165 699.62,-171 699.62,-171 699.62,-404 699.62,-404 699.62,-410 693.62,-416 687.62,-416 687.62,-416 20,-416 20,-416 14,-416 8,-410 8,-404 8,-404 8,-171 8,-171 8,-165 14,-159 20,-159"/>
<text xml:space="preserve" text-anchor="middle" x="353.81" y="-398.7" font-family="Times New Roman,serif" font-size="14.00">Workflow / Agents</text>
</g>
<g id="clust2" class="cluster">
<title>cluster_decision</title>
<path fill="white" stroke="#a5b4fc" stroke-width="1.2" stroke-dasharray="5,2" d="M540.5,-74C540.5,-74 721.75,-74 721.75,-74 727.75,-74 733.75,-80 733.75,-86 733.75,-86 733.75,-139 733.75,-139 733.75,-145 727.75,-151 721.75,-151 721.75,-151 540.5,-151 540.5,-151 534.5,-151 528.5,-145 528.5,-139 528.5,-139 528.5,-86 528.5,-86 528.5,-80 534.5,-74 540.5,-74"/>
<text xml:space="preserve" text-anchor="middle" x="631.12" y="-133.7" font-family="Times New Roman,serif" font-size="14.00">Decision</text>
</g>
<g id="clust3" class="cluster">
<title>cluster_theme</title>
<path fill="white" stroke="#86efac" stroke-width="1.2" stroke-dasharray="5,2" d="M886.25,-44C886.25,-44 1258.75,-44 1258.75,-44 1264.75,-44 1270.75,-50 1270.75,-56 1270.75,-56 1270.75,-139 1270.75,-139 1270.75,-145 1264.75,-151 1258.75,-151 1258.75,-151 886.25,-151 886.25,-151 880.25,-151 874.25,-145 874.25,-139 874.25,-139 874.25,-56 874.25,-56 874.25,-50 880.25,-44 886.25,-44"/>
<text xml:space="preserve" text-anchor="middle" x="1072.5" y="-133.7" font-family="Times New Roman,serif" font-size="14.00">Theme / Thesis</text>
</g>
<g id="clust4" class="cluster">
<title>cluster_document</title>
<path fill="white" stroke="#f9a8d4" stroke-width="1.2" stroke-dasharray="5,2" d="M27.12,-429C27.12,-429 340.38,-429 340.38,-429 346.38,-429 352.38,-435 352.38,-441 352.38,-441 352.38,-494 352.38,-494 352.38,-500 346.38,-506 340.38,-506 340.38,-506 27.12,-506 27.12,-506 21.12,-506 15.12,-500 15.12,-494 15.12,-494 15.12,-441 15.12,-441 15.12,-435 21.12,-429 27.12,-429"/>
<text xml:space="preserve" text-anchor="middle" x="183.75" y="-488.7" font-family="Times New Roman,serif" font-size="14.00">Document Outcome</text>
</g>
<!-- n8648471610385959519 -->
<g id="node1" class="node">
<title>n8648471610385959519</title>
<g id="a_node1"><a xlink:title="gemini:3&#45;1&#45;flash&#45;lite">
<path fill="#dbeafe" stroke="#1d4ed8" d="M679.62,-239C679.62,-239 582.62,-239 582.62,-239 576.62,-239 570.62,-233 570.62,-227 570.62,-227 570.62,-215 570.62,-215 570.62,-209 576.62,-203 582.62,-203 582.62,-203 679.62,-203 679.62,-203 685.62,-203 691.62,-209 691.62,-215 691.62,-215 691.62,-227 691.62,-227 691.62,-233 685.62,-239 679.62,-239"/>
<text xml:space="preserve" text-anchor="middle" x="631.12" y="-216.72" font-family="Helvetica,sans-Serif" font-size="12.00">gemini:3&#45;1&#45;flash&#45;lite</text>
</a>
</g>
</g>
<!-- n2339124587235141192 -->
<g id="node2" class="node">
<title>n2339124587235141192</title>
<g id="a_node2"><a xlink:title="jdd:classification&#45;b510122f&#45;031a&#45;5975&#45;943b&#45;384444137b3a">
<polygon fill="#dbeafe" stroke="#1d4ed8" points="351.5,-203 16,-203 16,-199 12,-199 12,-195 16,-195 16,-175 12,-175 12,-171 16,-171 16,-167 351.5,-167 351.5,-203"/>
<polyline fill="none" stroke="#1d4ed8" points="16,-199 20,-199 20,-195 16,-195"/>
<polyline fill="none" stroke="#1d4ed8" points="16,-175 20,-175 20,-171 16,-171"/>
<text xml:space="preserve" text-anchor="middle" x="183.75" y="-180.72" font-family="Helvetica,sans-Serif" font-size="12.00">jdd:classification&#45;b510122f&#45;031a&#45;5975&#45;943b&#45;384444137b3a</text>
</a>
</g>
</g>
<!-- n2339124587235141192&#45;&gt;n8648471610385959519 -->
<g id="edge3" class="edge">
<title>n2339124587235141192&#45;&gt;n8648471610385959519</title>
<path fill="none" stroke="#334155" stroke-width="1.6" d="M351.79,-194C478.56,-194 630.75,-194 630.75,-194 630.75,-194 630.75,-194.85 630.75,-194.85"/>
<polygon fill="#334155" stroke="#334155" stroke-width="1.6" points="627.25,-190.12 630.75,-200.12 634.25,-190.12 627.25,-190.12"/>
<text xml:space="preserve" text-anchor="middle" x="444" y="-223.5" font-family="Helvetica,sans-Serif" font-size="10.00">wasAssociatedWith</text>
</g>
<!-- n9152219529342493904 -->
<g id="node5" class="node">
<title>n9152219529342493904</title>
<g id="a_node5"><a xlink:title="tres:5003714&#45;34.2025.4.02.5101&#10;&#10;subject: Auxílio&#45;alimentação, Sistema Remuneratório e Benefícios, Servidor Público Civil, DIREITO ADMINISTRATIVO E OUTRAS MATÉRIAS DE DIREITO PÚBLICO">
<path fill="#e0e7ff" stroke="#4338ca" d="M713.75,-118C713.75,-118 548.5,-118 548.5,-118 542.5,-118 536.5,-112 536.5,-106 536.5,-106 536.5,-94 536.5,-94 536.5,-88 542.5,-82 548.5,-82 548.5,-82 713.75,-82 713.75,-82 719.75,-82 725.75,-88 725.75,-94 725.75,-94 725.75,-106 725.75,-106 725.75,-112 719.75,-118 713.75,-118"/>
<text xml:space="preserve" text-anchor="middle" x="631.12" y="-95.72" font-family="Helvetica,sans-Serif" font-size="12.00">tres:5003714&#45;34.2025.4.02.5101</text>
</a>
</g>
</g>
<!-- n2339124587235141192&#45;&gt;n9152219529342493904 -->
<g id="edge2" class="edge">
<title>n2339124587235141192&#45;&gt;n9152219529342493904</title>
<path fill="none" stroke="#334155" stroke-width="1.6" d="M351.97,-176C449.71,-176 553.75,-176 553.75,-176 553.75,-176 553.75,-130.82 553.75,-130.82"/>
<polygon fill="#334155" stroke="#334155" stroke-width="1.6" points="557.25,-130.82 553.75,-120.82 550.25,-130.82 557.25,-130.82"/>
<text xml:space="preserve" text-anchor="middle" x="444" y="-127.5" font-family="Helvetica,sans-Serif" font-size="10.00">used</text>
</g>
<!-- n4636528659980747755 -->
<g id="node6" class="node">
<title>n4636528659980747755</title>
<g id="a_node6"><a xlink:title="Tema 309 &#45; Julgado">
<path fill="#dcfce7" stroke="#15803d" d="M1250.75,-103C1250.75,-103 1153.75,-103 1153.75,-103 1147.75,-103 1141.75,-97 1141.75,-91 1141.75,-91 1141.75,-79 1141.75,-79 1141.75,-73 1147.75,-67 1153.75,-67 1153.75,-67 1250.75,-67 1250.75,-67 1256.75,-67 1262.75,-73 1262.75,-79 1262.75,-79 1262.75,-91 1262.75,-91 1262.75,-97 1256.75,-103 1250.75,-103"/>
<text xml:space="preserve" text-anchor="middle" x="1202.25" y="-80.72" font-family="Helvetica,sans-Serif" font-size="12.00">Tema 309 &#45; Julgado</text>
</a>
</g>
</g>
<!-- n2339124587235141192&#45;&gt;n4636528659980747755 -->
<g id="edge1" class="edge">
<title>n2339124587235141192&#45;&gt;n4636528659980747755</title>
<path fill="none" stroke="#334155" stroke-width="1.6" d="M351.85,-185C640.99,-185 1201.75,-185 1201.75,-185 1201.75,-185 1201.75,-115.76 1201.75,-115.76"/>
<polygon fill="#334155" stroke="#334155" stroke-width="1.6" points="1205.25,-115.76 1201.75,-105.76 1198.25,-115.76 1205.25,-115.76"/>
<text xml:space="preserve" text-anchor="middle" x="804" y="-2.5" font-family="Helvetica,sans-Serif" font-size="10.00">used</text>
</g>
<!-- n5555439170195845010 -->
<g id="node3" class="node">
<title>n5555439170195845010</title>
<g id="a_node3"><a xlink:title="jdd:pipeline">
<path fill="#dbeafe" stroke="#1d4ed8" d="M210.88,-293C210.88,-293 156.62,-293 156.62,-293 150.62,-293 144.62,-287 144.62,-281 144.62,-281 144.62,-269 144.62,-269 144.62,-263 150.62,-257 156.62,-257 156.62,-257 210.88,-257 210.88,-257 216.88,-257 222.88,-263 222.88,-269 222.88,-269 222.88,-281 222.88,-281 222.88,-287 216.88,-293 210.88,-293"/>
<text xml:space="preserve" text-anchor="middle" x="183.75" y="-270.73" font-family="Helvetica,sans-Serif" font-size="12.00">jdd:pipeline</text>
</a>
</g>
</g>
<!-- n5557275761733677847 -->
<g id="node4" class="node">
<title>n5557275761733677847</title>
<g id="a_node4"><a xlink:title="jdd:pipeline&#45;run&#45;76877b7c&#45;12c1&#45;5b5a&#45;a623&#45;426af53a097a">
<path fill="#dbeafe" stroke="#1d4ed8" d="M336.12,-383C336.12,-383 31.38,-383 31.38,-383 25.38,-383 19.38,-377 19.38,-371 19.38,-371 19.38,-359 19.38,-359 19.38,-353 25.38,-347 31.38,-347 31.38,-347 336.12,-347 336.12,-347 342.12,-347 348.12,-353 348.12,-359 348.12,-359 348.12,-371 348.12,-371 348.12,-377 342.12,-383 336.12,-383"/>
<text xml:space="preserve" text-anchor="middle" x="183.75" y="-360.73" font-family="Helvetica,sans-Serif" font-size="12.00">jdd:pipeline&#45;run&#45;76877b7c&#45;12c1&#45;5b5a&#45;a623&#45;426af53a097a</text>
</a>
</g>
</g>
<!-- n8621773048279054804 -->
<g id="node7" class="node">
<title>n8621773048279054804</title>
<g id="a_node7"><a xlink:title="Theme 309 Thesis&#10;&#10;description: O auxílio&#45;alimentação pago aos servidores públicos federais (Lei n. 8.460/92) integra a base de cálculo da licença&#45;prêmio não usufruída e convertida em pecúnia.">
<path fill="#ecfccb" stroke="#4d7c0f" d="M986,-118C986,-118 894.25,-118 894.25,-118 888.25,-118 882.25,-112 882.25,-106 882.25,-106 882.25,-94 882.25,-94 882.25,-88 888.25,-82 894.25,-82 894.25,-82 986,-82 986,-82 992,-82 998,-88 998,-94 998,-94 998,-106 998,-106 998,-112 992,-118 986,-118"/>
<text xml:space="preserve" text-anchor="middle" x="940.12" y="-95.72" font-family="Helvetica,sans-Serif" font-size="12.00">Theme 309 Thesis</text>
</a>
</g>
</g>
<!-- n9152219529342493904&#45;&gt;n8621773048279054804 -->
<g id="edge5" class="edge">
<title>n9152219529342493904&#45;&gt;n8621773048279054804</title>
<path fill="none" stroke="#334155" stroke-width="1.6" d="M725.94,-100C725.94,-100 869.46,-100 869.46,-100"/>
<polygon fill="#334155" stroke="#334155" stroke-width="1.6" points="869.46,-103.5 879.46,-100 869.46,-96.5 869.46,-103.5"/>
<text xml:space="preserve" text-anchor="middle" x="804" y="-102.5" font-family="Helvetica,sans-Serif" font-size="10.00">adoptsThesis</text>
</g>
<!-- n8621773048279054804&#45;&gt;n4636528659980747755 -->
<g id="edge4" class="edge">
<title>n8621773048279054804&#45;&gt;n4636528659980747755</title>
<path fill="none" stroke="#334155" stroke-width="1.6" d="M998.3,-92.5C998.3,-92.5 1129.08,-92.5 1129.08,-92.5"/>
<polygon fill="#334155" stroke="#334155" stroke-width="1.6" points="1129.08,-96 1139.08,-92.5 1129.08,-89 1129.08,-96"/>
<text xml:space="preserve" text-anchor="middle" x="1069.88" y="-108.5" font-family="Helvetica,sans-Serif" font-size="10.00">hasTheme</text>
</g>
<!-- n8851486981942639278 -->
<g id="node8" class="node">
<title>n8851486981942639278</title>
<g id="a_node8"><a xlink:title="jdd:admissibility&#45;f07fe326&#45;5908&#45;57f7&#45;8950&#45;f32567b964e3">
<path fill="#fce7f3" stroke="#be185d" d="M332.38,-473C332.38,-473 35.12,-473 35.12,-473 29.12,-473 23.12,-467 23.12,-461 23.12,-461 23.12,-449 23.12,-449 23.12,-443 29.12,-437 35.12,-437 35.12,-437 332.38,-437 332.38,-437 338.38,-437 344.38,-443 344.38,-449 344.38,-449 344.38,-461 344.38,-461 344.38,-467 338.38,-473 332.38,-473"/>
<text xml:space="preserve" text-anchor="middle" x="183.75" y="-450.73" font-family="Helvetica,sans-Serif" font-size="12.00">jdd:admissibility&#45;f07fe326&#45;5908&#45;57f7&#45;8950&#45;f32567b964e3</text>
</a>
</g>
</g>
</g>
</svg>
