<?xml version="1.0" encoding="UTF-8" standalone="no"?>
<!DOCTYPE svg PUBLIC "-//W3C//DTD SVG 1.1//EN"
 "http://www.w3.org/Graphics/SVG/1.1/DTD/svg11.dtd">
<!-- Generated by graphviz version 14.1.2 (20260124.0452)
 -->
<!-- Title: rdf_graph Pages: 1 -->
<svg width="1361pt" height="564pt"
 viewBox="0.00 0.00 1361.00 564.00" xmlns="http://www.w3.org/2000/svg" xmlns:xlink="http://www.w3.org/1999/xlink">
<g id="graph0" class="graph" transform="scale(1 1) rotate(0) translate(25.2 539.2)">
<title>rdf_graph</title>
<polygon fill="white" stroke="none" points="-25.2,25.2 -25.2,-539.2 1336.2,-539.2 1336.2,25.2 -25.2,25.2"/>
<g id="clust1" class="cluster">
<title>cluster_workflow</title>
<path fill="white" stroke="#93c5fd" stroke-width="1.2" stroke-dasharray="5,2" d="M20,-159C20,-159 679.38,-159 679.38,-159 685.38,-159 691.38,-165 691.38,-171 691.38,-171 691.38,-404 691.38,-404 691.38,-410 685.38,-416 679.38,-416 679.38,-416 20,-416 20,-416 14,-416 8,-410 8,-404 8,-404 8,-171 8,-171 8,-165 14,-159 20,-159"/>
<text xml:space="preserve" text-anchor="middle" x="349.69" y="-398.7" font-family="Times New Roman,serif" font-size="14.00">Workflow / Agents</text>
</g>
<g id="clust2" class="cluster">
<title>cluster_decision</title>
<path fill="white" stroke="#a5b4fc" stroke-width="1.2" stroke-dasharray="5,2" d="M532.25,-74C532.25,-74 713.5,-74 713.5,-74 719.5,-74 725.5,-80 725.5,-86 725.5,-86 725.5,-139 725.5,-139 725.5,-145 719.5,-151 713.5,-151 713.5,-151 532.25,-151 532.25,-151 526.25,-151 520.25,-145 520.25,-139 520.25,-139 520.25,-86 520.25,-86 520.25,-80 526.25,-74 532.25,-74"/>
<text xml:space="preserve" text-anchor="middle" x="622.88" y="-133.7" font-family="Times New Roman,serif" font-size="14.00">Decision</text>
</g>
<g id="clust3" class="cluster">
<title>cluster_theme</title>
<path fill="white" stroke="#86efac" stroke-width="1.2" stroke-dasharray="5,2" d="M878,-44C878,-44 1291,-44 1291,-44 1297,-44 1303,-50 1303,-56 1303,-56 1303,-139 1303,-139 1303,-145 1297,-151 1291,-151 1291,-151 878,-151 878,-151 872,-151 866,-145 866,-139 866,-139 866,-56 866,-56 866,-50 872,-44 878,-44"/>
<text xml:space="preserve" text-anchor="middle" x="1084.5" y="-133.7" font-family="Times New Roman,serif" font-size="14.00">Theme / Thesis</text>
</g>
<g id="clust4" class="cluster">
<title>cluster_document</title>
<path fill="white" stroke="#f9a8d4" stroke-width="1.2" stroke-dasharray="5,2" d="M20.38,-429C20.38,-429 338.88,-429 338.88,-429 344.88,-429 350.88,-435 350.88,-441 350.88,-441 350.88,-494 350.88,-494 350.88,-500 344.88,-506 338.88,-506 338.88,-506 20.38,-506 20.38,-506 14.38,-506 8.38,-500 8.38,-494 8.38,-494 8.38,-441 8.38,-441 8.38,-435 14.38,-429 20.38,-429"/>
<text xml:space="preserve" text-anchor="middle" x="179.62" y="-488.7" font-family="Times New Roman,serif" font-size="14.00">Document Outcome</text>
</g>
<!-- n6908495118183319542 -->
<g id="node1" class="node">
<title>n6908495118183319542</title>
<g id="a_node1"><a xlink:title="gemini:3&#45;1&#45;flash&#45;lite">
<path fill="#dbeafe" stroke="#1d4ed8" d="M671.38,-239C671.38,-239 574.38,-239 574.38,-239 568.38,-239 562.38,-233 562.38,-227 562.38,-227 562.38,-215 562.38,-215 562.38,-209 568.38,-203 574.38,-203 574.38,-203 671.38,-203 671.38,-203 677.38,-203 683.38,-209 683.38,-215 683.38,-215 683.38,-227 683.38,-227 683.38,-233 677.38,-239 671.38,-239"/>
<text xml:space="preserve" text-anchor="middle" x="622.88" y="-216.72" font-family="Helvetica,sans-Serif" font-size="12.00">gemini:3&#45;1&#45;flash&#45;lite</text>
</a>
</g>
</g>
<!-- n4143376756070219853 -->
<g id="node2" class="node">
<title>n4143376756070219853</title>
<g id="a_node2"><a xlink:title="jdd:classification&#45;85df76fd&#45;9eca&#45;5aa9&#45;8150&#45;63d96e68d28f">
<polygon fill="#dbeafe" stroke="#1d4ed8" points="343.25,-203 16,-203 16,-199 12,-199 12,-195 16,-195 16,-175 12,-175 12,-171 16,-171 16,-167 343.25,-167 343.25,-203"/>
<polyline fill="none" stroke="#1d4ed8" points="16,-199 20,-199 20,-195 16,-195"/>
<polyline fill="none" stroke="#1d4ed8" points="16,-175 20,-175 20,-171 16,-171"/>
<text xml:space="preserve" text-anchor="middle" x="179.62" y="-180.72" font-family="Helvetica,sans-Serif" font-size="12.00">jdd:classification&#45;85df76fd&#45;9eca&#45;5aa9&#45;8150&#45;63d96e68d28f</text>
</a>
</g>
</g>
<!-- n4143376756070219853&#45;&gt;n6908495118183319542 -->
<g id="edge3" class="edge">
<title>n4143376756070219853&#45;&gt;n6908495118183319542</title>
<path fill="none" stroke="#334155" stroke-width="1.6" d="M343.46,-194C469.76,-194 623,-194 623,-194 623,-194 623,-194.85 623,-194.85"/>
<polygon fill="#334155" stroke="#334155" stroke-width="1.6" points="619.5,-190.12 623,-200.12 626.5,-190.12 619.5,-190.12"/>
<text xml:space="preserve" text-anchor="middle" x="435.75" y="-223.5" font-family="Helvetica,sans-Serif" font-size="10.00">wasAssociatedWith</text>
</g>
<!-- n3278468915403160462 -->
<g id="node5" class="node">
<title>n3278468915403160462</title>
<g id="a_node5"><a xlink:title="tres:5076365&#45;98.2024.4.02.5101&#10;&#10;subject: Reintegração ou Readmissão, Regime Estatutário, Servidor Público Civil, DIREITO ADMINISTRATIVO E OUTRAS MATÉRIAS DE DIREITO PÚBLICO, Ato Normativo, Atos Administrativos, DIREITO ADMINISTRATIVO E OUTRAS MATÉRIAS DE DIR...">
<path fill="#e0e7ff" stroke="#4338ca" d="M705.5,-118C705.5,-118 540.25,-118 540.25,-118 534.25,-118 528.25,-112 528.25,-106 528.25,-106 528.25,-94 528.25,-94 528.25,-88 534.25,-82 540.25,-82 540.25,-82 705.5,-82 705.5,-82 711.5,-82 717.5,-88 717.5,-94 717.5,-94 717.5,-106 717.5,-106 717.5,-112 711.5,-118 705.5,-118"/>
<text xml:space="preserve" text-anchor="middle" x="622.88" y="-95.72" font-family="Helvetica,sans-Serif" font-size="12.00">tres:5076365&#45;98.2024.4.02.5101</text>
</a>
</g>
</g>
<!-- n4143376756070219853&#45;&gt;n3278468915403160462 -->
<g id="edge2" class="edge">
<title>n4143376756070219853&#45;&gt;n3278468915403160462</title>
<path fill="none" stroke="#334155" stroke-width="1.6" d="M343.61,-176C440.74,-176 545,-176 545,-176 545,-176 545,-130.82 545,-130.82"/>
<polygon fill="#334155" stroke="#334155" stroke-width="1.6" points="548.5,-130.82 545,-120.82 541.5,-130.82 548.5,-130.82"/>
<text xml:space="preserve" text-anchor="middle" x="435.75" y="-127.5" font-family="Helvetica,sans-Serif" font-size="10.00">used</text>
</g>
<!-- n4129835080961075203 -->
<g id="node6" class="node">
<title>n4129835080961075203</title>
<g id="a_node6"><a xlink:title="Tema 345 &#45; Em Julgamento">
<path fill="#dcfce7" stroke="#15803d" d="M1283,-103C1283,-103 1145.5,-103 1145.5,-103 1139.5,-103 1133.5,-97 1133.5,-91 1133.5,-91 1133.5,-79 1133.5,-79 1133.5,-73 1139.5,-67 1145.5,-67 1145.5,-67 1283,-67 1283,-67 1289,-67 1295,-73 1295,-79 1295,-79 1295,-91 1295,-91 1295,-97 1289,-103 1283,-103"/>
<text xml:space="preserve" text-anchor="middle" x="1214.25" y="-80.72" font-family="Helvetica,sans-Serif" font-size="12.00">Tema 345 &#45; Em Julgamento</text>
</a>
</g>
</g>
<!-- n4143376756070219853&#45;&gt;n4129835080961075203 -->
<g id="edge1" class="edge">
<title>n4143376756070219853&#45;&gt;n4129835080961075203</title>
<path fill="none" stroke="#334155" stroke-width="1.6" d="M343.52,-185C635.19,-185 1214,-185 1214,-185 1214,-185 1214,-115.76 1214,-115.76"/>
<polygon fill="#334155" stroke="#334155" stroke-width="1.6" points="1217.5,-115.76 1214,-105.76 1210.5,-115.76 1217.5,-115.76"/>
<text xml:space="preserve" text-anchor="middle" x="795.75" y="-2.5" font-family="Helvetica,sans-Serif" font-size="10.00">used</text>
</g>
<!-- n4677637114992303294 -->
<g id="node3" class="node">
<title>n4677637114992303294</title>
<g id="a_node3"><a xlink:title="jdd:pipeline">
<path fill="#dbeafe" stroke="#1d4ed8" d="M206.75,-293C206.75,-293 152.5,-293 152.5,-293 146.5,-293 140.5,-287 140.5,-281 140.5,-281 140.5,-269 140.5,-269 140.5,-263 146.5,-257 152.5,-257 152.5,-257 206.75,-257 206.75,-257 212.75,-257 218.75,-263 218.75,-269 218.75,-269 218.75,-281 218.75,-281 218.75,-287 212.75,-293 206.75,-293"/>
<text xml:space="preserve" text-anchor="middle" x="179.62" y="-270.73" font-family="Helvetica,sans-Serif" font-size="12.00">jdd:pipeline</text>
</a>
</g>
</g>
<!-- n1641533167735935170 -->
<g id="node4" class="node">
<title>n1641533167735935170</title>
<g id="a_node4"><a xlink:title="jdd:pipeline&#45;run&#45;9b0f306e&#45;fea2&#45;5e8a&#45;820e&#45;511493ecd33a">
<path fill="#dbeafe" stroke="#1d4ed8" d="M330.12,-383C330.12,-383 29.12,-383 29.12,-383 23.12,-383 17.12,-377 17.12,-371 17.12,-371 17.12,-359 17.12,-359 17.12,-353 23.12,-347 29.12,-347 29.12,-347 330.12,-347 330.12,-347 336.12,-347 342.12,-353 342.12,-359 342.12,-359 342.12,-371 342.12,-371 342.12,-377 336.12,-383 330.12,-383"/>
<text xml:space="preserve" text-anchor="middle" x="179.62" y="-360.73" font-family="Helvetica,sans-Serif" font-size="12.00">jdd:pipeline&#45;run&#45;9b0f306e&#45;fea2&#45;5e8a&#45;820e&#45;511493ecd33a</text>
</a>
</g>
</g>
<!-- n2719043369902706979 -->
<g id="node7" class="node">
<title>n2719043369902706979</title>
<g id="a_node7"><a xlink:title="Theme 345 Thesis">
<path fill="#ecfccb" stroke="#4d7c0f" d="M977.75,-118C977.75,-118 886,-118 886,-118 880,-118 874,-112 874,-106 874,-106 874,-94 874,-94 874,-88 880,-82 886,-82 886,-82 977.75,-82 977.75,-82 983.75,-82 989.75,-88 989.75,-94 989.75,-94 989.75,-106 989.75,-106 989.75,-112 983.75,-118 977.75,-118"/>
<text xml:space="preserve" text-anchor="middle" x="931.88" y="-95.72" font-family="Helvetica,sans-Serif" font-size="12.00">Theme 345 Thesis</text>
</a>
</g>
</g>
<!-- n3278468915403160462&#45;&gt;n2719043369902706979 -->
<g id="edge5" class="edge">
<title>n3278468915403160462&#45;&gt;n2719043369902706979</title>
<path fill="none" stroke="#334155" stroke-width="1.6" d="M717.69,-100C717.69,-100 861.21,-100 861.21,-100"/>
<polygon fill="#334155" stroke="#334155" stroke-width="1.6" points="861.21,-103.5 871.21,-100 861.21,-96.5 861.21,-103.5"/>
<text xml:space="preserve" text-anchor="middle" x="795.75" y="-102.5" font-family="Helvetica,sans-Serif" font-size="10.00">adoptsThesis</text>
</g>
<!-- n2719043369902706979&#45;&gt;n4129835080961075203 -->
<g id="edge4" class="edge">
<title>n2719043369902706979&#45;&gt;n4129835080961075203</title>
<path fill="none" stroke="#334155" stroke-width="1.6" d="M990.04,-92.5C990.04,-92.5 1120.72,-92.5 1120.72,-92.5"/>
<polygon fill="#334155" stroke="#334155" stroke-width="1.6" points="1120.72,-96 1130.72,-92.5 1120.72,-89 1120.72,-96"/>
<text xml:space="preserve" text-anchor="middle" x="1061.62" y="-108.5" font-family="Helvetica,sans-Serif" font-size="10.00">hasTheme</text>
</g>
<!-- n7694918721256391704 -->
<g id="node8" class="node">
<title>n7694918721256391704</title>
<g id="a_node8"><a xlink:title="jdd:admissibility&#45;8ecabe0f&#45;041e&#45;52d9&#45;b811&#45;cf6b12935782">
<path fill="#fce7f3" stroke="#be185d" d="M330.88,-473C330.88,-473 28.38,-473 28.38,-473 22.38,-473 16.38,-467 16.38,-461 16.38,-461 16.38,-449 16.38,-449 16.38,-443 22.38,-437 28.38,-437 28.38,-437 330.88,-437 330.88,-437 336.88,-437 342.88,-443 342.88,-449 342.88,-449 342.88,-461 342.88,-461 342.88,-467 336.88,-473 330.88,-473"/>
<text xml:space="preserve" text-anchor="middle" x="179.62" y="-450.73" font-family="Helvetica,sans-Serif" font-size="12.00">jdd:admissibility&#45;8ecabe0f&#45;041e&#45;52d9&#45;b811&#45;cf6b12935782</text>
</a>
</g>
</g>
</g>
</svg>
