<?xml version="1.0" encoding="UTF-8" standalone="no"?>
<!DOCTYPE svg PUBLIC "-//W3C//DTD SVG 1.1//EN"
 "http://www.w3.org/Graphics/SVG/1.1/DTD/svg11.dtd">
<!-- Generated by graphviz version 14.1.2 (20260124.0452)
 -->
<!-- Title: rdf_graph Pages: 1 -->
<svg width="1361pt" height="551pt"
 viewBox="0.00 0.00 1361.00 551.00" xmlns="http://www.w3.org/2000/svg" xmlns:xlink="http://www.w3.org/1999/xlink">
<g id="graph0" class="graph" transform="scale(1 1) rotate(0) translate(25.2 526.2)">
<title>rdf_graph</title>
<polygon fill="white" stroke="none" points="-25.2,25.2 -25.2,-526.2 1336.2,-526.2 1336.2,25.2 -25.2,25.2"/>
<g id="clust1" class="cluster">
<title>cluster_workflow</title>
<path fill="white" stroke="#93c5fd" stroke-width="1.2" stroke-dasharray="5,2" d="M20,-159C20,-159 679.38,-159 679.38,-159 685.38,-159 691.38,-165 691.38,-171 691.38,-171 691.38,-396 691.38,-396 691.38,-402 685.38,-408 679.38,-408 679.38,-408 20,-408 20,-408 14,-408 8,-402 8,-396 8,-396 8,-171 8,-171 8,-165 14,-159 20,-159"/>
<text xml:space="preserve" text-anchor="middle" x="349.69" y="-390.7" font-family="Times New Roman,serif" font-size="14.00">Workflow / Agents</text>
</g>
<g id="clust2" class="cluster">
<title>cluster_decision</title>
<path fill="white" stroke="#a5b4fc" stroke-width="1.2" stroke-dasharray="5,2" d="M532.25,-74C532.25,-74 713.5,-74 713.5,-74 719.5,-74 725.5,-80 725.5,-86 725.5,-86 725.5,-139 725.5,-139 725.5,-145 719.5,-151 713.5,-151 713.5,-151 532.25,-151 532.25,-151 526.25,-151 520.25,-145 520.25,-139 520.25,-139 520.25,-86 520.25,-86 520.25,-80 526.25,-74 532.25,-74"/>
<text xml:space="preserve" text-anchor="middle" x="622.88" y="-133.7" font-family="Times New Roman,serif" font-size="14.00">Decision</text>
</g>
<g id="clust3" class="cluster">
<title>cluster_theme</title>
<path fill="white" stroke="#86efac" stroke-width="1.2" stroke-dasharray="5,2" d="M878,-44C878,-44 1291,-44 1291,-44 1297,-44 1303,-50 1303,-56 1303,-56 1303,-139 1303,-139 1303,-145 1297,-151 1291,-151 1291,-151 878,-151 878,-151 872,-151 866,-145 866,-139 866,-139 866,-56 866,-56 866,-50 872,-44 878,-44"/>
<text xml:space="preserve" text-anchor="middle" x="1084.5" y="-133.7" font-family="Times New Roman,serif" font-size="14.00">Theme / Thesis</text>
</g>
<g id="clust4" class="cluster">
<title>cluster_document</title>
<path fill="white" stroke="#f9a8d4" stroke-width="1.2" stroke-dasharray="5,2" d="M20.38,-416C20.38,-416 338.88,-416 338.88,-416 344.88,-416 350.88,-422 350.88,-428 350.88,-428 350.88,-481 350.88,-481 350.88,-487 344.88,-493 338.88,-493 338.88,-493 20.38,-493 20.38,-493 14.38,-493 8.38,-487 8.38,-481 8.38,-481 8.38,-428 8.38,-428 8.38,-422 14.38,-416 20.38,-416"/>
<text xml:space="preserve" text-anchor="middle" x="179.62" y="-475.7" font-family="Times New Roman,serif" font-size="14.00">Document Outcome</text>
</g>
<!-- n6908495118183319542 -->
<g id="node1" class="node">
<title>n6908495118183319542</title>
<g id="a_node1"><a xlink:title="gemini:3&#45;1&#45;flash&#45;lite">
<path fill="#dbeafe" stroke="#1d4ed8" d="M671.38,-262C671.38,-262 574.38,-262 574.38,-262 568.38,-262 562.38,-256 562.38,-250 562.38,-250 562.38,-238 562.38,-238 562.38,-232 568.38,-226 574.38,-226 574.38,-226 671.38,-226 671.38,-226 677.38,-226 683.38,-232 683.38,-238 683.38,-238 683.38,-250 683.38,-250 683.38,-256 677.38,-262 671.38,-262"/>
<text xml:space="preserve" text-anchor="middle" x="622.88" y="-239.72" font-family="Helvetica,sans-Serif" font-size="12.00">gemini:3&#45;1&#45;flash&#45;lite</text>
</a>
</g>
</g>
<!-- n4143376756070219853 -->
<g id="node2" class="node">
<title>n4143376756070219853</title>
<g id="a_node2"><a xlink:title="jdd:classification&#45;85df76fd&#45;9eca&#45;5aa9&#45;8150&#45;63d96e68d28f">
<polygon fill="#dbeafe" stroke="#1d4ed8" points="343.25,-203 16,-203 16,-199 12,-199 12,-195 16,-195 16,-175 12,-175 12,-171 16,-171 16,-167 343.25,-167 343.25,-203"/>
<polyline fill="none" stroke="#1d4ed8" points="16,-199 20,-199 20,-195 16,-195"/>
<polyline fill="none" stroke="#1d4ed8" points="16,-175 20,-175 20,-171 16,-171"/>
<text xml:space="preserve" text-anchor="middle" x="179.62" y="-180.72" font-family="Helvetica,sans-Serif" font-size="12.00">jdd:classification&#45;85df76fd&#45;9eca&#45;5aa9&#45;8150&#45;63d96e68d28f</text>
</a>
</g>
</g>
<!-- n4143376756070219853&#45;&gt;n6908495118183319542 -->
<g id="edge3" class="edge">
<title>n4143376756070219853&#45;&gt;n6908495118183319542</title>
<path fill="none" stroke="#334155" stroke-width="1.6" d="M325,-203.34C325,-220.66 325,-244 325,-244 325,-244 549.46,-244 549.46,-244"/>
<polygon fill="#334155" stroke="#334155" stroke-width="1.6" points="549.46,-247.5 559.46,-244 549.46,-240.5 549.46,-247.5"/>
<text xml:space="preserve" text-anchor="middle" x="435.75" y="-223.5" font-family="Helvetica,sans-Serif" font-size="10.00">wasAssociatedWith</text>
</g>
<!-- n3278468915403160462 -->
<g id="node5" class="node">
<title>n3278468915403160462</title>
<g id="a_node5"><a xlink:title="tres:5076365&#45;98.2024.4.02.5101&#10;&#10;subject: Reintegração ou Readmissão, Regime Estatutário, Servidor Público Civil, DIREITO ADMINISTRATIVO E OUTRAS MATÉRIAS DE DIREITO PÚBLICO, Ato Normativo, Atos Administrativos, DIREITO ADMINISTRATIVO E OUTRAS MATÉRIAS DE DIR...">
<path fill="#e0e7ff" stroke="#4338ca" d="M705.5,-118C705.5,-118 540.25,-118 540.25,-118 534.25,-118 528.25,-112 528.25,-106 528.25,-106 528.25,-94 528.25,-94 528.25,-88 534.25,-82 540.25,-82 540.25,-82 705.5,-82 705.5,-82 711.5,-82 717.5,-88 717.5,-94 717.5,-94 717.5,-106 717.5,-106 717.5,-112 711.5,-118 705.5,-118"/>
<text xml:space="preserve" text-anchor="middle" x="622.88" y="-95.72" font-family="Helvetica,sans-Serif" font-size="12.00">tres:5076365&#45;98.2024.4.02.5101</text>
</a>
</g>
</g>
<!-- n4143376756070219853&#45;&gt;n3278468915403160462 -->
<g id="edge2" class="edge">
<title>n4143376756070219853&#45;&gt;n3278468915403160462</title>
<path fill="none" stroke="#334155" stroke-width="1.6" d="M343.61,-179C440.74,-179 545,-179 545,-179 545,-179 545,-130.74 545,-130.74"/>
<polygon fill="#334155" stroke="#334155" stroke-width="1.6" points="548.5,-130.74 545,-120.74 541.5,-130.74 548.5,-130.74"/>
<text xml:space="preserve" text-anchor="middle" x="435.75" y="-127.5" font-family="Helvetica,sans-Serif" font-size="10.00">used</text>
</g>
<!-- n4129835080961075203 -->
<g id="node6" class="node">
<title>n4129835080961075203</title>
<g id="a_node6"><a xlink:title="Tema 345 &#45; Em Julgamento">
<path fill="#dcfce7" stroke="#15803d" d="M1283,-103C1283,-103 1145.5,-103 1145.5,-103 1139.5,-103 1133.5,-97 1133.5,-91 1133.5,-91 1133.5,-79 1133.5,-79 1133.5,-73 1139.5,-67 1145.5,-67 1145.5,-67 1283,-67 1283,-67 1289,-67 1295,-73 1295,-79 1295,-79 1295,-91 1295,-91 1295,-97 1289,-103 1283,-103"/>
<text xml:space="preserve" text-anchor="middle" x="1214.25" y="-80.72" font-family="Helvetica,sans-Serif" font-size="12.00">Tema 345 &#45; Em Julgamento</text>
</a>
</g>
</g>
<!-- n4143376756070219853&#45;&gt;n4129835080961075203 -->
<g id="edge1" class="edge">
<title>n4143376756070219853&#45;&gt;n4129835080961075203</title>
<path fill="none" stroke="#334155" stroke-width="1.6" d="M343.52,-191C635.19,-191 1214,-191 1214,-191 1214,-191 1214,-115.89 1214,-115.89"/>
<polygon fill="#334155" stroke="#334155" stroke-width="1.6" points="1217.5,-115.89 1214,-105.89 1210.5,-115.89 1217.5,-115.89"/>
<text xml:space="preserve" text-anchor="middle" x="795.75" y="-2.5" font-family="Helvetica,sans-Serif" font-size="10.00">used</text>
</g>
<!-- n4677637114992303294 -->
<g id="node3" class="node">
<title>n4677637114992303294</title>
<g id="a_node3"><a xlink:title="jdd:pipeline">
<path fill="#dbeafe" stroke="#1d4ed8" d="M650,-375C650,-375 595.75,-375 595.75,-375 589.75,-375 583.75,-369 583.75,-363 583.75,-363 583.75,-351 583.75,-351 583.75,-345 589.75,-339 595.75,-339 595.75,-339 650,-339 650,-339 656,-339 662,-345 662,-351 662,-351 662,-363 662,-363 662,-369 656,-375 650,-375"/>
<text xml:space="preserve" text-anchor="middle" x="622.88" y="-352.73" font-family="Helvetica,sans-Serif" font-size="12.00">jdd:pipeline</text>
</a>
</g>
</g>
<!-- n1641533167735935170 -->
<g id="node4" class="node">
<title>n1641533167735935170</title>
<g id="a_node4"><a xlink:title="Pipeline run run&#45;20260617T162329486511Z">
<path fill="#dbeafe" stroke="#1d4ed8" d="M294.5,-340C294.5,-340 64.75,-340 64.75,-340 58.75,-340 52.75,-334 52.75,-328 52.75,-328 52.75,-316 52.75,-316 52.75,-310 58.75,-304 64.75,-304 64.75,-304 294.5,-304 294.5,-304 300.5,-304 306.5,-310 306.5,-316 306.5,-316 306.5,-328 306.5,-328 306.5,-334 300.5,-340 294.5,-340"/>
<text xml:space="preserve" text-anchor="middle" x="179.62" y="-317.73" font-family="Helvetica,sans-Serif" font-size="12.00">Pipeline run run&#45;20260617T162329486511Z</text>
</a>
</g>
</g>
<!-- n1641533167735935170&#45;&gt;n6908495118183319542 -->
<g id="edge4" class="edge">
<title>n1641533167735935170&#45;&gt;n6908495118183319542</title>
<path fill="none" stroke="#334155" stroke-width="1.6" d="M306.8,-315.67C421.73,-315.67 573,-315.67 573,-315.67 573,-315.67 573,-274.88 573,-274.88"/>
<polygon fill="#334155" stroke="#334155" stroke-width="1.6" points="576.5,-274.88 573,-264.88 569.5,-274.88 576.5,-274.88"/>
<text xml:space="preserve" text-anchor="middle" x="435.75" y="-294.5" font-family="Helvetica,sans-Serif" font-size="10.00">wasAssociatedWith</text>
</g>
<!-- n1641533167735935170&#45;&gt;n4677637114992303294 -->
<g id="edge5" class="edge">
<title>n1641533167735935170&#45;&gt;n4677637114992303294</title>
<path fill="none" stroke="#334155" stroke-width="1.6" d="M306.98,-327.33C437.97,-327.33 623,-327.33 623,-327.33 623,-327.33 623,-328.47 623,-328.47"/>
<polygon fill="#334155" stroke="#334155" stroke-width="1.6" points="619.5,-326.3 623,-336.3 626.5,-326.3 619.5,-326.3"/>
<text xml:space="preserve" text-anchor="middle" x="435.75" y="-365.5" font-family="Helvetica,sans-Serif" font-size="10.00">wasAssociatedWith</text>
</g>
<!-- n2719043369902706979 -->
<g id="node7" class="node">
<title>n2719043369902706979</title>
<g id="a_node7"><a xlink:title="Theme 345 Thesis">
<path fill="#ecfccb" stroke="#4d7c0f" d="M977.75,-118C977.75,-118 886,-118 886,-118 880,-118 874,-112 874,-106 874,-106 874,-94 874,-94 874,-88 880,-82 886,-82 886,-82 977.75,-82 977.75,-82 983.75,-82 989.75,-88 989.75,-94 989.75,-94 989.75,-106 989.75,-106 989.75,-112 983.75,-118 977.75,-118"/>
<text xml:space="preserve" text-anchor="middle" x="931.88" y="-95.72" font-family="Helvetica,sans-Serif" font-size="12.00">Theme 345 Thesis</text>
</a>
</g>
</g>
<!-- n3278468915403160462&#45;&gt;n2719043369902706979 -->
<g id="edge7" class="edge">
<title>n3278468915403160462&#45;&gt;n2719043369902706979</title>
<path fill="none" stroke="#334155" stroke-width="1.6" d="M717.69,-100C717.69,-100 861.21,-100 861.21,-100"/>
<polygon fill="#334155" stroke="#334155" stroke-width="1.6" points="861.21,-103.5 871.21,-100 861.21,-96.5 861.21,-103.5"/>
<text xml:space="preserve" text-anchor="middle" x="795.75" y="-102.5" font-family="Helvetica,sans-Serif" font-size="10.00">adoptsThesis</text>
</g>
<!-- n2719043369902706979&#45;&gt;n4129835080961075203 -->
<g id="edge6" class="edge">
<title>n2719043369902706979&#45;&gt;n4129835080961075203</title>
<path fill="none" stroke="#334155" stroke-width="1.6" d="M990.04,-92.5C990.04,-92.5 1120.72,-92.5 1120.72,-92.5"/>
<polygon fill="#334155" stroke="#334155" stroke-width="1.6" points="1120.72,-96 1130.72,-92.5 1120.72,-89 1120.72,-96"/>
<text xml:space="preserve" text-anchor="middle" x="1061.62" y="-108.5" font-family="Helvetica,sans-Serif" font-size="10.00">hasTheme</text>
</g>
<!-- n7694918721256391704 -->
<g id="node8" class="node">
<title>n7694918721256391704</title>
<g id="a_node8"><a xlink:title="jdd:admissibility&#45;8ecabe0f&#45;041e&#45;52d9&#45;b811&#45;cf6b12935782">
<path fill="#fce7f3" stroke="#be185d" d="M330.88,-460C330.88,-460 28.38,-460 28.38,-460 22.38,-460 16.38,-454 16.38,-448 16.38,-448 16.38,-436 16.38,-436 16.38,-430 22.38,-424 28.38,-424 28.38,-424 330.88,-424 330.88,-424 336.88,-424 342.88,-430 342.88,-436 342.88,-436 342.88,-448 342.88,-448 342.88,-454 336.88,-460 330.88,-460"/>
<text xml:space="preserve" text-anchor="middle" x="179.62" y="-437.73" font-family="Helvetica,sans-Serif" font-size="12.00">jdd:admissibility&#45;8ecabe0f&#45;041e&#45;52d9&#45;b811&#45;cf6b12935782</text>
</a>
</g>
</g>
</g>
</svg>
