<?xml version="1.0" encoding="UTF-8" standalone="no"?>
<!DOCTYPE svg PUBLIC "-//W3C//DTD SVG 1.1//EN"
 "http://www.w3.org/Graphics/SVG/1.1/DTD/svg11.dtd">
<!-- Generated by graphviz version 14.1.2 (20260124.0452)
 -->
<!-- Title: rdf_graph Pages: 1 -->
<svg width="1313pt" height="564pt"
 viewBox="0.00 0.00 1313.00 564.00" xmlns="http://www.w3.org/2000/svg" xmlns:xlink="http://www.w3.org/1999/xlink">
<g id="graph0" class="graph" transform="scale(1 1) rotate(0) translate(25.2 539.2)">
<title>rdf_graph</title>
<polygon fill="white" stroke="none" points="-25.2,25.2 -25.2,-539.2 1287.45,-539.2 1287.45,25.2 -25.2,25.2"/>
<g id="clust1" class="cluster">
<title>cluster_workflow</title>
<path fill="white" stroke="#93c5fd" stroke-width="1.2" stroke-dasharray="5,2" d="M20,-159C20,-159 684.62,-159 684.62,-159 690.62,-159 696.62,-165 696.62,-171 696.62,-171 696.62,-404 696.62,-404 696.62,-410 690.62,-416 684.62,-416 684.62,-416 20,-416 20,-416 14,-416 8,-410 8,-404 8,-404 8,-171 8,-171 8,-165 14,-159 20,-159"/>
<text xml:space="preserve" text-anchor="middle" x="352.31" y="-398.7" font-family="Times New Roman,serif" font-size="14.00">Workflow / Agents</text>
</g>
<g id="clust2" class="cluster">
<title>cluster_decision</title>
<path fill="white" stroke="#a5b4fc" stroke-width="1.2" stroke-dasharray="5,2" d="M537.5,-74C537.5,-74 718.75,-74 718.75,-74 724.75,-74 730.75,-80 730.75,-86 730.75,-86 730.75,-139 730.75,-139 730.75,-145 724.75,-151 718.75,-151 718.75,-151 537.5,-151 537.5,-151 531.5,-151 525.5,-145 525.5,-139 525.5,-139 525.5,-86 525.5,-86 525.5,-80 531.5,-74 537.5,-74"/>
<text xml:space="preserve" text-anchor="middle" x="628.12" y="-133.7" font-family="Times New Roman,serif" font-size="14.00">Decision</text>
</g>
<g id="clust3" class="cluster">
<title>cluster_theme</title>
<path fill="white" stroke="#86efac" stroke-width="1.2" stroke-dasharray="5,2" d="M883.25,-44C883.25,-44 1242.25,-44 1242.25,-44 1248.25,-44 1254.25,-50 1254.25,-56 1254.25,-56 1254.25,-139 1254.25,-139 1254.25,-145 1248.25,-151 1242.25,-151 1242.25,-151 883.25,-151 883.25,-151 877.25,-151 871.25,-145 871.25,-139 871.25,-139 871.25,-56 871.25,-56 871.25,-50 877.25,-44 883.25,-44"/>
<text xml:space="preserve" text-anchor="middle" x="1062.75" y="-133.7" font-family="Times New Roman,serif" font-size="14.00">Theme / Thesis</text>
</g>
<g id="clust4" class="cluster">
<title>cluster_document</title>
<path fill="white" stroke="#f9a8d4" stroke-width="1.2" stroke-dasharray="5,2" d="M22.62,-429C22.62,-429 341.88,-429 341.88,-429 347.88,-429 353.88,-435 353.88,-441 353.88,-441 353.88,-494 353.88,-494 353.88,-500 347.88,-506 341.88,-506 341.88,-506 22.62,-506 22.62,-506 16.62,-506 10.62,-500 10.62,-494 10.62,-494 10.62,-441 10.62,-441 10.62,-435 16.62,-429 22.62,-429"/>
<text xml:space="preserve" text-anchor="middle" x="182.25" y="-488.7" font-family="Times New Roman,serif" font-size="14.00">Document Outcome</text>
</g>
<!-- n3627356735563925948 -->
<g id="node1" class="node">
<title>n3627356735563925948</title>
<g id="a_node1"><a xlink:title="gemini:3&#45;1&#45;flash&#45;lite">
<path fill="#dbeafe" stroke="#1d4ed8" d="M676.62,-239C676.62,-239 579.62,-239 579.62,-239 573.62,-239 567.62,-233 567.62,-227 567.62,-227 567.62,-215 567.62,-215 567.62,-209 573.62,-203 579.62,-203 579.62,-203 676.62,-203 676.62,-203 682.62,-203 688.62,-209 688.62,-215 688.62,-215 688.62,-227 688.62,-227 688.62,-233 682.62,-239 676.62,-239"/>
<text xml:space="preserve" text-anchor="middle" x="628.12" y="-216.72" font-family="Helvetica,sans-Serif" font-size="12.00">gemini:3&#45;1&#45;flash&#45;lite</text>
</a>
</g>
</g>
<!-- n999619594320237104 -->
<g id="node2" class="node">
<title>n999619594320237104</title>
<g id="a_node2"><a xlink:title="jdd:classification&#45;fba78895&#45;982e&#45;50a0&#45;ba28&#45;548876bf7cca">
<polygon fill="#dbeafe" stroke="#1d4ed8" points="347.38,-203 17.12,-203 17.12,-199 13.12,-199 13.12,-195 17.12,-195 17.12,-175 13.12,-175 13.12,-171 17.12,-171 17.12,-167 347.38,-167 347.38,-203"/>
<polyline fill="none" stroke="#1d4ed8" points="17.12,-199 21.12,-199 21.12,-195 17.12,-195"/>
<polyline fill="none" stroke="#1d4ed8" points="17.12,-175 21.12,-175 21.12,-171 17.12,-171"/>
<text xml:space="preserve" text-anchor="middle" x="182.25" y="-180.72" font-family="Helvetica,sans-Serif" font-size="12.00">jdd:classification&#45;fba78895&#45;982e&#45;50a0&#45;ba28&#45;548876bf7cca</text>
</a>
</g>
</g>
<!-- n999619594320237104&#45;&gt;n3627356735563925948 -->
<g id="edge3" class="edge">
<title>n999619594320237104&#45;&gt;n3627356735563925948</title>
<path fill="none" stroke="#334155" stroke-width="1.6" d="M347.69,-194C474.62,-194 628.25,-194 628.25,-194 628.25,-194 628.25,-194.85 628.25,-194.85"/>
<polygon fill="#334155" stroke="#334155" stroke-width="1.6" points="624.75,-190.12 628.25,-200.12 631.75,-190.12 624.75,-190.12"/>
<text xml:space="preserve" text-anchor="middle" x="441" y="-223.5" font-family="Helvetica,sans-Serif" font-size="10.00">wasAssociatedWith</text>
</g>
<!-- n1138708687081974789 -->
<g id="node5" class="node">
<title>n1138708687081974789</title>
<g id="a_node5"><a xlink:title="tres:5022737&#45;72.2025.4.02.5001&#10;&#10;subject: Aposentadoria por Idade &#45; Urbana (art. 48/51), Aposentadoria por Idade (Art. 48/51), Benefícios em Espécie, DIREITO PREVIDENCIÁRIO">
<path fill="#e0e7ff" stroke="#4338ca" d="M710.75,-118C710.75,-118 545.5,-118 545.5,-118 539.5,-118 533.5,-112 533.5,-106 533.5,-106 533.5,-94 533.5,-94 533.5,-88 539.5,-82 545.5,-82 545.5,-82 710.75,-82 710.75,-82 716.75,-82 722.75,-88 722.75,-94 722.75,-94 722.75,-106 722.75,-106 722.75,-112 716.75,-118 710.75,-118"/>
<text xml:space="preserve" text-anchor="middle" x="628.12" y="-95.72" font-family="Helvetica,sans-Serif" font-size="12.00">tres:5022737&#45;72.2025.4.02.5001</text>
</a>
</g>
</g>
<!-- n999619594320237104&#45;&gt;n1138708687081974789 -->
<g id="edge2" class="edge">
<title>n999619594320237104&#45;&gt;n1138708687081974789</title>
<path fill="none" stroke="#334155" stroke-width="1.6" d="M347.68,-176C445.43,-176 550.25,-176 550.25,-176 550.25,-176 550.25,-130.82 550.25,-130.82"/>
<polygon fill="#334155" stroke="#334155" stroke-width="1.6" points="553.75,-130.82 550.25,-120.82 546.75,-130.82 553.75,-130.82"/>
<text xml:space="preserve" text-anchor="middle" x="441" y="-127.5" font-family="Helvetica,sans-Serif" font-size="10.00">used</text>
</g>
<!-- n2648670742038275802 -->
<g id="node6" class="node">
<title>n2648670742038275802</title>
<g id="a_node6"><a xlink:title="Tema 27 &#45; Julgado">
<path fill="#dcfce7" stroke="#15803d" d="M1234.25,-103C1234.25,-103 1144,-103 1144,-103 1138,-103 1132,-97 1132,-91 1132,-91 1132,-79 1132,-79 1132,-73 1138,-67 1144,-67 1144,-67 1234.25,-67 1234.25,-67 1240.25,-67 1246.25,-73 1246.25,-79 1246.25,-79 1246.25,-91 1246.25,-91 1246.25,-97 1240.25,-103 1234.25,-103"/>
<text xml:space="preserve" text-anchor="middle" x="1189.12" y="-80.72" font-family="Helvetica,sans-Serif" font-size="12.00">Tema 27 &#45; Julgado</text>
</a>
</g>
</g>
<!-- n999619594320237104&#45;&gt;n2648670742038275802 -->
<g id="edge1" class="edge">
<title>n999619594320237104&#45;&gt;n2648670742038275802</title>
<path fill="none" stroke="#334155" stroke-width="1.6" d="M347.69,-185C633.46,-185 1189.25,-185 1189.25,-185 1189.25,-185 1189.25,-115.76 1189.25,-115.76"/>
<polygon fill="#334155" stroke="#334155" stroke-width="1.6" points="1192.75,-115.76 1189.25,-105.76 1185.75,-115.76 1192.75,-115.76"/>
<text xml:space="preserve" text-anchor="middle" x="801" y="-2.5" font-family="Helvetica,sans-Serif" font-size="10.00">used</text>
</g>
<!-- n1111933811284882774 -->
<g id="node3" class="node">
<title>n1111933811284882774</title>
<g id="a_node3"><a xlink:title="jdd:pipeline">
<path fill="#dbeafe" stroke="#1d4ed8" d="M209.38,-293C209.38,-293 155.12,-293 155.12,-293 149.12,-293 143.12,-287 143.12,-281 143.12,-281 143.12,-269 143.12,-269 143.12,-263 149.12,-257 155.12,-257 155.12,-257 209.38,-257 209.38,-257 215.38,-257 221.38,-263 221.38,-269 221.38,-269 221.38,-281 221.38,-281 221.38,-287 215.38,-293 209.38,-293"/>
<text xml:space="preserve" text-anchor="middle" x="182.25" y="-270.73" font-family="Helvetica,sans-Serif" font-size="12.00">jdd:pipeline</text>
</a>
</g>
</g>
<!-- n270194389788032678 -->
<g id="node4" class="node">
<title>n270194389788032678</title>
<g id="a_node4"><a xlink:title="jdd:pipeline&#45;run&#45;9b663e5c&#45;c059&#45;58a2&#45;8000&#45;b472b084698e">
<path fill="#dbeafe" stroke="#1d4ed8" d="M336.5,-383C336.5,-383 28,-383 28,-383 22,-383 16,-377 16,-371 16,-371 16,-359 16,-359 16,-353 22,-347 28,-347 28,-347 336.5,-347 336.5,-347 342.5,-347 348.5,-353 348.5,-359 348.5,-359 348.5,-371 348.5,-371 348.5,-377 342.5,-383 336.5,-383"/>
<text xml:space="preserve" text-anchor="middle" x="182.25" y="-360.73" font-family="Helvetica,sans-Serif" font-size="12.00">jdd:pipeline&#45;run&#45;9b663e5c&#45;c059&#45;58a2&#45;8000&#45;b472b084698e</text>
</a>
</g>
</g>
<!-- n5198782220902907342 -->
<g id="node7" class="node">
<title>n5198782220902907342</title>
<g id="a_node7"><a xlink:title="Theme 27 Thesis&#10;&#10;description: Aplica&#45;se a tabela progressiva prevista no art. 142 da Lei n. 8.213/91, no caso de aposentadoria por idade urbana, considerando&#45;se como marco temporal para apuração da carência o ano em que o segurado completa a idade...">
<path fill="#ecfccb" stroke="#4d7c0f" d="M976.25,-118C976.25,-118 891.25,-118 891.25,-118 885.25,-118 879.25,-112 879.25,-106 879.25,-106 879.25,-94 879.25,-94 879.25,-88 885.25,-82 891.25,-82 891.25,-82 976.25,-82 976.25,-82 982.25,-82 988.25,-88 988.25,-94 988.25,-94 988.25,-106 988.25,-106 988.25,-112 982.25,-118 976.25,-118"/>
<text xml:space="preserve" text-anchor="middle" x="933.75" y="-95.72" font-family="Helvetica,sans-Serif" font-size="12.00">Theme 27 Thesis</text>
</a>
</g>
</g>
<!-- n1138708687081974789&#45;&gt;n5198782220902907342 -->
<g id="edge5" class="edge">
<title>n1138708687081974789&#45;&gt;n5198782220902907342</title>
<path fill="none" stroke="#334155" stroke-width="1.6" d="M723.15,-100C723.15,-100 866.44,-100 866.44,-100"/>
<polygon fill="#334155" stroke="#334155" stroke-width="1.6" points="866.44,-103.5 876.44,-100 866.44,-96.5 866.44,-103.5"/>
<text xml:space="preserve" text-anchor="middle" x="801" y="-102.5" font-family="Helvetica,sans-Serif" font-size="10.00">adoptsThesis</text>
</g>
<!-- n5198782220902907342&#45;&gt;n2648670742038275802 -->
<g id="edge4" class="edge">
<title>n5198782220902907342&#45;&gt;n2648670742038275802</title>
<path fill="none" stroke="#334155" stroke-width="1.6" d="M988.53,-92.5C988.53,-92.5 1119.35,-92.5 1119.35,-92.5"/>
<polygon fill="#334155" stroke="#334155" stroke-width="1.6" points="1119.35,-96 1129.35,-92.5 1119.35,-89 1119.35,-96"/>
<text xml:space="preserve" text-anchor="middle" x="1060.12" y="-108.5" font-family="Helvetica,sans-Serif" font-size="10.00">hasTheme</text>
</g>
<!-- n1125439401175956729 -->
<g id="node8" class="node">
<title>n1125439401175956729</title>
<g id="a_node8"><a xlink:title="jdd:admissibility&#45;406cbd6d&#45;334c&#45;5fed&#45;8b73&#45;8f05a0631625">
<path fill="#fce7f3" stroke="#be185d" d="M333.88,-473C333.88,-473 30.62,-473 30.62,-473 24.62,-473 18.62,-467 18.62,-461 18.62,-461 18.62,-449 18.62,-449 18.62,-443 24.62,-437 30.62,-437 30.62,-437 333.88,-437 333.88,-437 339.88,-437 345.88,-443 345.88,-449 345.88,-449 345.88,-461 345.88,-461 345.88,-467 339.88,-473 333.88,-473"/>
<text xml:space="preserve" text-anchor="middle" x="182.25" y="-450.73" font-family="Helvetica,sans-Serif" font-size="12.00">jdd:admissibility&#45;406cbd6d&#45;334c&#45;5fed&#45;8b73&#45;8f05a0631625</text>
</a>
</g>
</g>
</g>
</svg>
