<?xml version="1.0" encoding="UTF-8" standalone="no"?>
<!DOCTYPE svg PUBLIC "-//W3C//DTD SVG 1.1//EN"
 "http://www.w3.org/Graphics/SVG/1.1/DTD/svg11.dtd">
<!-- Generated by graphviz version 14.1.2 (20260124.0452)
 -->
<!-- Title: rdf_graph Pages: 1 -->
<svg width="1488pt" height="519pt"
 viewBox="0.00 0.00 1488.00 519.00" xmlns="http://www.w3.org/2000/svg" xmlns:xlink="http://www.w3.org/1999/xlink">
<g id="graph0" class="graph" transform="scale(1 1) rotate(0) translate(25.2 494.2)">
<title>rdf_graph</title>
<polygon fill="white" stroke="none" points="-25.2,25.2 -25.2,-494.2 1462.95,-494.2 1462.95,25.2 -25.2,25.2"/>
<g id="clust1" class="cluster">
<title>cluster_workflow</title>
<path fill="white" stroke="#93c5fd" stroke-width="1.2" stroke-dasharray="5,2" d="M20,-114C20,-114 880.38,-114 880.38,-114 886.38,-114 892.38,-120 892.38,-126 892.38,-126 892.38,-359 892.38,-359 892.38,-365 886.38,-371 880.38,-371 880.38,-371 20,-371 20,-371 14,-371 8,-365 8,-359 8,-359 8,-126 8,-126 8,-120 14,-114 20,-114"/>
<text xml:space="preserve" text-anchor="middle" x="450.19" y="-353.7" font-family="Times New Roman,serif" font-size="14.00">Workflow / Agents</text>
</g>
<g id="clust2" class="cluster">
<title>cluster_decision</title>
<path fill="white" stroke="#a5b4fc" stroke-width="1.2" stroke-dasharray="5,2" d="M726.5,-26C726.5,-26 907.75,-26 907.75,-26 913.75,-26 919.75,-32 919.75,-38 919.75,-38 919.75,-91 919.75,-91 919.75,-97 913.75,-103 907.75,-103 907.75,-103 726.5,-103 726.5,-103 720.5,-103 714.5,-97 714.5,-91 714.5,-91 714.5,-38 714.5,-38 714.5,-32 720.5,-26 726.5,-26"/>
<text xml:space="preserve" text-anchor="middle" x="817.12" y="-85.7" font-family="Times New Roman,serif" font-size="14.00">Decision</text>
</g>
<g id="clust3" class="cluster">
<title>cluster_petition</title>
<path fill="white" stroke="#fca5a5" stroke-width="1.2" stroke-dasharray="5,2" d="M191,-8C191,-8 362.5,-8 362.5,-8 368.5,-8 374.5,-14 374.5,-20 374.5,-20 374.5,-73 374.5,-73 374.5,-79 368.5,-85 362.5,-85 362.5,-85 191,-85 191,-85 185,-85 179,-79 179,-73 179,-73 179,-20 179,-20 179,-14 185,-8 191,-8"/>
<text xml:space="preserve" text-anchor="middle" x="276.75" y="-67.7" font-family="Times New Roman,serif" font-size="14.00">Petition</text>
</g>
<g id="clust4" class="cluster">
<title>cluster_theme</title>
<path fill="white" stroke="#86efac" stroke-width="1.2" stroke-dasharray="5,2" d="M1072.25,-56C1072.25,-56 1417.75,-56 1417.75,-56 1423.75,-56 1429.75,-62 1429.75,-68 1429.75,-68 1429.75,-151 1429.75,-151 1429.75,-157 1423.75,-163 1417.75,-163 1417.75,-163 1072.25,-163 1072.25,-163 1066.25,-163 1060.25,-157 1060.25,-151 1060.25,-151 1060.25,-68 1060.25,-68 1060.25,-62 1066.25,-56 1072.25,-56"/>
<text xml:space="preserve" text-anchor="middle" x="1245" y="-145.7" font-family="Times New Roman,serif" font-size="14.00">Theme / Thesis</text>
</g>
<g id="clust5" class="cluster">
<title>cluster_document</title>
<path fill="white" stroke="#f9a8d4" stroke-width="1.2" stroke-dasharray="5,2" d="M117.12,-384C117.12,-384 436.38,-384 436.38,-384 442.38,-384 448.38,-390 448.38,-396 448.38,-396 448.38,-449 448.38,-449 448.38,-455 442.38,-461 436.38,-461 436.38,-461 117.12,-461 117.12,-461 111.12,-461 105.12,-455 105.12,-449 105.12,-449 105.12,-396 105.12,-396 105.12,-390 111.12,-384 117.12,-384"/>
<text xml:space="preserve" text-anchor="middle" x="276.75" y="-443.7" font-family="Times New Roman,serif" font-size="14.00">Document Outcome</text>
</g>
<!-- n2886504344911377250 -->
<g id="node1" class="node">
<title>n2886504344911377250</title>
<g id="a_node1"><a xlink:title="Classification for process 5021277&#45;41.2025.4.02.5101 and theme 1 (CONSONANCIA; VALIDA)">
<polygon fill="#dbeafe" stroke="#1d4ed8" points="537.5,-158 16,-158 16,-154 12,-154 12,-150 16,-150 16,-130 12,-130 12,-126 16,-126 16,-122 537.5,-122 537.5,-158"/>
<polyline fill="none" stroke="#1d4ed8" points="16,-154 20,-154 20,-150 16,-150"/>
<polyline fill="none" stroke="#1d4ed8" points="16,-130 20,-130 20,-126 16,-126"/>
<text xml:space="preserve" text-anchor="middle" x="276.75" y="-135.72" font-family="Helvetica,sans-Serif" font-size="12.00">Classification for process 5021277&#45;41.2025.4.02.5101 and theme 1 (CONSONANCIA; VALIDA)</text>
</a>
</g>
</g>
<!-- n4059595064601618097 -->
<g id="node2" class="node">
<title>n4059595064601618097</title>
<g id="a_node2"><a xlink:title="jdd:local&#45;text&#45;similarity">
<path fill="#dbeafe" stroke="#1d4ed8" d="M872.38,-160C872.38,-160 761.88,-160 761.88,-160 755.88,-160 749.88,-154 749.88,-148 749.88,-148 749.88,-136 749.88,-136 749.88,-130 755.88,-124 761.88,-124 761.88,-124 872.38,-124 872.38,-124 878.38,-124 884.38,-130 884.38,-136 884.38,-136 884.38,-148 884.38,-148 884.38,-154 878.38,-160 872.38,-160"/>
<text xml:space="preserve" text-anchor="middle" x="817.12" y="-137.72" font-family="Helvetica,sans-Serif" font-size="12.00">jdd:local&#45;text&#45;similarity</text>
</a>
</g>
</g>
<!-- n2886504344911377250&#45;&gt;n4059595064601618097 -->
<g id="edge3" class="edge">
<title>n2886504344911377250&#45;&gt;n4059595064601618097</title>
<path fill="none" stroke="#334155" stroke-width="1.6" d="M537.84,-146.67C537.84,-146.67 737.1,-146.67 737.1,-146.67"/>
<polygon fill="#334155" stroke="#334155" stroke-width="1.6" points="737.1,-150.17 747.1,-146.67 737.1,-143.17 737.1,-150.17"/>
<text xml:space="preserve" text-anchor="middle" x="630" y="-178.5" font-family="Helvetica,sans-Serif" font-size="10.00">wasAssociatedWith</text>
</g>
<!-- n4042327454320728100 -->
<g id="node5" class="node">
<title>n4042327454320728100</title>
<g id="a_node5"><a xlink:title="tres:5021277&#45;41.2025.4.02.5101&#10;&#10;subject: Indenização por dano moral, Responsabilidade civil, DIREITO CIVIL">
<path fill="#e0e7ff" stroke="#4338ca" d="M899.75,-70C899.75,-70 734.5,-70 734.5,-70 728.5,-70 722.5,-64 722.5,-58 722.5,-58 722.5,-46 722.5,-46 722.5,-40 728.5,-34 734.5,-34 734.5,-34 899.75,-34 899.75,-34 905.75,-34 911.75,-40 911.75,-46 911.75,-46 911.75,-58 911.75,-58 911.75,-64 905.75,-70 899.75,-70"/>
<text xml:space="preserve" text-anchor="middle" x="817.12" y="-47.73" font-family="Helvetica,sans-Serif" font-size="12.00">tres:5021277&#45;41.2025.4.02.5101</text>
</a>
</g>
</g>
<!-- n2886504344911377250&#45;&gt;n4042327454320728100 -->
<g id="edge2" class="edge">
<title>n2886504344911377250&#45;&gt;n4042327454320728100</title>
<path fill="none" stroke="#334155" stroke-width="1.6" d="M537.76,-135.33C641.1,-135.33 735.75,-135.33 735.75,-135.33 735.75,-135.33 735.75,-82.92 735.75,-82.92"/>
<polygon fill="#334155" stroke="#334155" stroke-width="1.6" points="739.25,-82.92 735.75,-72.92 732.25,-82.92 739.25,-82.92"/>
<text xml:space="preserve" text-anchor="middle" x="630" y="-107.5" font-family="Helvetica,sans-Serif" font-size="10.00">used</text>
</g>
<!-- n6574927263860564005 -->
<g id="node7" class="node">
<title>n6574927263860564005</title>
<g id="a_node7"><a xlink:title="Tema 1 &#45; Julgado">
<path fill="#dcfce7" stroke="#15803d" d="M1409.75,-130C1409.75,-130 1326.25,-130 1326.25,-130 1320.25,-130 1314.25,-124 1314.25,-118 1314.25,-118 1314.25,-106 1314.25,-106 1314.25,-100 1320.25,-94 1326.25,-94 1326.25,-94 1409.75,-94 1409.75,-94 1415.75,-94 1421.75,-100 1421.75,-106 1421.75,-106 1421.75,-118 1421.75,-118 1421.75,-124 1415.75,-130 1409.75,-130"/>
<text xml:space="preserve" text-anchor="middle" x="1368" y="-107.72" font-family="Helvetica,sans-Serif" font-size="12.00">Tema 1 &#45; Julgado</text>
</a>
</g>
</g>
<!-- n2886504344911377250&#45;&gt;n6574927263860564005 -->
<g id="edge1" class="edge">
<title>n2886504344911377250&#45;&gt;n6574927263860564005</title>
<path fill="none" stroke="#334155" stroke-width="1.6" d="M451.75,-121.86C451.75,-119.84 451.75,-118.5 451.75,-118.5 451.75,-118.5 1301.35,-118.5 1301.35,-118.5"/>
<polygon fill="#334155" stroke="#334155" stroke-width="1.6" points="1301.35,-122 1311.35,-118.5 1301.35,-115 1301.35,-122"/>
<text xml:space="preserve" text-anchor="middle" x="990" y="-244.5" font-family="Helvetica,sans-Serif" font-size="10.00">used</text>
</g>
<!-- n4486879986855088112 -->
<g id="node3" class="node">
<title>n4486879986855088112</title>
<g id="a_node3"><a xlink:title="jdd:pipeline">
<path fill="#dbeafe" stroke="#1d4ed8" d="M303.88,-248C303.88,-248 249.62,-248 249.62,-248 243.62,-248 237.62,-242 237.62,-236 237.62,-236 237.62,-224 237.62,-224 237.62,-218 243.62,-212 249.62,-212 249.62,-212 303.88,-212 303.88,-212 309.88,-212 315.88,-218 315.88,-224 315.88,-224 315.88,-236 315.88,-236 315.88,-242 309.88,-248 303.88,-248"/>
<text xml:space="preserve" text-anchor="middle" x="276.75" y="-225.72" font-family="Helvetica,sans-Serif" font-size="12.00">jdd:pipeline</text>
</a>
</g>
</g>
<!-- n3064463860927129934 -->
<g id="node4" class="node">
<title>n3064463860927129934</title>
<g id="a_node4"><a xlink:title="jdd:pipeline&#45;run&#45;d076e620&#45;21eb&#45;5c95&#45;ae39&#45;217557671e6f">
<path fill="#dbeafe" stroke="#1d4ed8" d="M429.5,-338C429.5,-338 124,-338 124,-338 118,-338 112,-332 112,-326 112,-326 112,-314 112,-314 112,-308 118,-302 124,-302 124,-302 429.5,-302 429.5,-302 435.5,-302 441.5,-308 441.5,-314 441.5,-314 441.5,-326 441.5,-326 441.5,-332 435.5,-338 429.5,-338"/>
<text xml:space="preserve" text-anchor="middle" x="276.75" y="-315.73" font-family="Helvetica,sans-Serif" font-size="12.00">jdd:pipeline&#45;run&#45;d076e620&#45;21eb&#45;5c95&#45;ae39&#45;217557671e6f</text>
</a>
</g>
</g>
<!-- n4675731939290086699 -->
<g id="node8" class="node">
<title>n4675731939290086699</title>
<g id="a_node8"><a xlink:title="Theme 1 Thesis&#10;&#10;description: O valor da aposentadoria por invalidez e do auxílio&#45;doença, bem como das pensões destes derivados ou calculadas com base no art. 75, da Lei n. 8.213/91, será obtido, na forma do art. 29, II, do mesmo diploma, por meio...">
<path fill="#ecfccb" stroke="#4d7c0f" d="M1158.5,-115C1158.5,-115 1080.25,-115 1080.25,-115 1074.25,-115 1068.25,-109 1068.25,-103 1068.25,-103 1068.25,-91 1068.25,-91 1068.25,-85 1074.25,-79 1080.25,-79 1080.25,-79 1158.5,-79 1158.5,-79 1164.5,-79 1170.5,-85 1170.5,-91 1170.5,-91 1170.5,-103 1170.5,-103 1170.5,-109 1164.5,-115 1158.5,-115"/>
<text xml:space="preserve" text-anchor="middle" x="1119.38" y="-92.72" font-family="Helvetica,sans-Serif" font-size="12.00">Theme 1 Thesis</text>
</a>
</g>
</g>
<!-- n4042327454320728100&#45;&gt;n4675731939290086699 -->
<g id="edge6" class="edge">
<title>n4042327454320728100&#45;&gt;n4675731939290086699</title>
<path fill="none" stroke="#334155" stroke-width="1.6" d="M897.75,-70.3C897.75,-82.76 897.75,-97 897.75,-97 897.75,-97 1055.55,-97 1055.55,-97"/>
<polygon fill="#334155" stroke="#334155" stroke-width="1.6" points="1055.55,-100.5 1065.55,-97 1055.55,-93.5 1055.55,-100.5"/>
<text xml:space="preserve" text-anchor="middle" x="990" y="-76.5" font-family="Helvetica,sans-Serif" font-size="10.00">adoptsThesis</text>
</g>
<!-- n4822602642155707010 -->
<g id="node6" class="node">
<title>n4822602642155707010</title>
<g id="a_node6"><a xlink:title="rs:5021277&#45;41.2025.4.02.5101">
<path fill="#fee2e2" stroke="#b91c1c" d="M354.5,-52C354.5,-52 199,-52 199,-52 193,-52 187,-46 187,-40 187,-40 187,-28 187,-28 187,-22 193,-16 199,-16 199,-16 354.5,-16 354.5,-16 360.5,-16 366.5,-22 366.5,-28 366.5,-28 366.5,-40 366.5,-40 366.5,-46 360.5,-52 354.5,-52"/>
<text xml:space="preserve" text-anchor="middle" x="276.75" y="-29.73" font-family="Helvetica,sans-Serif" font-size="12.00">rs:5021277&#45;41.2025.4.02.5101</text>
</a>
</g>
</g>
<!-- n4822602642155707010&#45;&gt;n4042327454320728100 -->
<g id="edge4" class="edge">
<title>n4822602642155707010&#45;&gt;n4042327454320728100</title>
<path fill="none" stroke="#334155" stroke-width="1.6" d="M366.89,-43C366.89,-43 709.76,-43 709.76,-43"/>
<polygon fill="#334155" stroke="#334155" stroke-width="1.6" points="709.76,-46.5 719.76,-43 709.76,-39.5 709.76,-46.5"/>
<text xml:space="preserve" text-anchor="middle" x="630" y="-36.5" font-family="Helvetica,sans-Serif" font-size="10.00">isFiledAgainst</text>
</g>
<!-- n4675731939290086699&#45;&gt;n6574927263860564005 -->
<g id="edge5" class="edge">
<title>n4675731939290086699&#45;&gt;n6574927263860564005</title>
<path fill="none" stroke="#334155" stroke-width="1.6" d="M1170.89,-104.5C1170.89,-104.5 1301.55,-104.5 1301.55,-104.5"/>
<polygon fill="#334155" stroke="#334155" stroke-width="1.6" points="1301.55,-108 1311.55,-104.5 1301.55,-101 1301.55,-108"/>
<text xml:space="preserve" text-anchor="middle" x="1242.38" y="-120.5" font-family="Helvetica,sans-Serif" font-size="10.00">hasTheme</text>
</g>
<!-- n7466957526637253590 -->
<g id="node9" class="node">
<title>n7466957526637253590</title>
<g id="a_node9"><a xlink:title="jdd:admissibility&#45;ccdd1bbf&#45;4fe7&#45;521a&#45;87b1&#45;64e782a57132">
<path fill="#fce7f3" stroke="#be185d" d="M428.38,-428C428.38,-428 125.12,-428 125.12,-428 119.12,-428 113.12,-422 113.12,-416 113.12,-416 113.12,-404 113.12,-404 113.12,-398 119.12,-392 125.12,-392 125.12,-392 428.38,-392 428.38,-392 434.38,-392 440.38,-398 440.38,-404 440.38,-404 440.38,-416 440.38,-416 440.38,-422 434.38,-428 428.38,-428"/>
<text xml:space="preserve" text-anchor="middle" x="276.75" y="-405.73" font-family="Helvetica,sans-Serif" font-size="12.00">jdd:admissibility&#45;ccdd1bbf&#45;4fe7&#45;521a&#45;87b1&#45;64e782a57132</text>
</a>
</g>
</g>
</g>
</svg>
