<?xml version="1.0" encoding="UTF-8" standalone="no"?>
<!DOCTYPE svg PUBLIC "-//W3C//DTD SVG 1.1//EN"
 "http://www.w3.org/Graphics/SVG/1.1/DTD/svg11.dtd">
<!-- Generated by graphviz version 14.1.2 (20260124.0452)
 -->
<!-- Title: rdf_graph Pages: 1 -->
<svg width="1343pt" height="564pt"
 viewBox="0.00 0.00 1343.00 564.00" xmlns="http://www.w3.org/2000/svg" xmlns:xlink="http://www.w3.org/1999/xlink">
<g id="graph0" class="graph" transform="scale(1 1) rotate(0) translate(25.2 539.2)">
<title>rdf_graph</title>
<polygon fill="white" stroke="none" points="-25.2,25.2 -25.2,-539.2 1317.45,-539.2 1317.45,25.2 -25.2,25.2"/>
<g id="clust1" class="cluster">
<title>cluster_workflow</title>
<path fill="white" stroke="#93c5fd" stroke-width="1.2" stroke-dasharray="5,2" d="M20,-159C20,-159 686.88,-159 686.88,-159 692.88,-159 698.88,-165 698.88,-171 698.88,-171 698.88,-404 698.88,-404 698.88,-410 692.88,-416 686.88,-416 686.88,-416 20,-416 20,-416 14,-416 8,-410 8,-404 8,-404 8,-171 8,-171 8,-165 14,-159 20,-159"/>
<text xml:space="preserve" text-anchor="middle" x="353.44" y="-398.7" font-family="Times New Roman,serif" font-size="14.00">Workflow / Agents</text>
</g>
<g id="clust2" class="cluster">
<title>cluster_decision</title>
<path fill="white" stroke="#a5b4fc" stroke-width="1.2" stroke-dasharray="5,2" d="M539.75,-74C539.75,-74 721,-74 721,-74 727,-74 733,-80 733,-86 733,-86 733,-139 733,-139 733,-145 727,-151 721,-151 721,-151 539.75,-151 539.75,-151 533.75,-151 527.75,-145 527.75,-139 527.75,-139 527.75,-86 527.75,-86 527.75,-80 533.75,-74 539.75,-74"/>
<text xml:space="preserve" text-anchor="middle" x="630.38" y="-133.7" font-family="Times New Roman,serif" font-size="14.00">Decision</text>
</g>
<g id="clust3" class="cluster">
<title>cluster_theme</title>
<path fill="white" stroke="#86efac" stroke-width="1.2" stroke-dasharray="5,2" d="M885.5,-44C885.5,-44 1272.25,-44 1272.25,-44 1278.25,-44 1284.25,-50 1284.25,-56 1284.25,-56 1284.25,-139 1284.25,-139 1284.25,-145 1278.25,-151 1272.25,-151 1272.25,-151 885.5,-151 885.5,-151 879.5,-151 873.5,-145 873.5,-139 873.5,-139 873.5,-56 873.5,-56 873.5,-50 879.5,-44 885.5,-44"/>
<text xml:space="preserve" text-anchor="middle" x="1078.88" y="-133.7" font-family="Times New Roman,serif" font-size="14.00">Theme / Thesis</text>
</g>
<g id="clust4" class="cluster">
<title>cluster_document</title>
<path fill="white" stroke="#f9a8d4" stroke-width="1.2" stroke-dasharray="5,2" d="M22.62,-429C22.62,-429 344.12,-429 344.12,-429 350.12,-429 356.12,-435 356.12,-441 356.12,-441 356.12,-494 356.12,-494 356.12,-500 350.12,-506 344.12,-506 344.12,-506 22.62,-506 22.62,-506 16.62,-506 10.62,-500 10.62,-494 10.62,-494 10.62,-441 10.62,-441 10.62,-435 16.62,-429 22.62,-429"/>
<text xml:space="preserve" text-anchor="middle" x="183.38" y="-488.7" font-family="Times New Roman,serif" font-size="14.00">Document Outcome</text>
</g>
<!-- n4344923127213094342 -->
<g id="node1" class="node">
<title>n4344923127213094342</title>
<g id="a_node1"><a xlink:title="gemini:3&#45;1&#45;flash&#45;lite">
<path fill="#dbeafe" stroke="#1d4ed8" d="M678.88,-239C678.88,-239 581.88,-239 581.88,-239 575.88,-239 569.88,-233 569.88,-227 569.88,-227 569.88,-215 569.88,-215 569.88,-209 575.88,-203 581.88,-203 581.88,-203 678.88,-203 678.88,-203 684.88,-203 690.88,-209 690.88,-215 690.88,-215 690.88,-227 690.88,-227 690.88,-233 684.88,-239 678.88,-239"/>
<text xml:space="preserve" text-anchor="middle" x="630.38" y="-216.72" font-family="Helvetica,sans-Serif" font-size="12.00">gemini:3&#45;1&#45;flash&#45;lite</text>
</a>
</g>
</g>
<!-- n1957224061243882687 -->
<g id="node2" class="node">
<title>n1957224061243882687</title>
<g id="a_node2"><a xlink:title="jdd:classification&#45;2891c776&#45;b24a&#45;5f7d&#45;94bd&#45;3e917786d2dd">
<polygon fill="#dbeafe" stroke="#1d4ed8" points="350.75,-203 16,-203 16,-199 12,-199 12,-195 16,-195 16,-175 12,-175 12,-171 16,-171 16,-167 350.75,-167 350.75,-203"/>
<polyline fill="none" stroke="#1d4ed8" points="16,-199 20,-199 20,-195 16,-195"/>
<polyline fill="none" stroke="#1d4ed8" points="16,-175 20,-175 20,-171 16,-171"/>
<text xml:space="preserve" text-anchor="middle" x="183.38" y="-180.72" font-family="Helvetica,sans-Serif" font-size="12.00">jdd:classification&#45;2891c776&#45;b24a&#45;5f7d&#45;94bd&#45;3e917786d2dd</text>
</a>
</g>
</g>
<!-- n1957224061243882687&#45;&gt;n4344923127213094342 -->
<g id="edge3" class="edge">
<title>n1957224061243882687&#45;&gt;n4344923127213094342</title>
<path fill="none" stroke="#334155" stroke-width="1.6" d="M351.05,-194C477.85,-194 630.25,-194 630.25,-194 630.25,-194 630.25,-194.85 630.25,-194.85"/>
<polygon fill="#334155" stroke="#334155" stroke-width="1.6" points="626.75,-190.12 630.25,-200.12 633.75,-190.12 626.75,-190.12"/>
<text xml:space="preserve" text-anchor="middle" x="443.25" y="-223.5" font-family="Helvetica,sans-Serif" font-size="10.00">wasAssociatedWith</text>
</g>
<!-- n7544688250973594723 -->
<g id="node5" class="node">
<title>n7544688250973594723</title>
<g id="a_node5"><a xlink:title="tres:5000002&#45;00.2025.4.02.5001">
<path fill="#e0e7ff" stroke="#4338ca" d="M713,-118C713,-118 547.75,-118 547.75,-118 541.75,-118 535.75,-112 535.75,-106 535.75,-106 535.75,-94 535.75,-94 535.75,-88 541.75,-82 547.75,-82 547.75,-82 713,-82 713,-82 719,-82 725,-88 725,-94 725,-94 725,-106 725,-106 725,-112 719,-118 713,-118"/>
<text xml:space="preserve" text-anchor="middle" x="630.38" y="-95.72" font-family="Helvetica,sans-Serif" font-size="12.00">tres:5000002&#45;00.2025.4.02.5001</text>
</a>
</g>
</g>
<!-- n1957224061243882687&#45;&gt;n7544688250973594723 -->
<g id="edge2" class="edge">
<title>n1957224061243882687&#45;&gt;n7544688250973594723</title>
<path fill="none" stroke="#334155" stroke-width="1.6" d="M351,-176C448.86,-176 553.25,-176 553.25,-176 553.25,-176 553.25,-130.82 553.25,-130.82"/>
<polygon fill="#334155" stroke="#334155" stroke-width="1.6" points="556.75,-130.82 553.25,-120.82 549.75,-130.82 556.75,-130.82"/>
<text xml:space="preserve" text-anchor="middle" x="443.25" y="-127.5" font-family="Helvetica,sans-Serif" font-size="10.00">used</text>
</g>
<!-- n6967077604066848557 -->
<g id="node6" class="node">
<title>n6967077604066848557</title>
<g id="a_node6"><a xlink:title="Tema 309 &#45; JULGADO">
<path fill="#dcfce7" stroke="#15803d" d="M1264.25,-103C1264.25,-103 1153,-103 1153,-103 1147,-103 1141,-97 1141,-91 1141,-91 1141,-79 1141,-79 1141,-73 1147,-67 1153,-67 1153,-67 1264.25,-67 1264.25,-67 1270.25,-67 1276.25,-73 1276.25,-79 1276.25,-79 1276.25,-91 1276.25,-91 1276.25,-97 1270.25,-103 1264.25,-103"/>
<text xml:space="preserve" text-anchor="middle" x="1208.62" y="-80.72" font-family="Helvetica,sans-Serif" font-size="12.00">Tema 309 &#45; JULGADO</text>
</a>
</g>
</g>
<!-- n1957224061243882687&#45;&gt;n6967077604066848557 -->
<g id="edge1" class="edge">
<title>n1957224061243882687&#45;&gt;n6967077604066848557</title>
<path fill="none" stroke="#334155" stroke-width="1.6" d="M351.18,-185C641.85,-185 1208.25,-185 1208.25,-185 1208.25,-185 1208.25,-115.76 1208.25,-115.76"/>
<polygon fill="#334155" stroke="#334155" stroke-width="1.6" points="1211.75,-115.76 1208.25,-105.76 1204.75,-115.76 1211.75,-115.76"/>
<text xml:space="preserve" text-anchor="middle" x="803.25" y="-2.5" font-family="Helvetica,sans-Serif" font-size="10.00">used</text>
</g>
<!-- n3985327377029396428 -->
<g id="node3" class="node">
<title>n3985327377029396428</title>
<g id="a_node3"><a xlink:title="jdd:pipeline">
<path fill="#dbeafe" stroke="#1d4ed8" d="M210.5,-293C210.5,-293 156.25,-293 156.25,-293 150.25,-293 144.25,-287 144.25,-281 144.25,-281 144.25,-269 144.25,-269 144.25,-263 150.25,-257 156.25,-257 156.25,-257 210.5,-257 210.5,-257 216.5,-257 222.5,-263 222.5,-269 222.5,-269 222.5,-281 222.5,-281 222.5,-287 216.5,-293 210.5,-293"/>
<text xml:space="preserve" text-anchor="middle" x="183.38" y="-270.73" font-family="Helvetica,sans-Serif" font-size="12.00">jdd:pipeline</text>
</a>
</g>
</g>
<!-- n7583474864134530275 -->
<g id="node4" class="node">
<title>n7583474864134530275</title>
<g id="a_node4"><a xlink:title="jdd:pipeline&#45;run&#45;57a8223e&#45;e06f&#45;52c7&#45;bcfa&#45;27462a9676e0">
<path fill="#dbeafe" stroke="#1d4ed8" d="M333.88,-383C333.88,-383 32.88,-383 32.88,-383 26.88,-383 20.88,-377 20.88,-371 20.88,-371 20.88,-359 20.88,-359 20.88,-353 26.88,-347 32.88,-347 32.88,-347 333.88,-347 333.88,-347 339.88,-347 345.88,-353 345.88,-359 345.88,-359 345.88,-371 345.88,-371 345.88,-377 339.88,-383 333.88,-383"/>
<text xml:space="preserve" text-anchor="middle" x="183.38" y="-360.73" font-family="Helvetica,sans-Serif" font-size="12.00">jdd:pipeline&#45;run&#45;57a8223e&#45;e06f&#45;52c7&#45;bcfa&#45;27462a9676e0</text>
</a>
</g>
</g>
<!-- n951311273971426889 -->
<g id="node7" class="node">
<title>n951311273971426889</title>
<g id="a_node7"><a xlink:title="Theme 309 Thesis&#10;&#10;description: O auxilio&#45;alimentacao integra a base de calculo da licenca&#45;premio nao usufruida.">
<path fill="#ecfccb" stroke="#4d7c0f" d="M985.25,-118C985.25,-118 893.5,-118 893.5,-118 887.5,-118 881.5,-112 881.5,-106 881.5,-106 881.5,-94 881.5,-94 881.5,-88 887.5,-82 893.5,-82 893.5,-82 985.25,-82 985.25,-82 991.25,-82 997.25,-88 997.25,-94 997.25,-94 997.25,-106 997.25,-106 997.25,-112 991.25,-118 985.25,-118"/>
<text xml:space="preserve" text-anchor="middle" x="939.38" y="-95.72" font-family="Helvetica,sans-Serif" font-size="12.00">Theme 309 Thesis</text>
</a>
</g>
</g>
<!-- n7544688250973594723&#45;&gt;n951311273971426889 -->
<g id="edge5" class="edge">
<title>n7544688250973594723&#45;&gt;n951311273971426889</title>
<path fill="none" stroke="#334155" stroke-width="1.6" d="M725.19,-100C725.19,-100 868.71,-100 868.71,-100"/>
<polygon fill="#334155" stroke="#334155" stroke-width="1.6" points="868.71,-103.5 878.71,-100 868.71,-96.5 868.71,-103.5"/>
<text xml:space="preserve" text-anchor="middle" x="803.25" y="-102.5" font-family="Helvetica,sans-Serif" font-size="10.00">adoptsThesis</text>
</g>
<!-- n951311273971426889&#45;&gt;n6967077604066848557 -->
<g id="edge4" class="edge">
<title>n951311273971426889&#45;&gt;n6967077604066848557</title>
<path fill="none" stroke="#334155" stroke-width="1.6" d="M997.47,-92.5C997.47,-92.5 1128.23,-92.5 1128.23,-92.5"/>
<polygon fill="#334155" stroke="#334155" stroke-width="1.6" points="1128.23,-96 1138.23,-92.5 1128.23,-89 1128.23,-96"/>
<text xml:space="preserve" text-anchor="middle" x="1069.12" y="-108.5" font-family="Helvetica,sans-Serif" font-size="10.00">hasTheme</text>
</g>
<!-- n7810567498341813801 -->
<g id="node8" class="node">
<title>n7810567498341813801</title>
<g id="a_node8"><a xlink:title="jdd:admissibility&#45;e3b7a254&#45;cbe3&#45;5b23&#45;bc71&#45;127cc40fe4a4">
<path fill="#fce7f3" stroke="#be185d" d="M336.12,-473C336.12,-473 30.62,-473 30.62,-473 24.62,-473 18.62,-467 18.62,-461 18.62,-461 18.62,-449 18.62,-449 18.62,-443 24.62,-437 30.62,-437 30.62,-437 336.12,-437 336.12,-437 342.12,-437 348.12,-443 348.12,-449 348.12,-449 348.12,-461 348.12,-461 348.12,-467 342.12,-473 336.12,-473"/>
<text xml:space="preserve" text-anchor="middle" x="183.38" y="-450.73" font-family="Helvetica,sans-Serif" font-size="12.00">jdd:admissibility&#45;e3b7a254&#45;cbe3&#45;5b23&#45;bc71&#45;127cc40fe4a4</text>
</a>
</g>
</g>
</g>
</svg>
