<?xml version="1.0" encoding="UTF-8" standalone="no"?>
<!DOCTYPE svg PUBLIC "-//W3C//DTD SVG 1.1//EN"
 "http://www.w3.org/Graphics/SVG/1.1/DTD/svg11.dtd">
<!-- Generated by graphviz version 14.1.2 (20260124.0452)
 -->
<!-- Title: rdf_graph Pages: 1 -->
<svg width="1543pt" height="519pt"
 viewBox="0.00 0.00 1543.00 519.00" xmlns="http://www.w3.org/2000/svg" xmlns:xlink="http://www.w3.org/1999/xlink">
<g id="graph0" class="graph" transform="scale(1 1) rotate(0) translate(25.2 494.2)">
<title>rdf_graph</title>
<polygon fill="white" stroke="none" points="-25.2,25.2 -25.2,-494.2 1517.7,-494.2 1517.7,25.2 -25.2,25.2"/>
<g id="clust1" class="cluster">
<title>cluster_workflow</title>
<path fill="white" stroke="#93c5fd" stroke-width="1.2" stroke-dasharray="5,2" d="M20,-114C20,-114 893.88,-114 893.88,-114 899.88,-114 905.88,-120 905.88,-126 905.88,-126 905.88,-359 905.88,-359 905.88,-365 899.88,-371 893.88,-371 893.88,-371 20,-371 20,-371 14,-371 8,-365 8,-359 8,-359 8,-126 8,-126 8,-120 14,-114 20,-114"/>
<text xml:space="preserve" text-anchor="middle" x="456.94" y="-353.7" font-family="Times New Roman,serif" font-size="14.00">Workflow / Agents</text>
</g>
<g id="clust2" class="cluster">
<title>cluster_decision</title>
<path fill="white" stroke="#a5b4fc" stroke-width="1.2" stroke-dasharray="5,2" d="M740,-26C740,-26 921.25,-26 921.25,-26 927.25,-26 933.25,-32 933.25,-38 933.25,-38 933.25,-91 933.25,-91 933.25,-97 927.25,-103 921.25,-103 921.25,-103 740,-103 740,-103 734,-103 728,-97 728,-91 728,-91 728,-38 728,-38 728,-32 734,-26 740,-26"/>
<text xml:space="preserve" text-anchor="middle" x="830.62" y="-85.7" font-family="Times New Roman,serif" font-size="14.00">Decision</text>
</g>
<g id="clust3" class="cluster">
<title>cluster_petition</title>
<path fill="white" stroke="#fca5a5" stroke-width="1.2" stroke-dasharray="5,2" d="M197.75,-8C197.75,-8 369.25,-8 369.25,-8 375.25,-8 381.25,-14 381.25,-20 381.25,-20 381.25,-73 381.25,-73 381.25,-79 375.25,-85 369.25,-85 369.25,-85 197.75,-85 197.75,-85 191.75,-85 185.75,-79 185.75,-73 185.75,-73 185.75,-20 185.75,-20 185.75,-14 191.75,-8 197.75,-8"/>
<text xml:space="preserve" text-anchor="middle" x="283.5" y="-67.7" font-family="Times New Roman,serif" font-size="14.00">Petition</text>
</g>
<g id="clust4" class="cluster">
<title>cluster_theme</title>
<path fill="white" stroke="#86efac" stroke-width="1.2" stroke-dasharray="5,2" d="M1085.75,-56C1085.75,-56 1472.5,-56 1472.5,-56 1478.5,-56 1484.5,-62 1484.5,-68 1484.5,-68 1484.5,-151 1484.5,-151 1484.5,-157 1478.5,-163 1472.5,-163 1472.5,-163 1085.75,-163 1085.75,-163 1079.75,-163 1073.75,-157 1073.75,-151 1073.75,-151 1073.75,-68 1073.75,-68 1073.75,-62 1079.75,-56 1085.75,-56"/>
<text xml:space="preserve" text-anchor="middle" x="1279.12" y="-145.7" font-family="Times New Roman,serif" font-size="14.00">Theme / Thesis</text>
</g>
<g id="clust5" class="cluster">
<title>cluster_document</title>
<path fill="white" stroke="#f9a8d4" stroke-width="1.2" stroke-dasharray="5,2" d="M122.75,-384C122.75,-384 444.25,-384 444.25,-384 450.25,-384 456.25,-390 456.25,-396 456.25,-396 456.25,-449 456.25,-449 456.25,-455 450.25,-461 444.25,-461 444.25,-461 122.75,-461 122.75,-461 116.75,-461 110.75,-455 110.75,-449 110.75,-449 110.75,-396 110.75,-396 110.75,-390 116.75,-384 122.75,-384"/>
<text xml:space="preserve" text-anchor="middle" x="283.5" y="-443.7" font-family="Times New Roman,serif" font-size="14.00">Document Outcome</text>
</g>
<!-- n7679995840373190168 -->
<g id="node1" class="node">
<title>n7679995840373190168</title>
<g id="a_node1"><a xlink:title="Classification for process 5000002&#45;00.2025.4.02.5001 and theme 309 (CONSONANCIA; VALIDA)">
<polygon fill="#dbeafe" stroke="#1d4ed8" points="551,-158 16,-158 16,-154 12,-154 12,-150 16,-150 16,-130 12,-130 12,-126 16,-126 16,-122 551,-122 551,-158"/>
<polyline fill="none" stroke="#1d4ed8" points="16,-154 20,-154 20,-150 16,-150"/>
<polyline fill="none" stroke="#1d4ed8" points="16,-130 20,-130 20,-126 16,-126"/>
<text xml:space="preserve" text-anchor="middle" x="283.5" y="-135.72" font-family="Helvetica,sans-Serif" font-size="12.00">Classification for process 5000002&#45;00.2025.4.02.5001 and theme 309 (CONSONANCIA; VALIDA)</text>
</a>
</g>
</g>
<!-- n7440904307570521098 -->
<g id="node2" class="node">
<title>n7440904307570521098</title>
<g id="a_node2"><a xlink:title="jdd:local&#45;text&#45;similarity">
<path fill="#dbeafe" stroke="#1d4ed8" d="M885.88,-160C885.88,-160 775.38,-160 775.38,-160 769.38,-160 763.38,-154 763.38,-148 763.38,-148 763.38,-136 763.38,-136 763.38,-130 769.38,-124 775.38,-124 775.38,-124 885.88,-124 885.88,-124 891.88,-124 897.88,-130 897.88,-136 897.88,-136 897.88,-148 897.88,-148 897.88,-154 891.88,-160 885.88,-160"/>
<text xml:space="preserve" text-anchor="middle" x="830.62" y="-137.72" font-family="Helvetica,sans-Serif" font-size="12.00">jdd:local&#45;text&#45;similarity</text>
</a>
</g>
</g>
<!-- n7679995840373190168&#45;&gt;n7440904307570521098 -->
<g id="edge3" class="edge">
<title>n7679995840373190168&#45;&gt;n7440904307570521098</title>
<path fill="none" stroke="#334155" stroke-width="1.6" d="M551.45,-146.67C551.45,-146.67 750.55,-146.67 750.55,-146.67"/>
<polygon fill="#334155" stroke="#334155" stroke-width="1.6" points="750.55,-150.17 760.55,-146.67 750.55,-143.17 750.55,-150.17"/>
<text xml:space="preserve" text-anchor="middle" x="643.5" y="-178.5" font-family="Helvetica,sans-Serif" font-size="10.00">wasAssociatedWith</text>
</g>
<!-- n9218180586673478514 -->
<g id="node5" class="node">
<title>n9218180586673478514</title>
<g id="a_node5"><a xlink:title="tres:5000002&#45;00.2025.4.02.5001">
<path fill="#e0e7ff" stroke="#4338ca" d="M913.25,-70C913.25,-70 748,-70 748,-70 742,-70 736,-64 736,-58 736,-58 736,-46 736,-46 736,-40 742,-34 748,-34 748,-34 913.25,-34 913.25,-34 919.25,-34 925.25,-40 925.25,-46 925.25,-46 925.25,-58 925.25,-58 925.25,-64 919.25,-70 913.25,-70"/>
<text xml:space="preserve" text-anchor="middle" x="830.62" y="-47.73" font-family="Helvetica,sans-Serif" font-size="12.00">tres:5000002&#45;00.2025.4.02.5001</text>
</a>
</g>
</g>
<!-- n7679995840373190168&#45;&gt;n9218180586673478514 -->
<g id="edge2" class="edge">
<title>n7679995840373190168&#45;&gt;n9218180586673478514</title>
<path fill="none" stroke="#334155" stroke-width="1.6" d="M551.2,-135.33C655.05,-135.33 749.5,-135.33 749.5,-135.33 749.5,-135.33 749.5,-82.92 749.5,-82.92"/>
<polygon fill="#334155" stroke="#334155" stroke-width="1.6" points="753,-82.92 749.5,-72.92 746,-82.92 753,-82.92"/>
<text xml:space="preserve" text-anchor="middle" x="643.5" y="-107.5" font-family="Helvetica,sans-Serif" font-size="10.00">used</text>
</g>
<!-- n5829619932597447492 -->
<g id="node7" class="node">
<title>n5829619932597447492</title>
<g id="a_node7"><a xlink:title="Tema 309 &#45; JULGADO">
<path fill="#dcfce7" stroke="#15803d" d="M1464.5,-130C1464.5,-130 1353.25,-130 1353.25,-130 1347.25,-130 1341.25,-124 1341.25,-118 1341.25,-118 1341.25,-106 1341.25,-106 1341.25,-100 1347.25,-94 1353.25,-94 1353.25,-94 1464.5,-94 1464.5,-94 1470.5,-94 1476.5,-100 1476.5,-106 1476.5,-106 1476.5,-118 1476.5,-118 1476.5,-124 1470.5,-130 1464.5,-130"/>
<text xml:space="preserve" text-anchor="middle" x="1408.88" y="-107.72" font-family="Helvetica,sans-Serif" font-size="12.00">Tema 309 &#45; JULGADO</text>
</a>
</g>
</g>
<!-- n7679995840373190168&#45;&gt;n5829619932597447492 -->
<g id="edge1" class="edge">
<title>n7679995840373190168&#45;&gt;n5829619932597447492</title>
<path fill="none" stroke="#334155" stroke-width="1.6" d="M462.5,-121.86C462.5,-119.84 462.5,-118.5 462.5,-118.5 462.5,-118.5 1328.39,-118.5 1328.39,-118.5"/>
<polygon fill="#334155" stroke="#334155" stroke-width="1.6" points="1328.39,-122 1338.39,-118.5 1328.39,-115 1328.39,-122"/>
<text xml:space="preserve" text-anchor="middle" x="1003.5" y="-244.5" font-family="Helvetica,sans-Serif" font-size="10.00">used</text>
</g>
<!-- n2802121588509916836 -->
<g id="node3" class="node">
<title>n2802121588509916836</title>
<g id="a_node3"><a xlink:title="jdd:pipeline">
<path fill="#dbeafe" stroke="#1d4ed8" d="M310.62,-248C310.62,-248 256.38,-248 256.38,-248 250.38,-248 244.38,-242 244.38,-236 244.38,-236 244.38,-224 244.38,-224 244.38,-218 250.38,-212 256.38,-212 256.38,-212 310.62,-212 310.62,-212 316.62,-212 322.62,-218 322.62,-224 322.62,-224 322.62,-236 322.62,-236 322.62,-242 316.62,-248 310.62,-248"/>
<text xml:space="preserve" text-anchor="middle" x="283.5" y="-225.72" font-family="Helvetica,sans-Serif" font-size="12.00">jdd:pipeline</text>
</a>
</g>
</g>
<!-- n2631890107356881703 -->
<g id="node4" class="node">
<title>n2631890107356881703</title>
<g id="a_node4"><a xlink:title="jdd:pipeline&#45;run&#45;edc46924&#45;1a9e&#45;511b&#45;b870&#45;d5c81a06439a">
<path fill="#dbeafe" stroke="#1d4ed8" d="M437.38,-338C437.38,-338 129.62,-338 129.62,-338 123.62,-338 117.62,-332 117.62,-326 117.62,-326 117.62,-314 117.62,-314 117.62,-308 123.62,-302 129.62,-302 129.62,-302 437.38,-302 437.38,-302 443.38,-302 449.38,-308 449.38,-314 449.38,-314 449.38,-326 449.38,-326 449.38,-332 443.38,-338 437.38,-338"/>
<text xml:space="preserve" text-anchor="middle" x="283.5" y="-315.73" font-family="Helvetica,sans-Serif" font-size="12.00">jdd:pipeline&#45;run&#45;edc46924&#45;1a9e&#45;511b&#45;b870&#45;d5c81a06439a</text>
</a>
</g>
</g>
<!-- n4881167240510422498 -->
<g id="node8" class="node">
<title>n4881167240510422498</title>
<g id="a_node8"><a xlink:title="Theme 309 Thesis&#10;&#10;description: O auxilio&#45;alimentacao integra a base de calculo da licenca&#45;premio nao usufruida.">
<path fill="#ecfccb" stroke="#4d7c0f" d="M1185.5,-115C1185.5,-115 1093.75,-115 1093.75,-115 1087.75,-115 1081.75,-109 1081.75,-103 1081.75,-103 1081.75,-91 1081.75,-91 1081.75,-85 1087.75,-79 1093.75,-79 1093.75,-79 1185.5,-79 1185.5,-79 1191.5,-79 1197.5,-85 1197.5,-91 1197.5,-91 1197.5,-103 1197.5,-103 1197.5,-109 1191.5,-115 1185.5,-115"/>
<text xml:space="preserve" text-anchor="middle" x="1139.62" y="-92.72" font-family="Helvetica,sans-Serif" font-size="12.00">Theme 309 Thesis</text>
</a>
</g>
</g>
<!-- n9218180586673478514&#45;&gt;n4881167240510422498 -->
<g id="edge6" class="edge">
<title>n9218180586673478514&#45;&gt;n4881167240510422498</title>
<path fill="none" stroke="#334155" stroke-width="1.6" d="M911.5,-70.3C911.5,-82.76 911.5,-97 911.5,-97 911.5,-97 1069.05,-97 1069.05,-97"/>
<polygon fill="#334155" stroke="#334155" stroke-width="1.6" points="1069.05,-100.5 1079.05,-97 1069.05,-93.5 1069.05,-100.5"/>
<text xml:space="preserve" text-anchor="middle" x="1003.5" y="-76.5" font-family="Helvetica,sans-Serif" font-size="10.00">adoptsThesis</text>
</g>
<!-- n2587344447423428884 -->
<g id="node6" class="node">
<title>n2587344447423428884</title>
<g id="a_node6"><a xlink:title="rs:5000002&#45;00.2025.4.02.5001">
<path fill="#fee2e2" stroke="#b91c1c" d="M361.25,-52C361.25,-52 205.75,-52 205.75,-52 199.75,-52 193.75,-46 193.75,-40 193.75,-40 193.75,-28 193.75,-28 193.75,-22 199.75,-16 205.75,-16 205.75,-16 361.25,-16 361.25,-16 367.25,-16 373.25,-22 373.25,-28 373.25,-28 373.25,-40 373.25,-40 373.25,-46 367.25,-52 361.25,-52"/>
<text xml:space="preserve" text-anchor="middle" x="283.5" y="-29.73" font-family="Helvetica,sans-Serif" font-size="12.00">rs:5000002&#45;00.2025.4.02.5001</text>
</a>
</g>
</g>
<!-- n2587344447423428884&#45;&gt;n9218180586673478514 -->
<g id="edge4" class="edge">
<title>n2587344447423428884&#45;&gt;n9218180586673478514</title>
<path fill="none" stroke="#334155" stroke-width="1.6" d="M373.54,-43C373.54,-43 723.48,-43 723.48,-43"/>
<polygon fill="#334155" stroke="#334155" stroke-width="1.6" points="723.48,-46.5 733.48,-43 723.48,-39.5 723.48,-46.5"/>
<text xml:space="preserve" text-anchor="middle" x="643.5" y="-36.5" font-family="Helvetica,sans-Serif" font-size="10.00">isFiledAgainst</text>
</g>
<!-- n4881167240510422498&#45;&gt;n5829619932597447492 -->
<g id="edge5" class="edge">
<title>n4881167240510422498&#45;&gt;n5829619932597447492</title>
<path fill="none" stroke="#334155" stroke-width="1.6" d="M1197.72,-104.5C1197.72,-104.5 1328.48,-104.5 1328.48,-104.5"/>
<polygon fill="#334155" stroke="#334155" stroke-width="1.6" points="1328.48,-108 1338.48,-104.5 1328.48,-101 1328.48,-108"/>
<text xml:space="preserve" text-anchor="middle" x="1269.38" y="-120.5" font-family="Helvetica,sans-Serif" font-size="10.00">hasTheme</text>
</g>
<!-- n2912225565651384045 -->
<g id="node9" class="node">
<title>n2912225565651384045</title>
<g id="a_node9"><a xlink:title="jdd:admissibility&#45;e3b7a254&#45;cbe3&#45;5b23&#45;bc71&#45;127cc40fe4a4">
<path fill="#fce7f3" stroke="#be185d" d="M436.25,-428C436.25,-428 130.75,-428 130.75,-428 124.75,-428 118.75,-422 118.75,-416 118.75,-416 118.75,-404 118.75,-404 118.75,-398 124.75,-392 130.75,-392 130.75,-392 436.25,-392 436.25,-392 442.25,-392 448.25,-398 448.25,-404 448.25,-404 448.25,-416 448.25,-416 448.25,-422 442.25,-428 436.25,-428"/>
<text xml:space="preserve" text-anchor="middle" x="283.5" y="-405.73" font-family="Helvetica,sans-Serif" font-size="12.00">jdd:admissibility&#45;e3b7a254&#45;cbe3&#45;5b23&#45;bc71&#45;127cc40fe4a4</text>
</a>
</g>
</g>
</g>
</svg>
