<?xml version="1.0" encoding="UTF-8" standalone="no"?>
<!DOCTYPE svg PUBLIC "-//W3C//DTD SVG 1.1//EN"
 "http://www.w3.org/Graphics/SVG/1.1/DTD/svg11.dtd">
<!-- Generated by graphviz version 14.1.2 (20260124.0452)
 -->
<!-- Title: rdf_graph Pages: 1 -->
<svg width="1543pt" height="506pt"
 viewBox="0.00 0.00 1543.00 506.00" xmlns="http://www.w3.org/2000/svg" xmlns:xlink="http://www.w3.org/1999/xlink">
<g id="graph0" class="graph" transform="scale(1 1) rotate(0) translate(25.2 481.2)">
<title>rdf_graph</title>
<polygon fill="white" stroke="none" points="-25.2,25.2 -25.2,-481.2 1517.7,-481.2 1517.7,25.2 -25.2,25.2"/>
<g id="clust1" class="cluster">
<title>cluster_workflow</title>
<path fill="white" stroke="#93c5fd" stroke-width="1.2" stroke-dasharray="5,2" d="M20,-114C20,-114 893.88,-114 893.88,-114 899.88,-114 905.88,-120 905.88,-126 905.88,-126 905.88,-351 905.88,-351 905.88,-357 899.88,-363 893.88,-363 893.88,-363 20,-363 20,-363 14,-363 8,-357 8,-351 8,-351 8,-126 8,-126 8,-120 14,-114 20,-114"/>
<text xml:space="preserve" text-anchor="middle" x="456.94" y="-345.7" font-family="Times New Roman,serif" font-size="14.00">Workflow / Agents</text>
</g>
<g id="clust2" class="cluster">
<title>cluster_decision</title>
<path fill="white" stroke="#a5b4fc" stroke-width="1.2" stroke-dasharray="5,2" d="M740,-29C740,-29 921.25,-29 921.25,-29 927.25,-29 933.25,-35 933.25,-41 933.25,-41 933.25,-94 933.25,-94 933.25,-100 927.25,-106 921.25,-106 921.25,-106 740,-106 740,-106 734,-106 728,-100 728,-94 728,-94 728,-41 728,-41 728,-35 734,-29 740,-29"/>
<text xml:space="preserve" text-anchor="middle" x="830.62" y="-88.7" font-family="Times New Roman,serif" font-size="14.00">Decision</text>
</g>
<g id="clust3" class="cluster">
<title>cluster_petition</title>
<path fill="white" stroke="#fca5a5" stroke-width="1.2" stroke-dasharray="5,2" d="M197.75,-8C197.75,-8 369.25,-8 369.25,-8 375.25,-8 381.25,-14 381.25,-20 381.25,-20 381.25,-73 381.25,-73 381.25,-79 375.25,-85 369.25,-85 369.25,-85 197.75,-85 197.75,-85 191.75,-85 185.75,-79 185.75,-73 185.75,-73 185.75,-20 185.75,-20 185.75,-14 191.75,-8 197.75,-8"/>
<text xml:space="preserve" text-anchor="middle" x="283.5" y="-67.7" font-family="Times New Roman,serif" font-size="14.00">Petition</text>
</g>
<g id="clust4" class="cluster">
<title>cluster_theme</title>
<path fill="white" stroke="#86efac" stroke-width="1.2" stroke-dasharray="5,2" d="M1085.75,-120C1085.75,-120 1472.5,-120 1472.5,-120 1478.5,-120 1484.5,-126 1484.5,-132 1484.5,-132 1484.5,-215 1484.5,-215 1484.5,-221 1478.5,-227 1472.5,-227 1472.5,-227 1085.75,-227 1085.75,-227 1079.75,-227 1073.75,-221 1073.75,-215 1073.75,-215 1073.75,-132 1073.75,-132 1073.75,-126 1079.75,-120 1085.75,-120"/>
<text xml:space="preserve" text-anchor="middle" x="1279.12" y="-209.7" font-family="Times New Roman,serif" font-size="14.00">Theme / Thesis</text>
</g>
<g id="clust5" class="cluster">
<title>cluster_document</title>
<path fill="white" stroke="#f9a8d4" stroke-width="1.2" stroke-dasharray="5,2" d="M122.75,-371C122.75,-371 444.25,-371 444.25,-371 450.25,-371 456.25,-377 456.25,-383 456.25,-383 456.25,-436 456.25,-436 456.25,-442 450.25,-448 444.25,-448 444.25,-448 122.75,-448 122.75,-448 116.75,-448 110.75,-442 110.75,-436 110.75,-436 110.75,-383 110.75,-383 110.75,-377 116.75,-371 122.75,-371"/>
<text xml:space="preserve" text-anchor="middle" x="283.5" y="-430.7" font-family="Times New Roman,serif" font-size="14.00">Document Outcome</text>
</g>
<!-- n7679995840373190168 -->
<g id="node1" class="node">
<title>n7679995840373190168</title>
<g id="a_node1"><a xlink:title="Classification for process 5000002&#45;00.2025.4.02.5001 and theme 309 (CONSONANCIA; VALIDA)">
<polygon fill="#dbeafe" stroke="#1d4ed8" points="551,-194 16,-194 16,-190 12,-190 12,-186 16,-186 16,-166 12,-166 12,-162 16,-162 16,-158 551,-158 551,-194"/>
<polyline fill="none" stroke="#1d4ed8" points="16,-190 20,-190 20,-186 16,-186"/>
<polyline fill="none" stroke="#1d4ed8" points="16,-166 20,-166 20,-162 16,-162"/>
<text xml:space="preserve" text-anchor="middle" x="283.5" y="-171.72" font-family="Helvetica,sans-Serif" font-size="12.00">Classification for process 5000002&#45;00.2025.4.02.5001 and theme 309 (CONSONANCIA; VALIDA)</text>
</a>
</g>
</g>
<!-- n7440904307570521098 -->
<g id="node2" class="node">
<title>n7440904307570521098</title>
<g id="a_node2"><a xlink:title="jdd:local&#45;text&#45;similarity">
<path fill="#dbeafe" stroke="#1d4ed8" d="M885.88,-194C885.88,-194 775.38,-194 775.38,-194 769.38,-194 763.38,-188 763.38,-182 763.38,-182 763.38,-170 763.38,-170 763.38,-164 769.38,-158 775.38,-158 775.38,-158 885.88,-158 885.88,-158 891.88,-158 897.88,-164 897.88,-170 897.88,-170 897.88,-182 897.88,-182 897.88,-188 891.88,-194 885.88,-194"/>
<text xml:space="preserve" text-anchor="middle" x="830.62" y="-171.72" font-family="Helvetica,sans-Serif" font-size="12.00">jdd:local&#45;text&#45;similarity</text>
</a>
</g>
</g>
<!-- n7679995840373190168&#45;&gt;n7440904307570521098 -->
<g id="edge3" class="edge">
<title>n7679995840373190168&#45;&gt;n7440904307570521098</title>
<path fill="none" stroke="#334155" stroke-width="1.6" d="M551.45,-182C551.45,-182 750.55,-182 750.55,-182"/>
<polygon fill="#334155" stroke="#334155" stroke-width="1.6" points="750.55,-185.5 760.55,-182 750.55,-178.5 750.55,-185.5"/>
<text xml:space="preserve" text-anchor="middle" x="643.5" y="-178.5" font-family="Helvetica,sans-Serif" font-size="10.00">wasAssociatedWith</text>
</g>
<!-- n9218180586673478514 -->
<g id="node5" class="node">
<title>n9218180586673478514</title>
<g id="a_node5"><a xlink:title="tres:5000002&#45;00.2025.4.02.5001">
<path fill="#e0e7ff" stroke="#4338ca" d="M913.25,-73C913.25,-73 748,-73 748,-73 742,-73 736,-67 736,-61 736,-61 736,-49 736,-49 736,-43 742,-37 748,-37 748,-37 913.25,-37 913.25,-37 919.25,-37 925.25,-43 925.25,-49 925.25,-49 925.25,-61 925.25,-61 925.25,-67 919.25,-73 913.25,-73"/>
<text xml:space="preserve" text-anchor="middle" x="830.62" y="-50.73" font-family="Helvetica,sans-Serif" font-size="12.00">tres:5000002&#45;00.2025.4.02.5001</text>
</a>
</g>
</g>
<!-- n7679995840373190168&#45;&gt;n9218180586673478514 -->
<g id="edge2" class="edge">
<title>n7679995840373190168&#45;&gt;n9218180586673478514</title>
<path fill="none" stroke="#334155" stroke-width="1.6" d="M551.2,-170C655.05,-170 749.5,-170 749.5,-170 749.5,-170 749.5,-85.9 749.5,-85.9"/>
<polygon fill="#334155" stroke="#334155" stroke-width="1.6" points="753,-85.9 749.5,-75.9 746,-85.9 753,-85.9"/>
<text xml:space="preserve" text-anchor="middle" x="643.5" y="-107.5" font-family="Helvetica,sans-Serif" font-size="10.00">used</text>
</g>
<!-- n5829619932597447492 -->
<g id="node7" class="node">
<title>n5829619932597447492</title>
<g id="a_node7"><a xlink:title="Tema 309 &#45; JULGADO">
<path fill="#dcfce7" stroke="#15803d" d="M1464.5,-194C1464.5,-194 1353.25,-194 1353.25,-194 1347.25,-194 1341.25,-188 1341.25,-182 1341.25,-182 1341.25,-170 1341.25,-170 1341.25,-164 1347.25,-158 1353.25,-158 1353.25,-158 1464.5,-158 1464.5,-158 1470.5,-158 1476.5,-164 1476.5,-170 1476.5,-170 1476.5,-182 1476.5,-182 1476.5,-188 1470.5,-194 1464.5,-194"/>
<text xml:space="preserve" text-anchor="middle" x="1408.88" y="-171.72" font-family="Helvetica,sans-Serif" font-size="12.00">Tema 309 &#45; JULGADO</text>
</a>
</g>
</g>
<!-- n7679995840373190168&#45;&gt;n5829619932597447492 -->
<g id="edge1" class="edge">
<title>n7679995840373190168&#45;&gt;n5829619932597447492</title>
<path fill="none" stroke="#334155" stroke-width="1.6" d="M499.5,-194.3C499.5,-206.76 499.5,-221 499.5,-221 499.5,-221 1408.5,-221 1408.5,-221 1408.5,-221 1408.5,-206.72 1408.5,-206.72"/>
<polygon fill="#334155" stroke="#334155" stroke-width="1.6" points="1412,-206.72 1408.5,-196.72 1405,-206.72 1412,-206.72"/>
<text xml:space="preserve" text-anchor="middle" x="1003.5" y="-368.5" font-family="Helvetica,sans-Serif" font-size="10.00">used</text>
</g>
<!-- n2802121588509916836 -->
<g id="node3" class="node">
<title>n2802121588509916836</title>
<g id="a_node3"><a xlink:title="jdd:pipeline">
<path fill="#dbeafe" stroke="#1d4ed8" d="M857.75,-284C857.75,-284 803.5,-284 803.5,-284 797.5,-284 791.5,-278 791.5,-272 791.5,-272 791.5,-260 791.5,-260 791.5,-254 797.5,-248 803.5,-248 803.5,-248 857.75,-248 857.75,-248 863.75,-248 869.75,-254 869.75,-260 869.75,-260 869.75,-272 869.75,-272 869.75,-278 863.75,-284 857.75,-284"/>
<text xml:space="preserve" text-anchor="middle" x="830.62" y="-261.73" font-family="Helvetica,sans-Serif" font-size="12.00">jdd:pipeline</text>
</a>
</g>
</g>
<!-- n2631890107356881703 -->
<g id="node4" class="node">
<title>n2631890107356881703</title>
<g id="a_node4"><a xlink:title="Pipeline run run&#45;20260616T155726486715Z">
<path fill="#dbeafe" stroke="#1d4ed8" d="M398.75,-304C398.75,-304 168.25,-304 168.25,-304 162.25,-304 156.25,-298 156.25,-292 156.25,-292 156.25,-280 156.25,-280 156.25,-274 162.25,-268 168.25,-268 168.25,-268 398.75,-268 398.75,-268 404.75,-268 410.75,-274 410.75,-280 410.75,-280 410.75,-292 410.75,-292 410.75,-298 404.75,-304 398.75,-304"/>
<text xml:space="preserve" text-anchor="middle" x="283.5" y="-281.73" font-family="Helvetica,sans-Serif" font-size="12.00">Pipeline run run&#45;20260616T155726486715Z</text>
</a>
</g>
</g>
<!-- n2631890107356881703&#45;&gt;n7440904307570521098 -->
<g id="edge4" class="edge">
<title>n2631890107356881703&#45;&gt;n7440904307570521098</title>
<path fill="none" stroke="#334155" stroke-width="1.6" d="M411.04,-273.33C557.41,-273.33 777.5,-273.33 777.5,-273.33 777.5,-273.33 777.5,-206.73 777.5,-206.73"/>
<polygon fill="#334155" stroke="#334155" stroke-width="1.6" points="781,-206.73 777.5,-196.73 774,-206.73 781,-206.73"/>
<text xml:space="preserve" text-anchor="middle" x="643.5" y="-249.5" font-family="Helvetica,sans-Serif" font-size="10.00">wasAssociatedWith</text>
</g>
<!-- n2631890107356881703&#45;&gt;n2802121588509916836 -->
<g id="edge5" class="edge">
<title>n2631890107356881703&#45;&gt;n2802121588509916836</title>
<path fill="none" stroke="#334155" stroke-width="1.6" d="M411.09,-278.67C411.09,-278.67 778.77,-278.67 778.77,-278.67"/>
<polygon fill="#334155" stroke="#334155" stroke-width="1.6" points="778.77,-282.17 788.77,-278.67 778.77,-275.17 778.77,-282.17"/>
<text xml:space="preserve" text-anchor="middle" x="643.5" y="-320.5" font-family="Helvetica,sans-Serif" font-size="10.00">wasAssociatedWith</text>
</g>
<!-- n4881167240510422498 -->
<g id="node8" class="node">
<title>n4881167240510422498</title>
<g id="a_node8"><a xlink:title="Theme 309 Thesis&#10;&#10;description: O auxilio&#45;alimentacao integra a base de calculo da licenca&#45;premio nao usufruida.">
<path fill="#ecfccb" stroke="#4d7c0f" d="M1185.5,-179C1185.5,-179 1093.75,-179 1093.75,-179 1087.75,-179 1081.75,-173 1081.75,-167 1081.75,-167 1081.75,-155 1081.75,-155 1081.75,-149 1087.75,-143 1093.75,-143 1093.75,-143 1185.5,-143 1185.5,-143 1191.5,-143 1197.5,-149 1197.5,-155 1197.5,-155 1197.5,-167 1197.5,-167 1197.5,-173 1191.5,-179 1185.5,-179"/>
<text xml:space="preserve" text-anchor="middle" x="1139.62" y="-156.72" font-family="Helvetica,sans-Serif" font-size="12.00">Theme 309 Thesis</text>
</a>
</g>
</g>
<!-- n9218180586673478514&#45;&gt;n4881167240510422498 -->
<g id="edge8" class="edge">
<title>n9218180586673478514&#45;&gt;n4881167240510422498</title>
<path fill="none" stroke="#334155" stroke-width="1.6" d="M911.5,-73.41C911.5,-101.16 911.5,-150.5 911.5,-150.5 911.5,-150.5 1069.05,-150.5 1069.05,-150.5"/>
<polygon fill="#334155" stroke="#334155" stroke-width="1.6" points="1069.05,-154 1079.05,-150.5 1069.05,-147 1069.05,-154"/>
<text xml:space="preserve" text-anchor="middle" x="1003.5" y="-110.5" font-family="Helvetica,sans-Serif" font-size="10.00">adoptsThesis</text>
</g>
<!-- n2587344447423428884 -->
<g id="node6" class="node">
<title>n2587344447423428884</title>
<g id="a_node6"><a xlink:title="rs:5000002&#45;00.2025.4.02.5001">
<path fill="#fee2e2" stroke="#b91c1c" d="M361.25,-52C361.25,-52 205.75,-52 205.75,-52 199.75,-52 193.75,-46 193.75,-40 193.75,-40 193.75,-28 193.75,-28 193.75,-22 199.75,-16 205.75,-16 205.75,-16 361.25,-16 361.25,-16 367.25,-16 373.25,-22 373.25,-28 373.25,-28 373.25,-40 373.25,-40 373.25,-46 367.25,-52 361.25,-52"/>
<text xml:space="preserve" text-anchor="middle" x="283.5" y="-29.73" font-family="Helvetica,sans-Serif" font-size="12.00">rs:5000002&#45;00.2025.4.02.5001</text>
</a>
</g>
</g>
<!-- n2587344447423428884&#45;&gt;n9218180586673478514 -->
<g id="edge6" class="edge">
<title>n2587344447423428884&#45;&gt;n9218180586673478514</title>
<path fill="none" stroke="#334155" stroke-width="1.6" d="M373.54,-44.5C373.54,-44.5 723.48,-44.5 723.48,-44.5"/>
<polygon fill="#334155" stroke="#334155" stroke-width="1.6" points="723.48,-48 733.48,-44.5 723.48,-41 723.48,-48"/>
<text xml:space="preserve" text-anchor="middle" x="643.5" y="-36.5" font-family="Helvetica,sans-Serif" font-size="10.00">isFiledAgainst</text>
</g>
<!-- n4881167240510422498&#45;&gt;n5829619932597447492 -->
<g id="edge7" class="edge">
<title>n4881167240510422498&#45;&gt;n5829619932597447492</title>
<path fill="none" stroke="#334155" stroke-width="1.6" d="M1197.72,-168.5C1197.72,-168.5 1328.48,-168.5 1328.48,-168.5"/>
<polygon fill="#334155" stroke="#334155" stroke-width="1.6" points="1328.48,-172 1338.48,-168.5 1328.48,-165 1328.48,-172"/>
<text xml:space="preserve" text-anchor="middle" x="1269.38" y="-184.5" font-family="Helvetica,sans-Serif" font-size="10.00">hasTheme</text>
</g>
<!-- n2912225565651384045 -->
<g id="node9" class="node">
<title>n2912225565651384045</title>
<g id="a_node9"><a xlink:title="jdd:admissibility&#45;e3b7a254&#45;cbe3&#45;5b23&#45;bc71&#45;127cc40fe4a4">
<path fill="#fce7f3" stroke="#be185d" d="M436.25,-415C436.25,-415 130.75,-415 130.75,-415 124.75,-415 118.75,-409 118.75,-403 118.75,-403 118.75,-391 118.75,-391 118.75,-385 124.75,-379 130.75,-379 130.75,-379 436.25,-379 436.25,-379 442.25,-379 448.25,-385 448.25,-391 448.25,-391 448.25,-403 448.25,-403 448.25,-409 442.25,-415 436.25,-415"/>
<text xml:space="preserve" text-anchor="middle" x="283.5" y="-392.73" font-family="Helvetica,sans-Serif" font-size="12.00">jdd:admissibility&#45;e3b7a254&#45;cbe3&#45;5b23&#45;bc71&#45;127cc40fe4a4</text>
</a>
</g>
</g>
</g>
</svg>
