<?xml version="1.0" encoding="UTF-8" standalone="no"?>
<!DOCTYPE svg PUBLIC "-//W3C//DTD SVG 1.1//EN"
 "http://www.w3.org/Graphics/SVG/1.1/DTD/svg11.dtd">
<!-- Generated by graphviz version 14.1.2 (20260124.0452)
 -->
<!-- Title: rdf_graph Pages: 1 -->
<svg width="2568pt" height="987pt"
 viewBox="0.00 0.00 2568.00 987.00" xmlns="http://www.w3.org/2000/svg" xmlns:xlink="http://www.w3.org/1999/xlink">
<g id="graph0" class="graph" transform="scale(1 1) rotate(0) translate(25.2 962.2)">
<title>rdf_graph</title>
<polygon fill="white" stroke="none" points="-25.2,25.2 -25.2,-962.2 2542.7,-962.2 2542.7,25.2 -25.2,25.2"/>
<g id="clust1" class="cluster">
<title>cluster_workflow</title>
<path fill="white" stroke="#93c5fd" stroke-width="1.2" stroke-dasharray="5,2" d="M601.62,-672C601.62,-672 2025.25,-672 2025.25,-672 2031.25,-672 2037.25,-678 2037.25,-684 2037.25,-684 2037.25,-838 2037.25,-838 2037.25,-844 2031.25,-850 2025.25,-850 2025.25,-850 601.62,-850 601.62,-850 595.62,-850 589.62,-844 589.62,-838 589.62,-838 589.62,-684 589.62,-684 589.62,-678 595.62,-672 601.62,-672"/>
<text xml:space="preserve" text-anchor="middle" x="1313.44" y="-832.7" font-family="Times New Roman,serif" font-size="14.00">Workflow / Agents</text>
</g>
<g id="clust2" class="cluster">
<title>cluster_decision</title>
<path fill="white" stroke="#a5b4fc" stroke-width="1.2" stroke-dasharray="5,2" d="M1744.25,-253C1744.25,-253 1988.5,-253 1988.5,-253 1994.5,-253 2000.5,-259 2000.5,-265 2000.5,-265 2000.5,-318 2000.5,-318 2000.5,-324 1994.5,-330 1988.5,-330 1988.5,-330 1744.25,-330 1744.25,-330 1738.25,-330 1732.25,-324 1732.25,-318 1732.25,-318 1732.25,-265 1732.25,-265 1732.25,-259 1738.25,-253 1744.25,-253"/>
<text xml:space="preserve" text-anchor="middle" x="1866.38" y="-312.7" font-family="Times New Roman,serif" font-size="14.00">Decision</text>
</g>
<g id="clust3" class="cluster">
<title>cluster_petition</title>
<path fill="white" stroke="#fca5a5" stroke-width="1.2" stroke-dasharray="5,2" d="M1236.88,-345C1236.88,-345 1471.38,-345 1471.38,-345 1477.38,-345 1483.38,-351 1483.38,-357 1483.38,-357 1483.38,-410 1483.38,-410 1483.38,-416 1477.38,-422 1471.38,-422 1471.38,-422 1236.88,-422 1236.88,-422 1230.88,-422 1224.88,-416 1224.88,-410 1224.88,-410 1224.88,-357 1224.88,-357 1224.88,-351 1230.88,-345 1236.88,-345"/>
<text xml:space="preserve" text-anchor="middle" x="1354.12" y="-404.7" font-family="Times New Roman,serif" font-size="14.00">Petition</text>
</g>
<g id="clust4" class="cluster">
<title>cluster_theme</title>
<path fill="white" stroke="#86efac" stroke-width="1.2" stroke-dasharray="5,2" d="M2205.5,-223C2205.5,-223 2497.5,-223 2497.5,-223 2503.5,-223 2509.5,-229 2509.5,-235 2509.5,-235 2509.5,-318 2509.5,-318 2509.5,-324 2503.5,-330 2497.5,-330 2497.5,-330 2205.5,-330 2205.5,-330 2199.5,-330 2193.5,-324 2193.5,-318 2193.5,-318 2193.5,-235 2193.5,-235 2193.5,-229 2199.5,-223 2205.5,-223"/>
<text xml:space="preserve" text-anchor="middle" x="2351.5" y="-312.7" font-family="Times New Roman,serif" font-size="14.00">Theme / Thesis</text>
</g>
<g id="clust5" class="cluster">
<title>cluster_analysis</title>
<path fill="white" stroke="#c4b5fd" stroke-width="1.2" stroke-dasharray="5,2" d="M539.75,-135C539.75,-135 1501.75,-135 1501.75,-135 1507.75,-135 1513.75,-141 1513.75,-147 1513.75,-147 1513.75,-230 1513.75,-230 1513.75,-236 1507.75,-242 1501.75,-242 1501.75,-242 539.75,-242 539.75,-242 533.75,-242 527.75,-236 527.75,-230 527.75,-230 527.75,-147 527.75,-147 527.75,-141 533.75,-135 539.75,-135"/>
<text xml:space="preserve" text-anchor="middle" x="1020.75" y="-224.7" font-family="Times New Roman,serif" font-size="14.00">Analysis / Generated Resources</text>
</g>
<g id="clust6" class="cluster">
<title>cluster_document</title>
<path fill="white" stroke="#f9a8d4" stroke-width="1.2" stroke-dasharray="5,2" d="M20,-345C20,-345 358.75,-345 358.75,-345 364.75,-345 370.75,-351 370.75,-357 370.75,-357 370.75,-410 370.75,-410 370.75,-416 364.75,-422 358.75,-422 358.75,-422 20,-422 20,-422 14,-422 8,-416 8,-410 8,-410 8,-357 8,-357 8,-351 14,-345 20,-345"/>
<text xml:space="preserve" text-anchor="middle" x="189.38" y="-404.7" font-family="Times New Roman,serif" font-size="14.00">Document Outcome</text>
</g>
<!-- n5715557136811842057 -->
<g id="node1" class="node">
<title>n5715557136811842057</title>
<g id="a_node1"><a xlink:title="jdd:classification&#45;a199ba82&#45;d6cd&#45;5cfb&#45;9de4&#45;48fc54192b8c">
<polygon fill="#dbeafe" stroke="#1d4ed8" points="1518.5,-716 1189.75,-716 1189.75,-712 1185.75,-712 1185.75,-708 1189.75,-708 1189.75,-688 1185.75,-688 1185.75,-684 1189.75,-684 1189.75,-680 1518.5,-680 1518.5,-716"/>
<polyline fill="none" stroke="#1d4ed8" points="1189.75,-712 1193.75,-712 1193.75,-708 1189.75,-708"/>
<polyline fill="none" stroke="#1d4ed8" points="1189.75,-688 1193.75,-688 1193.75,-684 1189.75,-684"/>
<text xml:space="preserve" text-anchor="middle" x="1354.12" y="-693.73" font-family="Helvetica,sans-Serif" font-size="12.00">jdd:classification&#45;a199ba82&#45;d6cd&#45;5cfb&#45;9de4&#45;48fc54192b8c</text>
</a>
</g>
</g>
<!-- n5798093630906024397 -->
<g id="node4" class="node">
<title>n5798093630906024397</title>
<g id="a_node4"><a xlink:title="jdd:pipeline&#45;run&#45;f08d23d5&#45;35fb&#45;58c2&#45;b846&#45;a5a724e014bd">
<path fill="#dbeafe" stroke="#1d4ed8" d="M2017.25,-727C2017.25,-727 1715.5,-727 1715.5,-727 1709.5,-727 1703.5,-721 1703.5,-715 1703.5,-715 1703.5,-703 1703.5,-703 1703.5,-697 1709.5,-691 1715.5,-691 1715.5,-691 2017.25,-691 2017.25,-691 2023.25,-691 2029.25,-697 2029.25,-703 2029.25,-703 2029.25,-715 2029.25,-715 2029.25,-721 2023.25,-727 2017.25,-727"/>
<text xml:space="preserve" text-anchor="middle" x="1866.38" y="-704.73" font-family="Helvetica,sans-Serif" font-size="12.00">jdd:pipeline&#45;run&#45;f08d23d5&#45;35fb&#45;58c2&#45;b846&#45;a5a724e014bd</text>
</a>
</g>
</g>
<!-- n5715557136811842057&#45;&gt;n5798093630906024397 -->
<g id="edge13" class="edge">
<title>n5715557136811842057&#45;&gt;n5798093630906024397</title>
<path fill="none" stroke="#334155" stroke-width="1.6" d="M1518.67,-703.5C1518.67,-703.5 1690.9,-703.5 1690.9,-703.5"/>
<polygon fill="#334155" stroke="#334155" stroke-width="1.6" points="1690.9,-707 1700.9,-703.5 1690.9,-700 1690.9,-707"/>
<text xml:space="preserve" text-anchor="middle" x="1611" y="-736.5" font-family="Helvetica,sans-Serif" font-size="10.00">wasInformedBy</text>
</g>
<!-- n1489112258672737196 -->
<g id="node5" class="node">
<title>n1489112258672737196</title>
<g id="a_node5"><a xlink:title="Local analysis agent">
<path fill="#dbeafe" stroke="#1d4ed8" d="M1917.12,-817C1917.12,-817 1815.62,-817 1815.62,-817 1809.62,-817 1803.62,-811 1803.62,-805 1803.62,-805 1803.62,-793 1803.62,-793 1803.62,-787 1809.62,-781 1815.62,-781 1815.62,-781 1917.12,-781 1917.12,-781 1923.12,-781 1929.12,-787 1929.12,-793 1929.12,-793 1929.12,-805 1929.12,-805 1929.12,-811 1923.12,-817 1917.12,-817"/>
<text xml:space="preserve" text-anchor="middle" x="1866.38" y="-794.73" font-family="Helvetica,sans-Serif" font-size="12.00">Local analysis agent</text>
</a>
</g>
</g>
<!-- n5715557136811842057&#45;&gt;n1489112258672737196 -->
<g id="edge12" class="edge">
<title>n5715557136811842057&#45;&gt;n1489112258672737196</title>
<path fill="none" stroke="#334155" stroke-width="1.6" d="M1455.5,-716.06C1455.5,-745.11 1455.5,-799 1455.5,-799 1455.5,-799 1791.1,-799 1791.1,-799"/>
<polygon fill="#334155" stroke="#334155" stroke-width="1.6" points="1791.1,-802.5 1801.1,-799 1791.1,-795.5 1791.1,-802.5"/>
<text xml:space="preserve" text-anchor="middle" x="1611" y="-807.5" font-family="Helvetica,sans-Serif" font-size="10.00">wasAssociatedWith</text>
</g>
<!-- n1775160643525515563 -->
<g id="node6" class="node">
<title>n1775160643525515563</title>
<g id="a_node6"><a xlink:title="tres:261f3545&#45;cf32&#45;508f&#45;9fc6&#45;043a3bc53ad5&#10;&#10;subject: Indenização por dano moral, Responsabilidade civil, DIREITO CIVIL&#10;description: tipo_julgamento=Julgamento Principal; competencia=JEF Recurso Cível; relator=ALESSANDRA BELFORT BUENO">
<path fill="#e0e7ff" stroke="#4338ca" d="M1980.5,-297C1980.5,-297 1752.25,-297 1752.25,-297 1746.25,-297 1740.25,-291 1740.25,-285 1740.25,-285 1740.25,-273 1740.25,-273 1740.25,-267 1746.25,-261 1752.25,-261 1752.25,-261 1980.5,-261 1980.5,-261 1986.5,-261 1992.5,-267 1992.5,-273 1992.5,-273 1992.5,-285 1992.5,-285 1992.5,-291 1986.5,-297 1980.5,-297"/>
<text xml:space="preserve" text-anchor="middle" x="1866.38" y="-274.73" font-family="Helvetica,sans-Serif" font-size="12.00">tres:261f3545&#45;cf32&#45;508f&#45;9fc6&#45;043a3bc53ad5</text>
</a>
</g>
</g>
<!-- n5715557136811842057&#45;&gt;n1775160643525515563 -->
<g id="edge11" class="edge">
<title>n5715557136811842057&#45;&gt;n1775160643525515563</title>
<path fill="none" stroke="#334155" stroke-width="1.6" d="M1512.5,-679.72C1512.5,-600.53 1512.5,-291 1512.5,-291 1512.5,-291 1727.7,-291 1727.7,-291"/>
<polygon fill="#334155" stroke="#334155" stroke-width="1.6" points="1727.7,-294.5 1737.7,-291 1727.7,-287.5 1727.7,-294.5"/>
<text xml:space="preserve" text-anchor="middle" x="1611" y="-579.5" font-family="Helvetica,sans-Serif" font-size="10.00">used</text>
</g>
<!-- n3921879555699968955 -->
<g id="node8" class="node">
<title>n3921879555699968955</title>
<g id="a_node8"><a xlink:title="Theme 1 Thesis&#10;&#10;themeThesis: O valor da aposentadoria por invalidez e do auxílio&#45;doença, bem como das pensões destes derivados ou calculadas com base no art. 75, da Lei n. 8.213/91, será obtido, na forma do art. 29, II, do mesmo diploma, por meio...">
<path fill="#ecfccb" stroke="#4d7c0f" d="M2291.75,-297C2291.75,-297 2213.5,-297 2213.5,-297 2207.5,-297 2201.5,-291 2201.5,-285 2201.5,-285 2201.5,-273 2201.5,-273 2201.5,-267 2207.5,-261 2213.5,-261 2213.5,-261 2291.75,-261 2291.75,-261 2297.75,-261 2303.75,-267 2303.75,-273 2303.75,-273 2303.75,-285 2303.75,-285 2303.75,-291 2297.75,-297 2291.75,-297"/>
<text xml:space="preserve" text-anchor="middle" x="2252.62" y="-274.73" font-family="Helvetica,sans-Serif" font-size="12.00">Theme 1 Thesis</text>
</a>
</g>
</g>
<!-- n5715557136811842057&#45;&gt;n3921879555699968955 -->
<g id="edge9" class="edge">
<title>n5715557136811842057&#45;&gt;n3921879555699968955</title>
<path fill="none" stroke="#334155" stroke-width="1.6" d="M1518.83,-683.67C1782.38,-683.67 2269.5,-683.67 2269.5,-683.67 2269.5,-683.67 2269.5,-309.86 2269.5,-309.86"/>
<polygon fill="#334155" stroke="#334155" stroke-width="1.6" points="2273,-309.86 2269.5,-299.86 2266,-309.86 2273,-309.86"/>
<text xml:space="preserve" text-anchor="middle" x="1866.38" y="-517.5" font-family="Helvetica,sans-Serif" font-size="10.00">used</text>
</g>
<!-- n475455059315724528 -->
<g id="node9" class="node">
<title>n475455059315724528</title>
<g id="a_node9"><a xlink:title="tnu:1&#10;&#10;themeThesis: O valor da aposentadoria por invalidez e do auxílio&#45;doença, bem como das pensões destes derivados ou calculadas com base no art. 75, da Lei n. 8.213/91, será obtido, na forma do art. 29, II, do mesmo diploma, por meio...&#10;description: Saber qual a forma de cálculo da aposentadoria por invalidez, do auxílio&#45;doença e pensões derivadas, em momento antecedente à edição da Lei n. 9.876/99.">
<path fill="#dcfce7" stroke="#15803d" d="M2489.5,-297C2489.5,-297 2459.5,-297 2459.5,-297 2453.5,-297 2447.5,-291 2447.5,-285 2447.5,-285 2447.5,-273 2447.5,-273 2447.5,-267 2453.5,-261 2459.5,-261 2459.5,-261 2489.5,-261 2489.5,-261 2495.5,-261 2501.5,-267 2501.5,-273 2501.5,-273 2501.5,-285 2501.5,-285 2501.5,-291 2495.5,-297 2489.5,-297"/>
<text xml:space="preserve" text-anchor="middle" x="2474.5" y="-274.73" font-family="Helvetica,sans-Serif" font-size="12.00">tnu:1</text>
</a>
</g>
</g>
<!-- n5715557136811842057&#45;&gt;n475455059315724528 -->
<g id="edge10" class="edge">
<title>n5715557136811842057&#45;&gt;n475455059315724528</title>
<path fill="none" stroke="#334155" stroke-width="1.6" d="M1518.95,-687.33C1832.41,-687.33 2483.5,-687.33 2483.5,-687.33 2483.5,-687.33 2483.5,-309.76 2483.5,-309.76"/>
<polygon fill="#334155" stroke="#334155" stroke-width="1.6" points="2487,-309.76 2483.5,-299.76 2480,-309.76 2487,-309.76"/>
<text xml:space="preserve" text-anchor="middle" x="2115.38" y="-611.5" font-family="Helvetica,sans-Serif" font-size="10.00">used</text>
</g>
<!-- n6433969051883915506 -->
<g id="node11" class="node">
<title>n6433969051883915506</title>
<g id="a_node11"><a xlink:title="jdd:analysis&#45;35e89cc7&#45;d761&#45;5f72&#45;81c0&#45;7d5c3e75f0cb">
<path fill="#ede9fe" stroke="#6d28d9" d="M1493.75,-179C1493.75,-179 1214.5,-179 1214.5,-179 1208.5,-179 1202.5,-173 1202.5,-167 1202.5,-167 1202.5,-155 1202.5,-155 1202.5,-149 1208.5,-143 1214.5,-143 1214.5,-143 1493.75,-143 1493.75,-143 1499.75,-143 1505.75,-149 1505.75,-155 1505.75,-155 1505.75,-167 1505.75,-167 1505.75,-173 1499.75,-179 1493.75,-179"/>
<text xml:space="preserve" text-anchor="middle" x="1354.12" y="-156.72" font-family="Helvetica,sans-Serif" font-size="12.00">jdd:analysis&#45;35e89cc7&#45;d761&#45;5f72&#45;81c0&#45;7d5c3e75f0cb</text>
</a>
</g>
</g>
<!-- n5715557136811842057&#45;&gt;n6433969051883915506 -->
<g id="edge8" class="edge">
<title>n5715557136811842057&#45;&gt;n6433969051883915506</title>
<path fill="none" stroke="#334155" stroke-width="1.6" d="M1225.5,-679.52C1225.5,-679.52 1225.5,-191.83 1225.5,-191.83"/>
<polygon fill="#334155" stroke="#334155" stroke-width="1.6" points="1229,-191.83 1225.5,-181.83 1222,-191.83 1229,-191.83"/>
<text xml:space="preserve" text-anchor="middle" x="1097.25" y="-541.5" font-family="Helvetica,sans-Serif" font-size="10.00">generated</text>
</g>
<!-- n4995467579034401795 -->
<g id="node2" class="node">
<title>n4995467579034401795</title>
<g id="a_node2"><a xlink:title="jdd:draft&#45;generation&#45;ccdd1bbf&#45;4fe7&#45;521a&#45;87b1&#45;64e782a57132">
<polygon fill="#dbeafe" stroke="#1d4ed8" points="942.88,-716 597.62,-716 597.62,-712 593.62,-712 593.62,-708 597.62,-708 597.62,-688 593.62,-688 593.62,-684 597.62,-684 597.62,-680 942.88,-680 942.88,-716"/>
<polyline fill="none" stroke="#1d4ed8" points="597.62,-712 601.62,-712 601.62,-708 597.62,-708"/>
<polyline fill="none" stroke="#1d4ed8" points="597.62,-688 601.62,-688 601.62,-684 597.62,-684"/>
<text xml:space="preserve" text-anchor="middle" x="770.25" y="-693.73" font-family="Helvetica,sans-Serif" font-size="12.00">jdd:draft&#45;generation&#45;ccdd1bbf&#45;4fe7&#45;521a&#45;87b1&#45;64e782a57132</text>
</a>
</g>
</g>
<!-- n4995467579034401795&#45;&gt;n5715557136811842057 -->
<g id="edge21" class="edge">
<title>n4995467579034401795&#45;&gt;n5715557136811842057</title>
<path fill="none" stroke="#334155" stroke-width="1.6" d="M943.06,-704C943.06,-704 1176.85,-704 1176.85,-704"/>
<polygon fill="#334155" stroke="#334155" stroke-width="1.6" points="1176.85,-707.5 1186.85,-704 1176.85,-700.5 1176.85,-707.5"/>
<text xml:space="preserve" text-anchor="middle" x="1097.25" y="-736.5" font-family="Helvetica,sans-Serif" font-size="10.00">wasInformedBy</text>
</g>
<!-- n2951741326417105908 -->
<g id="node3" class="node">
<title>n2951741326417105908</title>
<g id="a_node3"><a xlink:title="jdd:pipeline">
<path fill="#dbeafe" stroke="#1d4ed8" d="M1381.25,-817C1381.25,-817 1327,-817 1327,-817 1321,-817 1315,-811 1315,-805 1315,-805 1315,-793 1315,-793 1315,-787 1321,-781 1327,-781 1327,-781 1381.25,-781 1381.25,-781 1387.25,-781 1393.25,-787 1393.25,-793 1393.25,-793 1393.25,-805 1393.25,-805 1393.25,-811 1387.25,-817 1381.25,-817"/>
<text xml:space="preserve" text-anchor="middle" x="1354.12" y="-794.73" font-family="Helvetica,sans-Serif" font-size="12.00">jdd:pipeline</text>
</a>
</g>
</g>
<!-- n4995467579034401795&#45;&gt;n2951741326417105908 -->
<g id="edge20" class="edge">
<title>n4995467579034401795&#45;&gt;n2951741326417105908</title>
<path fill="none" stroke="#334155" stroke-width="1.6" d="M770.5,-716.06C770.5,-745.11 770.5,-799 770.5,-799 770.5,-799 1302.5,-799 1302.5,-799"/>
<polygon fill="#334155" stroke="#334155" stroke-width="1.6" points="1302.5,-802.5 1312.5,-799 1302.5,-795.5 1302.5,-802.5"/>
<text xml:space="preserve" text-anchor="middle" x="1097.25" y="-807.5" font-family="Helvetica,sans-Serif" font-size="10.00">wasAssociatedWith</text>
</g>
<!-- n4995467579034401795&#45;&gt;n1775160643525515563 -->
<g id="edge19" class="edge">
<title>n4995467579034401795&#45;&gt;n1775160643525515563</title>
<path fill="none" stroke="#334155" stroke-width="1.6" d="M885.5,-679.73C885.5,-599.08 885.5,-279 885.5,-279 885.5,-279 1727.48,-279 1727.48,-279"/>
<polygon fill="#334155" stroke="#334155" stroke-width="1.6" points="1727.48,-282.5 1737.48,-279 1727.48,-275.5 1727.48,-282.5"/>
<text xml:space="preserve" text-anchor="middle" x="1354.12" y="-499.5" font-family="Helvetica,sans-Serif" font-size="10.00">used</text>
</g>
<!-- n4995467579034401795&#45;&gt;n3921879555699968955 -->
<g id="edge17" class="edge">
<title>n4995467579034401795&#45;&gt;n3921879555699968955</title>
<path fill="none" stroke="#334155" stroke-width="1.6" d="M655.5,-679.56C655.5,-627.98 655.5,-486 655.5,-486 655.5,-486 2235.5,-486 2235.5,-486 2235.5,-486 2235.5,-309.79 2235.5,-309.79"/>
<polygon fill="#334155" stroke="#334155" stroke-width="1.6" points="2239,-309.79 2235.5,-299.79 2232,-309.79 2239,-309.79"/>
<text xml:space="preserve" text-anchor="middle" x="1611" y="-508.5" font-family="Helvetica,sans-Serif" font-size="10.00">used</text>
</g>
<!-- n4995467579034401795&#45;&gt;n475455059315724528 -->
<g id="edge18" class="edge">
<title>n4995467579034401795&#45;&gt;n475455059315724528</title>
<path fill="none" stroke="#334155" stroke-width="1.6" d="M712.5,-679.52C712.5,-647.02 712.5,-583 712.5,-583 712.5,-583 2465.5,-583 2465.5,-583 2465.5,-583 2465.5,-309.53 2465.5,-309.53"/>
<polygon fill="#334155" stroke="#334155" stroke-width="1.6" points="2469,-309.53 2465.5,-299.53 2462,-309.53 2469,-309.53"/>
<text xml:space="preserve" text-anchor="middle" x="1866.38" y="-927.5" font-family="Helvetica,sans-Serif" font-size="10.00">used</text>
</g>
<!-- n4669131334604133020 -->
<g id="node10" class="node">
<title>n4669131334604133020</title>
<g id="a_node10"><a xlink:title="Generated decision NEGAR_SEGUIMENTO for process 5021277&#45;41.2025.4.02.5101&#10;&#10;atLocation: outputs/runs/run&#45;20260616T021419819540Z/documents/261f3545&#45;cf32&#45;508f&#45;9fc6&#45;043a3bc53ad5&#45;NEGAR_SEGUIMENTO.tex">
<path fill="#ede9fe" stroke="#6d28d9" d="M992.75,-209C992.75,-209 547.75,-209 547.75,-209 541.75,-209 535.75,-203 535.75,-197 535.75,-197 535.75,-185 535.75,-185 535.75,-179 541.75,-173 547.75,-173 547.75,-173 992.75,-173 992.75,-173 998.75,-173 1004.75,-179 1004.75,-185 1004.75,-185 1004.75,-197 1004.75,-197 1004.75,-203 998.75,-209 992.75,-209"/>
<text xml:space="preserve" text-anchor="middle" x="770.25" y="-186.72" font-family="Helvetica,sans-Serif" font-size="12.00">Generated decision NEGAR_SEGUIMENTO for process 5021277&#45;41.2025.4.02.5101</text>
</a>
</g>
</g>
<!-- n4995467579034401795&#45;&gt;n4669131334604133020 -->
<g id="edge15" class="edge">
<title>n4995467579034401795&#45;&gt;n4669131334604133020</title>
<path fill="none" stroke="#334155" stroke-width="1.6" d="M827.5,-679.66C827.5,-679.66 827.5,-221.74 827.5,-221.74"/>
<polygon fill="#334155" stroke="#334155" stroke-width="1.6" points="831,-221.74 827.5,-211.74 824,-221.74 831,-221.74"/>
<text xml:space="preserve" text-anchor="middle" x="449.25" y="-317.5" font-family="Helvetica,sans-Serif" font-size="10.00">generated</text>
</g>
<!-- n4995467579034401795&#45;&gt;n6433969051883915506 -->
<g id="edge16" class="edge">
<title>n4995467579034401795&#45;&gt;n6433969051883915506</title>
<path fill="none" stroke="#334155" stroke-width="1.6" d="M942.98,-692C1021.65,-692 1097.5,-692 1097.5,-692 1097.5,-692 1097.5,-158 1097.5,-158 1097.5,-158 1189.83,-158 1189.83,-158"/>
<polygon fill="#334155" stroke="#334155" stroke-width="1.6" points="1189.83,-161.5 1199.83,-158 1189.83,-154.5 1189.83,-161.5"/>
<text xml:space="preserve" text-anchor="middle" x="1097.25" y="-467.5" font-family="Helvetica,sans-Serif" font-size="10.00">used</text>
</g>
<!-- n8121606909295523606 -->
<g id="node12" class="node">
<title>n8121606909295523606</title>
<g id="a_node12"><a xlink:title="Admissibility decision for process 5021277&#45;41.2025.4.02.5101">
<path fill="#fce7f3" stroke="#be185d" d="M350.75,-389C350.75,-389 28,-389 28,-389 22,-389 16,-383 16,-377 16,-377 16,-365 16,-365 16,-359 22,-353 28,-353 28,-353 350.75,-353 350.75,-353 356.75,-353 362.75,-359 362.75,-365 362.75,-365 362.75,-377 362.75,-377 362.75,-383 356.75,-389 350.75,-389"/>
<text xml:space="preserve" text-anchor="middle" x="189.38" y="-366.73" font-family="Helvetica,sans-Serif" font-size="12.00">Admissibility decision for process 5021277&#45;41.2025.4.02.5101</text>
</a>
</g>
</g>
<!-- n4995467579034401795&#45;&gt;n8121606909295523606 -->
<g id="edge14" class="edge">
<title>n4995467579034401795&#45;&gt;n8121606909295523606</title>
<path fill="none" stroke="#334155" stroke-width="1.6" d="M770.5,-679.63C770.5,-612.15 770.5,-381.8 770.5,-381.8 770.5,-381.8 375.37,-381.8 375.37,-381.8"/>
<polygon fill="#334155" stroke="#334155" stroke-width="1.6" points="375.37,-378.3 365.37,-381.8 375.37,-385.3 375.37,-378.3"/>
<text xml:space="preserve" text-anchor="middle" x="449.25" y="-544.5" font-family="Helvetica,sans-Serif" font-size="10.00">generated</text>
</g>
<!-- n1775160643525515563&#45;&gt;n3921879555699968955 -->
<g id="edge28" class="edge">
<title>n1775160643525515563&#45;&gt;n3921879555699968955</title>
<path fill="none" stroke="#334155" stroke-width="1.6" d="M1992.85,-279C1992.85,-279 2188.7,-279 2188.7,-279"/>
<polygon fill="#334155" stroke="#334155" stroke-width="1.6" points="2188.7,-282.5 2198.7,-279 2188.7,-275.5 2188.7,-282.5"/>
<text xml:space="preserve" text-anchor="middle" x="2115.38" y="-281.5" font-family="Helvetica,sans-Serif" font-size="10.00">adoptsThesis</text>
</g>
<!-- n5866067113536285464 -->
<g id="node7" class="node">
<title>n5866067113536285464</title>
<g id="a_node7"><a xlink:title="rs:261f3545&#45;cf32&#45;508f&#45;9fc6&#45;043a3bc53ad5">
<path fill="#fee2e2" stroke="#b91c1c" d="M1463.38,-389C1463.38,-389 1244.88,-389 1244.88,-389 1238.88,-389 1232.88,-383 1232.88,-377 1232.88,-377 1232.88,-365 1232.88,-365 1232.88,-359 1238.88,-353 1244.88,-353 1244.88,-353 1463.38,-353 1463.38,-353 1469.38,-353 1475.38,-359 1475.38,-365 1475.38,-365 1475.38,-377 1475.38,-377 1475.38,-383 1469.38,-389 1463.38,-389"/>
<text xml:space="preserve" text-anchor="middle" x="1354.12" y="-366.73" font-family="Helvetica,sans-Serif" font-size="12.00">rs:261f3545&#45;cf32&#45;508f&#45;9fc6&#45;043a3bc53ad5</text>
</a>
</g>
</g>
<!-- n5866067113536285464&#45;&gt;n1775160643525515563 -->
<g id="edge26" class="edge">
<title>n5866067113536285464&#45;&gt;n1775160643525515563</title>
<path fill="none" stroke="#334155" stroke-width="1.6" d="M1354.5,-352.76C1354.5,-327.52 1354.5,-285 1354.5,-285 1354.5,-285 1727.42,-285 1727.42,-285"/>
<polygon fill="#334155" stroke="#334155" stroke-width="1.6" points="1727.42,-288.5 1737.42,-285 1727.42,-281.5 1727.42,-288.5"/>
<text xml:space="preserve" text-anchor="middle" x="1611" y="-376.5" font-family="Helvetica,sans-Serif" font-size="10.00">isFiledAgainst</text>
</g>
<!-- n3921879555699968955&#45;&gt;n475455059315724528 -->
<g id="edge27" class="edge">
<title>n3921879555699968955&#45;&gt;n475455059315724528</title>
<path fill="none" stroke="#334155" stroke-width="1.6" d="M2304.09,-279C2304.09,-279 2434.84,-279 2434.84,-279"/>
<polygon fill="#334155" stroke="#334155" stroke-width="1.6" points="2434.84,-282.5 2444.84,-279 2434.84,-275.5 2434.84,-282.5"/>
<text xml:space="preserve" text-anchor="middle" x="2375.62" y="-287.5" font-family="Helvetica,sans-Serif" font-size="10.00">hasTheme</text>
</g>
<!-- n4669131334604133020&#45;&gt;n1775160643525515563 -->
<g id="edge24" class="edge">
<title>n4669131334604133020&#45;&gt;n1775160643525515563</title>
<path fill="none" stroke="#334155" stroke-width="1.6" d="M973.5,-209.2C973.5,-233.36 973.5,-273 973.5,-273 973.5,-273 1727.45,-273 1727.45,-273"/>
<polygon fill="#334155" stroke="#334155" stroke-width="1.6" points="1727.45,-276.5 1737.45,-273 1727.45,-269.5 1727.45,-276.5"/>
<text xml:space="preserve" text-anchor="middle" x="1354.12" y="-289.5" font-family="Helvetica,sans-Serif" font-size="10.00">wasDerivedFrom</text>
</g>
<!-- n4669131334604133020&#45;&gt;n3921879555699968955 -->
<g id="edge22" class="edge">
<title>n4669131334604133020&#45;&gt;n3921879555699968955</title>
<path fill="none" stroke="#334155" stroke-width="1.6" d="M1005.12,-199C1423.07,-199 2252.5,-199 2252.5,-199 2252.5,-199 2252.5,-248.43 2252.5,-248.43"/>
<polygon fill="#334155" stroke="#334155" stroke-width="1.6" points="2249,-248.43 2252.5,-258.43 2256,-248.43 2249,-248.43"/>
<text xml:space="preserve" text-anchor="middle" x="1611" y="-63.5" font-family="Helvetica,sans-Serif" font-size="10.00">adoptsThesis</text>
</g>
<!-- n4669131334604133020&#45;&gt;n6433969051883915506 -->
<g id="edge23" class="edge">
<title>n4669131334604133020&#45;&gt;n6433969051883915506</title>
<path fill="none" stroke="#334155" stroke-width="1.6" d="M1005.2,-189C1110.1,-189 1210.5,-189 1210.5,-189 1210.5,-189 1210.5,-188.02 1210.5,-188.02"/>
<polygon fill="#334155" stroke="#334155" stroke-width="1.6" points="1214,-191.63 1210.5,-181.63 1207,-191.63 1214,-191.63"/>
<text xml:space="preserve" text-anchor="middle" x="1097.25" y="-199.5" font-family="Helvetica,sans-Serif" font-size="10.00">wasDerivedFrom</text>
</g>
<!-- n6433969051883915506&#45;&gt;n1775160643525515563 -->
<g id="edge6" class="edge">
<title>n6433969051883915506&#45;&gt;n1775160643525515563</title>
<path fill="none" stroke="#334155" stroke-width="1.6" d="M1490.5,-179.46C1490.5,-209.83 1490.5,-267 1490.5,-267 1490.5,-267 1727.49,-267 1727.49,-267"/>
<polygon fill="#334155" stroke="#334155" stroke-width="1.6" points="1727.49,-270.5 1737.49,-267 1727.49,-263.5 1727.49,-270.5"/>
<text xml:space="preserve" text-anchor="middle" x="1611" y="-244.5" font-family="Helvetica,sans-Serif" font-size="10.00">wasDerivedFrom</text>
</g>
<!-- n6433969051883915506&#45;&gt;n475455059315724528 -->
<g id="edge5" class="edge">
<title>n6433969051883915506&#45;&gt;n475455059315724528</title>
<path fill="none" stroke="#334155" stroke-width="1.6" d="M1506.1,-161C1812.3,-161 2474.5,-161 2474.5,-161 2474.5,-161 2474.5,-248.14 2474.5,-248.14"/>
<polygon fill="#334155" stroke="#334155" stroke-width="1.6" points="2471,-248.14 2474.5,-258.14 2478,-248.14 2471,-248.14"/>
<text xml:space="preserve" text-anchor="middle" x="2115.38" y="-173.5" font-family="Helvetica,sans-Serif" font-size="10.00">wasDerivedFrom</text>
</g>
<!-- n8121606909295523606&#45;&gt;n5866067113536285464 -->
<g id="edge3" class="edge">
<title>n8121606909295523606&#45;&gt;n5866067113536285464</title>
<path fill="none" stroke="#334155" stroke-width="1.6" d="M363.12,-374.6C363.12,-374.6 1219.97,-374.6 1219.97,-374.6"/>
<polygon fill="#334155" stroke="#334155" stroke-width="1.6" points="1219.97,-378.1 1229.97,-374.6 1219.97,-371.1 1219.97,-378.1"/>
<text xml:space="preserve" text-anchor="middle" x="770.25" y="-373.5" font-family="Helvetica,sans-Serif" font-size="10.00">wasDerivedFrom</text>
</g>
<!-- n8121606909295523606&#45;&gt;n4669131334604133020 -->
<g id="edge1" class="edge">
<title>n8121606909295523606&#45;&gt;n4669131334604133020</title>
<path fill="none" stroke="#334155" stroke-width="1.6" d="M363.04,-360.2C462.01,-360.2 566.5,-360.2 566.5,-360.2 566.5,-360.2 566.5,-221.85 566.5,-221.85"/>
<polygon fill="#334155" stroke="#334155" stroke-width="1.6" points="570,-221.85 566.5,-211.85 563,-221.85 570,-221.85"/>
<text xml:space="preserve" text-anchor="middle" x="449.25" y="-243.5" font-family="Helvetica,sans-Serif" font-size="10.00">ruledIn</text>
</g>
<!-- n8121606909295523606&#45;&gt;n6433969051883915506 -->
<g id="edge2" class="edge">
<title>n8121606909295523606&#45;&gt;n6433969051883915506</title>
<path fill="none" stroke="#334155" stroke-width="1.6" d="M363.2,-367.4C656.37,-367.4 1217.5,-367.4 1217.5,-367.4 1217.5,-367.4 1217.5,-191.74 1217.5,-191.74"/>
<polygon fill="#334155" stroke="#334155" stroke-width="1.6" points="1221,-191.74 1217.5,-181.74 1214,-191.74 1221,-191.74"/>
<text xml:space="preserve" text-anchor="middle" x="770.25" y="-2.5" font-family="Helvetica,sans-Serif" font-size="10.00">wasDerivedFrom</text>
</g>
</g>
</svg>
