<?xml version="1.0" encoding="UTF-8" standalone="no"?>
<!DOCTYPE svg PUBLIC "-//W3C//DTD SVG 1.1//EN"
 "http://www.w3.org/Graphics/SVG/1.1/DTD/svg11.dtd">
<!-- Generated by graphviz version 14.1.2 (20260124.0452)
 -->
<!-- Title: rdf_graph Pages: 1 -->
<svg width="2522pt" height="1022pt"
 viewBox="0.00 0.00 2522.00 1022.00" xmlns="http://www.w3.org/2000/svg" xmlns:xlink="http://www.w3.org/1999/xlink">
<g id="graph0" class="graph" transform="scale(1 1) rotate(0) translate(25.2 997.2)">
<title>rdf_graph</title>
<polygon fill="white" stroke="none" points="-25.2,25.2 -25.2,-997.2 2497.2,-997.2 2497.2,25.2 -25.2,25.2"/>
<g id="clust1" class="cluster">
<title>cluster_workflow</title>
<path fill="white" stroke="#93c5fd" stroke-width="1.2" stroke-dasharray="5,2" d="M615.88,-677C615.88,-677 1862.88,-677 1862.88,-677 1868.88,-677 1874.88,-683 1874.88,-689 1874.88,-689 1874.88,-952 1874.88,-952 1874.88,-958 1868.88,-964 1862.88,-964 1862.88,-964 615.88,-964 615.88,-964 609.88,-964 603.88,-958 603.88,-952 603.88,-952 603.88,-689 603.88,-689 603.88,-683 609.88,-677 615.88,-677"/>
<text xml:space="preserve" text-anchor="middle" x="1239.38" y="-946.7" font-family="Times New Roman,serif" font-size="14.00">Workflow / Agents</text>
</g>
<g id="clust2" class="cluster">
<title>cluster_decision</title>
<path fill="white" stroke="#a5b4fc" stroke-width="1.2" stroke-dasharray="5,2" d="M1682,-333C1682,-333 1926.25,-333 1926.25,-333 1932.25,-333 1938.25,-339 1938.25,-345 1938.25,-345 1938.25,-398 1938.25,-398 1938.25,-404 1932.25,-410 1926.25,-410 1926.25,-410 1682,-410 1682,-410 1676,-410 1670,-404 1670,-398 1670,-398 1670,-345 1670,-345 1670,-339 1676,-333 1682,-333"/>
<text xml:space="preserve" text-anchor="middle" x="1804.12" y="-392.7" font-family="Times New Roman,serif" font-size="14.00">Decision</text>
</g>
<g id="clust3" class="cluster">
<title>cluster_petition</title>
<path fill="white" stroke="#fca5a5" stroke-width="1.2" stroke-dasharray="5,2" d="M1224.12,-357C1224.12,-357 1458.62,-357 1458.62,-357 1464.62,-357 1470.62,-363 1470.62,-369 1470.62,-369 1470.62,-422 1470.62,-422 1470.62,-428 1464.62,-434 1458.62,-434 1458.62,-434 1224.12,-434 1224.12,-434 1218.12,-434 1212.12,-428 1212.12,-422 1212.12,-422 1212.12,-369 1212.12,-369 1212.12,-363 1218.12,-357 1224.12,-357"/>
<text xml:space="preserve" text-anchor="middle" x="1341.38" y="-416.7" font-family="Times New Roman,serif" font-size="14.00">Petition</text>
</g>
<g id="clust4" class="cluster">
<title>cluster_theme</title>
<path fill="white" stroke="#86efac" stroke-width="1.2" stroke-dasharray="5,2" d="M2106.5,-371C2106.5,-371 2452,-371 2452,-371 2458,-371 2464,-377 2464,-383 2464,-383 2464,-466 2464,-466 2464,-472 2458,-478 2452,-478 2452,-478 2106.5,-478 2106.5,-478 2100.5,-478 2094.5,-472 2094.5,-466 2094.5,-466 2094.5,-383 2094.5,-383 2094.5,-377 2100.5,-371 2106.5,-371"/>
<text xml:space="preserve" text-anchor="middle" x="2279.25" y="-460.7" font-family="Times New Roman,serif" font-size="14.00">Theme / Thesis</text>
</g>
<g id="clust5" class="cluster">
<title>cluster_analysis</title>
<path fill="white" stroke="#c4b5fd" stroke-width="1.2" stroke-dasharray="5,2" d="M539.75,-237C539.75,-237 1489,-237 1489,-237 1495,-237 1501,-243 1501,-249 1501,-249 1501,-332 1501,-332 1501,-338 1495,-344 1489,-344 1489,-344 539.75,-344 539.75,-344 533.75,-344 527.75,-338 527.75,-332 527.75,-332 527.75,-249 527.75,-249 527.75,-243 533.75,-237 539.75,-237"/>
<text xml:space="preserve" text-anchor="middle" x="1014.38" y="-326.7" font-family="Times New Roman,serif" font-size="14.00">Analysis / Generated Resources</text>
</g>
<g id="clust6" class="cluster">
<title>cluster_document</title>
<path fill="white" stroke="#f9a8d4" stroke-width="1.2" stroke-dasharray="5,2" d="M20,-544C20,-544 358.75,-544 358.75,-544 364.75,-544 370.75,-550 370.75,-556 370.75,-556 370.75,-609 370.75,-609 370.75,-615 364.75,-621 358.75,-621 358.75,-621 20,-621 20,-621 14,-621 8,-615 8,-609 8,-609 8,-556 8,-556 8,-550 14,-544 20,-544"/>
<text xml:space="preserve" text-anchor="middle" x="189.38" y="-603.7" font-family="Times New Roman,serif" font-size="14.00">Document Outcome</text>
</g>
<!-- n5715557136811842057 -->
<g id="node1" class="node">
<title>n5715557136811842057</title>
<g id="a_node1"><a xlink:title="Classification for process 5021277&#45;41.2025.4.02.5101">
<polygon fill="#dbeafe" stroke="#1d4ed8" points="1493,-721 1189.75,-721 1189.75,-717 1185.75,-717 1185.75,-713 1189.75,-713 1189.75,-693 1185.75,-693 1185.75,-689 1189.75,-689 1189.75,-685 1493,-685 1493,-721"/>
<polyline fill="none" stroke="#1d4ed8" points="1189.75,-717 1193.75,-717 1193.75,-713 1189.75,-713"/>
<polyline fill="none" stroke="#1d4ed8" points="1189.75,-693 1193.75,-693 1193.75,-689 1189.75,-689"/>
<text xml:space="preserve" text-anchor="middle" x="1341.38" y="-698.73" font-family="Helvetica,sans-Serif" font-size="12.00">Classification for process 5021277&#45;41.2025.4.02.5101</text>
</a>
</g>
</g>
<!-- n1489112258672737196 -->
<g id="node4" class="node">
<title>n1489112258672737196</title>
<g id="a_node4"><a xlink:title="Local analysis agent">
<path fill="#dbeafe" stroke="#1d4ed8" d="M1854.88,-931C1854.88,-931 1753.38,-931 1753.38,-931 1747.38,-931 1741.38,-925 1741.38,-919 1741.38,-919 1741.38,-907 1741.38,-907 1741.38,-901 1747.38,-895 1753.38,-895 1753.38,-895 1854.88,-895 1854.88,-895 1860.88,-895 1866.88,-901 1866.88,-907 1866.88,-907 1866.88,-919 1866.88,-919 1866.88,-925 1860.88,-931 1854.88,-931"/>
<text xml:space="preserve" text-anchor="middle" x="1804.12" y="-908.73" font-family="Helvetica,sans-Serif" font-size="12.00">Local analysis agent</text>
</a>
</g>
</g>
<!-- n5715557136811842057&#45;&gt;n1489112258672737196 -->
<g id="edge12" class="edge">
<title>n5715557136811842057&#45;&gt;n1489112258672737196</title>
<path fill="none" stroke="#334155" stroke-width="1.6" d="M1437,-721.49C1437,-771.08 1437,-903.33 1437,-903.33 1437,-903.33 1728.59,-903.33 1728.59,-903.33"/>
<polygon fill="#334155" stroke="#334155" stroke-width="1.6" points="1728.59,-906.83 1738.59,-903.33 1728.59,-899.83 1728.59,-906.83"/>
<text xml:space="preserve" text-anchor="middle" x="1585.5" y="-903.5" font-family="Helvetica,sans-Serif" font-size="10.00">wasAssociatedWith</text>
</g>
<!-- n1775160643525515563 -->
<g id="node6" class="node">
<title>n1775160643525515563</title>
<g id="a_node6"><a xlink:title="tres:261f3545&#45;cf32&#45;508f&#45;9fc6&#45;043a3bc53ad5&#10;&#10;subject: Indenização por dano moral, Responsabilidade civil, DIREITO CIVIL&#10;description: tipo_julgamento=Julgamento Principal; competencia=JEF Recurso Cível; relator=ALESSANDRA BELFORT BUENO">
<path fill="#e0e7ff" stroke="#4338ca" d="M1918.25,-377C1918.25,-377 1690,-377 1690,-377 1684,-377 1678,-371 1678,-365 1678,-365 1678,-353 1678,-353 1678,-347 1684,-341 1690,-341 1690,-341 1918.25,-341 1918.25,-341 1924.25,-341 1930.25,-347 1930.25,-353 1930.25,-353 1930.25,-365 1930.25,-365 1930.25,-371 1924.25,-377 1918.25,-377"/>
<text xml:space="preserve" text-anchor="middle" x="1804.12" y="-354.73" font-family="Helvetica,sans-Serif" font-size="12.00">tres:261f3545&#45;cf32&#45;508f&#45;9fc6&#45;043a3bc53ad5</text>
</a>
</g>
</g>
<!-- n5715557136811842057&#45;&gt;n1775160643525515563 -->
<g id="edge11" class="edge">
<title>n5715557136811842057&#45;&gt;n1775160643525515563</title>
<path fill="none" stroke="#334155" stroke-width="1.6" d="M1470,-684.79C1470,-615.61 1470,-373 1470,-373 1470,-373 1665.38,-373 1665.38,-373"/>
<polygon fill="#334155" stroke="#334155" stroke-width="1.6" points="1665.39,-376.5 1675.38,-373 1665.38,-369.5 1665.39,-376.5"/>
<text xml:space="preserve" text-anchor="middle" x="1585.5" y="-560.5" font-family="Helvetica,sans-Serif" font-size="10.00">used</text>
</g>
<!-- n475455059315724528 -->
<g id="node8" class="node">
<title>n475455059315724528</title>
<g id="a_node8"><a xlink:title="Tema 1 &#45; Julgado&#10;&#10;themeThesis: O valor da aposentadoria por invalidez e do auxílio&#45;doença, bem como das pensões destes derivados ou calculadas com base no art. 75, da Lei n. 8.213/91, será obtido, na forma do art. 29, II, do mesmo diploma, por meio...&#10;description: Saber qual a forma de cálculo da aposentadoria por invalidez, do auxílio&#45;doença e pensões derivadas, em momento antecedente à edição da Lei n. 9.876/99.">
<path fill="#dcfce7" stroke="#15803d" d="M2444,-445C2444,-445 2360.5,-445 2360.5,-445 2354.5,-445 2348.5,-439 2348.5,-433 2348.5,-433 2348.5,-421 2348.5,-421 2348.5,-415 2354.5,-409 2360.5,-409 2360.5,-409 2444,-409 2444,-409 2450,-409 2456,-415 2456,-421 2456,-421 2456,-433 2456,-433 2456,-439 2450,-445 2444,-445"/>
<text xml:space="preserve" text-anchor="middle" x="2402.25" y="-422.73" font-family="Helvetica,sans-Serif" font-size="12.00">Tema 1 &#45; Julgado</text>
</a>
</g>
</g>
<!-- n5715557136811842057&#45;&gt;n475455059315724528 -->
<g id="edge10" class="edge">
<title>n5715557136811842057&#45;&gt;n475455059315724528</title>
<path fill="none" stroke="#334155" stroke-width="1.6" d="M1493.26,-703C1782.54,-703 2384,-703 2384,-703 2384,-703 2384,-457.53 2384,-457.53"/>
<polygon fill="#334155" stroke="#334155" stroke-width="1.6" points="2387.5,-457.53 2384,-447.53 2380.5,-457.53 2387.5,-457.53"/>
<text xml:space="preserve" text-anchor="middle" x="2016.38" y="-808.5" font-family="Helvetica,sans-Serif" font-size="10.00">used</text>
</g>
<!-- n3921879555699968955 -->
<g id="node9" class="node">
<title>n3921879555699968955</title>
<g id="a_node9"><a xlink:title="Theme 1 Thesis&#10;&#10;themeThesis: O valor da aposentadoria por invalidez e do auxílio&#45;doença, bem como das pensões destes derivados ou calculadas com base no art. 75, da Lei n. 8.213/91, será obtido, na forma do art. 29, II, do mesmo diploma, por meio...">
<path fill="#ecfccb" stroke="#4d7c0f" d="M2192.75,-445C2192.75,-445 2114.5,-445 2114.5,-445 2108.5,-445 2102.5,-439 2102.5,-433 2102.5,-433 2102.5,-421 2102.5,-421 2102.5,-415 2108.5,-409 2114.5,-409 2114.5,-409 2192.75,-409 2192.75,-409 2198.75,-409 2204.75,-415 2204.75,-421 2204.75,-421 2204.75,-433 2204.75,-433 2204.75,-439 2198.75,-445 2192.75,-445"/>
<text xml:space="preserve" text-anchor="middle" x="2153.62" y="-422.73" font-family="Helvetica,sans-Serif" font-size="12.00">Theme 1 Thesis</text>
</a>
</g>
</g>
<!-- n5715557136811842057&#45;&gt;n3921879555699968955 -->
<g id="edge9" class="edge">
<title>n5715557136811842057&#45;&gt;n3921879555699968955</title>
<path fill="none" stroke="#334155" stroke-width="1.6" d="M1478,-684.77C1478,-624.86 1478,-437.8 1478,-437.8 1478,-437.8 2089.59,-437.8 2089.59,-437.8"/>
<polygon fill="#334155" stroke="#334155" stroke-width="1.6" points="2089.59,-441.3 2099.59,-437.8 2089.59,-434.3 2089.59,-441.3"/>
<text xml:space="preserve" text-anchor="middle" x="1804.12" y="-721.5" font-family="Helvetica,sans-Serif" font-size="10.00">used</text>
</g>
<!-- n6433969051883915506 -->
<g id="node11" class="node">
<title>n6433969051883915506</title>
<g id="a_node11"><a xlink:title="jdd:analysis&#45;35e89cc7&#45;d761&#45;5f72&#45;81c0&#45;7d5c3e75f0cb">
<path fill="#ede9fe" stroke="#6d28d9" d="M1481,-311C1481,-311 1201.75,-311 1201.75,-311 1195.75,-311 1189.75,-305 1189.75,-299 1189.75,-299 1189.75,-287 1189.75,-287 1189.75,-281 1195.75,-275 1201.75,-275 1201.75,-275 1481,-275 1481,-275 1487,-275 1493,-281 1493,-287 1493,-287 1493,-299 1493,-299 1493,-305 1487,-311 1481,-311"/>
<text xml:space="preserve" text-anchor="middle" x="1341.38" y="-288.73" font-family="Helvetica,sans-Serif" font-size="12.00">jdd:analysis&#45;35e89cc7&#45;d761&#45;5f72&#45;81c0&#45;7d5c3e75f0cb</text>
</a>
</g>
</g>
<!-- n5715557136811842057&#45;&gt;n6433969051883915506 -->
<g id="edge8" class="edge">
<title>n5715557136811842057&#45;&gt;n6433969051883915506</title>
<path fill="none" stroke="#334155" stroke-width="1.6" d="M1210,-684.59C1210,-684.59 1210,-323.78 1210,-323.78"/>
<polygon fill="#334155" stroke="#334155" stroke-width="1.6" points="1213.5,-323.78 1210,-313.78 1206.5,-323.78 1213.5,-323.78"/>
<text xml:space="preserve" text-anchor="middle" x="1097.25" y="-560.5" font-family="Helvetica,sans-Serif" font-size="10.00">generated</text>
</g>
<!-- n4995467579034401795 -->
<g id="node2" class="node">
<title>n4995467579034401795</title>
<g id="a_node2"><a xlink:title="Draft generation for process 5021277&#45;41.2025.4.02.5101">
<polygon fill="#dbeafe" stroke="#1d4ed8" points="928.62,-721 611.88,-721 611.88,-717 607.88,-717 607.88,-713 611.88,-713 611.88,-693 607.88,-693 607.88,-689 611.88,-689 611.88,-685 928.62,-685 928.62,-721"/>
<polyline fill="none" stroke="#1d4ed8" points="611.88,-717 615.88,-717 615.88,-713 611.88,-713"/>
<polyline fill="none" stroke="#1d4ed8" points="611.88,-693 615.88,-693 615.88,-689 611.88,-689"/>
<text xml:space="preserve" text-anchor="middle" x="770.25" y="-698.73" font-family="Helvetica,sans-Serif" font-size="12.00">Draft generation for process 5021277&#45;41.2025.4.02.5101</text>
</a>
</g>
</g>
<!-- n4995467579034401795&#45;&gt;n5715557136811842057 -->
<g id="edge20" class="edge">
<title>n4995467579034401795&#45;&gt;n5715557136811842057</title>
<path fill="none" stroke="#334155" stroke-width="1.6" d="M928.96,-703C928.96,-703 1176.91,-703 1176.91,-703"/>
<polygon fill="#334155" stroke="#334155" stroke-width="1.6" points="1176.91,-706.5 1186.91,-703 1176.91,-699.5 1176.91,-706.5"/>
<text xml:space="preserve" text-anchor="middle" x="1097.25" y="-741.5" font-family="Helvetica,sans-Serif" font-size="10.00">wasInformedBy</text>
</g>
<!-- n2951741326417105908 -->
<g id="node3" class="node">
<title>n2951741326417105908</title>
<g id="a_node3"><a xlink:title="jdd:pipeline">
<path fill="#dbeafe" stroke="#1d4ed8" d="M1368.5,-811C1368.5,-811 1314.25,-811 1314.25,-811 1308.25,-811 1302.25,-805 1302.25,-799 1302.25,-799 1302.25,-787 1302.25,-787 1302.25,-781 1308.25,-775 1314.25,-775 1314.25,-775 1368.5,-775 1368.5,-775 1374.5,-775 1380.5,-781 1380.5,-787 1380.5,-787 1380.5,-799 1380.5,-799 1380.5,-805 1374.5,-811 1368.5,-811"/>
<text xml:space="preserve" text-anchor="middle" x="1341.38" y="-788.73" font-family="Helvetica,sans-Serif" font-size="12.00">jdd:pipeline</text>
</a>
</g>
</g>
<!-- n4995467579034401795&#45;&gt;n2951741326417105908 -->
<g id="edge19" class="edge">
<title>n4995467579034401795&#45;&gt;n2951741326417105908</title>
<path fill="none" stroke="#334155" stroke-width="1.6" d="M918,-721.21C918,-747.51 918,-793 918,-793 918,-793 1289.5,-793 1289.5,-793"/>
<polygon fill="#334155" stroke="#334155" stroke-width="1.6" points="1289.5,-796.5 1299.5,-793 1289.5,-789.5 1289.5,-796.5"/>
<text xml:space="preserve" text-anchor="middle" x="1097.25" y="-812.5" font-family="Helvetica,sans-Serif" font-size="10.00">wasAssociatedWith</text>
</g>
<!-- n4995467579034401795&#45;&gt;n1775160643525515563 -->
<g id="edge18" class="edge">
<title>n4995467579034401795&#45;&gt;n1775160643525515563</title>
<path fill="none" stroke="#334155" stroke-width="1.6" d="M823,-684.51C823,-613.05 823,-359 823,-359 823,-359 1665.2,-359 1665.2,-359"/>
<polygon fill="#334155" stroke="#334155" stroke-width="1.6" points="1665.2,-362.5 1675.2,-359 1665.2,-355.5 1665.2,-362.5"/>
<text xml:space="preserve" text-anchor="middle" x="1341.38" y="-511.5" font-family="Helvetica,sans-Serif" font-size="10.00">used</text>
</g>
<!-- n4995467579034401795&#45;&gt;n475455059315724528 -->
<g id="edge17" class="edge">
<title>n4995467579034401795&#45;&gt;n475455059315724528</title>
<path fill="none" stroke="#334155" stroke-width="1.6" d="M908,-721.3C908,-733.76 908,-748 908,-748 908,-748 2420,-748 2420,-748 2420,-748 2420,-457.6 2420,-457.6"/>
<polygon fill="#334155" stroke="#334155" stroke-width="1.6" points="2423.5,-457.6 2420,-447.6 2416.5,-457.6 2423.5,-457.6"/>
<text xml:space="preserve" text-anchor="middle" x="1804.12" y="-601.5" font-family="Helvetica,sans-Serif" font-size="10.00">used</text>
</g>
<!-- n4995467579034401795&#45;&gt;n3921879555699968955 -->
<g id="edge16" class="edge">
<title>n4995467579034401795&#45;&gt;n3921879555699968955</title>
<path fill="none" stroke="#334155" stroke-width="1.6" d="M876,-684.7C876,-623.63 876,-430.6 876,-430.6 876,-430.6 2089.93,-430.6 2089.93,-430.6"/>
<polygon fill="#334155" stroke="#334155" stroke-width="1.6" points="2089.93,-434.1 2099.93,-430.6 2089.93,-427.1 2089.93,-434.1"/>
<text xml:space="preserve" text-anchor="middle" x="1585.5" y="-489.5" font-family="Helvetica,sans-Serif" font-size="10.00">used</text>
</g>
<!-- n4669131334604133020 -->
<g id="node10" class="node">
<title>n4669131334604133020</title>
<g id="a_node10"><a xlink:title="Generated decision NEGAR_SEGUIMENTO for process 5021277&#45;41.2025.4.02.5101&#10;&#10;atLocation: outputs/runs/run&#45;20260616T021419819540Z/documents/261f3545&#45;cf32&#45;508f&#45;9fc6&#45;043a3bc53ad5&#45;NEGAR_SEGUIMENTO.tex">
<path fill="#ede9fe" stroke="#6d28d9" d="M992.75,-281C992.75,-281 547.75,-281 547.75,-281 541.75,-281 535.75,-275 535.75,-269 535.75,-269 535.75,-257 535.75,-257 535.75,-251 541.75,-245 547.75,-245 547.75,-245 992.75,-245 992.75,-245 998.75,-245 1004.75,-251 1004.75,-257 1004.75,-257 1004.75,-269 1004.75,-269 1004.75,-275 998.75,-281 992.75,-281"/>
<text xml:space="preserve" text-anchor="middle" x="770.25" y="-258.73" font-family="Helvetica,sans-Serif" font-size="12.00">Generated decision NEGAR_SEGUIMENTO for process 5021277&#45;41.2025.4.02.5101</text>
</a>
</g>
</g>
<!-- n4995467579034401795&#45;&gt;n4669131334604133020 -->
<g id="edge14" class="edge">
<title>n4995467579034401795&#45;&gt;n4669131334604133020</title>
<path fill="none" stroke="#334155" stroke-width="1.6" d="M717,-684.65C717,-684.65 717,-293.85 717,-293.85"/>
<polygon fill="#334155" stroke="#334155" stroke-width="1.6" points="720.5,-293.85 717,-283.85 713.5,-293.85 720.5,-293.85"/>
<text xml:space="preserve" text-anchor="middle" x="449.25" y="-544.5" font-family="Helvetica,sans-Serif" font-size="10.00">generated</text>
</g>
<!-- n4995467579034401795&#45;&gt;n6433969051883915506 -->
<g id="edge15" class="edge">
<title>n4995467579034401795&#45;&gt;n6433969051883915506</title>
<path fill="none" stroke="#334155" stroke-width="1.6" d="M770,-684.68C770,-606.04 770,-301 770,-301 770,-301 1176.96,-301 1176.96,-301"/>
<polygon fill="#334155" stroke="#334155" stroke-width="1.6" points="1176.96,-304.5 1186.96,-301 1176.96,-297.5 1176.96,-304.5"/>
<text xml:space="preserve" text-anchor="middle" x="1097.25" y="-526.5" font-family="Helvetica,sans-Serif" font-size="10.00">used</text>
</g>
<!-- n8121606909295523606 -->
<g id="node12" class="node">
<title>n8121606909295523606</title>
<g id="a_node12"><a xlink:title="Admissibility decision for process 5021277&#45;41.2025.4.02.5101">
<path fill="#fce7f3" stroke="#be185d" d="M350.75,-588C350.75,-588 28,-588 28,-588 22,-588 16,-582 16,-576 16,-576 16,-564 16,-564 16,-558 22,-552 28,-552 28,-552 350.75,-552 350.75,-552 356.75,-552 362.75,-558 362.75,-564 362.75,-564 362.75,-576 362.75,-576 362.75,-582 356.75,-588 350.75,-588"/>
<text xml:space="preserve" text-anchor="middle" x="189.38" y="-565.73" font-family="Helvetica,sans-Serif" font-size="12.00">Admissibility decision for process 5021277&#45;41.2025.4.02.5101</text>
</a>
</g>
</g>
<!-- n4995467579034401795&#45;&gt;n8121606909295523606 -->
<g id="edge13" class="edge">
<title>n4995467579034401795&#45;&gt;n8121606909295523606</title>
<path fill="none" stroke="#334155" stroke-width="1.6" d="M665,-684.71C665,-650.62 665,-580.8 665,-580.8 665,-580.8 375.53,-580.8 375.53,-580.8"/>
<polygon fill="#334155" stroke="#334155" stroke-width="1.6" points="375.53,-577.3 365.53,-580.8 375.53,-584.3 375.53,-577.3"/>
<text xml:space="preserve" text-anchor="middle" x="449.25" y="-633.5" font-family="Helvetica,sans-Serif" font-size="10.00">generated</text>
</g>
<!-- n5798093630906024397 -->
<g id="node5" class="node">
<title>n5798093630906024397</title>
<g id="a_node5"><a xlink:title="Pipeline run run&#45;20260616T021419819540Z">
<path fill="#dbeafe" stroke="#1d4ed8" d="M885.5,-920C885.5,-920 655,-920 655,-920 649,-920 643,-914 643,-908 643,-908 643,-896 643,-896 643,-890 649,-884 655,-884 655,-884 885.5,-884 885.5,-884 891.5,-884 897.5,-890 897.5,-896 897.5,-896 897.5,-908 897.5,-908 897.5,-914 891.5,-920 885.5,-920"/>
<text xml:space="preserve" text-anchor="middle" x="770.25" y="-897.73" font-family="Helvetica,sans-Serif" font-size="12.00">Pipeline run run&#45;20260616T021419819540Z</text>
</a>
</g>
</g>
<!-- n5798093630906024397&#45;&gt;n2951741326417105908 -->
<g id="edge26" class="edge">
<title>n5798093630906024397&#45;&gt;n2951741326417105908</title>
<path fill="none" stroke="#334155" stroke-width="1.6" d="M897.98,-889.5C1066.23,-889.5 1341,-889.5 1341,-889.5 1341,-889.5 1341,-823.57 1341,-823.57"/>
<polygon fill="#334155" stroke="#334155" stroke-width="1.6" points="1344.5,-823.57 1341,-813.57 1337.5,-823.57 1344.5,-823.57"/>
<text xml:space="preserve" text-anchor="middle" x="1097.25" y="-893.5" font-family="Helvetica,sans-Serif" font-size="10.00">wasAssociatedWith</text>
</g>
<!-- n5798093630906024397&#45;&gt;n1489112258672737196 -->
<g id="edge25" class="edge">
<title>n5798093630906024397&#45;&gt;n1489112258672737196</title>
<path fill="none" stroke="#334155" stroke-width="1.6" d="M897.8,-911.67C897.8,-911.67 1728.47,-911.67 1728.47,-911.67"/>
<polygon fill="#334155" stroke="#334155" stroke-width="1.6" points="1728.47,-915.17 1738.47,-911.67 1728.47,-908.17 1728.47,-915.17"/>
<text xml:space="preserve" text-anchor="middle" x="1341.38" y="-921.5" font-family="Helvetica,sans-Serif" font-size="10.00">wasAssociatedWith</text>
</g>
<!-- n1775160643525515563&#45;&gt;n3921879555699968955 -->
<g id="edge29" class="edge">
<title>n1775160643525515563&#45;&gt;n3921879555699968955</title>
<path fill="none" stroke="#334155" stroke-width="1.6" d="M1899,-377.41C1899,-394.13 1899,-416.2 1899,-416.2 1899,-416.2 2089.68,-416.2 2089.68,-416.2"/>
<polygon fill="#334155" stroke="#334155" stroke-width="1.6" points="2089.68,-419.7 2099.68,-416.2 2089.68,-412.7 2089.68,-419.7"/>
<text xml:space="preserve" text-anchor="middle" x="2016.38" y="-393.5" font-family="Helvetica,sans-Serif" font-size="10.00">adoptsThesis</text>
</g>
<!-- n5866067113536285464 -->
<g id="node7" class="node">
<title>n5866067113536285464</title>
<g id="a_node7"><a xlink:title="rs:261f3545&#45;cf32&#45;508f&#45;9fc6&#45;043a3bc53ad5">
<path fill="#fee2e2" stroke="#b91c1c" d="M1450.62,-401C1450.62,-401 1232.12,-401 1232.12,-401 1226.12,-401 1220.12,-395 1220.12,-389 1220.12,-389 1220.12,-377 1220.12,-377 1220.12,-371 1226.12,-365 1232.12,-365 1232.12,-365 1450.62,-365 1450.62,-365 1456.62,-365 1462.62,-371 1462.62,-377 1462.62,-377 1462.62,-389 1462.62,-389 1462.62,-395 1456.62,-401 1450.62,-401"/>
<text xml:space="preserve" text-anchor="middle" x="1341.38" y="-378.73" font-family="Helvetica,sans-Serif" font-size="12.00">rs:261f3545&#45;cf32&#45;508f&#45;9fc6&#45;043a3bc53ad5</text>
</a>
</g>
</g>
<!-- n5866067113536285464&#45;&gt;n1775160643525515563 -->
<g id="edge27" class="edge">
<title>n5866067113536285464&#45;&gt;n1775160643525515563</title>
<path fill="none" stroke="#334155" stroke-width="1.6" d="M1462.96,-369C1462.96,-369 1665.28,-369 1665.28,-369"/>
<polygon fill="#334155" stroke="#334155" stroke-width="1.6" points="1665.28,-372.5 1675.28,-369 1665.28,-365.5 1665.28,-372.5"/>
<text xml:space="preserve" text-anchor="middle" x="1585.5" y="-357.5" font-family="Helvetica,sans-Serif" font-size="10.00">isFiledAgainst</text>
</g>
<!-- n3921879555699968955&#45;&gt;n475455059315724528 -->
<g id="edge28" class="edge">
<title>n3921879555699968955&#45;&gt;n475455059315724528</title>
<path fill="none" stroke="#334155" stroke-width="1.6" d="M2205.14,-427C2205.14,-427 2335.8,-427 2335.8,-427"/>
<polygon fill="#334155" stroke="#334155" stroke-width="1.6" points="2335.8,-430.5 2345.8,-427 2335.8,-423.5 2335.8,-430.5"/>
<text xml:space="preserve" text-anchor="middle" x="2276.62" y="-435.5" font-family="Helvetica,sans-Serif" font-size="10.00">hasTheme</text>
</g>
<!-- n4669131334604133020&#45;&gt;n1775160643525515563 -->
<g id="edge23" class="edge">
<title>n4669131334604133020&#45;&gt;n1775160643525515563</title>
<path fill="none" stroke="#334155" stroke-width="1.6" d="M967,-281.21C967,-307.51 967,-353 967,-353 967,-353 1665.47,-353 1665.47,-353"/>
<polygon fill="#334155" stroke="#334155" stroke-width="1.6" points="1665.47,-356.5 1675.47,-353 1665.47,-349.5 1665.47,-356.5"/>
<text xml:space="preserve" text-anchor="middle" x="1341.38" y="-138.5" font-family="Helvetica,sans-Serif" font-size="10.00">wasDerivedFrom</text>
</g>
<!-- n4669131334604133020&#45;&gt;n3921879555699968955 -->
<g id="edge21" class="edge">
<title>n4669131334604133020&#45;&gt;n3921879555699968955</title>
<path fill="none" stroke="#334155" stroke-width="1.6" d="M948,-281.4C948,-323.53 948,-423.4 948,-423.4 948,-423.4 2089.78,-423.4 2089.78,-423.4"/>
<polygon fill="#334155" stroke="#334155" stroke-width="1.6" points="2089.78,-426.9 2099.78,-423.4 2089.78,-419.9 2089.78,-426.9"/>
<text xml:space="preserve" text-anchor="middle" x="1585.5" y="-2.5" font-family="Helvetica,sans-Serif" font-size="10.00">adoptsThesis</text>
</g>
<!-- n4669131334604133020&#45;&gt;n6433969051883915506 -->
<g id="edge22" class="edge">
<title>n4669131334604133020&#45;&gt;n6433969051883915506</title>
<path fill="none" stroke="#334155" stroke-width="1.6" d="M986,-281.21C986,-286.55 986,-291 986,-291 986,-291 1176.95,-291 1176.95,-291"/>
<polygon fill="#334155" stroke="#334155" stroke-width="1.6" points="1176.95,-294.5 1186.95,-291 1176.95,-287.5 1176.95,-294.5"/>
<text xml:space="preserve" text-anchor="middle" x="1097.25" y="-301.5" font-family="Helvetica,sans-Serif" font-size="10.00">wasDerivedFrom</text>
</g>
<!-- n6433969051883915506&#45;&gt;n1775160643525515563 -->
<g id="edge6" class="edge">
<title>n6433969051883915506&#45;&gt;n1775160643525515563</title>
<path fill="none" stroke="#334155" stroke-width="1.6" d="M1485,-311.28C1485,-326.95 1485,-347 1485,-347 1485,-347 1665.12,-347 1665.12,-347"/>
<polygon fill="#334155" stroke="#334155" stroke-width="1.6" points="1665.12,-350.5 1675.12,-347 1665.12,-343.5 1665.12,-350.5"/>
<text xml:space="preserve" text-anchor="middle" x="1585.5" y="-286.5" font-family="Helvetica,sans-Serif" font-size="10.00">wasDerivedFrom</text>
</g>
<!-- n6433969051883915506&#45;&gt;n475455059315724528 -->
<g id="edge5" class="edge">
<title>n6433969051883915506&#45;&gt;n475455059315724528</title>
<path fill="none" stroke="#334155" stroke-width="1.6" d="M1493.34,-293C1786.61,-293 2402,-293 2402,-293 2402,-293 2402,-396.23 2402,-396.23"/>
<polygon fill="#334155" stroke="#334155" stroke-width="1.6" points="2398.5,-396.23 2402,-406.23 2405.5,-396.23 2398.5,-396.23"/>
<text xml:space="preserve" text-anchor="middle" x="2016.38" y="-199.5" font-family="Helvetica,sans-Serif" font-size="10.00">wasDerivedFrom</text>
</g>
<!-- n8121606909295523606&#45;&gt;n5866067113536285464 -->
<g id="edge3" class="edge">
<title>n8121606909295523606&#45;&gt;n5866067113536285464</title>
<path fill="none" stroke="#334155" stroke-width="1.6" d="M363.03,-573.6C684.75,-573.6 1341,-573.6 1341,-573.6 1341,-573.6 1341,-413.7 1341,-413.7"/>
<polygon fill="#334155" stroke="#334155" stroke-width="1.6" points="1344.5,-413.7 1341,-403.7 1337.5,-413.7 1344.5,-413.7"/>
<text xml:space="preserve" text-anchor="middle" x="770.25" y="-511.5" font-family="Helvetica,sans-Serif" font-size="10.00">wasDerivedFrom</text>
</g>
<!-- n8121606909295523606&#45;&gt;n4669131334604133020 -->
<g id="edge1" class="edge">
<title>n8121606909295523606&#45;&gt;n4669131334604133020</title>
<path fill="none" stroke="#334155" stroke-width="1.6" d="M363.12,-559.2C465.05,-559.2 574,-559.2 574,-559.2 574,-559.2 574,-293.5 574,-293.5"/>
<polygon fill="#334155" stroke="#334155" stroke-width="1.6" points="577.5,-293.5 574,-283.5 570.5,-293.5 577.5,-293.5"/>
<text xml:space="preserve" text-anchor="middle" x="449.25" y="-366.5" font-family="Helvetica,sans-Serif" font-size="10.00">ruledIn</text>
</g>
<!-- n8121606909295523606&#45;&gt;n6433969051883915506 -->
<g id="edge2" class="edge">
<title>n8121606909295523606&#45;&gt;n6433969051883915506</title>
<path fill="none" stroke="#334155" stroke-width="1.6" d="M363.11,-566.4C652.06,-566.4 1200,-566.4 1200,-566.4 1200,-566.4 1200,-323.78 1200,-323.78"/>
<polygon fill="#334155" stroke="#334155" stroke-width="1.6" points="1203.5,-323.78 1200,-313.78 1196.5,-323.78 1203.5,-323.78"/>
<text xml:space="preserve" text-anchor="middle" x="770.25" y="-391.5" font-family="Helvetica,sans-Serif" font-size="10.00">wasDerivedFrom</text>
</g>
</g>
</svg>
