<?xml version="1.0" encoding="UTF-8" standalone="no"?>
<!DOCTYPE svg PUBLIC "-//W3C//DTD SVG 1.1//EN"
 "http://www.w3.org/Graphics/SVG/1.1/DTD/svg11.dtd">
<!-- Generated by graphviz version 14.1.2 (20260124.0452)
 -->
<!-- Title: rdf_graph Pages: 1 -->
<svg width="711pt" height="472pt"
 viewBox="0.00 0.00 711.00 472.00" xmlns="http://www.w3.org/2000/svg" xmlns:xlink="http://www.w3.org/1999/xlink">
<g id="graph0" class="graph" transform="scale(1 1) rotate(0) translate(25.2 447.2)">
<title>rdf_graph</title>
<polygon fill="white" stroke="none" points="-25.2,25.2 -25.2,-447.2 685.95,-447.2 685.95,25.2 -25.2,25.2"/>
<g id="clust1" class="cluster">
<title>cluster_workflow</title>
<path fill="white" stroke="#93c5fd" stroke-width="1.2" stroke-dasharray="5,2" d="M20,-8C20,-8 606.62,-8 606.62,-8 612.62,-8 618.62,-14 618.62,-20 618.62,-20 618.62,-174 618.62,-174 618.62,-180 612.62,-186 606.62,-186 606.62,-186 20,-186 20,-186 14,-186 8,-180 8,-174 8,-174 8,-20 8,-20 8,-14 14,-8 20,-8"/>
<text xml:space="preserve" text-anchor="middle" x="313.31" y="-168.7" font-family="Times New Roman,serif" font-size="14.00">Workflow / Agents</text>
</g>
<g id="clust2" class="cluster">
<title>cluster_decision</title>
<path fill="white" stroke="#a5b4fc" stroke-width="1.2" stroke-dasharray="5,2" d="M459.5,-222C459.5,-222 640.75,-222 640.75,-222 646.75,-222 652.75,-228 652.75,-234 652.75,-234 652.75,-287 652.75,-287 652.75,-293 646.75,-299 640.75,-299 640.75,-299 459.5,-299 459.5,-299 453.5,-299 447.5,-293 447.5,-287 447.5,-287 447.5,-234 447.5,-234 447.5,-228 453.5,-222 459.5,-222"/>
<text xml:space="preserve" text-anchor="middle" x="550.12" y="-281.7" font-family="Times New Roman,serif" font-size="14.00">Decision</text>
</g>
<g id="clust3" class="cluster">
<title>cluster_petition</title>
<path fill="white" stroke="#fca5a5" stroke-width="1.2" stroke-dasharray="5,2" d="M57.5,-222C57.5,-222 229,-222 229,-222 235,-222 241,-228 241,-234 241,-234 241,-287 241,-287 241,-293 235,-299 229,-299 229,-299 57.5,-299 57.5,-299 51.5,-299 45.5,-293 45.5,-287 45.5,-287 45.5,-234 45.5,-234 45.5,-228 51.5,-222 57.5,-222"/>
<text xml:space="preserve" text-anchor="middle" x="143.25" y="-281.7" font-family="Times New Roman,serif" font-size="14.00">Petition</text>
</g>
<g id="clust4" class="cluster">
<title>cluster_theme</title>
<path fill="white" stroke="#86efac" stroke-width="1.2" stroke-dasharray="5,2" d="M96.12,-307C96.12,-307 599.88,-307 599.88,-307 605.88,-307 611.88,-313 611.88,-319 611.88,-319 611.88,-402 611.88,-402 611.88,-408 605.88,-414 599.88,-414 599.88,-414 96.12,-414 96.12,-414 90.12,-414 84.12,-408 84.12,-402 84.12,-402 84.12,-319 84.12,-319 84.12,-313 90.12,-307 96.12,-307"/>
<text xml:space="preserve" text-anchor="middle" x="348" y="-396.7" font-family="Times New Roman,serif" font-size="14.00">Theme / Thesis</text>
</g>
<!-- n8445310807285928947 -->
<g id="node1" class="node">
<title>n8445310807285928947</title>
<g id="a_node1"><a xlink:title="gemini:3&#45;1&#45;flash&#45;lite">
<path fill="#dbeafe" stroke="#1d4ed8" d="M598.62,-63C598.62,-63 501.62,-63 501.62,-63 495.62,-63 489.62,-57 489.62,-51 489.62,-51 489.62,-39 489.62,-39 489.62,-33 495.62,-27 501.62,-27 501.62,-27 598.62,-27 598.62,-27 604.62,-27 610.62,-33 610.62,-39 610.62,-39 610.62,-51 610.62,-51 610.62,-57 604.62,-63 598.62,-63"/>
<text xml:space="preserve" text-anchor="middle" x="550.12" y="-40.73" font-family="Helvetica,sans-Serif" font-size="12.00">gemini:3&#45;1&#45;flash&#45;lite</text>
</a>
</g>
</g>
<!-- n5820410974289807035 -->
<g id="node2" class="node">
<title>n5820410974289807035</title>
<g id="a_node2"><a xlink:title="jdd:pipeline">
<path fill="#dbeafe" stroke="#1d4ed8" d="M577.25,-153C577.25,-153 523,-153 523,-153 517,-153 511,-147 511,-141 511,-141 511,-129 511,-129 511,-123 517,-117 523,-117 523,-117 577.25,-117 577.25,-117 583.25,-117 589.25,-123 589.25,-129 589.25,-129 589.25,-141 589.25,-141 589.25,-147 583.25,-153 577.25,-153"/>
<text xml:space="preserve" text-anchor="middle" x="550.12" y="-130.72" font-family="Helvetica,sans-Serif" font-size="12.00">jdd:pipeline</text>
</a>
</g>
</g>
<!-- n2586739527207940046 -->
<g id="node3" class="node">
<title>n2586739527207940046</title>
<g id="a_node3"><a xlink:title="Pipeline run run&#45;20260616T155139091080Z">
<path fill="#dbeafe" stroke="#1d4ed8" d="M258.5,-120C258.5,-120 28,-120 28,-120 22,-120 16,-114 16,-108 16,-108 16,-96 16,-96 16,-90 22,-84 28,-84 28,-84 258.5,-84 258.5,-84 264.5,-84 270.5,-90 270.5,-96 270.5,-96 270.5,-108 270.5,-108 270.5,-114 264.5,-120 258.5,-120"/>
<text xml:space="preserve" text-anchor="middle" x="143.25" y="-97.72" font-family="Helvetica,sans-Serif" font-size="12.00">Pipeline run run&#45;20260616T155139091080Z</text>
</a>
</g>
</g>
<!-- n2586739527207940046&#45;&gt;n8445310807285928947 -->
<g id="edge2" class="edge">
<title>n2586739527207940046&#45;&gt;n8445310807285928947</title>
<path fill="none" stroke="#334155" stroke-width="1.6" d="M270.8,-100.5C373.47,-100.5 500.75,-100.5 500.75,-100.5 500.75,-100.5 500.75,-75.9 500.75,-75.9"/>
<polygon fill="#334155" stroke="#334155" stroke-width="1.6" points="504.25,-75.9 500.75,-65.9 497.25,-75.9 504.25,-75.9"/>
<text xml:space="preserve" text-anchor="middle" x="363" y="-72.5" font-family="Helvetica,sans-Serif" font-size="10.00">wasAssociatedWith</text>
</g>
<!-- n2586739527207940046&#45;&gt;n5820410974289807035 -->
<g id="edge1" class="edge">
<title>n2586739527207940046&#45;&gt;n5820410974289807035</title>
<path fill="none" stroke="#334155" stroke-width="1.6" d="M251.75,-120.46C251.75,-128.66 251.75,-136.5 251.75,-136.5 251.75,-136.5 498.08,-136.5 498.08,-136.5"/>
<polygon fill="#334155" stroke="#334155" stroke-width="1.6" points="498.08,-140 508.08,-136.5 498.08,-133 498.08,-140"/>
<text xml:space="preserve" text-anchor="middle" x="363" y="-143.5" font-family="Helvetica,sans-Serif" font-size="10.00">wasAssociatedWith</text>
</g>
<!-- n931053208021047584 -->
<g id="node4" class="node">
<title>n931053208021047584</title>
<g id="a_node4"><a xlink:title="tres:5021277&#45;41.2025.4.02.5101&#10;&#10;subject: Indenização por dano moral, Responsabilidade civil, DIREITO CIVIL">
<path fill="#e0e7ff" stroke="#4338ca" d="M632.75,-266C632.75,-266 467.5,-266 467.5,-266 461.5,-266 455.5,-260 455.5,-254 455.5,-254 455.5,-242 455.5,-242 455.5,-236 461.5,-230 467.5,-230 467.5,-230 632.75,-230 632.75,-230 638.75,-230 644.75,-236 644.75,-242 644.75,-242 644.75,-254 644.75,-254 644.75,-260 638.75,-266 632.75,-266"/>
<text xml:space="preserve" text-anchor="middle" x="550.12" y="-243.72" font-family="Helvetica,sans-Serif" font-size="12.00">tres:5021277&#45;41.2025.4.02.5101</text>
</a>
</g>
</g>
<!-- n2346972518036763462 -->
<g id="node5" class="node">
<title>n2346972518036763462</title>
<g id="a_node5"><a xlink:title="rs:5021277&#45;41.2025.4.02.5101">
<path fill="#fee2e2" stroke="#b91c1c" d="M221,-266C221,-266 65.5,-266 65.5,-266 59.5,-266 53.5,-260 53.5,-254 53.5,-254 53.5,-242 53.5,-242 53.5,-236 59.5,-230 65.5,-230 65.5,-230 221,-230 221,-230 227,-230 233,-236 233,-242 233,-242 233,-254 233,-254 233,-260 227,-266 221,-266"/>
<text xml:space="preserve" text-anchor="middle" x="143.25" y="-243.72" font-family="Helvetica,sans-Serif" font-size="12.00">rs:5021277&#45;41.2025.4.02.5101</text>
</a>
</g>
</g>
<!-- n2346972518036763462&#45;&gt;n931053208021047584 -->
<g id="edge3" class="edge">
<title>n2346972518036763462&#45;&gt;n931053208021047584</title>
<path fill="none" stroke="#334155" stroke-width="1.6" d="M233.3,-248C233.3,-248 442.59,-248 442.59,-248"/>
<polygon fill="#334155" stroke="#334155" stroke-width="1.6" points="442.59,-251.5 452.59,-248 442.59,-244.5 442.59,-251.5"/>
<text xml:space="preserve" text-anchor="middle" x="363" y="-250.5" font-family="Helvetica,sans-Serif" font-size="10.00">isFiledAgainst</text>
</g>
<!-- n7792410585684644269 -->
<g id="node6" class="node">
<title>n7792410585684644269</title>
<g id="a_node6"><a xlink:title="Tema 1 &#45; Julgado">
<path fill="#dcfce7" stroke="#15803d" d="M591.88,-381C591.88,-381 508.38,-381 508.38,-381 502.38,-381 496.38,-375 496.38,-369 496.38,-369 496.38,-357 496.38,-357 496.38,-351 502.38,-345 508.38,-345 508.38,-345 591.88,-345 591.88,-345 597.88,-345 603.88,-351 603.88,-357 603.88,-357 603.88,-369 603.88,-369 603.88,-375 597.88,-381 591.88,-381"/>
<text xml:space="preserve" text-anchor="middle" x="550.12" y="-358.73" font-family="Helvetica,sans-Serif" font-size="12.00">Tema 1 &#45; Julgado</text>
</a>
</g>
</g>
<!-- n1631993060102402666 -->
<g id="node7" class="node">
<title>n1631993060102402666</title>
<g id="a_node7"><a xlink:title="Theme 1 Thesis&#10;&#10;description: O valor da aposentadoria por invalidez e do auxílio&#45;doença, bem como das pensões destes derivados ou calculadas com base no art. 75, da Lei n. 8.213/91, será obtido, na forma do art. 29, II, do mesmo diploma, por meio...">
<path fill="#ecfccb" stroke="#4d7c0f" d="M182.38,-381C182.38,-381 104.12,-381 104.12,-381 98.12,-381 92.12,-375 92.12,-369 92.12,-369 92.12,-357 92.12,-357 92.12,-351 98.12,-345 104.12,-345 104.12,-345 182.38,-345 182.38,-345 188.38,-345 194.38,-351 194.38,-357 194.38,-357 194.38,-369 194.38,-369 194.38,-375 188.38,-381 182.38,-381"/>
<text xml:space="preserve" text-anchor="middle" x="143.25" y="-358.73" font-family="Helvetica,sans-Serif" font-size="12.00">Theme 1 Thesis</text>
</a>
</g>
</g>
<!-- n1631993060102402666&#45;&gt;n7792410585684644269 -->
<g id="edge4" class="edge">
<title>n1631993060102402666&#45;&gt;n7792410585684644269</title>
<path fill="none" stroke="#334155" stroke-width="1.6" d="M194.78,-363C194.78,-363 483.68,-363 483.68,-363"/>
<polygon fill="#334155" stroke="#334155" stroke-width="1.6" points="483.68,-366.5 493.68,-363 483.68,-359.5 483.68,-366.5"/>
<text xml:space="preserve" text-anchor="middle" x="363" y="-371.5" font-family="Helvetica,sans-Serif" font-size="10.00">hasTheme</text>
</g>
</g>
</svg>
