<?xml version="1.0" encoding="UTF-8" standalone="no"?>
<!DOCTYPE svg PUBLIC "-//W3C//DTD SVG 1.1//EN"
 "http://www.w3.org/Graphics/SVG/1.1/DTD/svg11.dtd">
<!-- Generated by graphviz version 14.1.2 (20260124.0452)
 -->
<!-- Title: rdf_graph Pages: 1 -->
<svg width="1262pt" height="357pt"
 viewBox="0.00 0.00 1262.00 357.00" xmlns="http://www.w3.org/2000/svg" xmlns:xlink="http://www.w3.org/1999/xlink">
<g id="graph0" class="graph" transform="scale(1 1) rotate(0) translate(25.2 332.2)">
<title>rdf_graph</title>
<polygon fill="white" stroke="none" points="-25.2,25.2 -25.2,-332.2 1237.2,-332.2 1237.2,25.2 -25.2,25.2"/>
<g id="clust1" class="cluster">
<title>cluster_workflow</title>
<path fill="white" stroke="#93c5fd" stroke-width="1.2" stroke-dasharray="5,2" d="M20,-8C20,-8 606.62,-8 606.62,-8 612.62,-8 618.62,-14 618.62,-20 618.62,-20 618.62,-174 618.62,-174 618.62,-180 612.62,-186 606.62,-186 606.62,-186 20,-186 20,-186 14,-186 8,-180 8,-174 8,-174 8,-20 8,-20 8,-14 14,-8 20,-8"/>
<text xml:space="preserve" text-anchor="middle" x="313.31" y="-168.7" font-family="Times New Roman,serif" font-size="14.00">Workflow / Agents</text>
</g>
<g id="clust2" class="cluster">
<title>cluster_decision</title>
<path fill="white" stroke="#a5b4fc" stroke-width="1.2" stroke-dasharray="5,2" d="M459.5,-222C459.5,-222 640.75,-222 640.75,-222 646.75,-222 652.75,-228 652.75,-234 652.75,-234 652.75,-287 652.75,-287 652.75,-293 646.75,-299 640.75,-299 640.75,-299 459.5,-299 459.5,-299 453.5,-299 447.5,-293 447.5,-287 447.5,-287 447.5,-234 447.5,-234 447.5,-228 453.5,-222 459.5,-222"/>
<text xml:space="preserve" text-anchor="middle" x="550.12" y="-281.7" font-family="Times New Roman,serif" font-size="14.00">Decision</text>
</g>
<g id="clust3" class="cluster">
<title>cluster_petition</title>
<path fill="white" stroke="#fca5a5" stroke-width="1.2" stroke-dasharray="5,2" d="M57.5,-222C57.5,-222 229,-222 229,-222 235,-222 241,-228 241,-234 241,-234 241,-287 241,-287 241,-293 235,-299 229,-299 229,-299 57.5,-299 57.5,-299 51.5,-299 45.5,-293 45.5,-287 45.5,-287 45.5,-234 45.5,-234 45.5,-228 51.5,-222 57.5,-222"/>
<text xml:space="preserve" text-anchor="middle" x="143.25" y="-281.7" font-family="Times New Roman,serif" font-size="14.00">Petition</text>
</g>
<g id="clust4" class="cluster">
<title>cluster_theme</title>
<path fill="white" stroke="#86efac" stroke-width="1.2" stroke-dasharray="5,2" d="M805.25,-192C805.25,-192 1192,-192 1192,-192 1198,-192 1204,-198 1204,-204 1204,-204 1204,-287 1204,-287 1204,-293 1198,-299 1192,-299 1192,-299 805.25,-299 805.25,-299 799.25,-299 793.25,-293 793.25,-287 793.25,-287 793.25,-204 793.25,-204 793.25,-198 799.25,-192 805.25,-192"/>
<text xml:space="preserve" text-anchor="middle" x="998.62" y="-281.7" font-family="Times New Roman,serif" font-size="14.00">Theme / Thesis</text>
</g>
<!-- n1595818708399073554 -->
<g id="node1" class="node">
<title>n1595818708399073554</title>
<g id="a_node1"><a xlink:title="gemini:3&#45;1&#45;flash&#45;lite">
<path fill="#dbeafe" stroke="#1d4ed8" d="M598.62,-63C598.62,-63 501.62,-63 501.62,-63 495.62,-63 489.62,-57 489.62,-51 489.62,-51 489.62,-39 489.62,-39 489.62,-33 495.62,-27 501.62,-27 501.62,-27 598.62,-27 598.62,-27 604.62,-27 610.62,-33 610.62,-39 610.62,-39 610.62,-51 610.62,-51 610.62,-57 604.62,-63 598.62,-63"/>
<text xml:space="preserve" text-anchor="middle" x="550.12" y="-40.73" font-family="Helvetica,sans-Serif" font-size="12.00">gemini:3&#45;1&#45;flash&#45;lite</text>
</a>
</g>
</g>
<!-- n6413547547848628198 -->
<g id="node2" class="node">
<title>n6413547547848628198</title>
<g id="a_node2"><a xlink:title="jdd:pipeline">
<path fill="#dbeafe" stroke="#1d4ed8" d="M577.25,-153C577.25,-153 523,-153 523,-153 517,-153 511,-147 511,-141 511,-141 511,-129 511,-129 511,-123 517,-117 523,-117 523,-117 577.25,-117 577.25,-117 583.25,-117 589.25,-123 589.25,-129 589.25,-129 589.25,-141 589.25,-141 589.25,-147 583.25,-153 577.25,-153"/>
<text xml:space="preserve" text-anchor="middle" x="550.12" y="-130.72" font-family="Helvetica,sans-Serif" font-size="12.00">jdd:pipeline</text>
</a>
</g>
</g>
<!-- n8240943909089393696 -->
<g id="node3" class="node">
<title>n8240943909089393696</title>
<g id="a_node3"><a xlink:title="Pipeline run run&#45;20260616T155650273588Z">
<path fill="#dbeafe" stroke="#1d4ed8" d="M258.5,-120C258.5,-120 28,-120 28,-120 22,-120 16,-114 16,-108 16,-108 16,-96 16,-96 16,-90 22,-84 28,-84 28,-84 258.5,-84 258.5,-84 264.5,-84 270.5,-90 270.5,-96 270.5,-96 270.5,-108 270.5,-108 270.5,-114 264.5,-120 258.5,-120"/>
<text xml:space="preserve" text-anchor="middle" x="143.25" y="-97.72" font-family="Helvetica,sans-Serif" font-size="12.00">Pipeline run run&#45;20260616T155650273588Z</text>
</a>
</g>
</g>
<!-- n8240943909089393696&#45;&gt;n1595818708399073554 -->
<g id="edge2" class="edge">
<title>n8240943909089393696&#45;&gt;n1595818708399073554</title>
<path fill="none" stroke="#334155" stroke-width="1.6" d="M270.79,-100.5C373.2,-100.5 500,-100.5 500,-100.5 500,-100.5 500,-75.9 500,-75.9"/>
<polygon fill="#334155" stroke="#334155" stroke-width="1.6" points="503.5,-75.9 500,-65.9 496.5,-75.9 503.5,-75.9"/>
<text xml:space="preserve" text-anchor="middle" x="363" y="-72.5" font-family="Helvetica,sans-Serif" font-size="10.00">wasAssociatedWith</text>
</g>
<!-- n8240943909089393696&#45;&gt;n6413547547848628198 -->
<g id="edge1" class="edge">
<title>n8240943909089393696&#45;&gt;n6413547547848628198</title>
<path fill="none" stroke="#334155" stroke-width="1.6" d="M252,-120.46C252,-128.66 252,-136.5 252,-136.5 252,-136.5 498.11,-136.5 498.11,-136.5"/>
<polygon fill="#334155" stroke="#334155" stroke-width="1.6" points="498.11,-140 508.11,-136.5 498.11,-133 498.11,-140"/>
<text xml:space="preserve" text-anchor="middle" x="363" y="-143.5" font-family="Helvetica,sans-Serif" font-size="10.00">wasAssociatedWith</text>
</g>
<!-- n4430715378961269287 -->
<g id="node4" class="node">
<title>n4430715378961269287</title>
<g id="a_node4"><a xlink:title="tres:5000002&#45;00.2025.4.02.5001">
<path fill="#e0e7ff" stroke="#4338ca" d="M632.75,-266C632.75,-266 467.5,-266 467.5,-266 461.5,-266 455.5,-260 455.5,-254 455.5,-254 455.5,-242 455.5,-242 455.5,-236 461.5,-230 467.5,-230 467.5,-230 632.75,-230 632.75,-230 638.75,-230 644.75,-236 644.75,-242 644.75,-242 644.75,-254 644.75,-254 644.75,-260 638.75,-266 632.75,-266"/>
<text xml:space="preserve" text-anchor="middle" x="550.12" y="-243.72" font-family="Helvetica,sans-Serif" font-size="12.00">tres:5000002&#45;00.2025.4.02.5001</text>
</a>
</g>
</g>
<!-- n3076402715075887282 -->
<g id="node7" class="node">
<title>n3076402715075887282</title>
<g id="a_node7"><a xlink:title="Theme 309 Thesis&#10;&#10;description: O auxilio&#45;alimentacao integra a base de calculo da licenca&#45;premio nao usufruida.">
<path fill="#ecfccb" stroke="#4d7c0f" d="M905,-266C905,-266 813.25,-266 813.25,-266 807.25,-266 801.25,-260 801.25,-254 801.25,-254 801.25,-242 801.25,-242 801.25,-236 807.25,-230 813.25,-230 813.25,-230 905,-230 905,-230 911,-230 917,-236 917,-242 917,-242 917,-254 917,-254 917,-260 911,-266 905,-266"/>
<text xml:space="preserve" text-anchor="middle" x="859.12" y="-243.72" font-family="Helvetica,sans-Serif" font-size="12.00">Theme 309 Thesis</text>
</a>
</g>
</g>
<!-- n4430715378961269287&#45;&gt;n3076402715075887282 -->
<g id="edge5" class="edge">
<title>n4430715378961269287&#45;&gt;n3076402715075887282</title>
<path fill="none" stroke="#334155" stroke-width="1.6" d="M644.94,-248C644.94,-248 788.46,-248 788.46,-248"/>
<polygon fill="#334155" stroke="#334155" stroke-width="1.6" points="788.46,-251.5 798.46,-248 788.46,-244.5 788.46,-251.5"/>
<text xml:space="preserve" text-anchor="middle" x="723" y="-250.5" font-family="Helvetica,sans-Serif" font-size="10.00">adoptsThesis</text>
</g>
<!-- n6149152999716463668 -->
<g id="node5" class="node">
<title>n6149152999716463668</title>
<g id="a_node5"><a xlink:title="rs:5000002&#45;00.2025.4.02.5001">
<path fill="#fee2e2" stroke="#b91c1c" d="M221,-266C221,-266 65.5,-266 65.5,-266 59.5,-266 53.5,-260 53.5,-254 53.5,-254 53.5,-242 53.5,-242 53.5,-236 59.5,-230 65.5,-230 65.5,-230 221,-230 221,-230 227,-230 233,-236 233,-242 233,-242 233,-254 233,-254 233,-260 227,-266 221,-266"/>
<text xml:space="preserve" text-anchor="middle" x="143.25" y="-243.72" font-family="Helvetica,sans-Serif" font-size="12.00">rs:5000002&#45;00.2025.4.02.5001</text>
</a>
</g>
</g>
<!-- n6149152999716463668&#45;&gt;n4430715378961269287 -->
<g id="edge3" class="edge">
<title>n6149152999716463668&#45;&gt;n4430715378961269287</title>
<path fill="none" stroke="#334155" stroke-width="1.6" d="M233.3,-248C233.3,-248 442.59,-248 442.59,-248"/>
<polygon fill="#334155" stroke="#334155" stroke-width="1.6" points="442.59,-251.5 452.59,-248 442.59,-244.5 442.59,-251.5"/>
<text xml:space="preserve" text-anchor="middle" x="363" y="-250.5" font-family="Helvetica,sans-Serif" font-size="10.00">isFiledAgainst</text>
</g>
<!-- n8075099499263761582 -->
<g id="node6" class="node">
<title>n8075099499263761582</title>
<g id="a_node6"><a xlink:title="Tema 309 &#45; JULGADO">
<path fill="#dcfce7" stroke="#15803d" d="M1184,-266C1184,-266 1072.75,-266 1072.75,-266 1066.75,-266 1060.75,-260 1060.75,-254 1060.75,-254 1060.75,-242 1060.75,-242 1060.75,-236 1066.75,-230 1072.75,-230 1072.75,-230 1184,-230 1184,-230 1190,-230 1196,-236 1196,-242 1196,-242 1196,-254 1196,-254 1196,-260 1190,-266 1184,-266"/>
<text xml:space="preserve" text-anchor="middle" x="1128.38" y="-243.72" font-family="Helvetica,sans-Serif" font-size="12.00">Tema 309 &#45; JULGADO</text>
</a>
</g>
</g>
<!-- n3076402715075887282&#45;&gt;n8075099499263761582 -->
<g id="edge4" class="edge">
<title>n3076402715075887282&#45;&gt;n8075099499263761582</title>
<path fill="none" stroke="#334155" stroke-width="1.6" d="M917.22,-248C917.22,-248 1047.98,-248 1047.98,-248"/>
<polygon fill="#334155" stroke="#334155" stroke-width="1.6" points="1047.98,-251.5 1057.98,-248 1047.98,-244.5 1047.98,-251.5"/>
<text xml:space="preserve" text-anchor="middle" x="988.88" y="-256.5" font-family="Helvetica,sans-Serif" font-size="10.00">hasTheme</text>
</g>
</g>
</svg>
