<?xml version="1.0" encoding="UTF-8" standalone="no"?>
<!DOCTYPE svg PUBLIC "-//W3C//DTD SVG 1.1//EN"
 "http://www.w3.org/Graphics/SVG/1.1/DTD/svg11.dtd">
<!-- Generated by graphviz version 14.1.2 (20260124.0452)
 -->
<!-- Title: rdf_graph Pages: 1 -->
<svg width="1314pt" height="564pt"
 viewBox="0.00 0.00 1314.00 564.00" xmlns="http://www.w3.org/2000/svg" xmlns:xlink="http://www.w3.org/1999/xlink">
<g id="graph0" class="graph" transform="scale(1 1) rotate(0) translate(25.2 539.2)">
<title>rdf_graph</title>
<polygon fill="white" stroke="none" points="-25.2,25.2 -25.2,-539.2 1288.95,-539.2 1288.95,25.2 -25.2,25.2"/>
<g id="clust1" class="cluster">
<title>cluster_workflow</title>
<path fill="white" stroke="#93c5fd" stroke-width="1.2" stroke-dasharray="5,2" d="M20,-159C20,-159 686.12,-159 686.12,-159 692.12,-159 698.12,-165 698.12,-171 698.12,-171 698.12,-404 698.12,-404 698.12,-410 692.12,-416 686.12,-416 686.12,-416 20,-416 20,-416 14,-416 8,-410 8,-404 8,-404 8,-171 8,-171 8,-165 14,-159 20,-159"/>
<text xml:space="preserve" text-anchor="middle" x="353.06" y="-398.7" font-family="Times New Roman,serif" font-size="14.00">Workflow / Agents</text>
</g>
<g id="clust2" class="cluster">
<title>cluster_decision</title>
<path fill="white" stroke="#a5b4fc" stroke-width="1.2" stroke-dasharray="5,2" d="M539,-74C539,-74 720.25,-74 720.25,-74 726.25,-74 732.25,-80 732.25,-86 732.25,-86 732.25,-139 732.25,-139 732.25,-145 726.25,-151 720.25,-151 720.25,-151 539,-151 539,-151 533,-151 527,-145 527,-139 527,-139 527,-86 527,-86 527,-80 533,-74 539,-74"/>
<text xml:space="preserve" text-anchor="middle" x="629.62" y="-133.7" font-family="Times New Roman,serif" font-size="14.00">Decision</text>
</g>
<g id="clust3" class="cluster">
<title>cluster_theme</title>
<path fill="white" stroke="#86efac" stroke-width="1.2" stroke-dasharray="5,2" d="M884.75,-44C884.75,-44 1243.75,-44 1243.75,-44 1249.75,-44 1255.75,-50 1255.75,-56 1255.75,-56 1255.75,-139 1255.75,-139 1255.75,-145 1249.75,-151 1243.75,-151 1243.75,-151 884.75,-151 884.75,-151 878.75,-151 872.75,-145 872.75,-139 872.75,-139 872.75,-56 872.75,-56 872.75,-50 878.75,-44 884.75,-44"/>
<text xml:space="preserve" text-anchor="middle" x="1064.25" y="-133.7" font-family="Times New Roman,serif" font-size="14.00">Theme / Thesis</text>
</g>
<g id="clust4" class="cluster">
<title>cluster_document</title>
<path fill="white" stroke="#f9a8d4" stroke-width="1.2" stroke-dasharray="5,2" d="M23.38,-429C23.38,-429 342.62,-429 342.62,-429 348.62,-429 354.62,-435 354.62,-441 354.62,-441 354.62,-494 354.62,-494 354.62,-500 348.62,-506 342.62,-506 342.62,-506 23.38,-506 23.38,-506 17.38,-506 11.38,-500 11.38,-494 11.38,-494 11.38,-441 11.38,-441 11.38,-435 17.38,-429 23.38,-429"/>
<text xml:space="preserve" text-anchor="middle" x="183" y="-488.7" font-family="Times New Roman,serif" font-size="14.00">Document Outcome</text>
</g>
<!-- n3942516848187982206 -->
<g id="node1" class="node">
<title>n3942516848187982206</title>
<g id="a_node1"><a xlink:title="gemini:3&#45;1&#45;flash&#45;lite">
<path fill="#dbeafe" stroke="#1d4ed8" d="M678.12,-239C678.12,-239 581.12,-239 581.12,-239 575.12,-239 569.12,-233 569.12,-227 569.12,-227 569.12,-215 569.12,-215 569.12,-209 575.12,-203 581.12,-203 581.12,-203 678.12,-203 678.12,-203 684.12,-203 690.12,-209 690.12,-215 690.12,-215 690.12,-227 690.12,-227 690.12,-233 684.12,-239 678.12,-239"/>
<text xml:space="preserve" text-anchor="middle" x="629.62" y="-216.72" font-family="Helvetica,sans-Serif" font-size="12.00">gemini:3&#45;1&#45;flash&#45;lite</text>
</a>
</g>
</g>
<!-- n8444953960626924299 -->
<g id="node2" class="node">
<title>n8444953960626924299</title>
<g id="a_node2"><a xlink:title="jdd:classification&#45;fba78895&#45;982e&#45;50a0&#45;ba28&#45;548876bf7cca">
<polygon fill="#dbeafe" stroke="#1d4ed8" points="348.12,-203 17.88,-203 17.88,-199 13.88,-199 13.88,-195 17.88,-195 17.88,-175 13.88,-175 13.88,-171 17.88,-171 17.88,-167 348.12,-167 348.12,-203"/>
<polyline fill="none" stroke="#1d4ed8" points="17.88,-199 21.88,-199 21.88,-195 17.88,-195"/>
<polyline fill="none" stroke="#1d4ed8" points="17.88,-175 21.88,-175 21.88,-171 17.88,-171"/>
<text xml:space="preserve" text-anchor="middle" x="183" y="-180.72" font-family="Helvetica,sans-Serif" font-size="12.00">jdd:classification&#45;fba78895&#45;982e&#45;50a0&#45;ba28&#45;548876bf7cca</text>
</a>
</g>
</g>
<!-- n8444953960626924299&#45;&gt;n3942516848187982206 -->
<g id="edge3" class="edge">
<title>n8444953960626924299&#45;&gt;n3942516848187982206</title>
<path fill="none" stroke="#334155" stroke-width="1.6" d="M348.4,-194C475.6,-194 629.75,-194 629.75,-194 629.75,-194 629.75,-194.85 629.75,-194.85"/>
<polygon fill="#334155" stroke="#334155" stroke-width="1.6" points="626.25,-190.12 629.75,-200.12 633.25,-190.12 626.25,-190.12"/>
<text xml:space="preserve" text-anchor="middle" x="442.5" y="-223.5" font-family="Helvetica,sans-Serif" font-size="10.00">wasAssociatedWith</text>
</g>
<!-- n3819263981812541177 -->
<g id="node5" class="node">
<title>n3819263981812541177</title>
<g id="a_node5"><a xlink:title="tres:5022737&#45;72.2025.4.02.5001&#10;&#10;subject: Aposentadoria por Idade &#45; Urbana (art. 48/51), Aposentadoria por Idade (Art. 48/51), Benefícios em Espécie, DIREITO PREVIDENCIÁRIO">
<path fill="#e0e7ff" stroke="#4338ca" d="M712.25,-118C712.25,-118 547,-118 547,-118 541,-118 535,-112 535,-106 535,-106 535,-94 535,-94 535,-88 541,-82 547,-82 547,-82 712.25,-82 712.25,-82 718.25,-82 724.25,-88 724.25,-94 724.25,-94 724.25,-106 724.25,-106 724.25,-112 718.25,-118 712.25,-118"/>
<text xml:space="preserve" text-anchor="middle" x="629.62" y="-95.72" font-family="Helvetica,sans-Serif" font-size="12.00">tres:5022737&#45;72.2025.4.02.5001</text>
</a>
</g>
</g>
<!-- n8444953960626924299&#45;&gt;n3819263981812541177 -->
<g id="edge2" class="edge">
<title>n8444953960626924299&#45;&gt;n3819263981812541177</title>
<path fill="none" stroke="#334155" stroke-width="1.6" d="M348.5,-176C446.53,-176 551.75,-176 551.75,-176 551.75,-176 551.75,-130.82 551.75,-130.82"/>
<polygon fill="#334155" stroke="#334155" stroke-width="1.6" points="555.25,-130.82 551.75,-120.82 548.25,-130.82 555.25,-130.82"/>
<text xml:space="preserve" text-anchor="middle" x="442.5" y="-127.5" font-family="Helvetica,sans-Serif" font-size="10.00">used</text>
</g>
<!-- n7042169098915346261 -->
<g id="node6" class="node">
<title>n7042169098915346261</title>
<g id="a_node6"><a xlink:title="Tema 27 &#45; Julgado">
<path fill="#dcfce7" stroke="#15803d" d="M1235.75,-103C1235.75,-103 1145.5,-103 1145.5,-103 1139.5,-103 1133.5,-97 1133.5,-91 1133.5,-91 1133.5,-79 1133.5,-79 1133.5,-73 1139.5,-67 1145.5,-67 1145.5,-67 1235.75,-67 1235.75,-67 1241.75,-67 1247.75,-73 1247.75,-79 1247.75,-79 1247.75,-91 1247.75,-91 1247.75,-97 1241.75,-103 1235.75,-103"/>
<text xml:space="preserve" text-anchor="middle" x="1190.62" y="-80.72" font-family="Helvetica,sans-Serif" font-size="12.00">Tema 27 &#45; Julgado</text>
</a>
</g>
</g>
<!-- n8444953960626924299&#45;&gt;n7042169098915346261 -->
<g id="edge1" class="edge">
<title>n8444953960626924299&#45;&gt;n7042169098915346261</title>
<path fill="none" stroke="#334155" stroke-width="1.6" d="M348.56,-185C634.54,-185 1190.75,-185 1190.75,-185 1190.75,-185 1190.75,-115.76 1190.75,-115.76"/>
<polygon fill="#334155" stroke="#334155" stroke-width="1.6" points="1194.25,-115.76 1190.75,-105.76 1187.25,-115.76 1194.25,-115.76"/>
<text xml:space="preserve" text-anchor="middle" x="802.5" y="-2.5" font-family="Helvetica,sans-Serif" font-size="10.00">used</text>
</g>
<!-- n3878682370543064056 -->
<g id="node3" class="node">
<title>n3878682370543064056</title>
<g id="a_node3"><a xlink:title="jdd:pipeline">
<path fill="#dbeafe" stroke="#1d4ed8" d="M210.12,-293C210.12,-293 155.88,-293 155.88,-293 149.88,-293 143.88,-287 143.88,-281 143.88,-281 143.88,-269 143.88,-269 143.88,-263 149.88,-257 155.88,-257 155.88,-257 210.12,-257 210.12,-257 216.12,-257 222.12,-263 222.12,-269 222.12,-269 222.12,-281 222.12,-281 222.12,-287 216.12,-293 210.12,-293"/>
<text xml:space="preserve" text-anchor="middle" x="183" y="-270.73" font-family="Helvetica,sans-Serif" font-size="12.00">jdd:pipeline</text>
</a>
</g>
</g>
<!-- n1889014188545814947 -->
<g id="node4" class="node">
<title>n1889014188545814947</title>
<g id="a_node4"><a xlink:title="jdd:pipeline&#45;run&#45;ad21b76b&#45;7830&#45;585a&#45;8262&#45;9db528bd4062">
<path fill="#dbeafe" stroke="#1d4ed8" d="M338,-383C338,-383 28,-383 28,-383 22,-383 16,-377 16,-371 16,-371 16,-359 16,-359 16,-353 22,-347 28,-347 28,-347 338,-347 338,-347 344,-347 350,-353 350,-359 350,-359 350,-371 350,-371 350,-377 344,-383 338,-383"/>
<text xml:space="preserve" text-anchor="middle" x="183" y="-360.73" font-family="Helvetica,sans-Serif" font-size="12.00">jdd:pipeline&#45;run&#45;ad21b76b&#45;7830&#45;585a&#45;8262&#45;9db528bd4062</text>
</a>
</g>
</g>
<!-- n2503041467489203130 -->
<g id="node7" class="node">
<title>n2503041467489203130</title>
<g id="a_node7"><a xlink:title="Theme 27 Thesis&#10;&#10;description: Aplica&#45;se a tabela progressiva prevista no art. 142 da Lei n. 8.213/91, no caso de aposentadoria por idade urbana, considerando&#45;se como marco temporal para apuração da carência o ano em que o segurado completa a idade...">
<path fill="#ecfccb" stroke="#4d7c0f" d="M977.75,-118C977.75,-118 892.75,-118 892.75,-118 886.75,-118 880.75,-112 880.75,-106 880.75,-106 880.75,-94 880.75,-94 880.75,-88 886.75,-82 892.75,-82 892.75,-82 977.75,-82 977.75,-82 983.75,-82 989.75,-88 989.75,-94 989.75,-94 989.75,-106 989.75,-106 989.75,-112 983.75,-118 977.75,-118"/>
<text xml:space="preserve" text-anchor="middle" x="935.25" y="-95.72" font-family="Helvetica,sans-Serif" font-size="12.00">Theme 27 Thesis</text>
</a>
</g>
</g>
<!-- n3819263981812541177&#45;&gt;n2503041467489203130 -->
<g id="edge5" class="edge">
<title>n3819263981812541177&#45;&gt;n2503041467489203130</title>
<path fill="none" stroke="#334155" stroke-width="1.6" d="M724.65,-100C724.65,-100 867.94,-100 867.94,-100"/>
<polygon fill="#334155" stroke="#334155" stroke-width="1.6" points="867.94,-103.5 877.94,-100 867.94,-96.5 867.94,-103.5"/>
<text xml:space="preserve" text-anchor="middle" x="802.5" y="-102.5" font-family="Helvetica,sans-Serif" font-size="10.00">adoptsThesis</text>
</g>
<!-- n2503041467489203130&#45;&gt;n7042169098915346261 -->
<g id="edge4" class="edge">
<title>n2503041467489203130&#45;&gt;n7042169098915346261</title>
<path fill="none" stroke="#334155" stroke-width="1.6" d="M990.03,-92.5C990.03,-92.5 1120.85,-92.5 1120.85,-92.5"/>
<polygon fill="#334155" stroke="#334155" stroke-width="1.6" points="1120.85,-96 1130.85,-92.5 1120.85,-89 1120.85,-96"/>
<text xml:space="preserve" text-anchor="middle" x="1061.62" y="-108.5" font-family="Helvetica,sans-Serif" font-size="10.00">hasTheme</text>
</g>
<!-- n6653049094541078894 -->
<g id="node8" class="node">
<title>n6653049094541078894</title>
<g id="a_node8"><a xlink:title="jdd:admissibility&#45;406cbd6d&#45;334c&#45;5fed&#45;8b73&#45;8f05a0631625">
<path fill="#fce7f3" stroke="#be185d" d="M334.62,-473C334.62,-473 31.38,-473 31.38,-473 25.38,-473 19.38,-467 19.38,-461 19.38,-461 19.38,-449 19.38,-449 19.38,-443 25.38,-437 31.38,-437 31.38,-437 334.62,-437 334.62,-437 340.62,-437 346.62,-443 346.62,-449 346.62,-449 346.62,-461 346.62,-461 346.62,-467 340.62,-473 334.62,-473"/>
<text xml:space="preserve" text-anchor="middle" x="183" y="-450.73" font-family="Helvetica,sans-Serif" font-size="12.00">jdd:admissibility&#45;406cbd6d&#45;334c&#45;5fed&#45;8b73&#45;8f05a0631625</text>
</a>
</g>
</g>
</g>
</svg>
