<?xml version="1.0" encoding="UTF-8" standalone="no"?>
<!DOCTYPE svg PUBLIC "-//W3C//DTD SVG 1.1//EN"
 "http://www.w3.org/Graphics/SVG/1.1/DTD/svg11.dtd">
<!-- Generated by graphviz version 14.1.2 (20260124.0452)
 -->
<!-- Title: rdf_graph Pages: 1 -->
<svg width="1310pt" height="564pt"
 viewBox="0.00 0.00 1310.00 564.00" xmlns="http://www.w3.org/2000/svg" xmlns:xlink="http://www.w3.org/1999/xlink">
<g id="graph0" class="graph" transform="scale(1 1) rotate(0) translate(25.2 539.2)">
<title>rdf_graph</title>
<polygon fill="white" stroke="none" points="-25.2,25.2 -25.2,-539.2 1285.2,-539.2 1285.2,25.2 -25.2,25.2"/>
<g id="clust1" class="cluster">
<title>cluster_workflow</title>
<path fill="white" stroke="#93c5fd" stroke-width="1.2" stroke-dasharray="5,2" d="M20,-159C20,-159 682.38,-159 682.38,-159 688.38,-159 694.38,-165 694.38,-171 694.38,-171 694.38,-404 694.38,-404 694.38,-410 688.38,-416 682.38,-416 682.38,-416 20,-416 20,-416 14,-416 8,-410 8,-404 8,-404 8,-171 8,-171 8,-165 14,-159 20,-159"/>
<text xml:space="preserve" text-anchor="middle" x="351.19" y="-398.7" font-family="Times New Roman,serif" font-size="14.00">Workflow / Agents</text>
</g>
<g id="clust2" class="cluster">
<title>cluster_decision</title>
<path fill="white" stroke="#a5b4fc" stroke-width="1.2" stroke-dasharray="5,2" d="M535.25,-74C535.25,-74 716.5,-74 716.5,-74 722.5,-74 728.5,-80 728.5,-86 728.5,-86 728.5,-139 728.5,-139 728.5,-145 722.5,-151 716.5,-151 716.5,-151 535.25,-151 535.25,-151 529.25,-151 523.25,-145 523.25,-139 523.25,-139 523.25,-86 523.25,-86 523.25,-80 529.25,-74 535.25,-74"/>
<text xml:space="preserve" text-anchor="middle" x="625.88" y="-133.7" font-family="Times New Roman,serif" font-size="14.00">Decision</text>
</g>
<g id="clust3" class="cluster">
<title>cluster_theme</title>
<path fill="white" stroke="#86efac" stroke-width="1.2" stroke-dasharray="5,2" d="M881,-44C881,-44 1240,-44 1240,-44 1246,-44 1252,-50 1252,-56 1252,-56 1252,-139 1252,-139 1252,-145 1246,-151 1240,-151 1240,-151 881,-151 881,-151 875,-151 869,-145 869,-139 869,-139 869,-56 869,-56 869,-50 875,-44 881,-44"/>
<text xml:space="preserve" text-anchor="middle" x="1060.5" y="-133.7" font-family="Times New Roman,serif" font-size="14.00">Theme / Thesis</text>
</g>
<g id="clust4" class="cluster">
<title>cluster_document</title>
<path fill="white" stroke="#f9a8d4" stroke-width="1.2" stroke-dasharray="5,2" d="M21.5,-429C21.5,-429 340.75,-429 340.75,-429 346.75,-429 352.75,-435 352.75,-441 352.75,-441 352.75,-494 352.75,-494 352.75,-500 346.75,-506 340.75,-506 340.75,-506 21.5,-506 21.5,-506 15.5,-506 9.5,-500 9.5,-494 9.5,-494 9.5,-441 9.5,-441 9.5,-435 15.5,-429 21.5,-429"/>
<text xml:space="preserve" text-anchor="middle" x="181.12" y="-488.7" font-family="Times New Roman,serif" font-size="14.00">Document Outcome</text>
</g>
<!-- n5365701602983008385 -->
<g id="node1" class="node">
<title>n5365701602983008385</title>
<g id="a_node1"><a xlink:title="gemini:3&#45;1&#45;flash&#45;lite">
<path fill="#dbeafe" stroke="#1d4ed8" d="M674.38,-239C674.38,-239 577.38,-239 577.38,-239 571.38,-239 565.38,-233 565.38,-227 565.38,-227 565.38,-215 565.38,-215 565.38,-209 571.38,-203 577.38,-203 577.38,-203 674.38,-203 674.38,-203 680.38,-203 686.38,-209 686.38,-215 686.38,-215 686.38,-227 686.38,-227 686.38,-233 680.38,-239 674.38,-239"/>
<text xml:space="preserve" text-anchor="middle" x="625.88" y="-216.72" font-family="Helvetica,sans-Serif" font-size="12.00">gemini:3&#45;1&#45;flash&#45;lite</text>
</a>
</g>
</g>
<!-- n416683853362840927 -->
<g id="node2" class="node">
<title>n416683853362840927</title>
<g id="a_node2"><a xlink:title="jdd:classification&#45;fba78895&#45;982e&#45;50a0&#45;ba28&#45;548876bf7cca">
<polygon fill="#dbeafe" stroke="#1d4ed8" points="346.25,-203 16,-203 16,-199 12,-199 12,-195 16,-195 16,-175 12,-175 12,-171 16,-171 16,-167 346.25,-167 346.25,-203"/>
<polyline fill="none" stroke="#1d4ed8" points="16,-199 20,-199 20,-195 16,-195"/>
<polyline fill="none" stroke="#1d4ed8" points="16,-175 20,-175 20,-171 16,-171"/>
<text xml:space="preserve" text-anchor="middle" x="181.12" y="-180.72" font-family="Helvetica,sans-Serif" font-size="12.00">jdd:classification&#45;fba78895&#45;982e&#45;50a0&#45;ba28&#45;548876bf7cca</text>
</a>
</g>
</g>
<!-- n416683853362840927&#45;&gt;n5365701602983008385 -->
<g id="edge3" class="edge">
<title>n416683853362840927&#45;&gt;n5365701602983008385</title>
<path fill="none" stroke="#334155" stroke-width="1.6" d="M346.46,-194C473.01,-194 626,-194 626,-194 626,-194 626,-194.85 626,-194.85"/>
<polygon fill="#334155" stroke="#334155" stroke-width="1.6" points="622.5,-190.12 626,-200.12 629.5,-190.12 622.5,-190.12"/>
<text xml:space="preserve" text-anchor="middle" x="438.75" y="-223.5" font-family="Helvetica,sans-Serif" font-size="10.00">wasAssociatedWith</text>
</g>
<!-- n2069111730538847524 -->
<g id="node5" class="node">
<title>n2069111730538847524</title>
<g id="a_node5"><a xlink:title="tres:5022737&#45;72.2025.4.02.5001&#10;&#10;subject: Aposentadoria por Idade &#45; Urbana (art. 48/51), Aposentadoria por Idade (Art. 48/51), Benefícios em Espécie, DIREITO PREVIDENCIÁRIO">
<path fill="#e0e7ff" stroke="#4338ca" d="M708.5,-118C708.5,-118 543.25,-118 543.25,-118 537.25,-118 531.25,-112 531.25,-106 531.25,-106 531.25,-94 531.25,-94 531.25,-88 537.25,-82 543.25,-82 543.25,-82 708.5,-82 708.5,-82 714.5,-82 720.5,-88 720.5,-94 720.5,-94 720.5,-106 720.5,-106 720.5,-112 714.5,-118 708.5,-118"/>
<text xml:space="preserve" text-anchor="middle" x="625.88" y="-95.72" font-family="Helvetica,sans-Serif" font-size="12.00">tres:5022737&#45;72.2025.4.02.5001</text>
</a>
</g>
</g>
<!-- n416683853362840927&#45;&gt;n2069111730538847524 -->
<g id="edge2" class="edge">
<title>n416683853362840927&#45;&gt;n2069111730538847524</title>
<path fill="none" stroke="#334155" stroke-width="1.6" d="M346.58,-176C443.89,-176 548,-176 548,-176 548,-176 548,-130.82 548,-130.82"/>
<polygon fill="#334155" stroke="#334155" stroke-width="1.6" points="551.5,-130.82 548,-120.82 544.5,-130.82 551.5,-130.82"/>
<text xml:space="preserve" text-anchor="middle" x="438.75" y="-127.5" font-family="Helvetica,sans-Serif" font-size="10.00">used</text>
</g>
<!-- n4490766699686510753 -->
<g id="node6" class="node">
<title>n4490766699686510753</title>
<g id="a_node6"><a xlink:title="Tema 27 &#45; Julgado">
<path fill="#dcfce7" stroke="#15803d" d="M1232,-103C1232,-103 1141.75,-103 1141.75,-103 1135.75,-103 1129.75,-97 1129.75,-91 1129.75,-91 1129.75,-79 1129.75,-79 1129.75,-73 1135.75,-67 1141.75,-67 1141.75,-67 1232,-67 1232,-67 1238,-67 1244,-73 1244,-79 1244,-79 1244,-91 1244,-91 1244,-97 1238,-103 1232,-103"/>
<text xml:space="preserve" text-anchor="middle" x="1186.88" y="-80.72" font-family="Helvetica,sans-Serif" font-size="12.00">Tema 27 &#45; Julgado</text>
</a>
</g>
</g>
<!-- n416683853362840927&#45;&gt;n4490766699686510753 -->
<g id="edge1" class="edge">
<title>n416683853362840927&#45;&gt;n4490766699686510753</title>
<path fill="none" stroke="#334155" stroke-width="1.6" d="M346.66,-185C632.19,-185 1187,-185 1187,-185 1187,-185 1187,-115.76 1187,-115.76"/>
<polygon fill="#334155" stroke="#334155" stroke-width="1.6" points="1190.5,-115.76 1187,-105.76 1183.5,-115.76 1190.5,-115.76"/>
<text xml:space="preserve" text-anchor="middle" x="798.75" y="-2.5" font-family="Helvetica,sans-Serif" font-size="10.00">used</text>
</g>
<!-- n6240078696460906364 -->
<g id="node3" class="node">
<title>n6240078696460906364</title>
<g id="a_node3"><a xlink:title="jdd:pipeline">
<path fill="#dbeafe" stroke="#1d4ed8" d="M208.25,-293C208.25,-293 154,-293 154,-293 148,-293 142,-287 142,-281 142,-281 142,-269 142,-269 142,-263 148,-257 154,-257 154,-257 208.25,-257 208.25,-257 214.25,-257 220.25,-263 220.25,-269 220.25,-269 220.25,-281 220.25,-281 220.25,-287 214.25,-293 208.25,-293"/>
<text xml:space="preserve" text-anchor="middle" x="181.12" y="-270.73" font-family="Helvetica,sans-Serif" font-size="12.00">jdd:pipeline</text>
</a>
</g>
</g>
<!-- n4191764718777993571 -->
<g id="node4" class="node">
<title>n4191764718777993571</title>
<g id="a_node4"><a xlink:title="jdd:pipeline&#45;run&#45;ecefdf5c&#45;b6d6&#45;578e&#45;af08&#45;ddf6eb029406">
<path fill="#dbeafe" stroke="#1d4ed8" d="M327.88,-383C327.88,-383 34.38,-383 34.38,-383 28.38,-383 22.38,-377 22.38,-371 22.38,-371 22.38,-359 22.38,-359 22.38,-353 28.38,-347 34.38,-347 34.38,-347 327.88,-347 327.88,-347 333.88,-347 339.88,-353 339.88,-359 339.88,-359 339.88,-371 339.88,-371 339.88,-377 333.88,-383 327.88,-383"/>
<text xml:space="preserve" text-anchor="middle" x="181.12" y="-360.73" font-family="Helvetica,sans-Serif" font-size="12.00">jdd:pipeline&#45;run&#45;ecefdf5c&#45;b6d6&#45;578e&#45;af08&#45;ddf6eb029406</text>
</a>
</g>
</g>
<!-- n6743174987694396490 -->
<g id="node7" class="node">
<title>n6743174987694396490</title>
<g id="a_node7"><a xlink:title="Theme 27 Thesis&#10;&#10;description: Aplica&#45;se a tabela progressiva prevista no art. 142 da Lei n. 8.213/91, no caso de aposentadoria por idade urbana, considerando&#45;se como marco temporal para apuração da carência o ano em que o segurado completa a idade...">
<path fill="#ecfccb" stroke="#4d7c0f" d="M974,-118C974,-118 889,-118 889,-118 883,-118 877,-112 877,-106 877,-106 877,-94 877,-94 877,-88 883,-82 889,-82 889,-82 974,-82 974,-82 980,-82 986,-88 986,-94 986,-94 986,-106 986,-106 986,-112 980,-118 974,-118"/>
<text xml:space="preserve" text-anchor="middle" x="931.5" y="-95.72" font-family="Helvetica,sans-Serif" font-size="12.00">Theme 27 Thesis</text>
</a>
</g>
</g>
<!-- n2069111730538847524&#45;&gt;n6743174987694396490 -->
<g id="edge5" class="edge">
<title>n2069111730538847524&#45;&gt;n6743174987694396490</title>
<path fill="none" stroke="#334155" stroke-width="1.6" d="M720.9,-100C720.9,-100 864.19,-100 864.19,-100"/>
<polygon fill="#334155" stroke="#334155" stroke-width="1.6" points="864.19,-103.5 874.19,-100 864.19,-96.5 864.19,-103.5"/>
<text xml:space="preserve" text-anchor="middle" x="798.75" y="-102.5" font-family="Helvetica,sans-Serif" font-size="10.00">adoptsThesis</text>
</g>
<!-- n6743174987694396490&#45;&gt;n4490766699686510753 -->
<g id="edge4" class="edge">
<title>n6743174987694396490&#45;&gt;n4490766699686510753</title>
<path fill="none" stroke="#334155" stroke-width="1.6" d="M986.28,-92.5C986.28,-92.5 1117.1,-92.5 1117.1,-92.5"/>
<polygon fill="#334155" stroke="#334155" stroke-width="1.6" points="1117.1,-96 1127.1,-92.5 1117.1,-89 1117.1,-96"/>
<text xml:space="preserve" text-anchor="middle" x="1057.88" y="-108.5" font-family="Helvetica,sans-Serif" font-size="10.00">hasTheme</text>
</g>
<!-- n113649927894922050 -->
<g id="node8" class="node">
<title>n113649927894922050</title>
<g id="a_node8"><a xlink:title="jdd:admissibility&#45;406cbd6d&#45;334c&#45;5fed&#45;8b73&#45;8f05a0631625">
<path fill="#fce7f3" stroke="#be185d" d="M332.75,-473C332.75,-473 29.5,-473 29.5,-473 23.5,-473 17.5,-467 17.5,-461 17.5,-461 17.5,-449 17.5,-449 17.5,-443 23.5,-437 29.5,-437 29.5,-437 332.75,-437 332.75,-437 338.75,-437 344.75,-443 344.75,-449 344.75,-449 344.75,-461 344.75,-461 344.75,-467 338.75,-473 332.75,-473"/>
<text xml:space="preserve" text-anchor="middle" x="181.12" y="-450.73" font-family="Helvetica,sans-Serif" font-size="12.00">jdd:admissibility&#45;406cbd6d&#45;334c&#45;5fed&#45;8b73&#45;8f05a0631625</text>
</a>
</g>
</g>
</g>
</svg>
