<?xml version="1.0" encoding="UTF-8" standalone="no"?>
<!DOCTYPE svg PUBLIC "-//W3C//DTD SVG 1.1//EN"
 "http://www.w3.org/Graphics/SVG/1.1/DTD/svg11.dtd">
<!-- Generated by graphviz version 14.1.2 (20260124.0452)
 -->
<!-- Title: rdf_graph Pages: 1 -->
<svg width="2567pt" height="987pt"
 viewBox="0.00 0.00 2567.00 987.00" xmlns="http://www.w3.org/2000/svg" xmlns:xlink="http://www.w3.org/1999/xlink">
<g id="graph0" class="graph" transform="scale(1 1) rotate(0) translate(25.2 962.2)">
<title>rdf_graph</title>
<polygon fill="white" stroke="none" points="-25.2,25.2 -25.2,-962.2 2541.95,-962.2 2541.95,25.2 -25.2,25.2"/>
<g id="clust1" class="cluster">
<title>cluster_workflow</title>
<path fill="white" stroke="#93c5fd" stroke-width="1.2" stroke-dasharray="5,2" d="M601.62,-672C601.62,-672 2024.5,-672 2024.5,-672 2030.5,-672 2036.5,-678 2036.5,-684 2036.5,-684 2036.5,-838 2036.5,-838 2036.5,-844 2030.5,-850 2024.5,-850 2024.5,-850 601.62,-850 601.62,-850 595.62,-850 589.62,-844 589.62,-838 589.62,-838 589.62,-684 589.62,-684 589.62,-678 595.62,-672 601.62,-672"/>
<text xml:space="preserve" text-anchor="middle" x="1313.06" y="-832.7" font-family="Times New Roman,serif" font-size="14.00">Workflow / Agents</text>
</g>
<g id="clust2" class="cluster">
<title>cluster_decision</title>
<path fill="white" stroke="#a5b4fc" stroke-width="1.2" stroke-dasharray="5,2" d="M1743.88,-253C1743.88,-253 1988.12,-253 1988.12,-253 1994.12,-253 2000.12,-259 2000.12,-265 2000.12,-265 2000.12,-318 2000.12,-318 2000.12,-324 1994.12,-330 1988.12,-330 1988.12,-330 1743.88,-330 1743.88,-330 1737.88,-330 1731.88,-324 1731.88,-318 1731.88,-318 1731.88,-265 1731.88,-265 1731.88,-259 1737.88,-253 1743.88,-253"/>
<text xml:space="preserve" text-anchor="middle" x="1866" y="-312.7" font-family="Times New Roman,serif" font-size="14.00">Decision</text>
</g>
<g id="clust3" class="cluster">
<title>cluster_petition</title>
<path fill="white" stroke="#fca5a5" stroke-width="1.2" stroke-dasharray="5,2" d="M1236.88,-345C1236.88,-345 1471.38,-345 1471.38,-345 1477.38,-345 1483.38,-351 1483.38,-357 1483.38,-357 1483.38,-410 1483.38,-410 1483.38,-416 1477.38,-422 1471.38,-422 1471.38,-422 1236.88,-422 1236.88,-422 1230.88,-422 1224.88,-416 1224.88,-410 1224.88,-410 1224.88,-357 1224.88,-357 1224.88,-351 1230.88,-345 1236.88,-345"/>
<text xml:space="preserve" text-anchor="middle" x="1354.12" y="-404.7" font-family="Times New Roman,serif" font-size="14.00">Petition</text>
</g>
<g id="clust4" class="cluster">
<title>cluster_theme</title>
<path fill="white" stroke="#86efac" stroke-width="1.2" stroke-dasharray="5,2" d="M2204.75,-223C2204.75,-223 2496.75,-223 2496.75,-223 2502.75,-223 2508.75,-229 2508.75,-235 2508.75,-235 2508.75,-318 2508.75,-318 2508.75,-324 2502.75,-330 2496.75,-330 2496.75,-330 2204.75,-330 2204.75,-330 2198.75,-330 2192.75,-324 2192.75,-318 2192.75,-318 2192.75,-235 2192.75,-235 2192.75,-229 2198.75,-223 2204.75,-223"/>
<text xml:space="preserve" text-anchor="middle" x="2350.75" y="-312.7" font-family="Times New Roman,serif" font-size="14.00">Theme / Thesis</text>
</g>
<g id="clust5" class="cluster">
<title>cluster_analysis</title>
<path fill="white" stroke="#c4b5fd" stroke-width="1.2" stroke-dasharray="5,2" d="M539.75,-135C539.75,-135 1501.75,-135 1501.75,-135 1507.75,-135 1513.75,-141 1513.75,-147 1513.75,-147 1513.75,-230 1513.75,-230 1513.75,-236 1507.75,-242 1501.75,-242 1501.75,-242 539.75,-242 539.75,-242 533.75,-242 527.75,-236 527.75,-230 527.75,-230 527.75,-147 527.75,-147 527.75,-141 533.75,-135 539.75,-135"/>
<text xml:space="preserve" text-anchor="middle" x="1020.75" y="-224.7" font-family="Times New Roman,serif" font-size="14.00">Analysis / Generated Resources</text>
</g>
<g id="clust6" class="cluster">
<title>cluster_document</title>
<path fill="white" stroke="#f9a8d4" stroke-width="1.2" stroke-dasharray="5,2" d="M20,-345C20,-345 358.75,-345 358.75,-345 364.75,-345 370.75,-351 370.75,-357 370.75,-357 370.75,-410 370.75,-410 370.75,-416 364.75,-422 358.75,-422 358.75,-422 20,-422 20,-422 14,-422 8,-416 8,-410 8,-410 8,-357 8,-357 8,-351 14,-345 20,-345"/>
<text xml:space="preserve" text-anchor="middle" x="189.38" y="-404.7" font-family="Times New Roman,serif" font-size="14.00">Document Outcome</text>
</g>
<!-- n910805056122224448 -->
<g id="node1" class="node">
<title>n910805056122224448</title>
<g id="a_node1"><a xlink:title="jdd:classification&#45;a199ba82&#45;d6cd&#45;5cfb&#45;9de4&#45;48fc54192b8c">
<polygon fill="#dbeafe" stroke="#1d4ed8" points="1518.5,-716 1189.75,-716 1189.75,-712 1185.75,-712 1185.75,-708 1189.75,-708 1189.75,-688 1185.75,-688 1185.75,-684 1189.75,-684 1189.75,-680 1518.5,-680 1518.5,-716"/>
<polyline fill="none" stroke="#1d4ed8" points="1189.75,-712 1193.75,-712 1193.75,-708 1189.75,-708"/>
<polyline fill="none" stroke="#1d4ed8" points="1189.75,-688 1193.75,-688 1193.75,-684 1189.75,-684"/>
<text xml:space="preserve" text-anchor="middle" x="1354.12" y="-693.73" font-family="Helvetica,sans-Serif" font-size="12.00">jdd:classification&#45;a199ba82&#45;d6cd&#45;5cfb&#45;9de4&#45;48fc54192b8c</text>
</a>
</g>
</g>
<!-- n7454612985443761604 -->
<g id="node4" class="node">
<title>n7454612985443761604</title>
<g id="a_node4"><a xlink:title="jdd:pipeline&#45;run&#45;499885f2&#45;d72e&#45;5b20&#45;864c&#45;d3997cf9e654">
<path fill="#dbeafe" stroke="#1d4ed8" d="M2016.5,-727C2016.5,-727 1715.5,-727 1715.5,-727 1709.5,-727 1703.5,-721 1703.5,-715 1703.5,-715 1703.5,-703 1703.5,-703 1703.5,-697 1709.5,-691 1715.5,-691 1715.5,-691 2016.5,-691 2016.5,-691 2022.5,-691 2028.5,-697 2028.5,-703 2028.5,-703 2028.5,-715 2028.5,-715 2028.5,-721 2022.5,-727 2016.5,-727"/>
<text xml:space="preserve" text-anchor="middle" x="1866" y="-704.73" font-family="Helvetica,sans-Serif" font-size="12.00">jdd:pipeline&#45;run&#45;499885f2&#45;d72e&#45;5b20&#45;864c&#45;d3997cf9e654</text>
</a>
</g>
</g>
<!-- n910805056122224448&#45;&gt;n7454612985443761604 -->
<g id="edge13" class="edge">
<title>n910805056122224448&#45;&gt;n7454612985443761604</title>
<path fill="none" stroke="#334155" stroke-width="1.6" d="M1518.9,-703.5C1518.9,-703.5 1690.86,-703.5 1690.86,-703.5"/>
<polygon fill="#334155" stroke="#334155" stroke-width="1.6" points="1690.86,-707 1700.86,-703.5 1690.86,-700 1690.86,-707"/>
<text xml:space="preserve" text-anchor="middle" x="1611" y="-736.5" font-family="Helvetica,sans-Serif" font-size="10.00">wasInformedBy</text>
</g>
<!-- n1652801431787815995 -->
<g id="node5" class="node">
<title>n1652801431787815995</title>
<g id="a_node5"><a xlink:title="Local analysis agent">
<path fill="#dbeafe" stroke="#1d4ed8" d="M1916.75,-817C1916.75,-817 1815.25,-817 1815.25,-817 1809.25,-817 1803.25,-811 1803.25,-805 1803.25,-805 1803.25,-793 1803.25,-793 1803.25,-787 1809.25,-781 1815.25,-781 1815.25,-781 1916.75,-781 1916.75,-781 1922.75,-781 1928.75,-787 1928.75,-793 1928.75,-793 1928.75,-805 1928.75,-805 1928.75,-811 1922.75,-817 1916.75,-817"/>
<text xml:space="preserve" text-anchor="middle" x="1866" y="-794.73" font-family="Helvetica,sans-Serif" font-size="12.00">Local analysis agent</text>
</a>
</g>
</g>
<!-- n910805056122224448&#45;&gt;n1652801431787815995 -->
<g id="edge12" class="edge">
<title>n910805056122224448&#45;&gt;n1652801431787815995</title>
<path fill="none" stroke="#334155" stroke-width="1.6" d="M1455.75,-716.06C1455.75,-745.11 1455.75,-799 1455.75,-799 1455.75,-799 1790.38,-799 1790.38,-799"/>
<polygon fill="#334155" stroke="#334155" stroke-width="1.6" points="1790.38,-802.5 1800.38,-799 1790.38,-795.5 1790.38,-802.5"/>
<text xml:space="preserve" text-anchor="middle" x="1611" y="-807.5" font-family="Helvetica,sans-Serif" font-size="10.00">wasAssociatedWith</text>
</g>
<!-- n7445780454521962554 -->
<g id="node6" class="node">
<title>n7445780454521962554</title>
<g id="a_node6"><a xlink:title="tres:261f3545&#45;cf32&#45;508f&#45;9fc6&#45;043a3bc53ad5&#10;&#10;description: tipo_julgamento=Julgamento Principal; competencia=JEF Recurso Cível; relator=ALESSANDRA BELFORT BUENO&#10;subject: Indenização por dano moral, Responsabilidade civil, DIREITO CIVIL">
<path fill="#e0e7ff" stroke="#4338ca" d="M1980.12,-297C1980.12,-297 1751.88,-297 1751.88,-297 1745.88,-297 1739.88,-291 1739.88,-285 1739.88,-285 1739.88,-273 1739.88,-273 1739.88,-267 1745.88,-261 1751.88,-261 1751.88,-261 1980.12,-261 1980.12,-261 1986.12,-261 1992.12,-267 1992.12,-273 1992.12,-273 1992.12,-285 1992.12,-285 1992.12,-291 1986.12,-297 1980.12,-297"/>
<text xml:space="preserve" text-anchor="middle" x="1866" y="-274.73" font-family="Helvetica,sans-Serif" font-size="12.00">tres:261f3545&#45;cf32&#45;508f&#45;9fc6&#45;043a3bc53ad5</text>
</a>
</g>
</g>
<!-- n910805056122224448&#45;&gt;n7445780454521962554 -->
<g id="edge11" class="edge">
<title>n910805056122224448&#45;&gt;n7445780454521962554</title>
<path fill="none" stroke="#334155" stroke-width="1.6" d="M1511.75,-679.72C1511.75,-600.53 1511.75,-291 1511.75,-291 1511.75,-291 1727.19,-291 1727.19,-291"/>
<polygon fill="#334155" stroke="#334155" stroke-width="1.6" points="1727.19,-294.5 1737.19,-291 1727.19,-287.5 1727.19,-294.5"/>
<text xml:space="preserve" text-anchor="middle" x="1611" y="-579.5" font-family="Helvetica,sans-Serif" font-size="10.00">used</text>
</g>
<!-- n4196928889779075807 -->
<g id="node8" class="node">
<title>n4196928889779075807</title>
<g id="a_node8"><a xlink:title="Theme 1 Thesis&#10;&#10;themeThesis: O valor da aposentadoria por invalidez e do auxílio&#45;doença, bem como das pensões destes derivados ou calculadas com base no art. 75, da Lei n. 8.213/91, será obtido, na forma do art. 29, II, do mesmo diploma, por meio...">
<path fill="#ecfccb" stroke="#4d7c0f" d="M2291,-297C2291,-297 2212.75,-297 2212.75,-297 2206.75,-297 2200.75,-291 2200.75,-285 2200.75,-285 2200.75,-273 2200.75,-273 2200.75,-267 2206.75,-261 2212.75,-261 2212.75,-261 2291,-261 2291,-261 2297,-261 2303,-267 2303,-273 2303,-273 2303,-285 2303,-285 2303,-291 2297,-297 2291,-297"/>
<text xml:space="preserve" text-anchor="middle" x="2251.88" y="-274.73" font-family="Helvetica,sans-Serif" font-size="12.00">Theme 1 Thesis</text>
</a>
</g>
</g>
<!-- n910805056122224448&#45;&gt;n4196928889779075807 -->
<g id="edge9" class="edge">
<title>n910805056122224448&#45;&gt;n4196928889779075807</title>
<path fill="none" stroke="#334155" stroke-width="1.6" d="M1518.96,-683.67C1782.35,-683.67 2268.75,-683.67 2268.75,-683.67 2268.75,-683.67 2268.75,-309.86 2268.75,-309.86"/>
<polygon fill="#334155" stroke="#334155" stroke-width="1.6" points="2272.25,-309.86 2268.75,-299.86 2265.25,-309.86 2272.25,-309.86"/>
<text xml:space="preserve" text-anchor="middle" x="1866" y="-517.5" font-family="Helvetica,sans-Serif" font-size="10.00">used</text>
</g>
<!-- n8974495269323390769 -->
<g id="node9" class="node">
<title>n8974495269323390769</title>
<g id="a_node9"><a xlink:title="tnu:1&#10;&#10;themeThesis: O valor da aposentadoria por invalidez e do auxílio&#45;doença, bem como das pensões destes derivados ou calculadas com base no art. 75, da Lei n. 8.213/91, será obtido, na forma do art. 29, II, do mesmo diploma, por meio...&#10;description: Saber qual a forma de cálculo da aposentadoria por invalidez, do auxílio&#45;doença e pensões derivadas, em momento antecedente à edição da Lei n. 9.876/99.">
<path fill="#dcfce7" stroke="#15803d" d="M2488.75,-297C2488.75,-297 2458.75,-297 2458.75,-297 2452.75,-297 2446.75,-291 2446.75,-285 2446.75,-285 2446.75,-273 2446.75,-273 2446.75,-267 2452.75,-261 2458.75,-261 2458.75,-261 2488.75,-261 2488.75,-261 2494.75,-261 2500.75,-267 2500.75,-273 2500.75,-273 2500.75,-285 2500.75,-285 2500.75,-291 2494.75,-297 2488.75,-297"/>
<text xml:space="preserve" text-anchor="middle" x="2473.75" y="-274.73" font-family="Helvetica,sans-Serif" font-size="12.00">tnu:1</text>
</a>
</g>
</g>
<!-- n910805056122224448&#45;&gt;n8974495269323390769 -->
<g id="edge10" class="edge">
<title>n910805056122224448&#45;&gt;n8974495269323390769</title>
<path fill="none" stroke="#334155" stroke-width="1.6" d="M1518.84,-687.33C1832.1,-687.33 2482.75,-687.33 2482.75,-687.33 2482.75,-687.33 2482.75,-309.76 2482.75,-309.76"/>
<polygon fill="#334155" stroke="#334155" stroke-width="1.6" points="2486.25,-309.76 2482.75,-299.76 2479.25,-309.76 2486.25,-309.76"/>
<text xml:space="preserve" text-anchor="middle" x="2114.62" y="-611.5" font-family="Helvetica,sans-Serif" font-size="10.00">used</text>
</g>
<!-- n5209887391075964151 -->
<g id="node11" class="node">
<title>n5209887391075964151</title>
<g id="a_node11"><a xlink:title="jdd:analysis&#45;35e89cc7&#45;d761&#45;5f72&#45;81c0&#45;7d5c3e75f0cb">
<path fill="#ede9fe" stroke="#6d28d9" d="M1493.75,-179C1493.75,-179 1214.5,-179 1214.5,-179 1208.5,-179 1202.5,-173 1202.5,-167 1202.5,-167 1202.5,-155 1202.5,-155 1202.5,-149 1208.5,-143 1214.5,-143 1214.5,-143 1493.75,-143 1493.75,-143 1499.75,-143 1505.75,-149 1505.75,-155 1505.75,-155 1505.75,-167 1505.75,-167 1505.75,-173 1499.75,-179 1493.75,-179"/>
<text xml:space="preserve" text-anchor="middle" x="1354.12" y="-156.72" font-family="Helvetica,sans-Serif" font-size="12.00">jdd:analysis&#45;35e89cc7&#45;d761&#45;5f72&#45;81c0&#45;7d5c3e75f0cb</text>
</a>
</g>
</g>
<!-- n910805056122224448&#45;&gt;n5209887391075964151 -->
<g id="edge8" class="edge">
<title>n910805056122224448&#45;&gt;n5209887391075964151</title>
<path fill="none" stroke="#334155" stroke-width="1.6" d="M1225.75,-679.52C1225.75,-679.52 1225.75,-191.83 1225.75,-191.83"/>
<polygon fill="#334155" stroke="#334155" stroke-width="1.6" points="1229.25,-191.83 1225.75,-181.83 1222.25,-191.83 1229.25,-191.83"/>
<text xml:space="preserve" text-anchor="middle" x="1097.25" y="-541.5" font-family="Helvetica,sans-Serif" font-size="10.00">generated</text>
</g>
<!-- n2573280013425682575 -->
<g id="node2" class="node">
<title>n2573280013425682575</title>
<g id="a_node2"><a xlink:title="jdd:draft&#45;generation&#45;ccdd1bbf&#45;4fe7&#45;521a&#45;87b1&#45;64e782a57132">
<polygon fill="#dbeafe" stroke="#1d4ed8" points="942.88,-716 597.62,-716 597.62,-712 593.62,-712 593.62,-708 597.62,-708 597.62,-688 593.62,-688 593.62,-684 597.62,-684 597.62,-680 942.88,-680 942.88,-716"/>
<polyline fill="none" stroke="#1d4ed8" points="597.62,-712 601.62,-712 601.62,-708 597.62,-708"/>
<polyline fill="none" stroke="#1d4ed8" points="597.62,-688 601.62,-688 601.62,-684 597.62,-684"/>
<text xml:space="preserve" text-anchor="middle" x="770.25" y="-693.73" font-family="Helvetica,sans-Serif" font-size="12.00">jdd:draft&#45;generation&#45;ccdd1bbf&#45;4fe7&#45;521a&#45;87b1&#45;64e782a57132</text>
</a>
</g>
</g>
<!-- n2573280013425682575&#45;&gt;n910805056122224448 -->
<g id="edge21" class="edge">
<title>n2573280013425682575&#45;&gt;n910805056122224448</title>
<path fill="none" stroke="#334155" stroke-width="1.6" d="M943.06,-704C943.06,-704 1176.85,-704 1176.85,-704"/>
<polygon fill="#334155" stroke="#334155" stroke-width="1.6" points="1176.85,-707.5 1186.85,-704 1176.85,-700.5 1176.85,-707.5"/>
<text xml:space="preserve" text-anchor="middle" x="1097.25" y="-736.5" font-family="Helvetica,sans-Serif" font-size="10.00">wasInformedBy</text>
</g>
<!-- n3825733287126043629 -->
<g id="node3" class="node">
<title>n3825733287126043629</title>
<g id="a_node3"><a xlink:title="jdd:pipeline">
<path fill="#dbeafe" stroke="#1d4ed8" d="M1381.25,-817C1381.25,-817 1327,-817 1327,-817 1321,-817 1315,-811 1315,-805 1315,-805 1315,-793 1315,-793 1315,-787 1321,-781 1327,-781 1327,-781 1381.25,-781 1381.25,-781 1387.25,-781 1393.25,-787 1393.25,-793 1393.25,-793 1393.25,-805 1393.25,-805 1393.25,-811 1387.25,-817 1381.25,-817"/>
<text xml:space="preserve" text-anchor="middle" x="1354.12" y="-794.73" font-family="Helvetica,sans-Serif" font-size="12.00">jdd:pipeline</text>
</a>
</g>
</g>
<!-- n2573280013425682575&#45;&gt;n3825733287126043629 -->
<g id="edge20" class="edge">
<title>n2573280013425682575&#45;&gt;n3825733287126043629</title>
<path fill="none" stroke="#334155" stroke-width="1.6" d="M769.75,-716.06C769.75,-745.11 769.75,-799 769.75,-799 769.75,-799 1302.45,-799 1302.45,-799"/>
<polygon fill="#334155" stroke="#334155" stroke-width="1.6" points="1302.45,-802.5 1312.45,-799 1302.45,-795.5 1302.45,-802.5"/>
<text xml:space="preserve" text-anchor="middle" x="1097.25" y="-807.5" font-family="Helvetica,sans-Serif" font-size="10.00">wasAssociatedWith</text>
</g>
<!-- n2573280013425682575&#45;&gt;n7445780454521962554 -->
<g id="edge19" class="edge">
<title>n2573280013425682575&#45;&gt;n7445780454521962554</title>
<path fill="none" stroke="#334155" stroke-width="1.6" d="M885.75,-679.73C885.75,-599.08 885.75,-279 885.75,-279 885.75,-279 1727.18,-279 1727.18,-279"/>
<polygon fill="#334155" stroke="#334155" stroke-width="1.6" points="1727.18,-282.5 1737.18,-279 1727.18,-275.5 1727.18,-282.5"/>
<text xml:space="preserve" text-anchor="middle" x="1354.12" y="-499.5" font-family="Helvetica,sans-Serif" font-size="10.00">used</text>
</g>
<!-- n2573280013425682575&#45;&gt;n4196928889779075807 -->
<g id="edge17" class="edge">
<title>n2573280013425682575&#45;&gt;n4196928889779075807</title>
<path fill="none" stroke="#334155" stroke-width="1.6" d="M654.75,-679.56C654.75,-627.98 654.75,-486 654.75,-486 654.75,-486 2234.75,-486 2234.75,-486 2234.75,-486 2234.75,-309.79 2234.75,-309.79"/>
<polygon fill="#334155" stroke="#334155" stroke-width="1.6" points="2238.25,-309.79 2234.75,-299.79 2231.25,-309.79 2238.25,-309.79"/>
<text xml:space="preserve" text-anchor="middle" x="1611" y="-508.5" font-family="Helvetica,sans-Serif" font-size="10.00">used</text>
</g>
<!-- n2573280013425682575&#45;&gt;n8974495269323390769 -->
<g id="edge18" class="edge">
<title>n2573280013425682575&#45;&gt;n8974495269323390769</title>
<path fill="none" stroke="#334155" stroke-width="1.6" d="M712.75,-679.52C712.75,-647.02 712.75,-583 712.75,-583 712.75,-583 2464.75,-583 2464.75,-583 2464.75,-583 2464.75,-309.53 2464.75,-309.53"/>
<polygon fill="#334155" stroke="#334155" stroke-width="1.6" points="2468.25,-309.53 2464.75,-299.53 2461.25,-309.53 2468.25,-309.53"/>
<text xml:space="preserve" text-anchor="middle" x="1866" y="-927.5" font-family="Helvetica,sans-Serif" font-size="10.00">used</text>
</g>
<!-- n6225263262450224525 -->
<g id="node10" class="node">
<title>n6225263262450224525</title>
<g id="a_node10"><a xlink:title="Generated decision NEGAR_SEGUIMENTO for process 5021277&#45;41.2025.4.02.5101&#10;&#10;atLocation: outputs/runs/run&#45;20260616T021758335922Z/documents/261f3545&#45;cf32&#45;508f&#45;9fc6&#45;043a3bc53ad5&#45;NEGAR_SEGUIMENTO.tex">
<path fill="#ede9fe" stroke="#6d28d9" d="M992.75,-209C992.75,-209 547.75,-209 547.75,-209 541.75,-209 535.75,-203 535.75,-197 535.75,-197 535.75,-185 535.75,-185 535.75,-179 541.75,-173 547.75,-173 547.75,-173 992.75,-173 992.75,-173 998.75,-173 1004.75,-179 1004.75,-185 1004.75,-185 1004.75,-197 1004.75,-197 1004.75,-203 998.75,-209 992.75,-209"/>
<text xml:space="preserve" text-anchor="middle" x="770.25" y="-186.72" font-family="Helvetica,sans-Serif" font-size="12.00">Generated decision NEGAR_SEGUIMENTO for process 5021277&#45;41.2025.4.02.5101</text>
</a>
</g>
</g>
<!-- n2573280013425682575&#45;&gt;n6225263262450224525 -->
<g id="edge15" class="edge">
<title>n2573280013425682575&#45;&gt;n6225263262450224525</title>
<path fill="none" stroke="#334155" stroke-width="1.6" d="M827.75,-679.66C827.75,-679.66 827.75,-221.74 827.75,-221.74"/>
<polygon fill="#334155" stroke="#334155" stroke-width="1.6" points="831.25,-221.74 827.75,-211.74 824.25,-221.74 831.25,-221.74"/>
<text xml:space="preserve" text-anchor="middle" x="449.25" y="-317.5" font-family="Helvetica,sans-Serif" font-size="10.00">generated</text>
</g>
<!-- n2573280013425682575&#45;&gt;n5209887391075964151 -->
<g id="edge16" class="edge">
<title>n2573280013425682575&#45;&gt;n5209887391075964151</title>
<path fill="none" stroke="#334155" stroke-width="1.6" d="M943.06,-692C1021.38,-692 1096.75,-692 1096.75,-692 1096.75,-692 1096.75,-158 1096.75,-158 1096.75,-158 1189.76,-158 1189.76,-158"/>
<polygon fill="#334155" stroke="#334155" stroke-width="1.6" points="1189.76,-161.5 1199.76,-158 1189.76,-154.5 1189.76,-161.5"/>
<text xml:space="preserve" text-anchor="middle" x="1097.25" y="-467.5" font-family="Helvetica,sans-Serif" font-size="10.00">used</text>
</g>
<!-- n2291414611263611539 -->
<g id="node12" class="node">
<title>n2291414611263611539</title>
<g id="a_node12"><a xlink:title="Admissibility decision for process 5021277&#45;41.2025.4.02.5101">
<path fill="#fce7f3" stroke="#be185d" d="M350.75,-389C350.75,-389 28,-389 28,-389 22,-389 16,-383 16,-377 16,-377 16,-365 16,-365 16,-359 22,-353 28,-353 28,-353 350.75,-353 350.75,-353 356.75,-353 362.75,-359 362.75,-365 362.75,-365 362.75,-377 362.75,-377 362.75,-383 356.75,-389 350.75,-389"/>
<text xml:space="preserve" text-anchor="middle" x="189.38" y="-366.73" font-family="Helvetica,sans-Serif" font-size="12.00">Admissibility decision for process 5021277&#45;41.2025.4.02.5101</text>
</a>
</g>
</g>
<!-- n2573280013425682575&#45;&gt;n2291414611263611539 -->
<g id="edge14" class="edge">
<title>n2573280013425682575&#45;&gt;n2291414611263611539</title>
<path fill="none" stroke="#334155" stroke-width="1.6" d="M769.75,-679.63C769.75,-612.15 769.75,-381.8 769.75,-381.8 769.75,-381.8 375.54,-381.8 375.54,-381.8"/>
<polygon fill="#334155" stroke="#334155" stroke-width="1.6" points="375.54,-378.3 365.54,-381.8 375.54,-385.3 375.54,-378.3"/>
<text xml:space="preserve" text-anchor="middle" x="449.25" y="-544.5" font-family="Helvetica,sans-Serif" font-size="10.00">generated</text>
</g>
<!-- n7445780454521962554&#45;&gt;n4196928889779075807 -->
<g id="edge28" class="edge">
<title>n7445780454521962554&#45;&gt;n4196928889779075807</title>
<path fill="none" stroke="#334155" stroke-width="1.6" d="M1992.62,-279C1992.62,-279 2188.07,-279 2188.07,-279"/>
<polygon fill="#334155" stroke="#334155" stroke-width="1.6" points="2188.07,-282.5 2198.07,-279 2188.07,-275.5 2188.07,-282.5"/>
<text xml:space="preserve" text-anchor="middle" x="2114.62" y="-281.5" font-family="Helvetica,sans-Serif" font-size="10.00">adoptsThesis</text>
</g>
<!-- n5515622323597764412 -->
<g id="node7" class="node">
<title>n5515622323597764412</title>
<g id="a_node7"><a xlink:title="rs:261f3545&#45;cf32&#45;508f&#45;9fc6&#45;043a3bc53ad5">
<path fill="#fee2e2" stroke="#b91c1c" d="M1463.38,-389C1463.38,-389 1244.88,-389 1244.88,-389 1238.88,-389 1232.88,-383 1232.88,-377 1232.88,-377 1232.88,-365 1232.88,-365 1232.88,-359 1238.88,-353 1244.88,-353 1244.88,-353 1463.38,-353 1463.38,-353 1469.38,-353 1475.38,-359 1475.38,-365 1475.38,-365 1475.38,-377 1475.38,-377 1475.38,-383 1469.38,-389 1463.38,-389"/>
<text xml:space="preserve" text-anchor="middle" x="1354.12" y="-366.73" font-family="Helvetica,sans-Serif" font-size="12.00">rs:261f3545&#45;cf32&#45;508f&#45;9fc6&#45;043a3bc53ad5</text>
</a>
</g>
</g>
<!-- n5515622323597764412&#45;&gt;n7445780454521962554 -->
<g id="edge26" class="edge">
<title>n5515622323597764412&#45;&gt;n7445780454521962554</title>
<path fill="none" stroke="#334155" stroke-width="1.6" d="M1353.75,-352.76C1353.75,-327.52 1353.75,-285 1353.75,-285 1353.75,-285 1726.95,-285 1726.95,-285"/>
<polygon fill="#334155" stroke="#334155" stroke-width="1.6" points="1726.95,-288.5 1736.95,-285 1726.95,-281.5 1726.95,-288.5"/>
<text xml:space="preserve" text-anchor="middle" x="1611" y="-376.5" font-family="Helvetica,sans-Serif" font-size="10.00">isFiledAgainst</text>
</g>
<!-- n4196928889779075807&#45;&gt;n8974495269323390769 -->
<g id="edge27" class="edge">
<title>n4196928889779075807&#45;&gt;n8974495269323390769</title>
<path fill="none" stroke="#334155" stroke-width="1.6" d="M2303.34,-279C2303.34,-279 2434.09,-279 2434.09,-279"/>
<polygon fill="#334155" stroke="#334155" stroke-width="1.6" points="2434.09,-282.5 2444.09,-279 2434.09,-275.5 2434.09,-282.5"/>
<text xml:space="preserve" text-anchor="middle" x="2374.88" y="-287.5" font-family="Helvetica,sans-Serif" font-size="10.00">hasTheme</text>
</g>
<!-- n6225263262450224525&#45;&gt;n7445780454521962554 -->
<g id="edge24" class="edge">
<title>n6225263262450224525&#45;&gt;n7445780454521962554</title>
<path fill="none" stroke="#334155" stroke-width="1.6" d="M973.75,-209.2C973.75,-233.36 973.75,-273 973.75,-273 973.75,-273 1727.16,-273 1727.16,-273"/>
<polygon fill="#334155" stroke="#334155" stroke-width="1.6" points="1727.16,-276.5 1737.16,-273 1727.16,-269.5 1727.16,-276.5"/>
<text xml:space="preserve" text-anchor="middle" x="1354.12" y="-289.5" font-family="Helvetica,sans-Serif" font-size="10.00">wasDerivedFrom</text>
</g>
<!-- n6225263262450224525&#45;&gt;n4196928889779075807 -->
<g id="edge22" class="edge">
<title>n6225263262450224525&#45;&gt;n4196928889779075807</title>
<path fill="none" stroke="#334155" stroke-width="1.6" d="M1005,-199C1422.74,-199 2251.75,-199 2251.75,-199 2251.75,-199 2251.75,-248.43 2251.75,-248.43"/>
<polygon fill="#334155" stroke="#334155" stroke-width="1.6" points="2248.25,-248.43 2251.75,-258.43 2255.25,-248.43 2248.25,-248.43"/>
<text xml:space="preserve" text-anchor="middle" x="1611" y="-63.5" font-family="Helvetica,sans-Serif" font-size="10.00">adoptsThesis</text>
</g>
<!-- n6225263262450224525&#45;&gt;n5209887391075964151 -->
<g id="edge23" class="edge">
<title>n6225263262450224525&#45;&gt;n5209887391075964151</title>
<path fill="none" stroke="#334155" stroke-width="1.6" d="M1005.12,-189C1109.73,-189 1209.75,-189 1209.75,-189 1209.75,-189 1209.75,-188.02 1209.75,-188.02"/>
<polygon fill="#334155" stroke="#334155" stroke-width="1.6" points="1213.25,-191.63 1209.75,-181.63 1206.25,-191.63 1213.25,-191.63"/>
<text xml:space="preserve" text-anchor="middle" x="1097.25" y="-199.5" font-family="Helvetica,sans-Serif" font-size="10.00">wasDerivedFrom</text>
</g>
<!-- n5209887391075964151&#45;&gt;n7445780454521962554 -->
<g id="edge6" class="edge">
<title>n5209887391075964151&#45;&gt;n7445780454521962554</title>
<path fill="none" stroke="#334155" stroke-width="1.6" d="M1490.75,-179.46C1490.75,-209.83 1490.75,-267 1490.75,-267 1490.75,-267 1727.06,-267 1727.06,-267"/>
<polygon fill="#334155" stroke="#334155" stroke-width="1.6" points="1727.06,-270.5 1737.06,-267 1727.06,-263.5 1727.06,-270.5"/>
<text xml:space="preserve" text-anchor="middle" x="1611" y="-244.5" font-family="Helvetica,sans-Serif" font-size="10.00">wasDerivedFrom</text>
</g>
<!-- n5209887391075964151&#45;&gt;n8974495269323390769 -->
<g id="edge5" class="edge">
<title>n5209887391075964151&#45;&gt;n8974495269323390769</title>
<path fill="none" stroke="#334155" stroke-width="1.6" d="M1506,-161C1811.99,-161 2473.75,-161 2473.75,-161 2473.75,-161 2473.75,-248.14 2473.75,-248.14"/>
<polygon fill="#334155" stroke="#334155" stroke-width="1.6" points="2470.25,-248.14 2473.75,-258.14 2477.25,-248.14 2470.25,-248.14"/>
<text xml:space="preserve" text-anchor="middle" x="2114.62" y="-173.5" font-family="Helvetica,sans-Serif" font-size="10.00">wasDerivedFrom</text>
</g>
<!-- n2291414611263611539&#45;&gt;n5515622323597764412 -->
<g id="edge3" class="edge">
<title>n2291414611263611539&#45;&gt;n5515622323597764412</title>
<path fill="none" stroke="#334155" stroke-width="1.6" d="M363.12,-374.6C363.12,-374.6 1219.97,-374.6 1219.97,-374.6"/>
<polygon fill="#334155" stroke="#334155" stroke-width="1.6" points="1219.97,-378.1 1229.97,-374.6 1219.97,-371.1 1219.97,-378.1"/>
<text xml:space="preserve" text-anchor="middle" x="770.25" y="-373.5" font-family="Helvetica,sans-Serif" font-size="10.00">wasDerivedFrom</text>
</g>
<!-- n2291414611263611539&#45;&gt;n6225263262450224525 -->
<g id="edge1" class="edge">
<title>n2291414611263611539&#45;&gt;n6225263262450224525</title>
<path fill="none" stroke="#334155" stroke-width="1.6" d="M363.15,-360.2C462.19,-360.2 566.75,-360.2 566.75,-360.2 566.75,-360.2 566.75,-221.85 566.75,-221.85"/>
<polygon fill="#334155" stroke="#334155" stroke-width="1.6" points="570.25,-221.85 566.75,-211.85 563.25,-221.85 570.25,-221.85"/>
<text xml:space="preserve" text-anchor="middle" x="449.25" y="-243.5" font-family="Helvetica,sans-Serif" font-size="10.00">ruledIn</text>
</g>
<!-- n2291414611263611539&#45;&gt;n5209887391075964151 -->
<g id="edge2" class="edge">
<title>n2291414611263611539&#45;&gt;n5209887391075964151</title>
<path fill="none" stroke="#334155" stroke-width="1.6" d="M363.24,-367.4C656.48,-367.4 1217.75,-367.4 1217.75,-367.4 1217.75,-367.4 1217.75,-191.74 1217.75,-191.74"/>
<polygon fill="#334155" stroke="#334155" stroke-width="1.6" points="1221.25,-191.74 1217.75,-181.74 1214.25,-191.74 1221.25,-191.74"/>
<text xml:space="preserve" text-anchor="middle" x="770.25" y="-2.5" font-family="Helvetica,sans-Serif" font-size="10.00">wasDerivedFrom</text>
</g>
</g>
</svg>
