<?xml version="1.0" encoding="UTF-8" standalone="no"?>
<!DOCTYPE svg PUBLIC "-//W3C//DTD SVG 1.1//EN"
 "http://www.w3.org/Graphics/SVG/1.1/DTD/svg11.dtd">
<!-- Generated by graphviz version 14.1.2 (20260124.0452)
 -->
<!-- Title: rdf_graph Pages: 1 -->
<svg width="785pt" height="472pt"
 viewBox="0.00 0.00 785.00 472.00" xmlns="http://www.w3.org/2000/svg" xmlns:xlink="http://www.w3.org/1999/xlink">
<g id="graph0" class="graph" transform="scale(1 1) rotate(0) translate(25.2 447.2)">
<title>rdf_graph</title>
<polygon fill="white" stroke="none" points="-25.2,25.2 -25.2,-447.2 760.2,-447.2 760.2,25.2 -25.2,25.2"/>
<g id="clust1" class="cluster">
<title>cluster_workflow</title>
<path fill="white" stroke="#93c5fd" stroke-width="1.2" stroke-dasharray="5,2" d="M20,-8C20,-8 643.75,-8 643.75,-8 649.75,-8 655.75,-14 655.75,-20 655.75,-20 655.75,-174 655.75,-174 655.75,-180 649.75,-186 643.75,-186 643.75,-186 20,-186 20,-186 14,-186 8,-180 8,-174 8,-174 8,-20 8,-20 8,-14 14,-8 20,-8"/>
<text xml:space="preserve" text-anchor="middle" x="331.88" y="-168.7" font-family="Times New Roman,serif" font-size="14.00">Workflow / Agents</text>
</g>
<g id="clust2" class="cluster">
<title>cluster_decision</title>
<path fill="white" stroke="#a5b4fc" stroke-width="1.2" stroke-dasharray="5,2" d="M459.5,-222C459.5,-222 715,-222 715,-222 721,-222 727,-228 727,-234 727,-234 727,-287 727,-287 727,-293 721,-299 715,-299 715,-299 459.5,-299 459.5,-299 453.5,-299 447.5,-293 447.5,-287 447.5,-287 447.5,-234 447.5,-234 447.5,-228 453.5,-222 459.5,-222"/>
<text xml:space="preserve" text-anchor="middle" x="587.25" y="-281.7" font-family="Times New Roman,serif" font-size="14.00">Decision</text>
</g>
<g id="clust3" class="cluster">
<title>cluster_petition</title>
<path fill="white" stroke="#fca5a5" stroke-width="1.2" stroke-dasharray="5,2" d="M20.38,-222C20.38,-222 266.12,-222 266.12,-222 272.12,-222 278.12,-228 278.12,-234 278.12,-234 278.12,-287 278.12,-287 278.12,-293 272.12,-299 266.12,-299 266.12,-299 20.38,-299 20.38,-299 14.38,-299 8.38,-293 8.38,-287 8.38,-287 8.38,-234 8.38,-234 8.38,-228 14.38,-222 20.38,-222"/>
<text xml:space="preserve" text-anchor="middle" x="143.25" y="-281.7" font-family="Times New Roman,serif" font-size="14.00">Petition</text>
</g>
<g id="clust4" class="cluster">
<title>cluster_theme</title>
<path fill="white" stroke="#86efac" stroke-width="1.2" stroke-dasharray="5,2" d="M101,-307C101,-307 610.25,-307 610.25,-307 616.25,-307 622.25,-313 622.25,-319 622.25,-319 622.25,-402 622.25,-402 622.25,-408 616.25,-414 610.25,-414 610.25,-414 101,-414 101,-414 95,-414 89,-408 89,-402 89,-402 89,-319 89,-319 89,-313 95,-307 101,-307"/>
<text xml:space="preserve" text-anchor="middle" x="355.62" y="-396.7" font-family="Times New Roman,serif" font-size="14.00">Theme / Thesis</text>
</g>
<!-- n3662887878794275009 -->
<g id="node1" class="node">
<title>n3662887878794275009</title>
<g id="a_node1"><a xlink:title="gemini:3&#45;1&#45;flash&#45;lite">
<path fill="#dbeafe" stroke="#1d4ed8" d="M635.75,-63C635.75,-63 538.75,-63 538.75,-63 532.75,-63 526.75,-57 526.75,-51 526.75,-51 526.75,-39 526.75,-39 526.75,-33 532.75,-27 538.75,-27 538.75,-27 635.75,-27 635.75,-27 641.75,-27 647.75,-33 647.75,-39 647.75,-39 647.75,-51 647.75,-51 647.75,-57 641.75,-63 635.75,-63"/>
<text xml:space="preserve" text-anchor="middle" x="587.25" y="-40.73" font-family="Helvetica,sans-Serif" font-size="12.00">gemini:3&#45;1&#45;flash&#45;lite</text>
</a>
</g>
</g>
<!-- n6264046683549071593 -->
<g id="node2" class="node">
<title>n6264046683549071593</title>
<g id="a_node2"><a xlink:title="jdd:pipeline">
<path fill="#dbeafe" stroke="#1d4ed8" d="M614.38,-153C614.38,-153 560.12,-153 560.12,-153 554.12,-153 548.12,-147 548.12,-141 548.12,-141 548.12,-129 548.12,-129 548.12,-123 554.12,-117 560.12,-117 560.12,-117 614.38,-117 614.38,-117 620.38,-117 626.38,-123 626.38,-129 626.38,-129 626.38,-141 626.38,-141 626.38,-147 620.38,-153 614.38,-153"/>
<text xml:space="preserve" text-anchor="middle" x="587.25" y="-130.72" font-family="Helvetica,sans-Serif" font-size="12.00">jdd:pipeline</text>
</a>
</g>
</g>
<!-- n3110600130561636736 -->
<g id="node3" class="node">
<title>n3110600130561636736</title>
<g id="a_node3"><a xlink:title="Pipeline run run&#45;20260616T155613431566Z">
<path fill="#dbeafe" stroke="#1d4ed8" d="M258.5,-120C258.5,-120 28,-120 28,-120 22,-120 16,-114 16,-108 16,-108 16,-96 16,-96 16,-90 22,-84 28,-84 28,-84 258.5,-84 258.5,-84 264.5,-84 270.5,-90 270.5,-96 270.5,-96 270.5,-108 270.5,-108 270.5,-114 264.5,-120 258.5,-120"/>
<text xml:space="preserve" text-anchor="middle" x="143.25" y="-97.72" font-family="Helvetica,sans-Serif" font-size="12.00">Pipeline run run&#45;20260616T155613431566Z</text>
</a>
</g>
</g>
<!-- n3110600130561636736&#45;&gt;n3662887878794275009 -->
<g id="edge2" class="edge">
<title>n3110600130561636736&#45;&gt;n3662887878794275009</title>
<path fill="none" stroke="#334155" stroke-width="1.6" d="M270.82,-95C385.82,-95 537,-95 537,-95 537,-95 537,-75.76 537,-75.76"/>
<polygon fill="#334155" stroke="#334155" stroke-width="1.6" points="540.5,-75.76 537,-65.76 533.5,-75.76 540.5,-75.76"/>
<text xml:space="preserve" text-anchor="middle" x="363" y="-72.5" font-family="Helvetica,sans-Serif" font-size="10.00">wasAssociatedWith</text>
</g>
<!-- n3110600130561636736&#45;&gt;n6264046683549071593 -->
<g id="edge1" class="edge">
<title>n3110600130561636736&#45;&gt;n6264046683549071593</title>
<path fill="none" stroke="#334155" stroke-width="1.6" d="M270.71,-106C401.82,-106 587,-106 587,-106 587,-106 587,-107.08 587,-107.08"/>
<polygon fill="#334155" stroke="#334155" stroke-width="1.6" points="583.5,-104.38 587,-114.38 590.5,-104.38 583.5,-104.38"/>
<text xml:space="preserve" text-anchor="middle" x="363" y="-143.5" font-family="Helvetica,sans-Serif" font-size="10.00">wasAssociatedWith</text>
</g>
<!-- n1822830164233914127 -->
<g id="node4" class="node">
<title>n1822830164233914127</title>
<g id="a_node4"><a xlink:title="tres:d02e0768&#45;6425&#45;5984&#45;bf4b&#45;b5413acca09c">
<path fill="#e0e7ff" stroke="#4338ca" d="M707,-266C707,-266 467.5,-266 467.5,-266 461.5,-266 455.5,-260 455.5,-254 455.5,-254 455.5,-242 455.5,-242 455.5,-236 461.5,-230 467.5,-230 467.5,-230 707,-230 707,-230 713,-230 719,-236 719,-242 719,-242 719,-254 719,-254 719,-260 713,-266 707,-266"/>
<text xml:space="preserve" text-anchor="middle" x="587.25" y="-243.72" font-family="Helvetica,sans-Serif" font-size="12.00">tres:d02e0768&#45;6425&#45;5984&#45;bf4b&#45;b5413acca09c</text>
</a>
</g>
</g>
<!-- n526140107599231629 -->
<g id="node5" class="node">
<title>n526140107599231629</title>
<g id="a_node5"><a xlink:title="rs:d02e0768&#45;6425&#45;5984&#45;bf4b&#45;b5413acca09c">
<path fill="#fee2e2" stroke="#b91c1c" d="M258.12,-266C258.12,-266 28.38,-266 28.38,-266 22.38,-266 16.37,-260 16.37,-254 16.37,-254 16.37,-242 16.37,-242 16.37,-236 22.37,-230 28.37,-230 28.37,-230 258.12,-230 258.12,-230 264.12,-230 270.12,-236 270.12,-242 270.12,-242 270.12,-254 270.12,-254 270.12,-260 264.12,-266 258.12,-266"/>
<text xml:space="preserve" text-anchor="middle" x="143.25" y="-243.72" font-family="Helvetica,sans-Serif" font-size="12.00">rs:d02e0768&#45;6425&#45;5984&#45;bf4b&#45;b5413acca09c</text>
</a>
</g>
</g>
<!-- n526140107599231629&#45;&gt;n1822830164233914127 -->
<g id="edge3" class="edge">
<title>n526140107599231629&#45;&gt;n1822830164233914127</title>
<path fill="none" stroke="#334155" stroke-width="1.6" d="M270.48,-248C270.48,-248 442.94,-248 442.94,-248"/>
<polygon fill="#334155" stroke="#334155" stroke-width="1.6" points="442.94,-251.5 452.94,-248 442.94,-244.5 442.94,-251.5"/>
<text xml:space="preserve" text-anchor="middle" x="363" y="-250.5" font-family="Helvetica,sans-Serif" font-size="10.00">isFiledAgainst</text>
</g>
<!-- n3765645689053659761 -->
<g id="node6" class="node">
<title>n3765645689053659761</title>
<g id="a_node6"><a xlink:title="Tema">
<path fill="#dcfce7" stroke="#15803d" d="M602.25,-381C602.25,-381 572.25,-381 572.25,-381 566.25,-381 560.25,-375 560.25,-369 560.25,-369 560.25,-357 560.25,-357 560.25,-351 566.25,-345 572.25,-345 572.25,-345 602.25,-345 602.25,-345 608.25,-345 614.25,-351 614.25,-357 614.25,-357 614.25,-369 614.25,-369 614.25,-375 608.25,-381 602.25,-381"/>
<text xml:space="preserve" text-anchor="middle" x="587.25" y="-358.73" font-family="Helvetica,sans-Serif" font-size="12.00">Tema</text>
</a>
</g>
</g>
<!-- n8981691430180067879 -->
<g id="node7" class="node">
<title>n8981691430180067879</title>
<g id="a_node7"><a xlink:title="Theme Thesis">
<path fill="#ecfccb" stroke="#4d7c0f" d="M177.5,-381C177.5,-381 109,-381 109,-381 103,-381 97,-375 97,-369 97,-369 97,-357 97,-357 97,-351 103,-345 109,-345 109,-345 177.5,-345 177.5,-345 183.5,-345 189.5,-351 189.5,-357 189.5,-357 189.5,-369 189.5,-369 189.5,-375 183.5,-381 177.5,-381"/>
<text xml:space="preserve" text-anchor="middle" x="143.25" y="-358.73" font-family="Helvetica,sans-Serif" font-size="12.00">Theme Thesis</text>
</a>
</g>
</g>
<!-- n8981691430180067879&#45;&gt;n3765645689053659761 -->
<g id="edge4" class="edge">
<title>n8981691430180067879&#45;&gt;n3765645689053659761</title>
<path fill="none" stroke="#334155" stroke-width="1.6" d="M189.93,-363C189.93,-363 547.4,-363 547.4,-363"/>
<polygon fill="#334155" stroke="#334155" stroke-width="1.6" points="547.4,-366.5 557.4,-363 547.4,-359.5 547.4,-366.5"/>
<text xml:space="preserve" text-anchor="middle" x="363" y="-371.5" font-family="Helvetica,sans-Serif" font-size="10.00">hasTheme</text>
</g>
</g>
</svg>
